<svg width="44" height="44" fill="none" xmlns="http://www.w3.org/2000/svg"><path fill-rule="evenodd" clip-rule="evenodd" d="M43 22c0 11.598-9.402 21-21 21S1 33.598 1 22 10.402 1 22 1s21 9.402 21 21zm1 0c0 12.15-9.85 22-22 22S0 34.15 0 22 9.85 0 22 0s22 9.85 22 22zm-19.69 8.49v3.22h1.09v-3.38c.153.187.31.363.47.53.16.167.313.313.46.44.04-.073.1-.16.18-.26.087-.107.173-.21.26-.31l.19.86c.307-.047.69-.11 1.15-.19.46-.087.93-.177 1.41-.27v2.58h1.12v-2.82c.233-.053.447-.1.64-.14.193-.047.363-.09.51-.13l-.07-1.09c-.113.04-.263.083-.45.13-.187.04-.397.087-.63.14v-5.15h-1.12v2.07a11.575 11.575 0 00-.68-.62 5.55 5.55 0 00-.74-.57l-.73.76c.247.147.497.337.75.57.253.233.473.447.66.64.047-.067.113-.147.2-.24l.28-.28c.1-.1.187-.18.26-.24v3.28c-.453.087-.907.17-1.36.25-.453.073-.847.13-1.18.17a7.289 7.289 0 01-.53-.44c-.2-.18-.397-.367-.59-.56-.187-.2-.34-.373-.46-.52v-.1h1.47v-1.03H25.4v-3.13h-1.09v3.13h-1.74v1.03h1.6c-.153.3-.34.61-.56.93-.22.313-.453.61-.7.89a6.17 6.17 0 01-.7.69 2.3 2.3 0 01.43.32c.153.14.277.27.37.39.213-.193.43-.423.65-.69.227-.267.443-.553.65-.86zm3.54-1.45c.26.22.483.427.67.62a4.01 4.01 0 01.21-.26 6.09 6.09 0 01.28-.3c.093-.1.173-.177.24-.23a7.647 7.647 0 00-.45-.39 7.933 7.933 0 00-.52-.42c-.18-.14-.35-.26-.51-.36l-.69.78c.253.147.51.333.77.56zM26 27.34c.187.08.333.15.44.21.053-.093.117-.22.19-.38.073-.167.147-.343.22-.53.073-.193.14-.377.2-.55.067-.18.113-.33.14-.45l-.95-.28a5.16 5.16 0 01-.17.61c-.08.233-.17.46-.27.68a6.635 6.635 0 01-.25.52c.113.027.263.083.45.17zm-2.99-.38c.08.22.137.41.17.57.093-.053.24-.117.44-.19s.367-.123.5-.15a4.351 4.351 0 00-.18-.56 8.706 8.706 0 00-.27-.69 3.978 3.978 0 00-.26-.55l-.91.36c.087.14.173.32.26.54.093.22.177.443.25.67zm-2.51 6.82c-.093-.173-.22-.387-.38-.64-.153-.253-.32-.507-.5-.76a5.665 5.665 0 00-.5-.64l.8-.58h-7.1v-.99h1.1v-1.35h-1.47v-1h1.47v-1.03c-.14.153-.277.297-.41.43-.133.133-.26.247-.38.34a3.818 3.818 0 00-.43-.38 2.457 2.457 0 00-.47-.31c.18-.14.367-.31.56-.51.193-.207.38-.423.56-.65.187-.233.35-.46.49-.68.14-.22.243-.413.31-.58l1.13.35a6.48 6.48 0 01-.41.73h6.18v.99h-.95v1.3h1.44v1H20.1v1.35h1.14v.99H20c.173.18.353.39.54.63.193.24.377.48.55.72.173.24.313.453.42.64-.16.067-.34.163-.54.29a5.95 5.95 0 00-.47.34zm-7.12.03a3.01 3.01 0 00-.99-.6c.167-.147.34-.33.52-.55.18-.22.35-.453.51-.7.167-.247.3-.483.4-.71l1.03.49c-.12.247-.263.5-.43.76a9.98 9.98 0 01-.52.72c-.18.227-.353.423-.52.59zm4.36-.11a7.872 7.872 0 00-.13-.68 13.797 13.797 0 00-.18-.75 4.574 4.574 0 00-.19-.63l1.07-.29c.067.153.137.357.21.61.073.247.14.5.2.76.067.26.117.493.15.7-.147.02-.337.057-.57.11-.227.053-.413.11-.56.17zm-2.09.05a8.506 8.506 0 00-.08-.67 24.38 24.38 0 00-.13-.75 7.36 7.36 0 00-.14-.63l1.08-.22c.06.167.117.373.17.62.06.247.11.5.15.76.047.26.077.487.09.68-.093.007-.21.02-.35.04l-.43.08c-.14.027-.26.057-.36.09zm-.67-3.58h.64v-1.35h-.64v1.35zm3.41 0h.64v-1.35h-.64v1.35zm-1.7 0h.63v-1.35h-.63v1.35zm-1.71-2.35h.64v-1.3h-.64v1.3zm3.41 0h.64v-1.3h-.64v1.3zm-1.7 0h.63v-1.3h-.63v1.3zm12.62-10.33v3.22h1.09v-3.38c.153.187.31.363.47.53.16.167.313.313.46.44.04-.073.1-.16.18-.26.087-.107.173-.21.26-.31l.19.86c.307-.047.69-.11 1.15-.19.46-.087.93-.177 1.41-.27v2.58h1.12v-2.82c.233-.053.447-.1.64-.14.193-.047.363-.09.51-.13l-.07-1.09c-.113.04-.263.083-.45.13-.187.04-.397.087-.63.14v-5.15h-1.12v2.07a11.575 11.575 0 00-.68-.62 5.55 5.55 0 00-.74-.57l-.73.76c.247.147.497.337.75.57.253.233.473.447.66.64.047-.067.113-.147.2-.24l.28-.28c.1-.1.187-.18.26-.24v3.28c-.453.087-.907.17-1.36.25-.453.073-.847.13-1.18.17a7.289 7.289 0 01-.53-.44c-.2-.18-.397-.367-.59-.56-.187-.2-.34-.373-.46-.52v-.1h1.47v-1.03H30.4v-3.13h-1.09v3.13h-1.74v1.03h1.6c-.153.3-.34.61-.56.93-.22.313-.453.61-.7.89a6.17 6.17 0 01-.7.69 2.3 2.3 0 01.43.32c.153.14.277.27.37.39.213-.193.43-.423.65-.69.227-.267.443-.553.65-.86zm3.54-1.45c.26.22.483.427.67.62a4.01 4.01 0 01.21-.26 6.09 6.09 0 01.28-.3c.093-.1.173-.177.24-.23a7.647 7.647 0 00-.45-.39 7.933 7.933 0 00-.52-.42c-.18-.14-.35-.26-.51-.36l-.69.78c.253.147.51.333.77.56zM31 14.34c.187.08.333.15.44.21.053-.093.117-.22.19-.38.073-.167.147-.343.22-.53.073-.193.14-.377.2-.55.067-.18.113-.33.14-.45l-.95-.28a5.16 5.16 0 01-.17.61c-.08.233-.17.46-.27.68a6.635 6.635 0 01-.25.52c.113.027.263.083.45.17zm-2.99-.38c.08.22.137.41.17.57.093-.053.24-.117.44-.19s.367-.123.5-.15a4.351 4.351 0 00-.18-.56 8.706 8.706 0 00-.27-.69 3.978 3.978 0 00-.26-.55l-.91.36c.087.14.173.32.26.54.093.22.177.443.25.67zm-6.14 6.53v-3.55h1.49v-1.41H21.3V14.5h2.06v-1.28l-.87.1c-.28.027-.543.047-.79.06a2.08 2.08 0 00-.14-.5 3.524 3.524 0 00-.22-.51c.34 0 .71-.017 1.11-.05.407-.04.814-.09 1.22-.15.407-.06.79-.13 1.15-.21.36-.087.663-.18.91-.28l.72.9c-.26.087-.556.17-.89.25-.326.073-.666.143-1.02.21v1.46h2.15v1.03h-2.15v1.41h1.55v3.55h-4.22zm-4.04.02v-2.88h3.24v2.88h-3.24zm-.42-6.21v-.91h3.91v.91h-3.91zm5.64 5.17h1.86v-1.51h-1.86v1.51zM17.9 12.9v-.94h2.98v.94H17.9zm-.01 4.22v-.92h2.99v.92h-2.99zm0-1.41v-.92h2.99v.92h-2.99zm1.01 3.88H20v-1.04h-1.1v1.04zm-4.72-.95c.033.2.056.373.07.52h.55c.393 0 .686-.073.88-.22.193-.153.29-.4.29-.74v-4.22h-1.9l-.14-.1a2.194 2.194 0 00-.13-.1l.64-.51c.233-.18.457-.357.67-.53.213-.173.393-.327.54-.46l-.4-.46h-4.83v.87h1.5l-.49.6c.153.073.323.173.51.3.193.12.386.25.58.39h-2.05v5.16h1.09v-1.62h1.1v1.47h1.09v-1.47h1.12v.34c0 .127-.027.21-.08.25-.047.04-.133.06-.26.06h-.46c.04.113.076.27.11.47zm-2.98 1.85c.48.073 1.073.11 1.78.11h.78c.306 0 .627-.003.96-.01.34 0 .66-.003.96-.01h.73a4.916 4.916 0 01.15-.84c.04-.153.076-.267.11-.34-.38.053-.877.093-1.49.12a51.16 51.16 0 01-2.2.04c-1.007 0-1.777-.063-2.31-.19-.527-.133-.85-.363-.97-.69v-3.42H7.5v1.04h1.11v2.53a4.51 4.51 0 01-.4.23c-.167.08-.337.157-.51.23a6.24 6.24 0 01-.42.17l.46 1.13c.14-.08.3-.177.48-.29a12.186 12.186 0 001-.66 2.6 2.6 0 00.79.53c.313.147.71.253 1.19.32zm-2.42-6.9c.186.207.336.393.45.56a7.23 7.23 0 01.58-.57c.113-.1.203-.173.27-.22a6.614 6.614 0 00-.47-.53 9.07 9.07 0 00-.63-.61 4.47 4.47 0 00-.57-.45l-.79.74c.173.12.363.28.57.48.206.193.403.393.59.6zm6.09 3.12h-1.12v-.53h1.12v.53zm0-1.34h-1.12v-.53h1.12v.53zm-2.21 1.34h-1.1v-.53h1.1v.53zm0-1.34h-1.1v-.53h1.1v.53zm.8-2.42l-.4.32c-.167-.113-.334-.22-.5-.32a9.13 9.13 0 00-.44-.26h1.67c-.087.067-.197.153-.33.26z" fill="#EA5404"/></svg>