<svg width="17" height="18" fill="none" xmlns="http://www.w3.org/2000/svg"><path fill-rule="evenodd" clip-rule="evenodd" d="M8.359 2.94c-.253 1.435-1.28 2.454-2.293 2.275-1.013-.179-1.629-1.487-1.376-2.922C4.943.857 5.97-.162 6.983.016c1.013.18 1.63 1.488 1.376 2.923zM2.031 8.36c1.029-.02 1.838-1.22 1.808-2.676-.03-1.457-.889-2.622-1.917-2.6C.894 3.106.083 4.305.114 5.76c.03 1.457.888 2.622 1.917 2.6zm13.837.177c.527-1.36.176-2.762-.783-3.134-.96-.372-2.164.428-2.69 1.787-.528 1.359-.177 2.762.782 3.134.96.372 2.164-.428 2.691-1.787zM10.486 5.91c1.013.178 2.04-.84 2.292-2.276.253-1.436-.363-2.744-1.376-2.923-1.012-.178-2.04.84-2.294 2.276-.253 1.435.364 2.744 1.378 2.923zm-2.271-.002c.924.179 1.772.691 2.31 1.471.403.584.585 1.26.767 1.936.12.442.238.885.42 1.302.181.418.434.819.687 1.22.652 1.034 1.303 2.068.73 3.377-.755 1.725-3.187 2.607-4.828 1.638a6.365 6.365 0 01-.526-.36c-.294-.216-.587-.432-.93-.551a2.785 2.785 0 00-.775-.137c-.363-.005-.712.097-1.063.2-.204.06-.409.12-.617.158-1.873.35-3.857-1.311-3.976-3.19-.091-1.426.874-2.175 1.84-2.924.375-.29.75-.58 1.064-.91.314-.332.578-.708.842-1.084.401-.572.802-1.143 1.38-1.554.772-.549 1.744-.74 2.675-.592z" fill="#EA5404"/></svg>