<svg width="32" height="43" viewBox="0 0 32 43" fill="none" xmlns="http://www.w3.org/2000/svg">
<mask id="path-1-outside-1_247_16954" maskUnits="userSpaceOnUse" x="0" y="0" width="32" height="43" fill="black">
<rect fill="white" width="32" height="43"/>
<path d="M5.34051 29.6436L4.91371 29.438C4.79186 29.3791 4.65918 29.344 4.52326 29.3347C4.38734 29.3254 4.25085 29.3421 4.12161 29.3838C3.99237 29.4255 3.87293 29.4913 3.77012 29.5776C3.66731 29.6639 3.58315 29.7689 3.52247 29.8866L1.10827 34.5603C0.986024 34.798 0.966454 35.0727 1.05385 35.3242C1.14125 35.5758 1.32849 35.7836 1.57448 35.9021L15.3151 42.5101C15.4587 42.5788 15.6167 42.6148 15.777 42.6153C15.9701 42.6158 16.1595 42.5642 16.3237 42.4662C16.488 42.3682 16.6205 42.2278 16.7063 42.0608L19.1193 37.3871C19.2414 37.1495 19.261 36.8749 19.1737 36.6234C19.0865 36.372 18.8995 36.1641 18.6537 36.0453L18.1961 35.8249C18.4221 35.3744 18.5853 35.0387 18.6888 34.8081C19.0583 34.0071 19.2677 33.8633 19.6206 33.625C19.9322 33.414 20.3202 33.1496 20.893 32.4757C21.5287 31.7214 22.1247 30.9368 22.679 30.1249H25.8107C26.0857 30.1245 26.3493 30.0188 26.5437 29.8311C26.7381 29.6434 26.8475 29.389 26.8478 29.1236V23.2781C27.1895 23.2712 27.5205 23.1619 27.795 22.9655L29.3926 21.9268L29.4098 21.9149C29.5846 21.7883 29.7319 21.6298 29.8431 21.4482C29.9544 21.2667 30.0274 21.0658 30.0581 20.857C30.0889 20.6483 30.0766 20.4357 30.0221 20.2315C29.9676 20.0272 29.8719 19.8354 29.7405 19.6669L29.4246 19.261C29.2768 19.0721 29.0875 18.9171 28.8703 18.807L30.3355 17.7665C30.5102 17.6399 30.6574 17.4814 30.7685 17.2999C30.8797 17.1185 30.9528 16.9176 30.9835 16.7089C31.0142 16.5002 31.002 16.2877 30.9475 16.0835C30.8931 15.8794 30.7975 15.6876 30.6662 15.5191L30.3502 15.1126C30.265 15.0034 30.1657 14.9052 30.0546 14.8203C30.35 14.5494 30.532 14.1832 30.5661 13.7914C30.6002 13.3995 30.4839 13.0092 30.2394 12.6947L29.9234 12.2888C29.7678 12.0901 29.5666 11.9288 29.3356 11.8175C29.1046 11.7063 28.8501 11.6481 28.5919 11.6476C28.2329 11.6465 27.8834 11.7588 27.5967 11.9673L26.8515 12.4962V10.3652C26.979 10.317 27.0995 10.2531 27.2099 10.1751L28.4835 9.31877C28.6583 9.19221 28.8054 9.03368 28.9166 8.85222C29.0278 8.67075 29.1009 8.46991 29.1316 8.2612C29.1623 8.05248 29.1501 7.83997 29.0956 7.63581C29.0412 7.43165 28.9456 7.23985 28.8143 7.07137L28.4983 6.66549C28.3122 6.42343 28.0585 6.23754 27.7668 6.12956C27.4752 6.02159 27.1577 5.996 26.8515 6.0558V2.0013C26.8512 1.73594 26.7418 1.48154 26.5474 1.29384C26.353 1.10615 26.0894 1.00047 25.8144 1H10.8266C10.5515 1.00031 10.2878 1.10591 10.0932 1.29362C9.89867 1.48134 9.78924 1.73584 9.78891 2.0013V7.6145C9.44772 7.34233 9.0819 7.17 8.7093 7.11949C8.48239 7.08741 8.25093 7.10448 8.0317 7.16944C7.81248 7.2344 7.61099 7.34562 7.44184 7.49505C6.7687 8.06731 6.78102 9.37583 6.79703 11.0326C6.80442 11.767 6.81181 12.5259 6.75269 13.2313C6.55931 15.5488 5.89048 17.5478 5.30479 19.3127C4.35758 22.1574 3.53971 24.6139 5.33065 26.8982C5.4723 27.0765 6.0623 28.2465 5.44644 29.4386L5.34051 29.6436ZM18.3852 37.0342L15.9716 41.7067C15.9536 41.7416 15.9259 41.771 15.8915 41.7915C15.8571 41.812 15.8174 41.8227 15.777 41.8226C15.7438 41.8227 15.7111 41.8152 15.6815 41.8006L1.94031 35.1932C1.88917 35.1685 1.85028 35.1252 1.83216 35.0728C1.81404 35.0205 1.81816 34.9633 1.84362 34.9139L4.2572 30.2402C4.27526 30.2055 4.30297 30.1763 4.33723 30.156C4.3715 30.1356 4.41096 30.1249 4.45119 30.1249C4.48457 30.1249 4.51749 30.1324 4.54727 30.1469L18.2879 36.7543C18.3392 36.779 18.3782 36.8224 18.3964 36.8748C18.4147 36.9273 18.4106 36.9846 18.3852 37.0342ZM25.815 29.3328H10.8266C10.7693 29.3326 10.7143 29.3105 10.6738 29.2713C10.6332 29.2321 10.6105 29.179 10.6105 29.1236V25.6663H26.0312V29.1236C26.0312 29.179 26.0084 29.2321 25.9679 29.2713C25.9274 29.3105 25.8724 29.3326 25.815 29.3328ZM28.7712 19.737L29.0877 20.1429C29.2207 20.3142 29.2784 20.5292 29.2483 20.7413C29.2182 20.9534 29.1028 21.1455 28.927 21.2761L27.3313 22.3142L27.314 22.3255C27.2255 22.3897 27.1248 22.4364 27.0177 22.463C26.9105 22.4897 26.7989 22.4956 26.6893 22.4806C26.5797 22.4656 26.4743 22.4299 26.379 22.3756C26.2837 22.3212 26.2005 22.2493 26.134 22.1639L25.8181 21.758C25.6847 21.5869 25.6267 21.3718 25.6567 21.1596C25.6867 20.9475 25.8022 20.7553 25.9782 20.6248L26.3736 20.3675C26.6351 20.3259 26.8823 20.224 27.0942 20.0704L28.0118 19.4167C28.1564 19.4023 28.3025 19.4243 28.4357 19.4804C28.569 19.5365 28.685 19.6249 28.7724 19.737H28.7712ZM30.1716 16.5976C30.1566 16.703 30.1201 16.8046 30.0643 16.8963C30.0085 16.9881 29.9345 17.0683 29.8465 17.1324L26.6045 19.4351C26.5161 19.4993 26.4154 19.546 26.3082 19.5726C26.201 19.5993 26.0894 19.6052 25.9798 19.5902C25.8702 19.5752 25.7648 19.5395 25.6695 19.4852C25.5742 19.4308 25.491 19.3589 25.4245 19.2735L25.1086 18.8676C24.9746 18.6958 24.9167 18.4798 24.9474 18.2669C24.9781 18.054 25.095 17.8614 25.2724 17.7314L25.5188 17.5579C25.5699 17.5621 25.6204 17.5662 25.6721 17.5662C26.0311 17.5671 26.3805 17.4549 26.6674 17.2465L29.3612 15.3331C29.4941 15.3891 29.6096 15.4776 29.6962 15.5898L30.0127 15.9963C30.0793 16.0813 30.1277 16.1783 30.1551 16.2815C30.1826 16.3847 30.1887 16.4922 30.1729 16.5976H30.1716ZM28.0863 12.6025C28.1748 12.5384 28.2756 12.4917 28.3828 12.4652C28.49 12.4386 28.6016 12.4327 28.7111 12.4477C28.8207 12.4628 28.9262 12.4986 29.0214 12.553C29.1167 12.6074 29.1999 12.6793 29.2663 12.7648L29.5823 13.1701C29.716 13.3421 29.7738 13.5582 29.743 13.7712C29.7122 13.9842 29.5953 14.1767 29.4178 14.3068L26.1759 16.6095C26.0875 16.6738 25.9868 16.7206 25.8796 16.7472C25.7724 16.7739 25.6608 16.7799 25.5511 16.7648C25.4415 16.7498 25.3361 16.7141 25.2408 16.6597C25.1455 16.6053 25.0623 16.5334 24.9959 16.4479L24.6793 16.0414C24.5455 15.8697 24.4876 15.6537 24.5185 15.4409C24.5493 15.228 24.6663 15.0356 24.8438 14.9058L28.0863 12.6025ZM24.3542 14.27C24.1793 14.3966 24.0321 14.5551 23.9209 14.7366C23.8096 14.9182 23.7365 15.1191 23.7058 15.3278C23.6751 15.5366 23.6873 15.7492 23.7418 15.9534C23.7963 16.1577 23.892 16.3495 24.0234 16.518L24.34 16.9239C24.4254 17.033 24.5247 17.1312 24.6356 17.2162C24.34 17.4872 24.1579 17.8534 24.1239 18.2454C24.0898 18.6374 24.2062 19.0278 24.4509 19.3424L24.7668 19.7477C24.9029 19.9228 25.0748 20.0693 25.2718 20.1779C25.0062 20.4536 24.8496 20.8106 24.8292 21.1864C24.8088 21.5623 24.926 21.9331 25.1603 22.234L25.4763 22.6399C25.624 22.8287 25.8133 22.9836 26.0305 23.0933V24.876H10.6105V4.07876H26.0312V6.43671L24.9084 7.192C24.7336 7.31856 24.5864 7.47713 24.4751 7.65864C24.3639 7.84016 24.2908 8.04106 24.2601 8.24985C24.2294 8.45864 24.2416 8.67121 24.2961 8.87543C24.3506 9.07965 24.4463 9.27149 24.5777 9.44L24.8937 9.84587C25.0287 10.0205 25.1994 10.1666 25.3953 10.275C25.5912 10.3835 25.808 10.452 26.0324 10.4764V13.0797L24.3542 14.27ZM27.8418 7.1391L28.1578 7.54557C28.2903 7.71594 28.3482 7.92968 28.319 8.14083C28.2899 8.35197 28.176 8.54365 28.0019 8.67463L26.7296 9.5333C26.5507 9.66263 26.3259 9.71825 26.1046 9.68795C25.8833 9.65765 25.6835 9.54391 25.5489 9.37167L25.233 8.9658C25.1003 8.79556 25.0422 8.58182 25.0712 8.37063C25.1002 8.15944 25.2141 7.96771 25.3882 7.83674L26.6624 6.97807C26.8412 6.84861 27.0658 6.79292 27.2871 6.82322C27.5084 6.85353 27.7075 6.96677 27.8418 7.1391ZM10.826 1.79094H25.815C25.8723 1.79094 25.9273 1.81291 25.9679 1.85203C26.0084 1.89115 26.0312 1.9442 26.0312 1.99952V3.28606H10.6105V1.99952C10.6105 1.97213 10.6161 1.945 10.6269 1.91969C10.6378 1.89439 10.6537 1.8714 10.6738 1.85203C10.6939 1.83266 10.7177 1.81731 10.7439 1.80682C10.7701 1.79634 10.7976 1.79094 10.826 1.79094ZM6.08386 19.5552C6.68494 17.7487 7.36671 15.7021 7.5681 13.2948C7.62968 12.5526 7.62229 11.7754 7.6149 11.0237C7.6032 9.80369 7.59027 8.42088 7.98442 8.08751C8.0648 8.01382 8.16159 7.95887 8.26738 7.92683C8.37316 7.8948 8.48514 7.88655 8.59475 7.90271C8.98705 7.9556 9.42555 8.28301 9.78829 8.78455V29.1236C9.78862 29.3891 9.89806 29.6436 10.0926 29.8313C10.2871 30.019 10.5509 30.1246 10.826 30.1249H21.6955C21.2366 30.7691 20.7563 31.3889 20.2605 31.9748C19.7647 32.5607 19.4371 32.7836 19.1519 32.9761C18.6851 33.2916 18.3766 33.5335 17.9399 34.4878C17.8401 34.7053 17.6788 35.0369 17.4614 35.4719L6.07524 29.9966L6.18117 29.7921C6.91589 28.3695 6.36593 26.9059 5.98594 26.4198C4.45181 24.4642 5.13912 22.4051 6.08694 19.5552H6.08386Z"/>
</mask>
<path d="M5.34051 29.6436L4.91371 29.438C4.79186 29.3791 4.65918 29.344 4.52326 29.3347C4.38734 29.3254 4.25085 29.3421 4.12161 29.3838C3.99237 29.4255 3.87293 29.4913 3.77012 29.5776C3.66731 29.6639 3.58315 29.7689 3.52247 29.8866L1.10827 34.5603C0.986024 34.798 0.966454 35.0727 1.05385 35.3242C1.14125 35.5758 1.32849 35.7836 1.57448 35.9021L15.3151 42.5101C15.4587 42.5788 15.6167 42.6148 15.777 42.6153C15.9701 42.6158 16.1595 42.5642 16.3237 42.4662C16.488 42.3682 16.6205 42.2278 16.7063 42.0608L19.1193 37.3871C19.2414 37.1495 19.261 36.8749 19.1737 36.6234C19.0865 36.372 18.8995 36.1641 18.6537 36.0453L18.1961 35.8249C18.4221 35.3744 18.5853 35.0387 18.6888 34.8081C19.0583 34.0071 19.2677 33.8633 19.6206 33.625C19.9322 33.414 20.3202 33.1496 20.893 32.4757C21.5287 31.7214 22.1247 30.9368 22.679 30.1249H25.8107C26.0857 30.1245 26.3493 30.0188 26.5437 29.8311C26.7381 29.6434 26.8475 29.389 26.8478 29.1236V23.2781C27.1895 23.2712 27.5205 23.1619 27.795 22.9655L29.3926 21.9268L29.4098 21.9149C29.5846 21.7883 29.7319 21.6298 29.8431 21.4482C29.9544 21.2667 30.0274 21.0658 30.0581 20.857C30.0889 20.6483 30.0766 20.4357 30.0221 20.2315C29.9676 20.0272 29.8719 19.8354 29.7405 19.6669L29.4246 19.261C29.2768 19.0721 29.0875 18.9171 28.8703 18.807L30.3355 17.7665C30.5102 17.6399 30.6574 17.4814 30.7685 17.2999C30.8797 17.1185 30.9528 16.9176 30.9835 16.7089C31.0142 16.5002 31.002 16.2877 30.9475 16.0835C30.8931 15.8794 30.7975 15.6876 30.6662 15.5191L30.3502 15.1126C30.265 15.0034 30.1657 14.9052 30.0546 14.8203C30.35 14.5494 30.532 14.1832 30.5661 13.7914C30.6002 13.3995 30.4839 13.0092 30.2394 12.6947L29.9234 12.2888C29.7678 12.0901 29.5666 11.9288 29.3356 11.8175C29.1046 11.7063 28.8501 11.6481 28.5919 11.6476C28.2329 11.6465 27.8834 11.7588 27.5967 11.9673L26.8515 12.4962V10.3652C26.979 10.317 27.0995 10.2531 27.2099 10.1751L28.4835 9.31877C28.6583 9.19221 28.8054 9.03368 28.9166 8.85222C29.0278 8.67075 29.1009 8.46991 29.1316 8.2612C29.1623 8.05248 29.1501 7.83997 29.0956 7.63581C29.0412 7.43165 28.9456 7.23985 28.8143 7.07137L28.4983 6.66549C28.3122 6.42343 28.0585 6.23754 27.7668 6.12956C27.4752 6.02159 27.1577 5.996 26.8515 6.0558V2.0013C26.8512 1.73594 26.7418 1.48154 26.5474 1.29384C26.353 1.10615 26.0894 1.00047 25.8144 1H10.8266C10.5515 1.00031 10.2878 1.10591 10.0932 1.29362C9.89867 1.48134 9.78924 1.73584 9.78891 2.0013V7.6145C9.44772 7.34233 9.0819 7.17 8.7093 7.11949C8.48239 7.08741 8.25093 7.10448 8.0317 7.16944C7.81248 7.2344 7.61099 7.34562 7.44184 7.49505C6.7687 8.06731 6.78102 9.37583 6.79703 11.0326C6.80442 11.767 6.81181 12.5259 6.75269 13.2313C6.55931 15.5488 5.89048 17.5478 5.30479 19.3127C4.35758 22.1574 3.53971 24.6139 5.33065 26.8982C5.4723 27.0765 6.0623 28.2465 5.44644 29.4386L5.34051 29.6436ZM18.3852 37.0342L15.9716 41.7067C15.9536 41.7416 15.9259 41.771 15.8915 41.7915C15.8571 41.812 15.8174 41.8227 15.777 41.8226C15.7438 41.8227 15.7111 41.8152 15.6815 41.8006L1.94031 35.1932C1.88917 35.1685 1.85028 35.1252 1.83216 35.0728C1.81404 35.0205 1.81816 34.9633 1.84362 34.9139L4.2572 30.2402C4.27526 30.2055 4.30297 30.1763 4.33723 30.156C4.3715 30.1356 4.41096 30.1249 4.45119 30.1249C4.48457 30.1249 4.51749 30.1324 4.54727 30.1469L18.2879 36.7543C18.3392 36.779 18.3782 36.8224 18.3964 36.8748C18.4147 36.9273 18.4106 36.9846 18.3852 37.0342ZM25.815 29.3328H10.8266C10.7693 29.3326 10.7143 29.3105 10.6738 29.2713C10.6332 29.2321 10.6105 29.179 10.6105 29.1236V25.6663H26.0312V29.1236C26.0312 29.179 26.0084 29.2321 25.9679 29.2713C25.9274 29.3105 25.8724 29.3326 25.815 29.3328ZM28.7712 19.737L29.0877 20.1429C29.2207 20.3142 29.2784 20.5292 29.2483 20.7413C29.2182 20.9534 29.1028 21.1455 28.927 21.2761L27.3313 22.3142L27.314 22.3255C27.2255 22.3897 27.1248 22.4364 27.0177 22.463C26.9105 22.4897 26.7989 22.4956 26.6893 22.4806C26.5797 22.4656 26.4743 22.4299 26.379 22.3756C26.2837 22.3212 26.2005 22.2493 26.134 22.1639L25.8181 21.758C25.6847 21.5869 25.6267 21.3718 25.6567 21.1596C25.6867 20.9475 25.8022 20.7553 25.9782 20.6248L26.3736 20.3675C26.6351 20.3259 26.8823 20.224 27.0942 20.0704L28.0118 19.4167C28.1564 19.4023 28.3025 19.4243 28.4357 19.4804C28.569 19.5365 28.685 19.6249 28.7724 19.737H28.7712ZM30.1716 16.5976C30.1566 16.703 30.1201 16.8046 30.0643 16.8963C30.0085 16.9881 29.9345 17.0683 29.8465 17.1324L26.6045 19.4351C26.5161 19.4993 26.4154 19.546 26.3082 19.5726C26.201 19.5993 26.0894 19.6052 25.9798 19.5902C25.8702 19.5752 25.7648 19.5395 25.6695 19.4852C25.5742 19.4308 25.491 19.3589 25.4245 19.2735L25.1086 18.8676C24.9746 18.6958 24.9167 18.4798 24.9474 18.2669C24.9781 18.054 25.095 17.8614 25.2724 17.7314L25.5188 17.5579C25.5699 17.5621 25.6204 17.5662 25.6721 17.5662C26.0311 17.5671 26.3805 17.4549 26.6674 17.2465L29.3612 15.3331C29.4941 15.3891 29.6096 15.4776 29.6962 15.5898L30.0127 15.9963C30.0793 16.0813 30.1277 16.1783 30.1551 16.2815C30.1826 16.3847 30.1887 16.4922 30.1729 16.5976H30.1716ZM28.0863 12.6025C28.1748 12.5384 28.2756 12.4917 28.3828 12.4652C28.49 12.4386 28.6016 12.4327 28.7111 12.4477C28.8207 12.4628 28.9262 12.4986 29.0214 12.553C29.1167 12.6074 29.1999 12.6793 29.2663 12.7648L29.5823 13.1701C29.716 13.3421 29.7738 13.5582 29.743 13.7712C29.7122 13.9842 29.5953 14.1767 29.4178 14.3068L26.1759 16.6095C26.0875 16.6738 25.9868 16.7206 25.8796 16.7472C25.7724 16.7739 25.6608 16.7799 25.5511 16.7648C25.4415 16.7498 25.3361 16.7141 25.2408 16.6597C25.1455 16.6053 25.0623 16.5334 24.9959 16.4479L24.6793 16.0414C24.5455 15.8697 24.4876 15.6537 24.5185 15.4409C24.5493 15.228 24.6663 15.0356 24.8438 14.9058L28.0863 12.6025ZM24.3542 14.27C24.1793 14.3966 24.0321 14.5551 23.9209 14.7366C23.8096 14.9182 23.7365 15.1191 23.7058 15.3278C23.6751 15.5366 23.6873 15.7492 23.7418 15.9534C23.7963 16.1577 23.892 16.3495 24.0234 16.518L24.34 16.9239C24.4254 17.033 24.5247 17.1312 24.6356 17.2162C24.34 17.4872 24.1579 17.8534 24.1239 18.2454C24.0898 18.6374 24.2062 19.0278 24.4509 19.3424L24.7668 19.7477C24.9029 19.9228 25.0748 20.0693 25.2718 20.1779C25.0062 20.4536 24.8496 20.8106 24.8292 21.1864C24.8088 21.5623 24.926 21.9331 25.1603 22.234L25.4763 22.6399C25.624 22.8287 25.8133 22.9836 26.0305 23.0933V24.876H10.6105V4.07876H26.0312V6.43671L24.9084 7.192C24.7336 7.31856 24.5864 7.47713 24.4751 7.65864C24.3639 7.84016 24.2908 8.04106 24.2601 8.24985C24.2294 8.45864 24.2416 8.67121 24.2961 8.87543C24.3506 9.07965 24.4463 9.27149 24.5777 9.44L24.8937 9.84587C25.0287 10.0205 25.1994 10.1666 25.3953 10.275C25.5912 10.3835 25.808 10.452 26.0324 10.4764V13.0797L24.3542 14.27ZM27.8418 7.1391L28.1578 7.54557C28.2903 7.71594 28.3482 7.92968 28.319 8.14083C28.2899 8.35197 28.176 8.54365 28.0019 8.67463L26.7296 9.5333C26.5507 9.66263 26.3259 9.71825 26.1046 9.68795C25.8833 9.65765 25.6835 9.54391 25.5489 9.37167L25.233 8.9658C25.1003 8.79556 25.0422 8.58182 25.0712 8.37063C25.1002 8.15944 25.2141 7.96771 25.3882 7.83674L26.6624 6.97807C26.8412 6.84861 27.0658 6.79292 27.2871 6.82322C27.5084 6.85353 27.7075 6.96677 27.8418 7.1391ZM10.826 1.79094H25.815C25.8723 1.79094 25.9273 1.81291 25.9679 1.85203C26.0084 1.89115 26.0312 1.9442 26.0312 1.99952V3.28606H10.6105V1.99952C10.6105 1.97213 10.6161 1.945 10.6269 1.91969C10.6378 1.89439 10.6537 1.8714 10.6738 1.85203C10.6939 1.83266 10.7177 1.81731 10.7439 1.80682C10.7701 1.79634 10.7976 1.79094 10.826 1.79094ZM6.08386 19.5552C6.68494 17.7487 7.36671 15.7021 7.5681 13.2948C7.62968 12.5526 7.62229 11.7754 7.6149 11.0237C7.6032 9.80369 7.59027 8.42088 7.98442 8.08751C8.0648 8.01382 8.16159 7.95887 8.26738 7.92683C8.37316 7.8948 8.48514 7.88655 8.59475 7.90271C8.98705 7.9556 9.42555 8.28301 9.78829 8.78455V29.1236C9.78862 29.3891 9.89806 29.6436 10.0926 29.8313C10.2871 30.019 10.5509 30.1246 10.826 30.1249H21.6955C21.2366 30.7691 20.7563 31.3889 20.2605 31.9748C19.7647 32.5607 19.4371 32.7836 19.1519 32.9761C18.6851 33.2916 18.3766 33.5335 17.9399 34.4878C17.8401 34.7053 17.6788 35.0369 17.4614 35.4719L6.07524 29.9966L6.18117 29.7921C6.91589 28.3695 6.36593 26.9059 5.98594 26.4198C4.45181 24.4642 5.13912 22.4051 6.08694 19.5552H6.08386Z" fill="white"/>
<path d="M5.34051 29.6436L4.91371 29.438C4.79186 29.3791 4.65918 29.344 4.52326 29.3347C4.38734 29.3254 4.25085 29.3421 4.12161 29.3838C3.99237 29.4255 3.87293 29.4913 3.77012 29.5776C3.66731 29.6639 3.58315 29.7689 3.52247 29.8866L1.10827 34.5603C0.986024 34.798 0.966454 35.0727 1.05385 35.3242C1.14125 35.5758 1.32849 35.7836 1.57448 35.9021L15.3151 42.5101C15.4587 42.5788 15.6167 42.6148 15.777 42.6153C15.9701 42.6158 16.1595 42.5642 16.3237 42.4662C16.488 42.3682 16.6205 42.2278 16.7063 42.0608L19.1193 37.3871C19.2414 37.1495 19.261 36.8749 19.1737 36.6234C19.0865 36.372 18.8995 36.1641 18.6537 36.0453L18.1961 35.8249C18.4221 35.3744 18.5853 35.0387 18.6888 34.8081C19.0583 34.0071 19.2677 33.8633 19.6206 33.625C19.9322 33.414 20.3202 33.1496 20.893 32.4757C21.5287 31.7214 22.1247 30.9368 22.679 30.1249H25.8107C26.0857 30.1245 26.3493 30.0188 26.5437 29.8311C26.7381 29.6434 26.8475 29.389 26.8478 29.1236V23.2781C27.1895 23.2712 27.5205 23.1619 27.795 22.9655L29.3926 21.9268L29.4098 21.9149C29.5846 21.7883 29.7319 21.6298 29.8431 21.4482C29.9544 21.2667 30.0274 21.0658 30.0581 20.857C30.0889 20.6483 30.0766 20.4357 30.0221 20.2315C29.9676 20.0272 29.8719 19.8354 29.7405 19.6669L29.4246 19.261C29.2768 19.0721 29.0875 18.9171 28.8703 18.807L30.3355 17.7665C30.5102 17.6399 30.6574 17.4814 30.7685 17.2999C30.8797 17.1185 30.9528 16.9176 30.9835 16.7089C31.0142 16.5002 31.002 16.2877 30.9475 16.0835C30.8931 15.8794 30.7975 15.6876 30.6662 15.5191L30.3502 15.1126C30.265 15.0034 30.1657 14.9052 30.0546 14.8203C30.35 14.5494 30.532 14.1832 30.5661 13.7914C30.6002 13.3995 30.4839 13.0092 30.2394 12.6947L29.9234 12.2888C29.7678 12.0901 29.5666 11.9288 29.3356 11.8175C29.1046 11.7063 28.8501 11.6481 28.5919 11.6476C28.2329 11.6465 27.8834 11.7588 27.5967 11.9673L26.8515 12.4962V10.3652C26.979 10.317 27.0995 10.2531 27.2099 10.1751L28.4835 9.31877C28.6583 9.19221 28.8054 9.03368 28.9166 8.85222C29.0278 8.67075 29.1009 8.46991 29.1316 8.2612C29.1623 8.05248 29.1501 7.83997 29.0956 7.63581C29.0412 7.43165 28.9456 7.23985 28.8143 7.07137L28.4983 6.66549C28.3122 6.42343 28.0585 6.23754 27.7668 6.12956C27.4752 6.02159 27.1577 5.996 26.8515 6.0558V2.0013C26.8512 1.73594 26.7418 1.48154 26.5474 1.29384C26.353 1.10615 26.0894 1.00047 25.8144 1H10.8266C10.5515 1.00031 10.2878 1.10591 10.0932 1.29362C9.89867 1.48134 9.78924 1.73584 9.78891 2.0013V7.6145C9.44772 7.34233 9.0819 7.17 8.7093 7.11949C8.48239 7.08741 8.25093 7.10448 8.0317 7.16944C7.81248 7.2344 7.61099 7.34562 7.44184 7.49505C6.7687 8.06731 6.78102 9.37583 6.79703 11.0326C6.80442 11.767 6.81181 12.5259 6.75269 13.2313C6.55931 15.5488 5.89048 17.5478 5.30479 19.3127C4.35758 22.1574 3.53971 24.6139 5.33065 26.8982C5.4723 27.0765 6.0623 28.2465 5.44644 29.4386L5.34051 29.6436ZM18.3852 37.0342L15.9716 41.7067C15.9536 41.7416 15.9259 41.771 15.8915 41.7915C15.8571 41.812 15.8174 41.8227 15.777 41.8226C15.7438 41.8227 15.7111 41.8152 15.6815 41.8006L1.94031 35.1932C1.88917 35.1685 1.85028 35.1252 1.83216 35.0728C1.81404 35.0205 1.81816 34.9633 1.84362 34.9139L4.2572 30.2402C4.27526 30.2055 4.30297 30.1763 4.33723 30.156C4.3715 30.1356 4.41096 30.1249 4.45119 30.1249C4.48457 30.1249 4.51749 30.1324 4.54727 30.1469L18.2879 36.7543C18.3392 36.779 18.3782 36.8224 18.3964 36.8748C18.4147 36.9273 18.4106 36.9846 18.3852 37.0342ZM25.815 29.3328H10.8266C10.7693 29.3326 10.7143 29.3105 10.6738 29.2713C10.6332 29.2321 10.6105 29.179 10.6105 29.1236V25.6663H26.0312V29.1236C26.0312 29.179 26.0084 29.2321 25.9679 29.2713C25.9274 29.3105 25.8724 29.3326 25.815 29.3328ZM28.7712 19.737L29.0877 20.1429C29.2207 20.3142 29.2784 20.5292 29.2483 20.7413C29.2182 20.9534 29.1028 21.1455 28.927 21.2761L27.3313 22.3142L27.314 22.3255C27.2255 22.3897 27.1248 22.4364 27.0177 22.463C26.9105 22.4897 26.7989 22.4956 26.6893 22.4806C26.5797 22.4656 26.4743 22.4299 26.379 22.3756C26.2837 22.3212 26.2005 22.2493 26.134 22.1639L25.8181 21.758C25.6847 21.5869 25.6267 21.3718 25.6567 21.1596C25.6867 20.9475 25.8022 20.7553 25.9782 20.6248L26.3736 20.3675C26.6351 20.3259 26.8823 20.224 27.0942 20.0704L28.0118 19.4167C28.1564 19.4023 28.3025 19.4243 28.4357 19.4804C28.569 19.5365 28.685 19.6249 28.7724 19.737H28.7712ZM30.1716 16.5976C30.1566 16.703 30.1201 16.8046 30.0643 16.8963C30.0085 16.9881 29.9345 17.0683 29.8465 17.1324L26.6045 19.4351C26.5161 19.4993 26.4154 19.546 26.3082 19.5726C26.201 19.5993 26.0894 19.6052 25.9798 19.5902C25.8702 19.5752 25.7648 19.5395 25.6695 19.4852C25.5742 19.4308 25.491 19.3589 25.4245 19.2735L25.1086 18.8676C24.9746 18.6958 24.9167 18.4798 24.9474 18.2669C24.9781 18.054 25.095 17.8614 25.2724 17.7314L25.5188 17.5579C25.5699 17.5621 25.6204 17.5662 25.6721 17.5662C26.0311 17.5671 26.3805 17.4549 26.6674 17.2465L29.3612 15.3331C29.4941 15.3891 29.6096 15.4776 29.6962 15.5898L30.0127 15.9963C30.0793 16.0813 30.1277 16.1783 30.1551 16.2815C30.1826 16.3847 30.1887 16.4922 30.1729 16.5976H30.1716ZM28.0863 12.6025C28.1748 12.5384 28.2756 12.4917 28.3828 12.4652C28.49 12.4386 28.6016 12.4327 28.7111 12.4477C28.8207 12.4628 28.9262 12.4986 29.0214 12.553C29.1167 12.6074 29.1999 12.6793 29.2663 12.7648L29.5823 13.1701C29.716 13.3421 29.7738 13.5582 29.743 13.7712C29.7122 13.9842 29.5953 14.1767 29.4178 14.3068L26.1759 16.6095C26.0875 16.6738 25.9868 16.7206 25.8796 16.7472C25.7724 16.7739 25.6608 16.7799 25.5511 16.7648C25.4415 16.7498 25.3361 16.7141 25.2408 16.6597C25.1455 16.6053 25.0623 16.5334 24.9959 16.4479L24.6793 16.0414C24.5455 15.8697 24.4876 15.6537 24.5185 15.4409C24.5493 15.228 24.6663 15.0356 24.8438 14.9058L28.0863 12.6025ZM24.3542 14.27C24.1793 14.3966 24.0321 14.5551 23.9209 14.7366C23.8096 14.9182 23.7365 15.1191 23.7058 15.3278C23.6751 15.5366 23.6873 15.7492 23.7418 15.9534C23.7963 16.1577 23.892 16.3495 24.0234 16.518L24.34 16.9239C24.4254 17.033 24.5247 17.1312 24.6356 17.2162C24.34 17.4872 24.1579 17.8534 24.1239 18.2454C24.0898 18.6374 24.2062 19.0278 24.4509 19.3424L24.7668 19.7477C24.9029 19.9228 25.0748 20.0693 25.2718 20.1779C25.0062 20.4536 24.8496 20.8106 24.8292 21.1864C24.8088 21.5623 24.926 21.9331 25.1603 22.234L25.4763 22.6399C25.624 22.8287 25.8133 22.9836 26.0305 23.0933V24.876H10.6105V4.07876H26.0312V6.43671L24.9084 7.192C24.7336 7.31856 24.5864 7.47713 24.4751 7.65864C24.3639 7.84016 24.2908 8.04106 24.2601 8.24985C24.2294 8.45864 24.2416 8.67121 24.2961 8.87543C24.3506 9.07965 24.4463 9.27149 24.5777 9.44L24.8937 9.84587C25.0287 10.0205 25.1994 10.1666 25.3953 10.275C25.5912 10.3835 25.808 10.452 26.0324 10.4764V13.0797L24.3542 14.27ZM27.8418 7.1391L28.1578 7.54557C28.2903 7.71594 28.3482 7.92968 28.319 8.14083C28.2899 8.35197 28.176 8.54365 28.0019 8.67463L26.7296 9.5333C26.5507 9.66263 26.3259 9.71825 26.1046 9.68795C25.8833 9.65765 25.6835 9.54391 25.5489 9.37167L25.233 8.9658C25.1003 8.79556 25.0422 8.58182 25.0712 8.37063C25.1002 8.15944 25.2141 7.96771 25.3882 7.83674L26.6624 6.97807C26.8412 6.84861 27.0658 6.79292 27.2871 6.82322C27.5084 6.85353 27.7075 6.96677 27.8418 7.1391ZM10.826 1.79094H25.815C25.8723 1.79094 25.9273 1.81291 25.9679 1.85203C26.0084 1.89115 26.0312 1.9442 26.0312 1.99952V3.28606H10.6105V1.99952C10.6105 1.97213 10.6161 1.945 10.6269 1.91969C10.6378 1.89439 10.6537 1.8714 10.6738 1.85203C10.6939 1.83266 10.7177 1.81731 10.7439 1.80682C10.7701 1.79634 10.7976 1.79094 10.826 1.79094ZM6.08386 19.5552C6.68494 17.7487 7.36671 15.7021 7.5681 13.2948C7.62968 12.5526 7.62229 11.7754 7.6149 11.0237C7.6032 9.80369 7.59027 8.42088 7.98442 8.08751C8.0648 8.01382 8.16159 7.95887 8.26738 7.92683C8.37316 7.8948 8.48514 7.88655 8.59475 7.90271C8.98705 7.9556 9.42555 8.28301 9.78829 8.78455V29.1236C9.78862 29.3891 9.89806 29.6436 10.0926 29.8313C10.2871 30.019 10.5509 30.1246 10.826 30.1249H21.6955C21.2366 30.7691 20.7563 31.3889 20.2605 31.9748C19.7647 32.5607 19.4371 32.7836 19.1519 32.9761C18.6851 33.2916 18.3766 33.5335 17.9399 34.4878C17.8401 34.7053 17.6788 35.0369 17.4614 35.4719L6.07524 29.9966L6.18117 29.7921C6.91589 28.3695 6.36593 26.9059 5.98594 26.4198C4.45181 24.4642 5.13912 22.4051 6.08694 19.5552H6.08386Z" stroke="white" stroke-width="0.4" mask="url(#path-1-outside-1_247_16954)"/>
<path d="M17.9214 26.2773C17.6628 26.2772 17.4099 26.3511 17.1948 26.4897C16.9797 26.6282 16.812 26.8252 16.713 27.0557C16.6139 27.2862 16.5879 27.5399 16.6383 27.7847C16.6887 28.0294 16.8132 28.2543 16.996 28.4308C17.1789 28.6073 17.4118 28.7275 17.6655 28.7762C17.9191 28.8249 18.182 28.8 18.421 28.7045C18.6599 28.6091 18.8642 28.4474 19.0079 28.2399C19.1516 28.0324 19.2283 27.7885 19.2283 27.5389C19.2278 27.2046 19.0899 26.8841 18.845 26.6476C18.6 26.4111 18.2679 26.278 17.9214 26.2773ZM17.9214 28.0078C17.8253 28.0078 17.7313 27.9803 17.6514 27.9288C17.5715 27.8772 17.5092 27.804 17.4725 27.7183C17.4357 27.6327 17.4261 27.5384 17.4448 27.4474C17.4636 27.3565 17.5098 27.273 17.5778 27.2074C17.6457 27.1418 17.7323 27.0972 17.8266 27.0791C17.9208 27.061 18.0185 27.0703 18.1073 27.1058C18.1961 27.1412 18.272 27.2013 18.3254 27.2784C18.3788 27.3555 18.4073 27.4462 18.4073 27.5389C18.4071 27.6632 18.3559 27.7824 18.2648 27.8703C18.1737 27.9582 18.0502 28.0076 17.9214 28.0078Z" fill="white"/>
</svg>
