<svg width="56" height="56" viewBox="0 0 56 56" fill="none" xmlns="http://www.w3.org/2000/svg">
<path d="M12.9688 39.032H12.7141C12.7916 38.9959 12.8779 38.9758 12.9688 38.9758H33.7812C33.8721 38.9758 33.9584 38.9959 34.0359 39.032H33.7812H12.9688ZM12.3625 39.582C12.3625 39.4912 12.3827 39.4049 12.4187 39.3274V39.582V42.4727C12.4187 43.7326 13.4431 44.757 14.7031 44.757H34.3605H35.4616L34.8003 43.8767C34.5059 43.4848 34.3312 42.9991 34.3312 42.4727V39.582V39.3274C34.3673 39.4049 34.3875 39.4912 34.3875 39.582V42.4727C34.3875 43.7326 35.4119 44.757 36.6719 44.757C37.9319 44.757 38.9562 43.7326 38.9562 42.4727V18.1914C38.9562 16.9314 37.9319 15.907 36.6719 15.907H19.3281C18.0681 15.907 17.0437 16.9314 17.0437 18.1914V36.1133C17.0437 36.1286 17.031 36.1414 17.0156 36.1414C17.0003 36.1414 16.9875 36.1286 16.9875 36.1133V18.1914C16.9875 16.9013 18.038 15.8508 19.3281 15.8508H36.6719C37.9619 15.8508 39.0125 16.9018 39.0125 18.1914V42.4727C39.0125 43.7628 37.962 44.8133 36.6719 44.8133H14.7031C13.413 44.8133 12.3625 43.7628 12.3625 42.4727V39.582Z" fill="#EA5404" stroke="#EA5404" stroke-width="1.1"/>
<path d="M33.8094 21.6602C33.8094 21.6755 33.7966 21.6883 33.7812 21.6883H24.5312C24.5159 21.6883 24.5031 21.6755 24.5031 21.6602C24.5031 21.6448 24.5159 21.632 24.5312 21.632H33.7812C33.7966 21.632 33.8094 21.6448 33.8094 21.6602Z" fill="#EA5404" stroke="#EA5404" stroke-width="1.1"/>
<path d="M21.6406 25.157C21.6253 25.157 21.6125 25.1443 21.6125 25.1289C21.6125 25.1135 21.6253 25.1008 21.6406 25.1008H33.7812C33.7966 25.1008 33.8094 25.1135 33.8094 25.1289C33.8094 25.1443 33.7966 25.157 33.7812 25.157H21.6406Z" fill="#EA5404" stroke="#EA5404" stroke-width="1.1"/>
<path d="M33.7812 28.6258H21.6406C21.6253 28.6258 21.6125 28.613 21.6125 28.5977C21.6125 28.5823 21.6253 28.5695 21.6406 28.5695H33.7812C33.7966 28.5695 33.8094 28.5823 33.8094 28.5977C33.8094 28.613 33.7966 28.6258 33.7812 28.6258Z" fill="#EA5404" stroke="#EA5404" stroke-width="1.1"/>
<path d="M33.7812 32.0945H21.6406C21.6253 32.0945 21.6125 32.0818 21.6125 32.0664C21.6125 32.051 21.6253 32.0383 21.6406 32.0383H33.7812C33.7966 32.0383 33.8094 32.051 33.8094 32.0664C33.8094 32.0818 33.7966 32.0945 33.7812 32.0945Z" fill="#EA5404" stroke="#EA5404" stroke-width="1.1"/>
<path d="M31.4688 35.5633H21.6406C21.6253 35.5633 21.6125 35.5505 21.6125 35.5352C21.6125 35.5198 21.6253 35.507 21.6406 35.507H31.4688C31.4841 35.507 31.4969 35.5198 31.4969 35.5352C31.4969 35.5505 31.4841 35.5633 31.4688 35.5633Z" fill="#EA5404" stroke="#EA5404" stroke-width="1.1"/>
<mask id="path-7-inside-1_1703_581" fill="white">
<path d="M41.2969 10.6758H23.9531C22.3592 10.6758 21.0625 11.9725 21.0625 13.5664C21.0625 13.8855 21.3215 14.1445 21.6406 14.1445C21.9597 14.1445 22.2188 13.8855 22.2188 13.5664C22.2188 12.6102 22.9969 11.832 23.9531 11.832H41.2969C42.2531 11.832 43.0312 12.6102 43.0312 13.5664V37.8477C43.0312 38.8039 42.2531 39.582 41.2969 39.582C40.9778 39.582 40.7188 39.841 40.7188 40.1602C40.7188 40.4793 40.9778 40.7383 41.2969 40.7383C42.8908 40.7383 44.1875 39.4415 44.1875 37.8477V13.5664C44.1875 11.9731 42.8908 10.6758 41.2969 10.6758Z"/>
</mask>
<path d="M41.2969 10.6758H23.9531C22.3592 10.6758 21.0625 11.9725 21.0625 13.5664C21.0625 13.8855 21.3215 14.1445 21.6406 14.1445C21.9597 14.1445 22.2188 13.8855 22.2188 13.5664C22.2188 12.6102 22.9969 11.832 23.9531 11.832H41.2969C42.2531 11.832 43.0312 12.6102 43.0312 13.5664V37.8477C43.0312 38.8039 42.2531 39.582 41.2969 39.582C40.9778 39.582 40.7188 39.841 40.7188 40.1602C40.7188 40.4793 40.9778 40.7383 41.2969 40.7383C42.8908 40.7383 44.1875 39.4415 44.1875 37.8477V13.5664C44.1875 11.9731 42.8908 10.6758 41.2969 10.6758Z" fill="#EA5404"/>
<path d="M41.2969 9.47578H23.9531V11.8758H41.2969V9.47578ZM23.9531 9.47578C21.6965 9.47578 19.8625 11.3098 19.8625 13.5664H22.2625C22.2625 12.6353 23.022 11.8758 23.9531 11.8758V9.47578ZM19.8625 13.5664C19.8625 14.5483 20.6588 15.3445 21.6406 15.3445V12.9445C21.9842 12.9445 22.2625 13.2228 22.2625 13.5664H19.8625ZM21.6406 15.3445C22.6225 15.3445 23.4188 14.5483 23.4188 13.5664H21.0187C21.0187 13.2228 21.297 12.9445 21.6406 12.9445V15.3445ZM23.4188 13.5664C23.4188 13.2729 23.6596 13.032 23.9531 13.032V10.632C22.3342 10.632 21.0187 11.9474 21.0187 13.5664H23.4188ZM23.9531 13.032H41.2969V10.632H23.9531V13.032ZM41.2969 13.032C41.5904 13.032 41.8312 13.2729 41.8312 13.5664H44.2313C44.2313 11.9474 42.9158 10.632 41.2969 10.632V13.032ZM41.8312 13.5664V37.8477H44.2313V13.5664H41.8312ZM41.8312 37.8477C41.8312 38.1411 41.5904 38.382 41.2969 38.382V40.782C42.9158 40.782 44.2313 39.4666 44.2313 37.8477H41.8312ZM41.2969 38.382C40.315 38.382 39.5187 39.1783 39.5187 40.1602H41.9188C41.9188 40.5038 41.6405 40.782 41.2969 40.782V38.382ZM39.5187 40.1602C39.5187 41.142 40.315 41.9383 41.2969 41.9383V39.5383C41.6405 39.5383 41.9188 39.8165 41.9188 40.1602H39.5187ZM41.2969 41.9383C43.5535 41.9383 45.3875 40.1043 45.3875 37.8477H42.9875C42.9875 38.7788 42.228 39.5383 41.2969 39.5383V41.9383ZM45.3875 37.8477V13.5664H42.9875V37.8477H45.3875ZM45.3875 13.5664C45.3875 11.3105 43.5537 9.47578 41.2969 9.47578V11.8758C42.2279 11.8758 42.9875 12.6357 42.9875 13.5664H45.3875Z" fill="#EA5404" mask="url(#path-7-inside-1_1703_581)"/>
</svg>
