<svg width="131" height="131" fill="none" xmlns="http://www.w3.org/2000/svg"><path fill="#DBECFB" d="M0 47h131v37H0z"/><path fill="#DBECFB" d="M85 0v131H48V0z"/><path d="M37.366 75.1a20.564 20.564 0 01-3.586-.132c-1.144-.147-2.163-.425-3.058-.836-.895-.41-1.606-.96-2.134-1.65-.513-.704-.77-1.57-.77-2.596 0-.997.33-1.833.99-2.508.66-.69 1.547-1.18 2.662-1.474 1.115-.308 2.347-.381 3.696-.22a22.55 22.55 0 01-1.034-1.584 18.896 18.896 0 01-.88-1.716c-1.408.103-2.772.19-4.092.264-1.32.059-2.442.08-3.366.066l-.33-2.574c.807.073 1.826.103 3.058.088a73.15 73.15 0 003.894-.154c-.381-1.35-.572-2.655-.572-3.916h2.64c-.015.616.022 1.24.11 1.87.088.616.213 1.225.374 1.826a64.305 64.305 0 003.938-.484c1.232-.19 2.2-.403 2.904-.638l.374 2.53c-.69.147-1.599.3-2.728.462-1.115.147-2.325.286-3.63.418a15.137 15.137 0 001.672 2.684 12.418 12.418 0 002.332 2.222l-1.584 1.804a8.265 8.265 0 00-2.002-.836 7.968 7.968 0 00-2.09-.286 6.146 6.146 0 00-1.848.22c-.557.161-1.005.403-1.342.726-.323.323-.484.726-.484 1.21 0 .719.352 1.276 1.056 1.672.719.381 1.68.638 2.882.77 1.217.117 2.56.132 4.026.044-.161.22-.323.506-.484.858-.147.337-.279.675-.396 1.012a5.291 5.291 0 00-.198.858zm16.94.066a5.208 5.208 0 00-.264-.836 7.549 7.549 0 00-.44-1.012 3.695 3.695 0 00-.528-.792c2.347.059 4.136-.22 5.368-.836 1.247-.616 1.87-1.489 1.87-2.618 0-.66-.264-1.173-.792-1.54s-1.217-.55-2.068-.55c-.66 0-1.364.103-2.112.308-.748.19-1.46.513-2.134.968-.66.44-1.217 1.034-1.672 1.782l-2.354-1.034c.293-.513.543-1.151.748-1.914.22-.777.396-1.584.528-2.42.132-.836.227-1.628.286-2.376.059-.748.066-1.364.022-1.848l2.75.33c.015.719-.044 1.57-.176 2.552a19.785 19.785 0 01-.616 2.882c.777-.513 1.591-.91 2.442-1.188.85-.279 1.65-.418 2.398-.418 1.144 0 2.134.198 2.97.594.85.381 1.51.917 1.98 1.606.47.675.704 1.452.704 2.332 0 1.115-.323 2.12-.968 3.014-.63.88-1.606 1.584-2.926 2.112-1.305.528-2.977.829-5.016.902zm3.652-14.102a10.298 10.298 0 00-1.32-.88 20.08 20.08 0 00-1.584-.836 17.099 17.099 0 00-1.65-.682 7.691 7.691 0 00-1.408-.418l1.32-2.288c.381.103.836.264 1.364.484.528.205 1.078.44 1.65.704a34.85 34.85 0 011.65.792c.528.264.96.506 1.298.726l-1.32 2.398zM70.3 74.154a22.333 22.333 0 01-.242-2.2 75.518 75.518 0 01-.132-2.86 116.956 116.956 0 010-3.212c.03-1.1.073-2.17.132-3.212a64.78 64.78 0 01.264-2.926c.117-.895.25-1.657.396-2.288l2.574.528c-.161.528-.3 1.217-.418 2.068a41.79 41.79 0 00-.286 2.772 67.621 67.621 0 00-.154 3.08 71.188 71.188 0 00.022 3.08c.03.997.08 1.9.154 2.706.073.807.169 1.46.286 1.958l-2.596.506zm9.35-1.188c-2.537-.073-3.975-.902-4.312-2.486a4.76 4.76 0 01-.088-1.32c.03-.484.14-1.02.33-1.606l2.31.572a2.724 2.724 0 00-.176.748c0 .22.03.418.088.594.19.528.968.814 2.332.858a20.89 20.89 0 002.112-.066 26.142 26.142 0 002.222-.308 17.972 17.972 0 001.914-.44c-.03.205-.066.484-.11.836-.03.352-.051.711-.066 1.078a8.698 8.698 0 000 .88c-.69.176-1.43.315-2.222.418a31.47 31.47 0 01-2.31.22 32.12 32.12 0 01-2.024.022zm-3.3-10.736l-.154-2.706c.557.073 1.24.117 2.046.132.807.015 1.643.007 2.508-.022.88-.044 1.716-.11 2.508-.198.807-.103 1.474-.227 2.002-.374l-.11 2.662c-.587.103-1.269.198-2.046.286a69.486 69.486 0 01-4.796.264c-.748 0-1.4-.015-1.958-.044zm22.572 7.678a332.23 332.23 0 01-.11-1.782c-.044-.748-.095-1.547-.154-2.398-.044-.865-.088-1.709-.132-2.53-.03-.836-.059-1.57-.088-2.2a69.29 69.29 0 01-.022-1.386v-3.41h3.168v3.41c0 .279-.015.74-.044 1.386-.015.63-.044 1.364-.088 2.2a77.32 77.32 0 01-.132 2.53 340.258 340.258 0 01-.242 4.18h-2.156zM100 75.342a1.8 1.8 0 01-1.32-.55 1.8 1.8 0 01-.55-1.32 1.8 1.8 0 01.55-1.32 1.8 1.8 0 011.32-.55 1.8 1.8 0 011.32.55 1.8 1.8 0 01.55 1.32 1.8 1.8 0 01-.55 1.32 1.8 1.8 0 01-1.32.55z" fill="#367AD1"/></svg>