<svg width="23" height="16" viewBox="0 0 23 16" fill="none" xmlns="http://www.w3.org/2000/svg">
<g clip-path="url(#clip0_2122_2015)">
<path fill-rule="evenodd" clip-rule="evenodd" d="M11.3818 1.42371C11.7935 0.958169 12.3798 0.718592 12.9709 0.718592V0.719499C13.4443 0.719499 13.9215 0.872865 14.3115 1.18867L23.0027 8.21269L14.2953 15.2494C13.4178 15.9582 12.1066 15.852 11.3657 15.0135C10.6247 14.174 10.7357 12.9199 11.6123 12.2111L13.7876 10.4531H2.33197C1.04455 10.4531 0 9.45397 0 8.2225C0 6.99103 1.0436 5.99187 2.33197 5.99187L13.8137 5.99187L11.6285 4.22606C10.7509 3.51731 10.6408 2.26224 11.3818 1.42371Z" fill="black"/>
</g>
<defs>
<clipPath id="clip0_2122_2015">
<rect width="23" height="15" fill="white" transform="matrix(1 0 0 -1 0 15.7188)"/>
</clipPath>
</defs>
</svg>
