<svg width="12" height="17" viewBox="0 0 12 17" fill="none" xmlns="http://www.w3.org/2000/svg">
<g clip-path="url(#clip0_325_11563)">
<path d="M4.25859 3.90905L4.25859 15.2449C4.25859 16.1412 5.04053 16.8672 6.00429 16.8672C6.96805 16.8672 7.75 16.1405 7.75 15.2449L7.75 3.90905C7.75 3.0128 6.96805 2.28681 6.00429 2.28681C5.04053 2.28681 4.25859 3.01346 4.25859 3.90905Z" fill="#EA5404"/>
<path d="M0.135746 7.84667C0.135746 8.25784 0.323242 8.66571 0.687582 8.95214C1.34382 9.46759 2.32605 9.39103 2.88072 8.78054L5.99998 5.34929L9.1299 8.79176C9.68458 9.40159 10.6661 9.47881 11.323 8.96336C11.9793 8.44791 12.0624 7.53581 11.5077 6.92533L6.00069 0.867991L0.503636 6.91411C0.256482 7.18536 0.136456 7.51733 0.136456 7.84667L0.135746 7.84667Z" fill="#EA5404"/>
</g>
<defs>
<clipPath id="clip0_325_11563">
<rect width="16" height="11.7391" fill="white" transform="matrix(1.19249e-08 -1 -1 -1.19249e-08 11.875 16.8672)"/>
</clipPath>
</defs>
</svg>
