<svg width="12" height="17" viewBox="0 0 12 17" fill="none" xmlns="http://www.w3.org/2000/svg">
<g clip-path="url(#clip0_325_10978)">
<path d="M7.74141 13.8253L7.74141 2.48943C7.74141 1.59317 6.95947 0.867188 5.99571 0.867188C5.03195 0.867188 4.25 1.59383 4.25 2.48943L4.25 13.8253C4.25 14.7216 5.03195 15.4476 5.99571 15.4476C6.95947 15.4476 7.74141 14.7209 7.74141 13.8253Z" fill="#EA5404"/>
<path d="M11.8721 9.88771C11.8721 9.47654 11.6846 9.06867 11.3202 8.78224C10.664 8.26679 9.68177 8.34335 9.12709 8.95383L6.00783 12.3851L2.87791 8.94261C2.32324 8.33279 1.34172 8.25557 0.684773 8.77101C0.0285351 9.28646 -0.05456 10.1986 0.500117 10.809L6.00712 16.8664L11.5042 10.8203C11.7513 10.549 11.8714 10.217 11.8714 9.88771L11.8721 9.88771Z" fill="#EA5404"/>
</g>
<defs>
<clipPath id="clip0_325_10978">
<rect width="16" height="11.7391" fill="white" transform="matrix(-4.37114e-08 1 1 4.37114e-08 0.132812 0.867188)"/>
</clipPath>
</defs>
</svg>
