<svg width="134" height="99" viewBox="0 0 134 99" fill="none" xmlns="http://www.w3.org/2000/svg">
<path d="M0.5 9C0.5 4.85787 3.85787 1.5 8 1.5H126C130.142 1.5 133.5 4.85786 133.5 9V91C133.5 95.1421 130.142 98.5 126 98.5H8C3.85787 98.5 0.5 95.1421 0.5 91V9Z" fill="#C6C6C6" stroke="#C6C6C6"/>
<rect x="0.5" y="0.5" width="133" height="93" rx="8.5" fill="white" stroke="#C6C6C6"/>
<rect x="1" y="1" width="132" height="92" rx="8" fill="white"/>
<path d="M2 9C2 5.13401 5.13401 2 9 2H125C128.866 2 132 5.13401 132 9V36H2V9Z" fill="#EA5404" stroke="white" stroke-width="2"/>
<path d="M42.4686 59V49.2H46.5846C47.3873 49.2 48.0499 49.4147 48.5726 49.844C49.0953 50.264 49.3566 50.8753 49.3566 51.678C49.3566 52.2473 49.2259 52.7233 48.9646 53.106C48.7126 53.4793 48.3906 53.7313 47.9986 53.862C48.5026 53.9553 48.9226 54.2307 49.2586 54.688C49.6039 55.136 49.7766 55.6913 49.7766 56.354C49.7766 57.2593 49.5059 57.9267 48.9646 58.356C48.4233 58.7853 47.6813 59 46.7386 59H42.4686ZM44.0786 57.502H46.5146C47.0279 57.502 47.4059 57.3947 47.6486 57.18C47.9006 56.956 48.0266 56.606 48.0266 56.13C48.0266 55.6727 47.8819 55.332 47.5926 55.108C47.3033 54.8747 46.9439 54.758 46.5146 54.758H44.0786V57.502ZM44.0786 53.246H46.3046C46.7339 53.246 47.0559 53.1293 47.2706 52.896C47.4853 52.6627 47.5926 52.3407 47.5926 51.93C47.5926 51.5193 47.4759 51.2113 47.2426 51.006C47.0186 50.8007 46.6966 50.698 46.2766 50.698H44.0786V53.246ZM52.0963 61.786C51.8723 61.786 51.6623 61.7767 51.4663 61.758C51.2703 61.7487 51.093 61.7253 50.9343 61.688V60.246C51.093 60.2833 51.2563 60.3113 51.4243 60.33C51.6017 60.358 51.7697 60.372 51.9283 60.372C52.1803 60.372 52.367 60.344 52.4883 60.288C52.619 60.232 52.7217 60.1387 52.7963 60.008C52.871 59.8773 52.955 59.7 53.0483 59.476L53.2303 58.986L50.5703 52.266H52.2083L53.9163 57.096L55.5263 52.266H57.1363L54.3923 59.938C54.1683 60.554 53.893 61.016 53.5663 61.324C53.249 61.632 52.759 61.786 52.0963 61.786ZM60.8809 59.154C60.2649 59.154 59.7096 59.0093 59.2149 58.72C58.7296 58.4213 58.3422 58.0107 58.0529 57.488C57.7729 56.956 57.6329 56.3353 57.6329 55.626C57.6329 54.9167 57.7729 54.3007 58.0529 53.778C58.3422 53.246 58.7296 52.8353 59.2149 52.546C59.7096 52.2473 60.2649 52.098 60.8809 52.098C61.4316 52.098 61.9309 52.21 62.3789 52.434C62.8362 52.658 63.2096 52.98 63.4989 53.4L62.2389 54.324C61.9496 53.792 61.4969 53.526 60.8809 53.526C60.3956 53.526 59.9989 53.708 59.6909 54.072C59.3829 54.436 59.2289 54.954 59.2289 55.626C59.2289 56.298 59.3829 56.816 59.6909 57.18C59.9989 57.544 60.3956 57.726 60.8809 57.726C61.4876 57.726 61.9449 57.4647 62.2529 56.942L63.4989 57.852C63.2096 58.2627 62.8362 58.5847 62.3789 58.818C61.9309 59.042 61.4316 59.154 60.8809 59.154ZM64.8599 59V49.018H66.4419V59H64.8599ZM71.0948 59.154C70.1148 59.154 69.3214 58.86 68.7148 58.272C68.1081 57.6747 67.8048 56.7927 67.8048 55.626C67.8048 54.898 67.9401 54.2727 68.2108 53.75C68.4814 53.218 68.8594 52.812 69.3448 52.532C69.8301 52.2427 70.3854 52.098 71.0108 52.098C71.6361 52.098 72.1681 52.252 72.6068 52.56C73.0454 52.8587 73.3814 53.2693 73.6148 53.792C73.8481 54.3147 73.9648 54.9027 73.9648 55.556V55.92H69.3588C69.3961 56.592 69.5734 57.0727 69.8908 57.362C70.2081 57.642 70.6188 57.782 71.1228 57.782C71.5614 57.782 71.9208 57.6793 72.2008 57.474C72.4808 57.2593 72.7234 56.942 72.9288 56.522L74.0908 57.334C73.7454 57.978 73.3208 58.4447 72.8168 58.734C72.3221 59.014 71.7481 59.154 71.0948 59.154ZM69.4288 54.702H72.4108C72.3361 54.2633 72.1728 53.9273 71.9208 53.694C71.6781 53.4513 71.3654 53.33 70.9828 53.33C70.5721 53.33 70.2314 53.442 69.9608 53.666C69.6994 53.89 69.5221 54.2353 69.4288 54.702ZM82.6796 59.126C82.6422 58.9767 82.5722 58.7993 82.4696 58.594C82.3669 58.3887 82.2456 58.1927 82.1056 58.006C81.9749 57.81 81.8442 57.6513 81.7136 57.53C82.9922 57.334 83.9629 56.9187 84.6256 56.284C85.2976 55.64 85.6522 54.884 85.6896 54.016C85.7269 53.3253 85.6009 52.7093 85.3116 52.168C85.0222 51.6267 84.6256 51.188 84.1216 50.852C83.6269 50.516 83.0809 50.3153 82.4836 50.25C82.4089 51.118 82.2689 52.0047 82.0636 52.91C81.8582 53.8153 81.5782 54.6647 81.2236 55.458C80.8782 56.2513 80.4536 56.9233 79.9496 57.474C79.5669 57.8847 79.1936 58.1227 78.8296 58.188C78.4749 58.2533 78.0969 58.202 77.6956 58.034C77.3036 57.866 76.9582 57.6 76.6596 57.236C76.3609 56.872 76.1322 56.4427 75.9736 55.948C75.8149 55.444 75.7496 54.9073 75.7776 54.338C75.8242 53.4887 76.0249 52.714 76.3796 52.014C76.7342 51.3047 77.2102 50.6933 77.8076 50.18C78.4049 49.6667 79.0909 49.2793 79.8656 49.018C80.6402 48.7567 81.4662 48.6493 82.3436 48.696C83.0529 48.7333 83.7202 48.892 84.3456 49.172C84.9709 49.452 85.5169 49.8393 85.9836 50.334C86.4596 50.8193 86.8236 51.384 87.0756 52.028C87.3369 52.672 87.4442 53.3767 87.3976 54.142C87.3322 55.4207 86.8842 56.494 86.0536 57.362C85.2229 58.2207 84.0982 58.8087 82.6796 59.126ZM78.1296 56.298C78.2322 56.3727 78.3396 56.41 78.4516 56.41C78.5636 56.41 78.6756 56.354 78.7876 56.242C79.1236 55.906 79.4316 55.43 79.7116 54.814C80.0009 54.198 80.2389 53.5027 80.4256 52.728C80.6216 51.9533 80.7476 51.1647 80.8036 50.362C80.1596 50.5113 79.5856 50.782 79.0816 51.174C78.5869 51.566 78.1949 52.042 77.9056 52.602C77.6162 53.1527 77.4529 53.7593 77.4156 54.422C77.3969 54.8607 77.4529 55.2433 77.5836 55.57C77.7236 55.8873 77.9056 56.13 78.1296 56.298ZM15.97 79.434C15.2793 79.518 14.668 79.4853 14.136 79.336C13.604 79.196 13.1887 78.958 12.89 78.622C12.5913 78.286 12.442 77.866 12.442 77.362C12.442 76.6993 12.708 76.0507 13.24 75.416C13.7813 74.772 14.5233 74.2493 15.466 73.848V71.734C14.9527 71.7713 14.4533 71.7993 13.968 71.818C13.492 71.8367 13.0487 71.8367 12.638 71.818L12.554 70.208C12.9087 70.2453 13.3427 70.2593 13.856 70.25C14.3693 70.2313 14.906 70.194 15.466 70.138V67.884L17.02 67.898V69.956C17.4867 69.8813 17.9207 69.802 18.322 69.718C18.7327 69.6247 19.0687 69.5267 19.33 69.424L19.498 70.964C19.1713 71.0853 18.7933 71.1927 18.364 71.286C17.9347 71.3793 17.4867 71.4633 17.02 71.538V73.372C17.3467 73.2973 17.6873 73.2413 18.042 73.204C18.3967 73.1667 18.7653 73.148 19.148 73.148C20.044 73.148 20.8047 73.288 21.43 73.568C22.0647 73.8387 22.5453 74.2073 22.872 74.674C23.1987 75.1313 23.362 75.6493 23.362 76.228C23.362 77.124 23.0913 77.8287 22.55 78.342C22.0087 78.8553 21.276 79.1073 20.352 79.098C19.6333 79.098 19.0267 78.9207 18.532 78.566C18.0467 78.202 17.6967 77.6653 17.482 76.956C17.6967 76.8907 17.958 76.7927 18.266 76.662C18.574 76.522 18.8167 76.3913 18.994 76.27C19.2273 77.0447 19.6753 77.432 20.338 77.432C20.7487 77.432 21.0613 77.3153 21.276 77.082C21.4907 76.8393 21.598 76.5407 21.598 76.186C21.598 75.7287 21.3927 75.3507 20.982 75.052C20.5713 74.744 19.9553 74.59 19.134 74.59C18.3873 74.59 17.6827 74.6833 17.02 74.87V78.356C17.02 78.7013 16.9407 78.9533 16.782 79.112C16.6233 79.28 16.3527 79.3873 15.97 79.434ZM23.096 72.952C22.872 72.728 22.5687 72.4853 22.186 72.224C21.8033 71.9533 21.4113 71.7013 21.01 71.468C20.6087 71.2253 20.2493 71.0433 19.932 70.922L20.814 69.662C21.15 69.7927 21.5187 69.97 21.92 70.194C22.3213 70.418 22.7133 70.656 23.096 70.908C23.4787 71.16 23.8007 71.4027 24.062 71.636C23.9687 71.7387 23.852 71.8787 23.712 72.056C23.5813 72.2333 23.4553 72.406 23.334 72.574C23.222 72.742 23.1427 72.868 23.096 72.952ZM14.962 77.95C15.1393 77.9593 15.2653 77.9407 15.34 77.894C15.424 77.8473 15.466 77.7633 15.466 77.642V75.5C15.0367 75.7613 14.696 76.046 14.444 76.354C14.192 76.662 14.066 76.97 14.066 77.278C14.066 77.4927 14.1453 77.656 14.304 77.768C14.4627 77.88 14.682 77.9407 14.962 77.95ZM31.104 80.092V76.466H26.61V69.172H31.104V67.282H32.868V69.172H37.39V76.466H32.868V80.092H31.104ZM32.868 74.912H35.598V73.54H32.868V74.912ZM28.402 74.912H31.104V73.54H28.402V74.912ZM32.868 72.07H35.598V70.726H32.868V72.07ZM28.402 72.07H31.104V70.726H28.402V72.07ZM44.502 77.642C44.3433 77.446 44.152 77.2453 43.928 77.04C43.7133 76.8253 43.4987 76.6573 43.284 76.536C43.928 76.088 44.474 75.542 44.922 74.898C45.3793 74.254 45.7433 73.5633 46.014 72.826C46.294 72.0887 46.476 71.3607 46.56 70.642L47.4 70.768C47.3813 70.5627 47.3673 70.3573 47.358 70.152C47.3487 69.9373 47.344 69.718 47.344 69.494H44.796V67.884H48.94C48.856 69.144 48.9027 70.292 49.08 71.328C49.2573 72.3547 49.612 73.2787 50.144 74.1C50.676 74.9213 51.4227 75.6587 52.384 76.312C52.1693 76.4893 51.9453 76.7087 51.712 76.97C51.4787 77.2313 51.2967 77.4413 51.166 77.6C50.3447 77.0027 49.6353 76.298 49.038 75.486C48.4407 74.6647 47.9973 73.6987 47.708 72.588C47.4187 73.6147 47.0033 74.5573 46.462 75.416C45.93 76.2653 45.2767 77.0073 44.502 77.642ZM47.372 79.84C46.3827 79.84 45.5613 79.7887 44.908 79.686C44.2547 79.5927 43.718 79.4433 43.298 79.238C42.878 79.042 42.5187 78.7947 42.22 78.496C42.052 78.6173 41.8327 78.762 41.562 78.93C41.3007 79.0887 41.03 79.2473 40.75 79.406C40.4793 79.574 40.2413 79.714 40.036 79.826L39.35 78.188C39.5367 78.1133 39.7607 78.0247 40.022 77.922C40.2927 77.81 40.554 77.698 40.806 77.586C41.058 77.4647 41.2447 77.3713 41.366 77.306V73.82H39.7V72.364H42.962V77.096C43.1393 77.544 43.564 77.8613 44.236 78.048C44.9173 78.2347 45.9627 78.328 47.372 78.328C48.5667 78.328 49.5933 78.3093 50.452 78.272C51.3107 78.2253 52.006 78.1647 52.538 78.09C52.4913 78.1927 52.44 78.356 52.384 78.58C52.328 78.7947 52.2813 79.0187 52.244 79.252C52.2067 79.4853 52.1833 79.672 52.174 79.812C51.9127 79.812 51.572 79.812 51.152 79.812C50.732 79.8213 50.284 79.826 49.808 79.826C49.3413 79.8353 48.8933 79.84 48.464 79.84C48.0347 79.84 47.6707 79.84 47.372 79.84ZM42.402 70.698C42.234 70.4927 42.01 70.2593 41.73 69.998C41.45 69.7367 41.156 69.48 40.848 69.228C40.54 68.9667 40.2553 68.7567 39.994 68.598L41.044 67.52C41.2773 67.6507 41.5527 67.842 41.87 68.094C42.1967 68.3367 42.5093 68.5933 42.808 68.864C43.116 69.1253 43.354 69.354 43.522 69.55C43.438 69.6247 43.3213 69.7367 43.172 69.886C43.0227 70.026 42.8733 70.1707 42.724 70.32C42.584 70.4693 42.4767 70.5953 42.402 70.698ZM60.182 79.854C60.0327 79.6953 59.8133 79.5227 59.524 79.336C59.244 79.1587 58.9967 79.028 58.782 78.944C59.4447 78.4867 60.042 77.9173 60.574 77.236C61.1153 76.5453 61.5587 75.8033 61.904 75.01C61.5027 74.8887 61.0967 74.7907 60.686 74.716C60.2753 74.632 59.874 74.5713 59.482 74.534C59.2393 74.9913 58.9873 75.4113 58.726 75.794C58.474 76.1673 58.2173 76.4847 57.956 76.746C57.564 77.1473 57.1347 77.4273 56.668 77.586C56.2107 77.7447 55.7673 77.7913 55.338 77.726C54.918 77.6513 54.5727 77.4693 54.302 77.18C54.0313 76.8907 53.896 76.5033 53.896 76.018C53.896 75.4767 54.0733 74.982 54.428 74.534C54.7827 74.086 55.296 73.7267 55.968 73.456C56.6493 73.1853 57.48 73.0407 58.46 73.022C58.712 72.49 58.9547 71.9253 59.188 71.328C59.4213 70.7307 59.6313 70.138 59.818 69.55C59.4727 69.6433 59.1087 69.7367 58.726 69.83C58.3527 69.914 57.998 69.9887 57.662 70.054C57.3353 70.1193 57.0647 70.166 56.85 70.194L56.402 68.584C56.6447 68.5747 56.9573 68.5467 57.34 68.5C57.7227 68.4533 58.124 68.3927 58.544 68.318C58.9733 68.2433 59.3747 68.164 59.748 68.08C60.1307 67.996 60.434 67.912 60.658 67.828L61.834 68.458C61.6753 69.1113 61.4513 69.8533 61.162 70.684C60.8727 71.5147 60.5413 72.3313 60.168 73.134C60.5227 73.1807 60.882 73.2413 61.246 73.316C61.6193 73.3907 61.9973 73.4793 62.38 73.582C62.464 73.2553 62.5293 72.9333 62.576 72.616C62.6227 72.2893 62.6507 71.9673 62.66 71.65L64.326 72.056C64.2793 72.7093 64.1673 73.372 63.99 74.044C64.3633 74.1653 64.7273 74.296 65.082 74.436C65.446 74.576 65.7913 74.7253 66.118 74.884C66.0247 74.996 65.922 75.1453 65.81 75.332C65.698 75.5187 65.5953 75.7147 65.502 75.92C65.418 76.116 65.348 76.2887 65.292 76.438C65.0027 76.2793 64.704 76.1253 64.396 75.976C64.0973 75.8173 63.7893 75.6773 63.472 75.556C63.108 76.4053 62.646 77.208 62.086 77.964C61.526 78.7107 60.8913 79.3407 60.182 79.854ZM55.366 75.822C55.3847 75.9433 55.464 76.0413 55.604 76.116C55.744 76.1813 55.9167 76.1907 56.122 76.144C56.3367 76.0973 56.5653 75.9573 56.808 75.724C56.9387 75.5933 57.0787 75.4253 57.228 75.22C57.3773 75.0147 57.5267 74.7813 57.676 74.52C56.8827 74.604 56.29 74.7767 55.898 75.038C55.506 75.29 55.3287 75.5513 55.366 75.822ZM74.168 79.252C73.44 79.2147 72.8567 79 72.418 78.608C71.9793 78.216 71.7647 77.7307 71.774 77.152C71.7833 76.7973 71.9 76.4707 72.124 76.172C72.348 75.864 72.6653 75.6213 73.076 75.444C73.4867 75.2573 73.9767 75.164 74.546 75.164C74.8447 75.164 75.1247 75.178 75.386 75.206C75.3767 74.7953 75.3627 74.3287 75.344 73.806C75.3253 73.2833 75.3067 72.714 75.288 72.098C74.7093 72.1353 74.1493 72.1587 73.608 72.168C73.0667 72.168 72.6047 72.1587 72.222 72.14L72.11 70.432C72.4553 70.488 72.908 70.5207 73.468 70.53C74.0373 70.53 74.6347 70.516 75.26 70.488C75.2507 70.1147 75.2413 69.7367 75.232 69.354C75.232 68.962 75.232 68.5653 75.232 68.164H76.87C76.8607 68.5187 76.8513 68.8827 76.842 69.256C76.842 69.6293 76.842 70.0073 76.842 70.39C77.402 70.3433 77.9107 70.292 78.368 70.236C78.8253 70.1707 79.1707 70.1007 79.404 70.026V71.706C79.1427 71.762 78.788 71.8133 78.34 71.86C77.892 71.9067 77.4067 71.9533 76.884 72C76.9027 72.6813 76.926 73.3347 76.954 73.96C76.982 74.576 77.0053 75.1173 77.024 75.584C77.5467 75.7707 78.0507 76.0087 78.536 76.298C79.0213 76.5873 79.4973 76.9093 79.964 77.264C79.8613 77.348 79.74 77.4787 79.6 77.656C79.4693 77.824 79.348 78.0013 79.236 78.188C79.124 78.3653 79.04 78.5147 78.984 78.636C78.3587 78.0667 77.7147 77.6093 77.052 77.264C76.9867 78.0013 76.702 78.5287 76.198 78.846C75.7033 79.154 75.0267 79.2893 74.168 79.252ZM68.974 79.42C68.9087 79.056 68.8573 78.5893 68.82 78.02C68.7827 77.4413 68.7547 76.802 68.736 76.102C68.7267 75.3927 68.7267 74.6647 68.736 73.918C68.7453 73.162 68.7687 72.4247 68.806 71.706C68.8433 70.9873 68.89 70.3247 68.946 69.718C69.0113 69.1113 69.086 68.6073 69.17 68.206L70.766 68.584C70.6633 68.9107 70.5747 69.3493 70.5 69.9C70.4347 70.4507 70.3833 71.0667 70.346 71.748C70.3087 72.42 70.2853 73.1153 70.276 73.834C70.2667 74.5527 70.2713 75.2527 70.29 75.934C70.318 76.606 70.3553 77.222 70.402 77.782C70.458 78.342 70.5233 78.7947 70.598 79.14L68.974 79.42ZM74.294 77.824C74.6767 77.824 74.9613 77.7493 75.148 77.6C75.344 77.4413 75.442 77.1613 75.442 76.76V76.662C75.1247 76.5873 74.7933 76.5407 74.448 76.522C74.1027 76.5127 73.8227 76.5687 73.608 76.69C73.4027 76.8113 73.2953 76.97 73.286 77.166C73.2767 77.362 73.3653 77.5207 73.552 77.642C73.7387 77.7633 73.986 77.824 74.294 77.824ZM87.146 78.692C86.5207 78.692 85.9607 78.6267 85.466 78.496C84.9807 78.356 84.5607 78.1087 84.206 77.754C83.8607 77.3993 83.576 76.9047 83.352 76.27L84.836 75.458C84.9573 75.9433 85.2047 76.312 85.578 76.564C85.9513 76.816 86.474 76.942 87.146 76.942C87.7433 76.942 88.3593 76.914 88.994 76.858C89.6287 76.802 90.226 76.7227 90.786 76.62C91.346 76.5173 91.808 76.4007 92.172 76.27C92.172 76.4193 92.1813 76.6153 92.2 76.858C92.228 77.1007 92.2607 77.3387 92.298 77.572C92.3447 77.8053 92.3867 77.9873 92.424 78.118C92.0507 78.2393 91.5747 78.342 90.996 78.426C90.4173 78.51 89.792 78.5753 89.12 78.622C88.4573 78.6687 87.7993 78.692 87.146 78.692ZM84.948 70.46L84.934 68.766C85.2047 68.85 85.5407 68.9153 85.942 68.962C86.3527 69.0087 86.7913 69.0367 87.258 69.046C87.734 69.0553 88.21 69.0507 88.686 69.032C89.162 69.004 89.6007 68.9667 90.002 68.92C90.4033 68.864 90.7347 68.794 90.996 68.71V70.418C90.7627 70.4927 90.4453 70.5533 90.044 70.6C89.6427 70.6467 89.204 70.684 88.728 70.712C88.252 70.7307 87.7713 70.7353 87.286 70.726C86.8007 70.7167 86.3527 70.6887 85.942 70.642C85.5313 70.5953 85.2 70.5347 84.948 70.46ZM100.698 79.812C100.67 79.6533 100.614 79.462 100.53 79.238C100.455 79.0233 100.367 78.8133 100.264 78.608C100.161 78.3933 100.054 78.2207 99.942 78.09C101.501 78.2113 102.728 78.0947 103.624 77.74C104.52 77.376 104.968 76.8113 104.968 76.046C104.968 75.6353 104.795 75.3087 104.45 75.066C104.114 74.8233 103.685 74.702 103.162 74.702C102.555 74.702 101.939 74.8187 101.314 75.052C100.689 75.276 100.124 75.6587 99.62 76.2C99.5827 76.2467 99.5407 76.298 99.494 76.354C99.4567 76.4007 99.4147 76.4473 99.368 76.494L98.01 75.528C98.458 75.0893 98.8407 74.4967 99.158 73.75C99.4753 73.0033 99.7227 72.2193 99.9 71.398C98.6027 71.4447 97.4967 71.4447 96.582 71.398L96.47 69.746C96.8807 69.802 97.4127 69.8393 98.066 69.858C98.7193 69.8673 99.424 69.858 100.18 69.83C100.292 68.9433 100.334 68.1407 100.306 67.422H102.07C102.07 68.1033 102.014 68.878 101.902 69.746C102.555 69.6993 103.185 69.6433 103.792 69.578C104.399 69.5127 104.949 69.4427 105.444 69.368C105.939 69.284 106.34 69.1953 106.648 69.102L106.536 70.754C105.985 70.8753 105.271 70.9873 104.394 71.09C103.517 71.1833 102.597 71.258 101.636 71.314C101.543 71.7433 101.435 72.1727 101.314 72.602C101.202 73.0313 101.067 73.4467 100.908 73.848C101.319 73.6333 101.72 73.47 102.112 73.358C102.513 73.2367 102.91 73.176 103.302 73.176C103.965 73.1667 104.553 73.2787 105.066 73.512C105.589 73.7453 105.999 74.0813 106.298 74.52C106.597 74.9493 106.746 75.4673 106.746 76.074C106.746 77.306 106.228 78.2533 105.192 78.916C104.156 79.5787 102.658 79.8773 100.698 79.812ZM114.922 79.742C114.894 79.602 114.838 79.4247 114.754 79.21C114.679 78.9953 114.586 78.7807 114.474 78.566C114.362 78.3513 114.25 78.1833 114.138 78.062C115.631 78.0993 116.77 77.922 117.554 77.53C118.347 77.138 118.744 76.5827 118.744 75.864C118.744 75.444 118.576 75.1173 118.24 74.884C117.904 74.6507 117.465 74.534 116.924 74.534C116.504 74.534 116.056 74.5993 115.58 74.73C115.104 74.8513 114.651 75.0567 114.222 75.346C113.802 75.626 113.447 76.004 113.158 76.48L111.66 75.822C111.847 75.4953 112.005 75.0893 112.136 74.604C112.276 74.1093 112.388 73.596 112.472 73.064C112.556 72.532 112.617 72.028 112.654 71.552C112.691 71.076 112.696 70.684 112.668 70.376L114.418 70.586C114.427 71.0433 114.39 71.5847 114.306 72.21C114.222 72.826 114.091 73.4373 113.914 74.044C114.409 73.7173 114.927 73.4653 115.468 73.288C116.009 73.1107 116.518 73.022 116.994 73.022C117.722 73.022 118.352 73.148 118.884 73.4C119.425 73.6427 119.845 73.9833 120.144 74.422C120.443 74.8513 120.592 75.346 120.592 75.906C120.592 76.6153 120.387 77.2547 119.976 77.824C119.575 78.384 118.954 78.832 118.114 79.168C117.283 79.504 116.219 79.6953 114.922 79.742ZM117.246 70.768C117.013 70.5813 116.733 70.3947 116.406 70.208C116.089 70.0213 115.753 69.844 115.398 69.676C115.043 69.508 114.693 69.3633 114.348 69.242C114.012 69.1113 113.713 69.0227 113.452 68.976L114.292 67.52C114.535 67.5853 114.824 67.688 115.16 67.828C115.496 67.9587 115.846 68.108 116.21 68.276C116.583 68.444 116.933 68.612 117.26 68.78C117.596 68.948 117.871 69.102 118.086 69.242L117.246 70.768Z" fill="#EA5404"/>
<path d="M7.826 24.451V16.212H10.015C10.081 16.0433 10.147 15.8563 10.213 15.651C10.2863 15.4457 10.3487 15.255 10.4 15.079C10.4587 14.903 10.4917 14.782 10.499 14.716L12.105 14.87C12.061 15.0093 11.9767 15.211 11.852 15.475C11.7347 15.7317 11.6173 15.9773 11.5 16.212H15.185V24.451H7.826ZM9.201 23.285H13.81V22.075H9.201V23.285ZM9.201 20.931H13.81V19.721H9.201V20.931ZM9.201 18.588H13.81V17.378H9.201V18.588ZM19.508 24.792V23.076H17.506V21.965H19.508V21.349H17.792V17.389H19.508V16.806H17.539V15.761H19.508V14.771H20.564V15.761H22.412V16.806H20.564V17.389H22.291V21.349H20.564V21.965H22.434V23.043C22.5293 23.0283 22.632 23.0173 22.742 23.01C22.8593 22.9953 22.9767 22.9843 23.094 22.977C23.1893 22.6837 23.2883 22.3463 23.391 21.965C23.501 21.5837 23.6037 21.195 23.699 20.799C23.8017 20.403 23.886 20.0473 23.952 19.732H22.555V18.577H27.45V19.732H25.25C25.184 20.0473 25.0997 20.3883 24.997 20.755C24.9017 21.1217 24.8027 21.4847 24.7 21.844C24.5973 22.196 24.4983 22.5187 24.403 22.812C24.645 22.7753 24.8833 22.7423 25.118 22.713C25.3527 22.6763 25.5727 22.6433 25.778 22.614C25.69 22.4013 25.5947 22.1923 25.492 21.987C25.3967 21.7817 25.2977 21.5837 25.195 21.393L26.251 20.964C26.4197 21.2427 26.5957 21.569 26.779 21.943C26.9623 22.317 27.1347 22.702 27.296 23.098C27.4647 23.4867 27.604 23.8423 27.714 24.165C27.5307 24.2163 27.3327 24.2823 27.12 24.363C26.9147 24.451 26.7277 24.539 26.559 24.627C26.5077 24.4803 26.449 24.319 26.383 24.143C26.3243 23.9743 26.2583 23.791 26.185 23.593C25.9137 23.6517 25.602 23.7177 25.25 23.791C24.898 23.857 24.5387 23.923 24.172 23.989C23.8053 24.055 23.4607 24.1137 23.138 24.165C22.8227 24.2237 22.5587 24.2677 22.346 24.297L22.082 23.076H20.564V24.792H19.508ZM22.841 16.817V15.684H27.087V16.817H22.841ZM18.859 20.425H19.508V19.765H18.859V20.425ZM20.564 20.425H21.213V19.765H20.564V20.425ZM18.859 18.973H19.508V18.324H18.859V18.973ZM20.564 18.973H21.213V18.324H20.564V18.973ZM32.818 24.836V23.23H28.506V22.141H32.818V21.558H29.793V17.455H32.818V16.872H28.913V15.794H32.818V14.771H34.149V15.794H38.01V16.872H34.149V17.455H37.163V21.558H34.149V22.141H38.494V23.23H34.149V24.836H32.818ZM31.135 20.546H32.818V19.919H31.135V20.546ZM34.149 20.546H35.821V19.919H34.149V20.546ZM31.135 19.083H32.818V18.478H31.135V19.083ZM34.149 19.083H35.821V18.478H34.149V19.083ZM42.751 24.836C42.7363 24.6527 42.6997 24.451 42.641 24.231C42.5897 24.011 42.531 23.8277 42.465 23.681H43.433C43.587 23.681 43.697 23.659 43.763 23.615C43.829 23.5637 43.862 23.4647 43.862 23.318V22.977H40.298V22.031H43.862V21.569H39.429V20.711H43.862V20.271H40.287V19.424H43.862V18.995H41.013V16.85H43.862V16.454H39.748V15.508H43.862V14.782H45.182V15.508H49.285V16.454H45.182V16.85H47.998V18.995H45.182V19.424H48.592V20.711H49.593V21.569H48.592V22.977H45.182V23.681C45.182 24.0843 45.0647 24.3777 44.83 24.561C44.6027 24.7443 44.2543 24.836 43.785 24.836H42.751ZM45.182 22.031H47.316V21.569H45.182V22.031ZM45.182 20.711H47.316V20.271H45.182V20.711ZM42.223 18.159H43.862V17.686H42.223V18.159ZM45.182 18.159H46.788V17.686H45.182V18.159ZM55.027 25.012C54.939 24.8653 54.8143 24.6893 54.653 24.484C54.499 24.286 54.3523 24.132 54.213 24.022C54.3157 23.978 54.411 23.934 54.499 23.89C54.5943 23.8387 54.6897 23.791 54.785 23.747H50.781V19.765H52.299V17.873H50.44V16.674H52.299V14.749H53.575V16.674H55.28V17.873H53.575V19.765H54.972V23.637C55.3827 23.4023 55.7493 23.1457 56.072 22.867C56.402 22.5883 56.6917 22.2877 56.941 21.965C56.7137 21.569 56.512 21.14 56.336 20.678C56.1673 20.2087 56.028 19.699 55.918 19.149C55.8373 19.2883 55.753 19.4167 55.665 19.534C55.5843 19.6513 55.5 19.7613 55.412 19.864C55.2947 19.7613 55.137 19.6477 54.939 19.523C54.7483 19.391 54.5687 19.292 54.4 19.226C54.6273 18.984 54.851 18.6723 55.071 18.291C55.291 17.9023 55.4927 17.4917 55.676 17.059C55.8667 16.619 56.0243 16.1937 56.149 15.783C56.281 15.3723 56.3727 15.0203 56.424 14.727L57.645 15.013C57.579 15.299 57.4947 15.6033 57.392 15.926C57.2893 16.2487 57.172 16.575 57.04 16.905H60.538V18.082H59.493C59.4197 18.8593 59.2987 19.567 59.13 20.205C58.9613 20.843 58.7267 21.4297 58.426 21.965C58.734 22.3463 59.0787 22.6873 59.46 22.988C59.8487 23.2813 60.263 23.5453 60.703 23.78C60.6077 23.8533 60.4977 23.9597 60.373 24.099C60.2557 24.2383 60.1457 24.3777 60.043 24.517C59.9403 24.6637 59.856 24.7847 59.79 24.88C59.394 24.6233 59.0163 24.3447 58.657 24.044C58.2977 23.7433 57.9677 23.406 57.667 23.032C57.0143 23.7947 56.1343 24.4547 55.027 25.012ZM52.035 22.581H53.718V20.92H52.035V22.581ZM57.645 20.744C57.821 20.3407 57.9603 19.919 58.063 19.479C58.1657 19.0317 58.2317 18.566 58.261 18.082H56.952C56.996 18.5953 57.0767 19.072 57.194 19.512C57.3113 19.952 57.4617 20.3627 57.645 20.744ZM67.347 24.099C67.3177 23.9817 67.2627 23.8423 67.182 23.681C67.1013 23.5197 67.006 23.3657 66.896 23.219C66.7933 23.065 66.6907 22.9403 66.588 22.845C67.5927 22.691 68.3553 22.3647 68.876 21.866C69.404 21.36 69.6827 20.766 69.712 20.084C69.7413 19.5413 69.6423 19.0573 69.415 18.632C69.1877 18.2067 68.876 17.862 68.48 17.598C68.0913 17.334 67.6623 17.1763 67.193 17.125C67.1343 17.807 67.0243 18.5037 66.863 19.215C66.7017 19.9263 66.4817 20.5937 66.203 21.217C65.9317 21.8403 65.598 22.3683 65.202 22.801C64.9013 23.1237 64.608 23.3107 64.322 23.362C64.0433 23.4133 63.7463 23.373 63.431 23.241C63.123 23.109 62.8517 22.9 62.617 22.614C62.3823 22.328 62.2027 21.9907 62.078 21.602C61.9533 21.206 61.902 20.7843 61.924 20.337C61.9607 19.6697 62.1183 19.061 62.397 18.511C62.6757 17.9537 63.0497 17.4733 63.519 17.07C63.9883 16.6667 64.5273 16.3623 65.136 16.157C65.7447 15.9517 66.3937 15.8673 67.083 15.904C67.6403 15.9333 68.1647 16.058 68.656 16.278C69.1473 16.498 69.5763 16.8023 69.943 17.191C70.317 17.5723 70.603 18.016 70.801 18.522C71.0063 19.028 71.0907 19.5817 71.054 20.183C71.0027 21.1877 70.6507 22.031 69.998 22.713C69.3453 23.3877 68.4617 23.8497 67.347 24.099ZM63.772 21.877C63.8527 21.9357 63.937 21.965 64.025 21.965C64.113 21.965 64.201 21.921 64.289 21.833C64.553 21.569 64.795 21.195 65.015 20.711C65.2423 20.227 65.4293 19.6807 65.576 19.072C65.73 18.4633 65.829 17.8437 65.873 17.213C65.367 17.3303 64.916 17.543 64.52 17.851C64.1313 18.159 63.8233 18.533 63.596 18.973C63.3687 19.4057 63.2403 19.8823 63.211 20.403C63.1963 20.7477 63.2403 21.0483 63.343 21.305C63.453 21.5543 63.596 21.745 63.772 21.877ZM76.719 24.803V19.149C76.6163 19.2883 76.5063 19.4277 76.389 19.567C76.279 19.699 76.1837 19.8053 76.103 19.886C76.0223 19.798 75.905 19.6953 75.751 19.578C75.6043 19.4533 75.4797 19.3653 75.377 19.314C75.5237 19.1673 75.685 18.973 75.861 18.731C76.0443 18.489 76.1947 18.2763 76.312 18.093L76.719 18.357V17.906H78.875V17.235H76.433V16.157H78.875V14.749H80.052V16.157H81.174C81.0347 16.0177 80.8807 15.882 80.712 15.75C80.5433 15.618 80.3967 15.5153 80.272 15.442L80.943 14.749C81.053 14.815 81.1887 14.914 81.35 15.046C81.5113 15.1707 81.669 15.299 81.823 15.431C81.977 15.563 82.0943 15.6767 82.175 15.772C82.1237 15.8087 82.0613 15.8637 81.988 15.937C81.922 16.003 81.8487 16.0763 81.768 16.157H82.472V17.235H80.052V17.906H82.219V23.824C82.219 24.1613 82.12 24.407 81.922 24.561C81.7313 24.7223 81.438 24.803 81.042 24.803H80.503C80.4957 24.7003 80.4773 24.572 80.448 24.418C80.426 24.264 80.4003 24.1137 80.371 23.967C80.3417 23.813 80.3087 23.6957 80.272 23.615H80.723C80.855 23.615 80.9503 23.593 81.009 23.549C81.0677 23.505 81.097 23.4207 81.097 23.296V22.383H80.052V24.594H78.875V22.383H77.852V24.803H76.719ZM73.826 24.814V20.854C73.6867 21.0007 73.54 21.1473 73.386 21.294C73.2393 21.4333 73.089 21.569 72.935 21.701C72.8177 21.5617 72.6783 21.4113 72.517 21.25C72.3557 21.0813 72.209 20.9457 72.077 20.843C72.451 20.557 72.803 20.2343 73.133 19.875C73.4703 19.5157 73.7673 19.149 74.024 18.775C74.288 18.3937 74.497 18.0417 74.651 17.719H72.473V16.63H73.804V14.771H74.981V16.63H75.817L76.29 17.059C76.1213 17.4403 75.9307 17.8253 75.718 18.214C75.5053 18.6027 75.2707 18.9803 75.014 19.347C75.19 19.4863 75.3807 19.633 75.586 19.787C75.7987 19.941 76.0003 20.084 76.191 20.216C76.389 20.348 76.5503 20.4543 76.675 20.535C76.543 20.6523 76.411 20.7917 76.279 20.953C76.147 21.107 76.0407 21.2537 75.96 21.393C75.8207 21.2977 75.6667 21.1877 75.498 21.063C75.3367 20.9383 75.1717 20.8063 75.003 20.667V24.814H73.826ZM80.052 21.437H81.097V20.656H80.052V21.437ZM80.052 19.71H81.097V18.94H80.052V19.71ZM77.852 21.437H78.875V20.656H77.852V21.437ZM77.852 19.71H78.875V18.94H77.852V19.71ZM86.773 24.935C86.7143 24.7737 86.63 24.5977 86.52 24.407C86.4173 24.2163 86.3073 24.0513 86.19 23.912C86.4907 23.8533 86.8097 23.7727 87.147 23.67C87.4843 23.5673 87.7997 23.45 88.093 23.318H87.092V19.413H92.526V23.318H91.525C91.8257 23.45 92.141 23.5673 92.471 23.67C92.8083 23.7727 93.1273 23.8533 93.428 23.912C93.3107 24.0513 93.197 24.2163 93.087 24.407C92.9843 24.5977 92.9037 24.7737 92.845 24.935C92.383 24.803 91.9173 24.6343 91.448 24.429C90.986 24.231 90.5607 24.0037 90.172 23.747L90.502 23.318H89.116L89.446 23.747C89.0647 24.0037 88.6393 24.231 88.17 24.429C87.7007 24.6343 87.235 24.803 86.773 24.935ZM84.551 24.825V19.017C84.4557 19.1783 84.353 19.336 84.243 19.49C84.1403 19.6367 84.0377 19.7723 83.935 19.897C83.8837 19.8163 83.803 19.721 83.693 19.611C83.5903 19.501 83.4803 19.3947 83.363 19.292C83.2457 19.182 83.143 19.1013 83.055 19.05C83.275 18.786 83.495 18.4707 83.715 18.104C83.9423 17.7373 84.155 17.3523 84.353 16.949C84.551 16.5457 84.7197 16.1533 84.859 15.772C85.0057 15.3907 85.112 15.0533 85.178 14.76L86.41 15.079C86.3367 15.3283 86.2413 15.5997 86.124 15.893C86.014 16.1863 85.8893 16.487 85.75 16.795V24.825H84.551ZM86.157 18.324V16.124H87.62C87.4147 15.8233 87.1837 15.5227 86.927 15.222L88.005 14.76C88.137 14.914 88.2727 15.0937 88.412 15.299C88.5587 15.497 88.6797 15.6803 88.775 15.849L88.236 16.124H89.193V14.716H90.436V16.124H91.382L90.821 15.893C90.9237 15.739 91.03 15.563 91.14 15.365C91.25 15.1597 91.3453 14.9543 91.426 14.749L92.647 15.09C92.537 15.2807 92.4233 15.464 92.306 15.64C92.196 15.816 92.086 15.9773 91.976 16.124H93.417V18.324H92.328V16.982H87.235V18.324H86.157ZM87.653 19.138V17.29H91.921V19.138H87.653ZM88.302 22.581H91.305V22.218H88.302V22.581ZM88.302 21.547H91.305V21.184H88.302V21.547ZM88.302 20.513H91.305V20.161H88.302V20.513ZM88.753 18.401H90.821V18.016H88.753V18.401ZM100.336 24.583C99.7347 24.583 99.192 24.5243 98.708 24.407C98.224 24.2897 97.8427 24.1027 97.564 23.846C97.2853 23.582 97.146 23.2373 97.146 22.812C97.146 22.46 97.2523 22.141 97.465 21.855C97.6777 21.5617 97.971 21.2977 98.345 21.063C98.719 20.821 99.1443 20.601 99.621 20.403V20.315C99.621 20.0583 99.555 19.8713 99.423 19.754C99.2983 19.6293 99.137 19.5597 98.939 19.545C98.6017 19.523 98.279 19.5707 97.971 19.688C97.663 19.8053 97.3587 20.018 97.058 20.326C96.97 20.414 96.8563 20.5277 96.717 20.667C96.5777 20.799 96.4383 20.931 96.299 21.063C96.1597 21.195 96.0387 21.305 95.936 21.393L94.979 20.447C95.4923 20.1097 95.9763 19.6843 96.431 19.171C96.8857 18.6577 97.2707 18.1113 97.586 17.532C97.1753 17.5467 96.8013 17.5613 96.464 17.576C96.1267 17.5833 95.8737 17.5833 95.705 17.576L95.661 16.311C95.9103 16.333 96.255 16.344 96.695 16.344C97.1423 16.344 97.6263 16.333 98.147 16.311C98.3157 15.827 98.411 15.3723 98.433 14.947L99.742 15.013C99.72 15.4017 99.6467 15.805 99.522 16.223C100.065 16.179 100.567 16.1313 101.029 16.08C101.498 16.0213 101.858 15.9553 102.107 15.882L102.184 17.103C101.979 17.1397 101.711 17.18 101.381 17.224C101.051 17.2607 100.684 17.2973 100.281 17.334C99.885 17.3707 99.478 17.4037 99.06 17.433C98.9647 17.6383 98.8547 17.8473 98.73 18.06C98.6127 18.2653 98.488 18.4633 98.356 18.654C98.6493 18.5367 98.9463 18.478 99.247 18.478C99.6797 18.478 100.043 18.5917 100.336 18.819C100.637 19.0463 100.824 19.4203 100.897 19.941C101.308 19.8017 101.726 19.677 102.151 19.567C102.584 19.4497 103.002 19.3433 103.405 19.248L103.779 20.458C103.266 20.5313 102.767 20.623 102.283 20.733C101.799 20.8357 101.348 20.953 100.93 21.085V22.548H99.632V21.58C99.2653 21.756 98.972 21.9393 98.752 22.13C98.532 22.3133 98.422 22.4893 98.422 22.658C98.422 22.9073 98.5723 23.0833 98.873 23.186C99.1737 23.2813 99.632 23.329 100.248 23.329C100.497 23.329 100.776 23.3143 101.084 23.285C101.399 23.2483 101.711 23.2043 102.019 23.153C102.334 23.0943 102.609 23.032 102.844 22.966C102.829 23.0613 102.815 23.2007 102.8 23.384C102.793 23.56 102.789 23.736 102.789 23.912C102.789 24.088 102.793 24.22 102.8 24.308C102.441 24.396 102.037 24.462 101.59 24.506C101.143 24.5573 100.725 24.583 100.336 24.583ZM105.495 24.583V23.593H109.862V23.087H106.463V22.24H109.862V21.756H106.727V18.082H109.862V17.587H105.638V16.63H109.862V16.168C109.334 16.19 108.813 16.2083 108.3 16.223C107.794 16.2303 107.314 16.234 106.859 16.234C106.852 16.1533 106.83 16.047 106.793 15.915C106.756 15.7757 106.712 15.6363 106.661 15.497C106.617 15.3503 106.569 15.233 106.518 15.145C106.943 15.1597 107.42 15.167 107.948 15.167C108.483 15.1597 109.03 15.145 109.587 15.123C110.152 15.101 110.698 15.0717 111.226 15.035C111.761 14.991 112.238 14.9433 112.656 14.892C113.081 14.8333 113.415 14.771 113.657 14.705L114.405 15.739C114.009 15.8123 113.529 15.882 112.964 15.948C112.399 16.0067 111.802 16.0543 111.171 16.091V16.63H115.351V17.587H111.171V18.082H114.284V21.756H111.171V22.24H114.57V23.087H111.171V23.593H115.549V24.583H105.495ZM108.069 20.865H109.862V20.304H108.069V20.865ZM108.069 19.512H109.862V18.951H108.069V19.512ZM111.171 20.865H112.953V20.304H111.171V20.865ZM111.171 19.512H112.953V18.951H111.171V19.512ZM120.246 24.891C120.18 24.737 120.081 24.55 119.949 24.33C119.824 24.1173 119.703 23.9597 119.586 23.857C120.151 23.6957 120.602 23.5087 120.939 23.296C121.276 23.076 121.529 22.7937 121.698 22.449C121.867 22.1043 121.973 21.668 122.017 21.14H121.027V20.271C120.902 20.4103 120.767 20.579 120.62 20.777C120.481 20.975 120.374 21.1473 120.301 21.294C120.147 21.1913 119.975 21.074 119.784 20.942C119.593 20.8027 119.399 20.6633 119.201 20.524V24.781H117.958V20.931C117.797 21.0703 117.628 21.2097 117.452 21.349C117.283 21.481 117.115 21.6093 116.946 21.734C116.851 21.5873 116.719 21.415 116.55 21.217C116.381 21.019 116.231 20.865 116.099 20.755C116.466 20.5277 116.84 20.2453 117.221 19.908C117.602 19.5707 117.954 19.215 118.277 18.841C118.6 18.4597 118.853 18.1003 119.036 17.763H116.55V16.652H117.947V14.782H119.201V16.652H120.323L120.796 17.07C120.62 17.4513 120.422 17.829 120.202 18.203C119.982 18.5697 119.74 18.9253 119.476 19.27C119.725 19.446 119.997 19.6257 120.29 19.809C120.583 19.985 120.829 20.128 121.027 20.238V15.09H125.867V21.14H124.855V23.252C124.855 23.3767 124.899 23.4463 124.987 23.461C125.002 23.4683 125.046 23.4757 125.119 23.483C125.2 23.4903 125.255 23.494 125.284 23.494C125.394 23.494 125.478 23.472 125.537 23.428C125.603 23.384 125.654 23.2923 125.691 23.153C125.735 23.0063 125.768 22.7863 125.79 22.493C125.915 22.559 126.091 22.6323 126.318 22.713C126.553 22.7863 126.754 22.845 126.923 22.889C126.864 23.395 126.776 23.7763 126.659 24.033C126.542 24.2897 126.384 24.462 126.186 24.55C125.995 24.638 125.746 24.682 125.438 24.682H124.657C124.298 24.682 124.037 24.6233 123.876 24.506C123.722 24.3887 123.645 24.1833 123.645 23.89V21.14H123.183C123.139 21.8367 123.014 22.4307 122.809 22.922C122.611 23.406 122.307 23.8057 121.896 24.121C121.485 24.4363 120.935 24.693 120.246 24.891ZM122.292 20.106H124.613V19.358H122.292V20.106ZM122.292 18.478H124.613V17.741H122.292V18.478ZM122.292 16.861H124.613V16.124H122.292V16.861Z" fill="white"/>
</svg>
