<svg width="134" height="99" viewBox="0 0 134 99" fill="none" xmlns="http://www.w3.org/2000/svg">
<path d="M0.5 9C0.5 4.85787 3.85787 1.5 8 1.5H126C130.142 1.5 133.5 4.85786 133.5 9V91C133.5 95.1421 130.142 98.5 126 98.5H8C3.85787 98.5 0.5 95.1421 0.5 91V9Z" fill="#C6C6C6" stroke="#C6C6C6"/>
<rect x="0.5" y="0.5" width="133" height="93" rx="8.5" fill="white" stroke="#C6C6C6"/>
<rect x="1" y="1" width="132" height="92" rx="8" fill="white"/>
<path d="M2 9C2 5.13401 5.13401 2 9 2H125C128.866 2 132 5.13401 132 9V36H2V9Z" fill="#6B9E13" stroke="white" stroke-width="2"/>
<path d="M36.1385 59V49.2H40.2545C41.0572 49.2 41.7199 49.4147 42.2425 49.844C42.7652 50.264 43.0265 50.8753 43.0265 51.678C43.0265 52.2473 42.8959 52.7233 42.6345 53.106C42.3825 53.4793 42.0605 53.7313 41.6685 53.862C42.1725 53.9553 42.5925 54.2307 42.9285 54.688C43.2739 55.136 43.4465 55.6913 43.4465 56.354C43.4465 57.2593 43.1759 57.9267 42.6345 58.356C42.0932 58.7853 41.3512 59 40.4085 59H36.1385ZM37.7485 57.502H40.1845C40.6979 57.502 41.0759 57.3947 41.3185 57.18C41.5705 56.956 41.6965 56.606 41.6965 56.13C41.6965 55.6727 41.5519 55.332 41.2625 55.108C40.9732 54.8747 40.6139 54.758 40.1845 54.758H37.7485V57.502ZM37.7485 53.246H39.9745C40.4039 53.246 40.7259 53.1293 40.9405 52.896C41.1552 52.6627 41.2625 52.3407 41.2625 51.93C41.2625 51.5193 41.1459 51.2113 40.9125 51.006C40.6885 50.8007 40.3665 50.698 39.9465 50.698H37.7485V53.246ZM45.7663 61.786C45.5423 61.786 45.3323 61.7767 45.1363 61.758C44.9403 61.7487 44.7629 61.7253 44.6043 61.688V60.246C44.7629 60.2833 44.9263 60.3113 45.0943 60.33C45.2716 60.358 45.4396 60.372 45.5983 60.372C45.8503 60.372 46.0369 60.344 46.1583 60.288C46.2889 60.232 46.3916 60.1387 46.4663 60.008C46.5409 59.8773 46.6249 59.7 46.7183 59.476L46.9003 58.986L44.2403 52.266H45.8783L47.5863 57.096L49.1963 52.266H50.8063L48.0623 59.938C47.8383 60.554 47.5629 61.016 47.2363 61.324C46.9189 61.632 46.4289 61.786 45.7663 61.786ZM54.5508 59.154C53.9348 59.154 53.3795 59.0093 52.8848 58.72C52.3995 58.4213 52.0122 58.0107 51.7228 57.488C51.4428 56.956 51.3028 56.3353 51.3028 55.626C51.3028 54.9167 51.4428 54.3007 51.7228 53.778C52.0122 53.246 52.3995 52.8353 52.8848 52.546C53.3795 52.2473 53.9348 52.098 54.5508 52.098C55.1015 52.098 55.6008 52.21 56.0488 52.434C56.5062 52.658 56.8795 52.98 57.1688 53.4L55.9088 54.324C55.6195 53.792 55.1668 53.526 54.5508 53.526C54.0655 53.526 53.6688 53.708 53.3608 54.072C53.0528 54.436 52.8988 54.954 52.8988 55.626C52.8988 56.298 53.0528 56.816 53.3608 57.18C53.6688 57.544 54.0655 57.726 54.5508 57.726C55.1575 57.726 55.6148 57.4647 55.9228 56.942L57.1688 57.852C56.8795 58.2627 56.5062 58.5847 56.0488 58.818C55.6008 59.042 55.1015 59.154 54.5508 59.154ZM58.5298 59V49.018H60.1118V59H58.5298ZM64.7647 59.154C63.7847 59.154 62.9914 58.86 62.3847 58.272C61.778 57.6747 61.4747 56.7927 61.4747 55.626C61.4747 54.898 61.61 54.2727 61.8807 53.75C62.1514 53.218 62.5294 52.812 63.0147 52.532C63.5 52.2427 64.0554 52.098 64.6807 52.098C65.306 52.098 65.838 52.252 66.2767 52.56C66.7154 52.8587 67.0514 53.2693 67.2847 53.792C67.518 54.3147 67.6347 54.9027 67.6347 55.556V55.92H63.0287C63.066 56.592 63.2434 57.0727 63.5607 57.362C63.878 57.642 64.2887 57.782 64.7927 57.782C65.2314 57.782 65.5907 57.6793 65.8707 57.474C66.1507 57.2593 66.3934 56.942 66.5987 56.522L67.7607 57.334C67.4154 57.978 66.9907 58.4447 66.4867 58.734C65.992 59.014 65.418 59.154 64.7647 59.154ZM63.0987 54.702H66.0807C66.006 54.2633 65.8427 53.9273 65.5907 53.694C65.348 53.4513 65.0354 53.33 64.6527 53.33C64.242 53.33 63.9014 53.442 63.6307 53.666C63.3694 53.89 63.192 54.2353 63.0987 54.702ZM76.7313 59.196C75.91 59.196 75.154 59.0233 74.4633 58.678C73.782 58.3327 73.236 57.7493 72.8253 56.928L74.1833 56.158C74.4633 56.6247 74.804 56.9933 75.2053 57.264C75.6066 57.5253 76.134 57.656 76.7873 57.656C77.4406 57.656 77.898 57.5393 78.1593 57.306C78.43 57.0633 78.5653 56.7367 78.5653 56.326C78.5653 56.0647 78.5046 55.8407 78.3833 55.654C78.2713 55.4673 78.0286 55.2947 77.6553 55.136C77.2913 54.968 76.7266 54.8 75.9613 54.632C75.056 54.4173 74.384 54.0767 73.9453 53.61C73.516 53.1433 73.3013 52.5507 73.3013 51.832C73.3013 51.2627 73.4366 50.7633 73.7073 50.334C73.9873 49.8953 74.3746 49.5547 74.8693 49.312C75.3733 49.0693 75.9613 48.948 76.6333 48.948C77.52 48.948 78.2666 49.144 78.8733 49.536C79.48 49.9187 79.942 50.3713 80.2593 50.894L78.9853 51.874C78.8266 51.65 78.64 51.4353 78.4253 51.23C78.2106 51.0153 77.9586 50.8427 77.6693 50.712C77.38 50.572 77.03 50.502 76.6193 50.502C76.134 50.502 75.7373 50.6093 75.4293 50.824C75.1306 51.0293 74.9813 51.342 74.9813 51.762C74.9813 51.9487 75.0233 52.1307 75.1073 52.308C75.2006 52.476 75.3966 52.6393 75.6953 52.798C76.0033 52.9567 76.4746 53.1107 77.1093 53.26C78.2293 53.512 79.0366 53.89 79.5313 54.394C80.026 54.898 80.2733 55.5327 80.2733 56.298C80.2733 57.2313 79.9466 57.95 79.2933 58.454C78.6493 58.9487 77.7953 59.196 76.7313 59.196ZM89.0096 59.126C88.9723 58.9767 88.9023 58.7993 88.7996 58.594C88.697 58.3887 88.5756 58.1927 88.4356 58.006C88.305 57.81 88.1743 57.6513 88.0436 57.53C89.3223 57.334 90.293 56.9187 90.9556 56.284C91.6276 55.64 91.9823 54.884 92.0196 54.016C92.057 53.3253 91.931 52.7093 91.6416 52.168C91.3523 51.6267 90.9556 51.188 90.4516 50.852C89.957 50.516 89.411 50.3153 88.8136 50.25C88.739 51.118 88.599 52.0047 88.3936 52.91C88.1883 53.8153 87.9083 54.6647 87.5536 55.458C87.2083 56.2513 86.7836 56.9233 86.2796 57.474C85.897 57.8847 85.5236 58.1227 85.1596 58.188C84.805 58.2533 84.427 58.202 84.0256 58.034C83.6336 57.866 83.2883 57.6 82.9896 57.236C82.691 56.872 82.4623 56.4427 82.3036 55.948C82.145 55.444 82.0796 54.9073 82.1076 54.338C82.1543 53.4887 82.355 52.714 82.7096 52.014C83.0643 51.3047 83.5403 50.6933 84.1376 50.18C84.735 49.6667 85.421 49.2793 86.1956 49.018C86.9703 48.7567 87.7963 48.6493 88.6736 48.696C89.383 48.7333 90.0503 48.892 90.6756 49.172C91.301 49.452 91.847 49.8393 92.3136 50.334C92.7896 50.8193 93.1536 51.384 93.4056 52.028C93.667 52.672 93.7743 53.3767 93.7276 54.142C93.6623 55.4207 93.2143 56.494 92.3836 57.362C91.553 58.2207 90.4283 58.8087 89.0096 59.126ZM84.4596 56.298C84.5623 56.3727 84.6696 56.41 84.7816 56.41C84.8936 56.41 85.0056 56.354 85.1176 56.242C85.4536 55.906 85.7616 55.43 86.0416 54.814C86.331 54.198 86.569 53.5027 86.7556 52.728C86.9516 51.9533 87.0776 51.1647 87.1336 50.362C86.4896 50.5113 85.9156 50.782 85.4116 51.174C84.917 51.566 84.525 52.042 84.2356 52.602C83.9463 53.1527 83.783 53.7593 83.7456 54.422C83.727 54.8607 83.783 55.2433 83.9136 55.57C84.0536 55.8873 84.2356 56.13 84.4596 56.298ZM15.97 79.434C15.2793 79.518 14.668 79.4853 14.136 79.336C13.604 79.196 13.1887 78.958 12.89 78.622C12.5913 78.286 12.442 77.866 12.442 77.362C12.442 76.6993 12.708 76.0507 13.24 75.416C13.7813 74.772 14.5233 74.2493 15.466 73.848V71.734C14.9527 71.7713 14.4533 71.7993 13.968 71.818C13.492 71.8367 13.0487 71.8367 12.638 71.818L12.554 70.208C12.9087 70.2453 13.3427 70.2593 13.856 70.25C14.3693 70.2313 14.906 70.194 15.466 70.138V67.884L17.02 67.898V69.956C17.4867 69.8813 17.9207 69.802 18.322 69.718C18.7327 69.6247 19.0687 69.5267 19.33 69.424L19.498 70.964C19.1713 71.0853 18.7933 71.1927 18.364 71.286C17.9347 71.3793 17.4867 71.4633 17.02 71.538V73.372C17.3467 73.2973 17.6873 73.2413 18.042 73.204C18.3967 73.1667 18.7653 73.148 19.148 73.148C20.044 73.148 20.8047 73.288 21.43 73.568C22.0647 73.8387 22.5453 74.2073 22.872 74.674C23.1987 75.1313 23.362 75.6493 23.362 76.228C23.362 77.124 23.0913 77.8287 22.55 78.342C22.0087 78.8553 21.276 79.1073 20.352 79.098C19.6333 79.098 19.0267 78.9207 18.532 78.566C18.0467 78.202 17.6967 77.6653 17.482 76.956C17.6967 76.8907 17.958 76.7927 18.266 76.662C18.574 76.522 18.8167 76.3913 18.994 76.27C19.2273 77.0447 19.6753 77.432 20.338 77.432C20.7487 77.432 21.0613 77.3153 21.276 77.082C21.4907 76.8393 21.598 76.5407 21.598 76.186C21.598 75.7287 21.3927 75.3507 20.982 75.052C20.5713 74.744 19.9553 74.59 19.134 74.59C18.3873 74.59 17.6827 74.6833 17.02 74.87V78.356C17.02 78.7013 16.9407 78.9533 16.782 79.112C16.6233 79.28 16.3527 79.3873 15.97 79.434ZM23.096 72.952C22.872 72.728 22.5687 72.4853 22.186 72.224C21.8033 71.9533 21.4113 71.7013 21.01 71.468C20.6087 71.2253 20.2493 71.0433 19.932 70.922L20.814 69.662C21.15 69.7927 21.5187 69.97 21.92 70.194C22.3213 70.418 22.7133 70.656 23.096 70.908C23.4787 71.16 23.8007 71.4027 24.062 71.636C23.9687 71.7387 23.852 71.8787 23.712 72.056C23.5813 72.2333 23.4553 72.406 23.334 72.574C23.222 72.742 23.1427 72.868 23.096 72.952ZM14.962 77.95C15.1393 77.9593 15.2653 77.9407 15.34 77.894C15.424 77.8473 15.466 77.7633 15.466 77.642V75.5C15.0367 75.7613 14.696 76.046 14.444 76.354C14.192 76.662 14.066 76.97 14.066 77.278C14.066 77.4927 14.1453 77.656 14.304 77.768C14.4627 77.88 14.682 77.9407 14.962 77.95ZM31.104 80.092V76.466H26.61V69.172H31.104V67.282H32.868V69.172H37.39V76.466H32.868V80.092H31.104ZM32.868 74.912H35.598V73.54H32.868V74.912ZM28.402 74.912H31.104V73.54H28.402V74.912ZM32.868 72.07H35.598V70.726H32.868V72.07ZM28.402 72.07H31.104V70.726H28.402V72.07ZM44.502 77.642C44.3433 77.446 44.152 77.2453 43.928 77.04C43.7133 76.8253 43.4987 76.6573 43.284 76.536C43.928 76.088 44.474 75.542 44.922 74.898C45.3793 74.254 45.7433 73.5633 46.014 72.826C46.294 72.0887 46.476 71.3607 46.56 70.642L47.4 70.768C47.3813 70.5627 47.3673 70.3573 47.358 70.152C47.3487 69.9373 47.344 69.718 47.344 69.494H44.796V67.884H48.94C48.856 69.144 48.9027 70.292 49.08 71.328C49.2573 72.3547 49.612 73.2787 50.144 74.1C50.676 74.9213 51.4227 75.6587 52.384 76.312C52.1693 76.4893 51.9453 76.7087 51.712 76.97C51.4787 77.2313 51.2967 77.4413 51.166 77.6C50.3447 77.0027 49.6353 76.298 49.038 75.486C48.4407 74.6647 47.9973 73.6987 47.708 72.588C47.4187 73.6147 47.0033 74.5573 46.462 75.416C45.93 76.2653 45.2767 77.0073 44.502 77.642ZM47.372 79.84C46.3827 79.84 45.5613 79.7887 44.908 79.686C44.2547 79.5927 43.718 79.4433 43.298 79.238C42.878 79.042 42.5187 78.7947 42.22 78.496C42.052 78.6173 41.8327 78.762 41.562 78.93C41.3007 79.0887 41.03 79.2473 40.75 79.406C40.4793 79.574 40.2413 79.714 40.036 79.826L39.35 78.188C39.5367 78.1133 39.7607 78.0247 40.022 77.922C40.2927 77.81 40.554 77.698 40.806 77.586C41.058 77.4647 41.2447 77.3713 41.366 77.306V73.82H39.7V72.364H42.962V77.096C43.1393 77.544 43.564 77.8613 44.236 78.048C44.9173 78.2347 45.9627 78.328 47.372 78.328C48.5667 78.328 49.5933 78.3093 50.452 78.272C51.3107 78.2253 52.006 78.1647 52.538 78.09C52.4913 78.1927 52.44 78.356 52.384 78.58C52.328 78.7947 52.2813 79.0187 52.244 79.252C52.2067 79.4853 52.1833 79.672 52.174 79.812C51.9127 79.812 51.572 79.812 51.152 79.812C50.732 79.8213 50.284 79.826 49.808 79.826C49.3413 79.8353 48.8933 79.84 48.464 79.84C48.0347 79.84 47.6707 79.84 47.372 79.84ZM42.402 70.698C42.234 70.4927 42.01 70.2593 41.73 69.998C41.45 69.7367 41.156 69.48 40.848 69.228C40.54 68.9667 40.2553 68.7567 39.994 68.598L41.044 67.52C41.2773 67.6507 41.5527 67.842 41.87 68.094C42.1967 68.3367 42.5093 68.5933 42.808 68.864C43.116 69.1253 43.354 69.354 43.522 69.55C43.438 69.6247 43.3213 69.7367 43.172 69.886C43.0227 70.026 42.8733 70.1707 42.724 70.32C42.584 70.4693 42.4767 70.5953 42.402 70.698ZM60.182 79.854C60.0327 79.6953 59.8133 79.5227 59.524 79.336C59.244 79.1587 58.9967 79.028 58.782 78.944C59.4447 78.4867 60.042 77.9173 60.574 77.236C61.1153 76.5453 61.5587 75.8033 61.904 75.01C61.5027 74.8887 61.0967 74.7907 60.686 74.716C60.2753 74.632 59.874 74.5713 59.482 74.534C59.2393 74.9913 58.9873 75.4113 58.726 75.794C58.474 76.1673 58.2173 76.4847 57.956 76.746C57.564 77.1473 57.1347 77.4273 56.668 77.586C56.2107 77.7447 55.7673 77.7913 55.338 77.726C54.918 77.6513 54.5727 77.4693 54.302 77.18C54.0313 76.8907 53.896 76.5033 53.896 76.018C53.896 75.4767 54.0733 74.982 54.428 74.534C54.7827 74.086 55.296 73.7267 55.968 73.456C56.6493 73.1853 57.48 73.0407 58.46 73.022C58.712 72.49 58.9547 71.9253 59.188 71.328C59.4213 70.7307 59.6313 70.138 59.818 69.55C59.4727 69.6433 59.1087 69.7367 58.726 69.83C58.3527 69.914 57.998 69.9887 57.662 70.054C57.3353 70.1193 57.0647 70.166 56.85 70.194L56.402 68.584C56.6447 68.5747 56.9573 68.5467 57.34 68.5C57.7227 68.4533 58.124 68.3927 58.544 68.318C58.9733 68.2433 59.3747 68.164 59.748 68.08C60.1307 67.996 60.434 67.912 60.658 67.828L61.834 68.458C61.6753 69.1113 61.4513 69.8533 61.162 70.684C60.8727 71.5147 60.5413 72.3313 60.168 73.134C60.5227 73.1807 60.882 73.2413 61.246 73.316C61.6193 73.3907 61.9973 73.4793 62.38 73.582C62.464 73.2553 62.5293 72.9333 62.576 72.616C62.6227 72.2893 62.6507 71.9673 62.66 71.65L64.326 72.056C64.2793 72.7093 64.1673 73.372 63.99 74.044C64.3633 74.1653 64.7273 74.296 65.082 74.436C65.446 74.576 65.7913 74.7253 66.118 74.884C66.0247 74.996 65.922 75.1453 65.81 75.332C65.698 75.5187 65.5953 75.7147 65.502 75.92C65.418 76.116 65.348 76.2887 65.292 76.438C65.0027 76.2793 64.704 76.1253 64.396 75.976C64.0973 75.8173 63.7893 75.6773 63.472 75.556C63.108 76.4053 62.646 77.208 62.086 77.964C61.526 78.7107 60.8913 79.3407 60.182 79.854ZM55.366 75.822C55.3847 75.9433 55.464 76.0413 55.604 76.116C55.744 76.1813 55.9167 76.1907 56.122 76.144C56.3367 76.0973 56.5653 75.9573 56.808 75.724C56.9387 75.5933 57.0787 75.4253 57.228 75.22C57.3773 75.0147 57.5267 74.7813 57.676 74.52C56.8827 74.604 56.29 74.7767 55.898 75.038C55.506 75.29 55.3287 75.5513 55.366 75.822ZM74.168 79.252C73.44 79.2147 72.8567 79 72.418 78.608C71.9793 78.216 71.7647 77.7307 71.774 77.152C71.7833 76.7973 71.9 76.4707 72.124 76.172C72.348 75.864 72.6653 75.6213 73.076 75.444C73.4867 75.2573 73.9767 75.164 74.546 75.164C74.8447 75.164 75.1247 75.178 75.386 75.206C75.3767 74.7953 75.3627 74.3287 75.344 73.806C75.3253 73.2833 75.3067 72.714 75.288 72.098C74.7093 72.1353 74.1493 72.1587 73.608 72.168C73.0667 72.168 72.6047 72.1587 72.222 72.14L72.11 70.432C72.4553 70.488 72.908 70.5207 73.468 70.53C74.0373 70.53 74.6347 70.516 75.26 70.488C75.2507 70.1147 75.2413 69.7367 75.232 69.354C75.232 68.962 75.232 68.5653 75.232 68.164H76.87C76.8607 68.5187 76.8513 68.8827 76.842 69.256C76.842 69.6293 76.842 70.0073 76.842 70.39C77.402 70.3433 77.9107 70.292 78.368 70.236C78.8253 70.1707 79.1707 70.1007 79.404 70.026V71.706C79.1427 71.762 78.788 71.8133 78.34 71.86C77.892 71.9067 77.4067 71.9533 76.884 72C76.9027 72.6813 76.926 73.3347 76.954 73.96C76.982 74.576 77.0053 75.1173 77.024 75.584C77.5467 75.7707 78.0507 76.0087 78.536 76.298C79.0213 76.5873 79.4973 76.9093 79.964 77.264C79.8613 77.348 79.74 77.4787 79.6 77.656C79.4693 77.824 79.348 78.0013 79.236 78.188C79.124 78.3653 79.04 78.5147 78.984 78.636C78.3587 78.0667 77.7147 77.6093 77.052 77.264C76.9867 78.0013 76.702 78.5287 76.198 78.846C75.7033 79.154 75.0267 79.2893 74.168 79.252ZM68.974 79.42C68.9087 79.056 68.8573 78.5893 68.82 78.02C68.7827 77.4413 68.7547 76.802 68.736 76.102C68.7267 75.3927 68.7267 74.6647 68.736 73.918C68.7453 73.162 68.7687 72.4247 68.806 71.706C68.8433 70.9873 68.89 70.3247 68.946 69.718C69.0113 69.1113 69.086 68.6073 69.17 68.206L70.766 68.584C70.6633 68.9107 70.5747 69.3493 70.5 69.9C70.4347 70.4507 70.3833 71.0667 70.346 71.748C70.3087 72.42 70.2853 73.1153 70.276 73.834C70.2667 74.5527 70.2713 75.2527 70.29 75.934C70.318 76.606 70.3553 77.222 70.402 77.782C70.458 78.342 70.5233 78.7947 70.598 79.14L68.974 79.42ZM74.294 77.824C74.6767 77.824 74.9613 77.7493 75.148 77.6C75.344 77.4413 75.442 77.1613 75.442 76.76V76.662C75.1247 76.5873 74.7933 76.5407 74.448 76.522C74.1027 76.5127 73.8227 76.5687 73.608 76.69C73.4027 76.8113 73.2953 76.97 73.286 77.166C73.2767 77.362 73.3653 77.5207 73.552 77.642C73.7387 77.7633 73.986 77.824 74.294 77.824ZM87.146 78.692C86.5207 78.692 85.9607 78.6267 85.466 78.496C84.9807 78.356 84.5607 78.1087 84.206 77.754C83.8607 77.3993 83.576 76.9047 83.352 76.27L84.836 75.458C84.9573 75.9433 85.2047 76.312 85.578 76.564C85.9513 76.816 86.474 76.942 87.146 76.942C87.7433 76.942 88.3593 76.914 88.994 76.858C89.6287 76.802 90.226 76.7227 90.786 76.62C91.346 76.5173 91.808 76.4007 92.172 76.27C92.172 76.4193 92.1813 76.6153 92.2 76.858C92.228 77.1007 92.2607 77.3387 92.298 77.572C92.3447 77.8053 92.3867 77.9873 92.424 78.118C92.0507 78.2393 91.5747 78.342 90.996 78.426C90.4173 78.51 89.792 78.5753 89.12 78.622C88.4573 78.6687 87.7993 78.692 87.146 78.692ZM84.948 70.46L84.934 68.766C85.2047 68.85 85.5407 68.9153 85.942 68.962C86.3527 69.0087 86.7913 69.0367 87.258 69.046C87.734 69.0553 88.21 69.0507 88.686 69.032C89.162 69.004 89.6007 68.9667 90.002 68.92C90.4033 68.864 90.7347 68.794 90.996 68.71V70.418C90.7627 70.4927 90.4453 70.5533 90.044 70.6C89.6427 70.6467 89.204 70.684 88.728 70.712C88.252 70.7307 87.7713 70.7353 87.286 70.726C86.8007 70.7167 86.3527 70.6887 85.942 70.642C85.5313 70.5953 85.2 70.5347 84.948 70.46ZM100.698 79.812C100.67 79.6533 100.614 79.462 100.53 79.238C100.455 79.0233 100.367 78.8133 100.264 78.608C100.161 78.3933 100.054 78.2207 99.942 78.09C101.501 78.2113 102.728 78.0947 103.624 77.74C104.52 77.376 104.968 76.8113 104.968 76.046C104.968 75.6353 104.795 75.3087 104.45 75.066C104.114 74.8233 103.685 74.702 103.162 74.702C102.555 74.702 101.939 74.8187 101.314 75.052C100.689 75.276 100.124 75.6587 99.62 76.2C99.5827 76.2467 99.5407 76.298 99.494 76.354C99.4567 76.4007 99.4147 76.4473 99.368 76.494L98.01 75.528C98.458 75.0893 98.8407 74.4967 99.158 73.75C99.4753 73.0033 99.7227 72.2193 99.9 71.398C98.6027 71.4447 97.4967 71.4447 96.582 71.398L96.47 69.746C96.8807 69.802 97.4127 69.8393 98.066 69.858C98.7193 69.8673 99.424 69.858 100.18 69.83C100.292 68.9433 100.334 68.1407 100.306 67.422H102.07C102.07 68.1033 102.014 68.878 101.902 69.746C102.555 69.6993 103.185 69.6433 103.792 69.578C104.399 69.5127 104.949 69.4427 105.444 69.368C105.939 69.284 106.34 69.1953 106.648 69.102L106.536 70.754C105.985 70.8753 105.271 70.9873 104.394 71.09C103.517 71.1833 102.597 71.258 101.636 71.314C101.543 71.7433 101.435 72.1727 101.314 72.602C101.202 73.0313 101.067 73.4467 100.908 73.848C101.319 73.6333 101.72 73.47 102.112 73.358C102.513 73.2367 102.91 73.176 103.302 73.176C103.965 73.1667 104.553 73.2787 105.066 73.512C105.589 73.7453 105.999 74.0813 106.298 74.52C106.597 74.9493 106.746 75.4673 106.746 76.074C106.746 77.306 106.228 78.2533 105.192 78.916C104.156 79.5787 102.658 79.8773 100.698 79.812ZM114.922 79.742C114.894 79.602 114.838 79.4247 114.754 79.21C114.679 78.9953 114.586 78.7807 114.474 78.566C114.362 78.3513 114.25 78.1833 114.138 78.062C115.631 78.0993 116.77 77.922 117.554 77.53C118.347 77.138 118.744 76.5827 118.744 75.864C118.744 75.444 118.576 75.1173 118.24 74.884C117.904 74.6507 117.465 74.534 116.924 74.534C116.504 74.534 116.056 74.5993 115.58 74.73C115.104 74.8513 114.651 75.0567 114.222 75.346C113.802 75.626 113.447 76.004 113.158 76.48L111.66 75.822C111.847 75.4953 112.005 75.0893 112.136 74.604C112.276 74.1093 112.388 73.596 112.472 73.064C112.556 72.532 112.617 72.028 112.654 71.552C112.691 71.076 112.696 70.684 112.668 70.376L114.418 70.586C114.427 71.0433 114.39 71.5847 114.306 72.21C114.222 72.826 114.091 73.4373 113.914 74.044C114.409 73.7173 114.927 73.4653 115.468 73.288C116.009 73.1107 116.518 73.022 116.994 73.022C117.722 73.022 118.352 73.148 118.884 73.4C119.425 73.6427 119.845 73.9833 120.144 74.422C120.443 74.8513 120.592 75.346 120.592 75.906C120.592 76.6153 120.387 77.2547 119.976 77.824C119.575 78.384 118.954 78.832 118.114 79.168C117.283 79.504 116.219 79.6953 114.922 79.742ZM117.246 70.768C117.013 70.5813 116.733 70.3947 116.406 70.208C116.089 70.0213 115.753 69.844 115.398 69.676C115.043 69.508 114.693 69.3633 114.348 69.242C114.012 69.1113 113.713 69.0227 113.452 68.976L114.292 67.52C114.535 67.5853 114.824 67.688 115.16 67.828C115.496 67.9587 115.846 68.108 116.21 68.276C116.583 68.444 116.933 68.612 117.26 68.78C117.596 68.948 117.871 69.102 118.086 69.242L117.246 70.768Z" fill="#6B9E13"/>
<path d="M13.816 24.011L13.068 22.669C13.596 22.5517 14.146 22.3683 14.718 22.119C15.2973 21.8623 15.873 21.5653 16.445 21.228C17.017 20.8833 17.5633 20.5167 18.084 20.128C18.6047 19.732 19.074 19.336 19.492 18.94C19.91 18.5367 20.251 18.1517 20.515 17.785C20.5443 17.9097 20.592 18.0637 20.658 18.247C20.7313 18.4303 20.8083 18.61 20.889 18.786C20.9697 18.9547 21.0393 19.0867 21.098 19.182C20.7313 19.644 20.2767 20.1097 19.734 20.579C19.1987 21.0483 18.6083 21.503 17.963 21.943C17.3177 22.3757 16.6393 22.7717 15.928 23.131C15.224 23.483 14.52 23.7763 13.816 24.011ZM15.862 18.181C15.7667 18.093 15.6273 17.9867 15.444 17.862C15.268 17.7373 15.0737 17.609 14.861 17.477C14.6483 17.3377 14.443 17.213 14.245 17.103C14.0543 16.993 13.8967 16.9123 13.772 16.861L14.52 15.717C14.6667 15.7903 14.839 15.8893 15.037 16.014C15.2423 16.1387 15.4477 16.2707 15.653 16.41C15.8657 16.542 16.06 16.6703 16.236 16.795C16.4193 16.9197 16.5587 17.0223 16.654 17.103L15.862 18.181ZM14.333 20.447C14.1937 20.3297 13.992 20.2013 13.728 20.062C13.464 19.9153 13.189 19.776 12.903 19.644C12.6243 19.5047 12.386 19.402 12.188 19.336L12.87 18.148C13.0827 18.2287 13.3283 18.3387 13.607 18.478C13.893 18.6173 14.168 18.7603 14.432 18.907C14.696 19.0537 14.905 19.1783 15.059 19.281L14.333 20.447ZM23.232 22.317V20.887C23.3713 20.8943 23.5987 20.9017 23.914 20.909C24.2293 20.9163 24.596 20.9237 25.014 20.931C25.432 20.9383 25.872 20.942 26.334 20.942C26.796 20.942 27.2397 20.942 27.665 20.942C28.0757 20.942 28.49 20.942 28.908 20.942C29.3333 20.9347 29.733 20.931 30.107 20.931C30.4883 20.9237 30.8183 20.9163 31.097 20.909C31.3757 20.9017 31.57 20.8943 31.68 20.887V22.317C31.526 22.3023 31.24 22.2913 30.822 22.284C30.4113 22.2767 29.9273 22.273 29.37 22.273C28.82 22.2657 28.2517 22.262 27.665 22.262C27.3863 22.262 27.0673 22.262 26.708 22.262C26.356 22.262 25.9967 22.2657 25.63 22.273C25.2633 22.273 24.915 22.2767 24.585 22.284C24.255 22.284 23.969 22.2877 23.727 22.295C23.4923 22.3023 23.3273 22.3097 23.232 22.317ZM24.387 18.489V17.059C24.497 17.0663 24.6693 17.0737 24.904 17.081C25.1387 17.0883 25.4137 17.0957 25.729 17.103C26.0517 17.1103 26.3853 17.114 26.73 17.114C27.082 17.114 27.4267 17.114 27.764 17.114C28.1967 17.114 28.6037 17.114 28.985 17.114C29.3737 17.1067 29.7073 17.0993 29.986 17.092C30.2647 17.0773 30.4517 17.0663 30.547 17.059V18.489C30.3637 18.467 30.0263 18.4523 29.535 18.445C29.051 18.4377 28.4607 18.434 27.764 18.434C27.4853 18.434 27.17 18.434 26.818 18.434C26.4733 18.434 26.1323 18.4377 25.795 18.445C25.4577 18.4523 25.1607 18.4597 24.904 18.467C24.6473 18.467 24.475 18.4743 24.387 18.489ZM40.238 20.095C40.172 20.007 40.0767 19.908 39.952 19.798C39.8347 19.688 39.71 19.5817 39.578 19.479C39.446 19.3763 39.325 19.2957 39.215 19.237C39.413 19.083 39.6293 18.896 39.864 18.676C40.0987 18.456 40.3333 18.2177 40.568 17.961C40.8027 17.7043 41.019 17.4477 41.217 17.191C40.8137 17.1983 40.348 17.213 39.82 17.235C39.2993 17.2497 38.7603 17.268 38.203 17.29C37.653 17.312 37.1213 17.334 36.608 17.356C36.0947 17.378 35.64 17.3963 35.244 17.411C34.848 17.4257 34.5547 17.4403 34.364 17.455L34.309 16.069C34.551 16.0837 34.881 16.0947 35.299 16.102C35.7243 16.102 36.1973 16.102 36.718 16.102C37.246 16.0947 37.7887 16.0873 38.346 16.08C38.9033 16.0653 39.4387 16.0507 39.952 16.036C40.4727 16.014 40.9347 15.9883 41.338 15.959C41.7487 15.9297 42.0603 15.9003 42.273 15.871L43.142 16.542C42.9807 16.8353 42.7827 17.147 42.548 17.477C42.3133 17.807 42.0603 18.137 41.789 18.467C41.525 18.7897 41.2573 19.094 40.986 19.38C40.722 19.6587 40.4727 19.897 40.238 20.095ZM35.992 24.484C35.926 24.3887 35.838 24.275 35.728 24.143C35.618 24.0183 35.5007 23.8973 35.376 23.78C35.2513 23.6553 35.1303 23.56 35.013 23.494C35.695 23.1127 36.2377 22.647 36.641 22.097C37.0443 21.547 37.3303 20.9237 37.499 20.227C37.6677 19.5303 37.7373 18.7787 37.708 17.972H39.083C39.083 19.468 38.83 20.755 38.324 21.833C37.8253 22.9037 37.048 23.7873 35.992 24.484ZM46.134 24.374V18.841H44.473V17.609H46.134V15.277H47.476V17.609H48.851V15.002H50.127V17.609H51.546V15.277H52.822V17.609H54.538V18.841H52.822V22.02H48.851V18.841H47.476V23.131H53.966V24.374H46.134ZM50.127 20.821H51.546V18.841H50.127V20.821ZM64.009 24.627C63.7157 24.5023 63.4077 24.3117 63.085 24.055C62.7697 23.8057 62.4653 23.4683 62.172 23.043C61.8787 22.6177 61.611 22.0823 61.369 21.437C61.1343 20.7843 60.9473 20.0033 60.808 19.094L58.894 19.292L58.751 18.016L60.665 17.829C60.6357 17.5137 60.6137 17.1873 60.599 16.85C60.5843 16.5127 60.577 16.1607 60.577 15.794V14.826H61.886V15.783C61.886 16.135 61.8933 16.4687 61.908 16.784C61.9227 17.0993 61.941 17.4037 61.963 17.697L65.131 17.378L65.274 18.643L62.117 18.962C62.249 19.7613 62.425 20.4397 62.645 20.997C62.865 21.547 63.1143 21.998 63.393 22.35C63.679 22.6947 63.9797 22.9587 64.295 23.142C64.3757 22.9073 64.4453 22.658 64.504 22.394C64.5627 22.1227 64.603 21.899 64.625 21.723C64.7057 21.7743 64.8193 21.8367 64.966 21.91C65.1127 21.976 65.263 22.0383 65.417 22.097C65.571 22.1557 65.6993 22.1997 65.802 22.229C65.7653 22.471 65.7103 22.7277 65.637 22.999C65.571 23.2703 65.494 23.527 65.406 23.769C65.3253 24.0037 65.2447 24.198 65.164 24.352C65.0467 24.5647 64.889 24.6893 64.691 24.726C64.493 24.77 64.2657 24.737 64.009 24.627ZM57.178 24.803V19.193C56.9873 19.4423 56.793 19.6807 56.595 19.908C56.4043 20.1353 56.2137 20.3333 56.023 20.502C55.913 20.37 55.77 20.2307 55.594 20.084C55.4253 19.93 55.2567 19.8053 55.088 19.71C55.308 19.5267 55.539 19.2847 55.781 18.984C56.0303 18.6833 56.276 18.3497 56.518 17.983C56.7673 17.6163 56.9947 17.246 57.2 16.872C57.4127 16.4907 57.596 16.1313 57.75 15.794C57.904 15.4493 58.0103 15.156 58.069 14.914L59.279 15.332C59.1837 15.618 59.07 15.915 58.938 16.223C58.806 16.5237 58.6557 16.8317 58.487 17.147V24.803H57.178ZM63.998 17.301C63.7927 17.0443 63.547 16.7803 63.261 16.509C62.9823 16.2377 62.7257 16.025 62.491 15.871L63.316 15.013C63.4847 15.1157 63.6717 15.2587 63.877 15.442C64.0897 15.618 64.2913 15.7977 64.482 15.981C64.6727 16.1643 64.8193 16.322 64.922 16.454C64.834 16.5127 64.7277 16.597 64.603 16.707C64.4783 16.8097 64.361 16.916 64.251 17.026C64.141 17.136 64.0567 17.2277 63.998 17.301ZM71.72 24.847C71.7053 24.671 71.6687 24.4547 71.61 24.198C71.5513 23.9413 71.4927 23.7397 71.434 23.593H72.468C72.6147 23.593 72.721 23.571 72.787 23.527C72.853 23.4757 72.886 23.3767 72.886 23.23V22.383H69.806C70.0553 22.559 70.3157 22.7607 70.587 22.988C70.8583 23.2153 71.0783 23.4243 71.247 23.615C71.1077 23.7323 70.939 23.8863 70.741 24.077C70.5503 24.275 70.4037 24.4473 70.301 24.594C70.1763 24.44 70.0187 24.2713 69.828 24.088C69.6373 23.9047 69.4393 23.7287 69.234 23.56C69.036 23.3913 68.849 23.252 68.673 23.142L69.388 22.383H66.44V21.305H72.886V20.854H67.782V16.982H70.895V16.498H66.605V15.475H70.895V14.749H72.171V15.475H76.395V16.498H72.171V16.982H75.273V20.854H74.206V21.305H76.494V22.383H74.206V23.692C74.206 24.0953 74.0923 24.3887 73.865 24.572C73.6377 24.7553 73.2893 24.847 72.82 24.847H71.72ZM69.102 19.886H70.895V19.314H69.102V19.886ZM72.171 19.886H73.964V19.314H72.171V19.886ZM69.102 18.522H70.895V17.95H69.102V18.522ZM72.171 18.522H73.964V17.95H72.171V18.522ZM78.573 24.847C78.3897 24.7297 78.1807 24.6087 77.946 24.484C77.7113 24.3667 77.5023 24.2823 77.319 24.231C77.7297 23.6883 78.034 23.032 78.232 22.262C78.4373 21.492 78.54 20.5643 78.54 19.479V15.123H86.823V23.593C86.823 24.3777 86.35 24.77 85.404 24.77H84.568C84.5607 24.6453 84.5423 24.4987 84.513 24.33C84.4837 24.1613 84.4507 23.9963 84.414 23.835C84.3847 23.6737 84.348 23.5417 84.304 23.439H85.074C85.228 23.439 85.3343 23.417 85.393 23.373C85.4517 23.3217 85.481 23.219 85.481 23.065V21.217H83.292V24.418H81.983V21.217H79.816C79.7427 21.9503 79.607 22.6103 79.409 23.197C79.211 23.7763 78.9323 24.3263 78.573 24.847ZM83.292 20.073H85.481V18.764H83.292V20.073ZM83.292 17.587H85.481V16.3H83.292V17.587ZM79.882 20.073H81.983V18.764H79.893V19.479C79.893 19.5817 79.893 19.6807 79.893 19.776C79.893 19.8713 79.8893 19.9703 79.882 20.073ZM79.893 17.587H81.983V16.3H79.893V17.587ZM94.347 24.099C94.3177 23.9817 94.2627 23.8423 94.182 23.681C94.1013 23.5197 94.006 23.3657 93.896 23.219C93.7933 23.065 93.6907 22.9403 93.588 22.845C94.5927 22.691 95.3553 22.3647 95.876 21.866C96.404 21.36 96.6827 20.766 96.712 20.084C96.7413 19.5413 96.6423 19.0573 96.415 18.632C96.1877 18.2067 95.876 17.862 95.48 17.598C95.0913 17.334 94.6623 17.1763 94.193 17.125C94.1343 17.807 94.0243 18.5037 93.863 19.215C93.7017 19.9263 93.4817 20.5937 93.203 21.217C92.9317 21.8403 92.598 22.3683 92.202 22.801C91.9013 23.1237 91.608 23.3107 91.322 23.362C91.0433 23.4133 90.7463 23.373 90.431 23.241C90.123 23.109 89.8517 22.9 89.617 22.614C89.3823 22.328 89.2027 21.9907 89.078 21.602C88.9533 21.206 88.902 20.7843 88.924 20.337C88.9607 19.6697 89.1183 19.061 89.397 18.511C89.6757 17.9537 90.0497 17.4733 90.519 17.07C90.9883 16.6667 91.5273 16.3623 92.136 16.157C92.7447 15.9517 93.3937 15.8673 94.083 15.904C94.6403 15.9333 95.1647 16.058 95.656 16.278C96.1473 16.498 96.5763 16.8023 96.943 17.191C97.317 17.5723 97.603 18.016 97.801 18.522C98.0063 19.028 98.0907 19.5817 98.054 20.183C98.0027 21.1877 97.6507 22.031 96.998 22.713C96.3453 23.3877 95.4617 23.8497 94.347 24.099ZM90.772 21.877C90.8527 21.9357 90.937 21.965 91.025 21.965C91.113 21.965 91.201 21.921 91.289 21.833C91.553 21.569 91.795 21.195 92.015 20.711C92.2423 20.227 92.4293 19.6807 92.576 19.072C92.73 18.4633 92.829 17.8437 92.873 17.213C92.367 17.3303 91.916 17.543 91.52 17.851C91.1313 18.159 90.8233 18.533 90.596 18.973C90.3687 19.4057 90.2403 19.8823 90.211 20.403C90.1963 20.7477 90.2403 21.0483 90.343 21.305C90.453 21.5543 90.596 21.745 90.772 21.877ZM100.716 24.803V19.391C100.606 19.5523 100.496 19.7027 100.386 19.842C100.276 19.9813 100.162 20.1133 100.045 20.238C99.9277 20.1133 99.7737 19.985 99.583 19.853C99.3923 19.7137 99.2127 19.6073 99.044 19.534C99.3007 19.2773 99.5573 18.9473 99.814 18.544C100.071 18.1333 100.309 17.697 100.529 17.235C100.756 16.773 100.947 16.3257 101.101 15.893C101.255 15.4603 101.358 15.09 101.409 14.782L102.663 15.068C102.59 15.3833 102.498 15.7097 102.388 16.047C102.278 16.3843 102.15 16.7253 102.003 17.07V23.153C102.274 22.999 102.582 22.7973 102.927 22.548C103.272 22.2987 103.613 22.0273 103.95 21.734C104.287 21.4407 104.573 21.1583 104.808 20.887H102.41V19.721H105.248V18.83H103.114V15.123H108.636V18.83H106.524V19.721H109.373V20.887H106.953C107.144 21.0923 107.364 21.3087 107.613 21.536C107.862 21.756 108.123 21.9687 108.394 22.174C108.665 22.3793 108.929 22.5663 109.186 22.735C109.443 22.9037 109.67 23.0393 109.868 23.142C109.729 23.2667 109.582 23.428 109.428 23.626C109.281 23.824 109.16 24 109.065 24.154C108.662 23.912 108.233 23.604 107.778 23.23C107.323 22.856 106.905 22.4673 106.524 22.064V24.803H105.248V22.042C104.874 22.46 104.456 22.8597 103.994 23.241C103.539 23.6223 103.107 23.9377 102.696 24.187C102.615 24.055 102.509 23.9083 102.377 23.747C102.252 23.5783 102.128 23.4353 102.003 23.318V24.803H100.716ZM104.478 17.675H107.283V16.278H104.478V17.675ZM113.74 24.869C113.689 24.7003 113.608 24.517 113.498 24.319C113.395 24.121 113.293 23.9523 113.19 23.813C113.923 23.6443 114.554 23.3987 115.082 23.076C115.61 22.7533 115.999 22.3537 116.248 21.877H114.345V18.874H116.534V18.313H115.159V17.587C114.983 17.719 114.803 17.8437 114.62 17.961C114.444 18.071 114.272 18.1737 114.103 18.269C114.037 18.1737 113.945 18.049 113.828 17.895C113.711 17.741 113.601 17.6053 113.498 17.488C113.395 17.7007 113.296 17.8987 113.201 18.082C113.113 18.258 113.047 18.39 113.003 18.478C113.296 18.7493 113.553 19.0757 113.773 19.457C113.993 19.8383 114.103 20.2637 114.103 20.733C114.103 21.2023 114.03 21.5763 113.883 21.855C113.744 22.1337 113.557 22.3353 113.322 22.46C113.087 22.5847 112.823 22.647 112.53 22.647H112.211C112.189 22.4563 112.145 22.251 112.079 22.031C112.013 21.8037 111.951 21.6203 111.892 21.481V24.792H110.682V15.134H113.905L114.4 15.563C114.341 15.7097 114.246 15.9187 114.114 16.19C113.989 16.4613 113.857 16.7437 113.718 17.037C114.099 16.839 114.466 16.608 114.818 16.344C115.17 16.08 115.493 15.7977 115.786 15.497C116.079 15.1963 116.314 14.8993 116.49 14.606L117.579 14.771C117.748 14.9763 117.96 15.189 118.217 15.409C118.481 15.629 118.763 15.8453 119.064 16.058C119.372 16.2633 119.68 16.4503 119.988 16.619C120.303 16.7877 120.597 16.927 120.868 17.037C120.78 17.1177 120.685 17.2277 120.582 17.367C120.479 17.5063 120.384 17.6493 120.296 17.796C120.208 17.9353 120.142 18.0527 120.098 18.148C119.959 18.0893 119.797 18.0087 119.614 17.906C119.431 17.796 119.24 17.6713 119.042 17.532V18.313H117.722V18.874H119.933V21.877H117.997C118.232 22.1483 118.507 22.405 118.822 22.647C119.137 22.889 119.471 23.1017 119.823 23.285C120.175 23.461 120.52 23.6003 120.857 23.703C120.718 23.8423 120.571 24.0183 120.417 24.231C120.263 24.451 120.149 24.6343 120.076 24.781C119.511 24.5757 118.976 24.2933 118.47 23.934C117.971 23.5673 117.55 23.1567 117.205 22.702C116.882 23.2373 116.42 23.6773 115.819 24.022C115.225 24.374 114.532 24.6563 113.74 24.869ZM111.892 21.415H112.189C112.372 21.415 112.519 21.36 112.629 21.25C112.739 21.1327 112.794 20.8907 112.794 20.524C112.794 19.82 112.493 19.1967 111.892 18.654V21.415ZM115.654 17.213H118.58C118.265 16.9783 117.96 16.74 117.667 16.498C117.381 16.2487 117.161 16.0323 117.007 15.849C116.868 16.0543 116.677 16.278 116.435 16.52C116.193 16.7547 115.933 16.9857 115.654 17.213ZM111.892 18.39C111.958 18.258 112.035 18.0893 112.123 17.884C112.211 17.6787 112.299 17.4697 112.387 17.257C112.482 17.037 112.567 16.8353 112.64 16.652C112.713 16.4613 112.765 16.3183 112.794 16.223H111.892V18.39ZM117.722 20.821H118.723V19.93H117.722V20.821ZM115.555 20.821H116.534V19.93H115.555V20.821Z" fill="white"/>
</svg>
