<svg width="134" height="99" viewBox="0 0 134 99" fill="none" xmlns="http://www.w3.org/2000/svg">
<path d="M0.5 9C0.5 4.85787 3.85787 1.5 8 1.5H126C130.142 1.5 133.5 4.85786 133.5 9V91C133.5 95.1421 130.142 98.5 126 98.5H8C3.85787 98.5 0.5 95.1421 0.5 91V9Z" fill="#C6C6C6" stroke="#C6C6C6"/>
<rect x="0.5" y="0.5" width="133" height="93" rx="8.5" fill="white" stroke="#C6C6C6"/>
<rect x="1" y="1" width="132" height="92" rx="8" fill="white"/>
<path d="M2 9C2 5.13401 5.13401 2 9 2H125C128.866 2 132 5.13401 132 9V36H2V9Z" fill="#057CD8" stroke="white" stroke-width="2"/>
<path d="M26.4725 59V49.2H30.5885C31.3912 49.2 32.0538 49.4147 32.5765 49.844C33.0992 50.264 33.3605 50.8753 33.3605 51.678C33.3605 52.2473 33.2298 52.7233 32.9685 53.106C32.7165 53.4793 32.3945 53.7313 32.0025 53.862C32.5065 53.9553 32.9265 54.2307 33.2625 54.688C33.6078 55.136 33.7805 55.6913 33.7805 56.354C33.7805 57.2593 33.5098 57.9267 32.9685 58.356C32.4272 58.7853 31.6852 59 30.7425 59H26.4725ZM28.0825 57.502H30.5185C31.0318 57.502 31.4098 57.3947 31.6525 57.18C31.9045 56.956 32.0305 56.606 32.0305 56.13C32.0305 55.6727 31.8858 55.332 31.5965 55.108C31.3072 54.8747 30.9478 54.758 30.5185 54.758H28.0825V57.502ZM28.0825 53.246H30.3085C30.7378 53.246 31.0598 53.1293 31.2745 52.896C31.4892 52.6627 31.5965 52.3407 31.5965 51.93C31.5965 51.5193 31.4798 51.2113 31.2465 51.006C31.0225 50.8007 30.7005 50.698 30.2805 50.698H28.0825V53.246ZM36.1003 61.786C35.8763 61.786 35.6663 61.7767 35.4703 61.758C35.2743 61.7487 35.0969 61.7253 34.9383 61.688V60.246C35.0969 60.2833 35.2603 60.3113 35.4283 60.33C35.6056 60.358 35.7736 60.372 35.9323 60.372C36.1843 60.372 36.3709 60.344 36.4923 60.288C36.6229 60.232 36.7256 60.1387 36.8003 60.008C36.8749 59.8773 36.9589 59.7 37.0523 59.476L37.2343 58.986L34.5743 52.266H36.2123L37.9203 57.096L39.5303 52.266H41.1403L38.3963 59.938C38.1723 60.554 37.8969 61.016 37.5703 61.324C37.2529 61.632 36.7629 61.786 36.1003 61.786ZM44.8848 59.154C44.2688 59.154 43.7135 59.0093 43.2188 58.72C42.7335 58.4213 42.3461 58.0107 42.0568 57.488C41.7768 56.956 41.6368 56.3353 41.6368 55.626C41.6368 54.9167 41.7768 54.3007 42.0568 53.778C42.3461 53.246 42.7335 52.8353 43.2188 52.546C43.7135 52.2473 44.2688 52.098 44.8848 52.098C45.4355 52.098 45.9348 52.21 46.3828 52.434C46.8401 52.658 47.2135 52.98 47.5028 53.4L46.2428 54.324C45.9535 53.792 45.5008 53.526 44.8848 53.526C44.3995 53.526 44.0028 53.708 43.6948 54.072C43.3868 54.436 43.2328 54.954 43.2328 55.626C43.2328 56.298 43.3868 56.816 43.6948 57.18C44.0028 57.544 44.3995 57.726 44.8848 57.726C45.4915 57.726 45.9488 57.4647 46.2568 56.942L47.5028 57.852C47.2135 58.2627 46.8401 58.5847 46.3828 58.818C45.9348 59.042 45.4355 59.154 44.8848 59.154ZM48.8638 59V49.018H50.4458V59H48.8638ZM55.0987 59.154C54.1187 59.154 53.3254 58.86 52.7187 58.272C52.112 57.6747 51.8087 56.7927 51.8087 55.626C51.8087 54.898 51.944 54.2727 52.2147 53.75C52.4854 53.218 52.8634 52.812 53.3487 52.532C53.834 52.2427 54.3894 52.098 55.0147 52.098C55.64 52.098 56.172 52.252 56.6107 52.56C57.0494 52.8587 57.3854 53.2693 57.6187 53.792C57.852 54.3147 57.9687 54.9027 57.9687 55.556V55.92H53.3627C53.4 56.592 53.5774 57.0727 53.8947 57.362C54.212 57.642 54.6227 57.782 55.1267 57.782C55.5654 57.782 55.9247 57.6793 56.2047 57.474C56.4847 57.2593 56.7274 56.942 56.9327 56.522L58.0947 57.334C57.7494 57.978 57.3247 58.4447 56.8207 58.734C56.326 59.014 55.752 59.154 55.0987 59.154ZM53.4327 54.702H56.4147C56.34 54.2633 56.1767 53.9273 55.9247 53.694C55.682 53.4513 55.3694 53.33 54.9867 53.33C54.576 53.33 54.2354 53.442 53.9647 53.666C53.7034 53.89 53.526 54.2353 53.4327 54.702ZM63.5233 59V49.2H67.6393C68.442 49.2 69.1046 49.4147 69.6273 49.844C70.15 50.264 70.4113 50.8753 70.4113 51.678C70.4113 52.2473 70.2806 52.7233 70.0193 53.106C69.7673 53.4793 69.4453 53.7313 69.0533 53.862C69.5573 53.9553 69.9773 54.2307 70.3133 54.688C70.6586 55.136 70.8313 55.6913 70.8313 56.354C70.8313 57.2593 70.5606 57.9267 70.0193 58.356C69.478 58.7853 68.736 59 67.7933 59H63.5233ZM65.1333 57.502H67.5693C68.0826 57.502 68.4606 57.3947 68.7033 57.18C68.9553 56.956 69.0813 56.606 69.0813 56.13C69.0813 55.6727 68.9366 55.332 68.6473 55.108C68.358 54.8747 67.9986 54.758 67.5693 54.758H65.1333V57.502ZM65.1333 53.246H67.3593C67.7886 53.246 68.1106 53.1293 68.3253 52.896C68.54 52.6627 68.6473 52.3407 68.6473 51.93C68.6473 51.5193 68.5306 51.2113 68.2973 51.006C68.0733 50.8007 67.7513 50.698 67.3313 50.698H65.1333V53.246ZM75.251 59.154C74.271 59.154 73.4777 58.86 72.871 58.272C72.2644 57.6747 71.961 56.7927 71.961 55.626C71.961 54.898 72.0964 54.2727 72.367 53.75C72.6377 53.218 73.0157 52.812 73.501 52.532C73.9864 52.2427 74.5417 52.098 75.167 52.098C75.7924 52.098 76.3244 52.252 76.763 52.56C77.2017 52.8587 77.5377 53.2693 77.771 53.792C78.0044 54.3147 78.121 54.9027 78.121 55.556V55.92H73.515C73.5524 56.592 73.7297 57.0727 74.047 57.362C74.3644 57.642 74.775 57.782 75.279 57.782C75.7177 57.782 76.077 57.6793 76.357 57.474C76.637 57.2593 76.8797 56.942 77.085 56.522L78.247 57.334C77.9017 57.978 77.477 58.4447 76.973 58.734C76.4784 59.014 75.9044 59.154 75.251 59.154ZM73.585 54.702H76.567C76.4924 54.2633 76.329 53.9273 76.077 53.694C75.8344 53.4513 75.5217 53.33 75.139 53.33C74.7284 53.33 74.3877 53.442 74.117 53.666C73.8557 53.89 73.6784 54.2353 73.585 54.702ZM82.0338 59.14C81.4831 59.14 80.9605 59.0467 80.4658 58.86C79.9711 58.664 79.5325 58.356 79.1498 57.936L80.1298 56.886C80.6525 57.474 81.3151 57.768 82.1178 57.768C82.5005 57.768 82.7758 57.7167 82.9438 57.614C83.1211 57.502 83.2098 57.3013 83.2098 57.012C83.2098 56.872 83.1678 56.76 83.0838 56.676C82.9998 56.5827 82.8411 56.4987 82.6078 56.424C82.3838 56.3493 82.0525 56.27 81.6138 56.186C80.9605 56.0553 80.4378 55.8407 80.0458 55.542C79.6538 55.2433 79.4578 54.772 79.4578 54.128C79.4578 53.708 79.5698 53.3487 79.7938 53.05C80.0178 52.742 80.3211 52.504 80.7038 52.336C81.0865 52.168 81.5111 52.084 81.9778 52.084C82.5005 52.084 82.9765 52.1633 83.4058 52.322C83.8351 52.4713 84.2085 52.7093 84.5258 53.036L83.6438 54.142C83.4198 53.8993 83.1678 53.7267 82.8878 53.624C82.6078 53.5213 82.3138 53.47 82.0058 53.47C81.6605 53.47 81.4131 53.5307 81.2638 53.652C81.1238 53.7733 81.0538 53.918 81.0538 54.086C81.0538 54.2073 81.0865 54.31 81.1518 54.394C81.2265 54.478 81.3665 54.5573 81.5718 54.632C81.7771 54.7067 82.0758 54.7907 82.4678 54.884C83.2145 55.0613 83.7931 55.318 84.2038 55.654C84.6145 55.99 84.8198 56.4613 84.8198 57.068C84.8198 57.7493 84.5585 58.2673 84.0358 58.622C83.5225 58.9673 82.8551 59.14 82.0338 59.14ZM88.8229 59.154C88.1603 59.154 87.6516 59.0327 87.2969 58.79C86.9516 58.5473 86.7789 58.062 86.7789 57.334V53.624H85.4909V52.266H86.7789V49.9H88.3469V52.266H90.2089V53.624H88.3469V56.928C88.3469 57.2453 88.4216 57.46 88.5709 57.572C88.7296 57.684 88.9536 57.74 89.2429 57.74C89.4203 57.74 89.5976 57.712 89.7749 57.656C89.9616 57.6 90.1063 57.544 90.2089 57.488V58.93C90.0409 58.9953 89.8309 59.0467 89.5789 59.084C89.3269 59.1307 89.0749 59.154 88.8229 59.154ZM98.6757 59.126C98.6383 58.9767 98.5683 58.7993 98.4657 58.594C98.363 58.3887 98.2417 58.1927 98.1017 58.006C97.971 57.81 97.8403 57.6513 97.7097 57.53C98.9883 57.334 99.959 56.9187 100.622 56.284C101.294 55.64 101.648 54.884 101.686 54.016C101.723 53.3253 101.597 52.7093 101.308 52.168C101.018 51.6267 100.622 51.188 100.118 50.852C99.623 50.516 99.077 50.3153 98.4797 50.25C98.405 51.118 98.265 52.0047 98.0597 52.91C97.8543 53.8153 97.5743 54.6647 97.2197 55.458C96.8743 56.2513 96.4497 56.9233 95.9457 57.474C95.563 57.8847 95.1897 58.1227 94.8257 58.188C94.471 58.2533 94.093 58.202 93.6917 58.034C93.2997 57.866 92.9543 57.6 92.6557 57.236C92.357 56.872 92.1283 56.4427 91.9697 55.948C91.811 55.444 91.7457 54.9073 91.7737 54.338C91.8203 53.4887 92.021 52.714 92.3757 52.014C92.7303 51.3047 93.2063 50.6933 93.8037 50.18C94.401 49.6667 95.087 49.2793 95.8617 49.018C96.6363 48.7567 97.4623 48.6493 98.3397 48.696C99.049 48.7333 99.7163 48.892 100.342 49.172C100.967 49.452 101.513 49.8393 101.98 50.334C102.456 50.8193 102.82 51.384 103.072 52.028C103.333 52.672 103.44 53.3767 103.394 54.142C103.328 55.4207 102.88 56.494 102.05 57.362C101.219 58.2207 100.094 58.8087 98.6757 59.126ZM94.1257 56.298C94.2283 56.3727 94.3357 56.41 94.4477 56.41C94.5597 56.41 94.6717 56.354 94.7837 56.242C95.1197 55.906 95.4277 55.43 95.7077 54.814C95.997 54.198 96.235 53.5027 96.4217 52.728C96.6177 51.9533 96.7437 51.1647 96.7997 50.362C96.1557 50.5113 95.5817 50.782 95.0777 51.174C94.583 51.566 94.191 52.042 93.9017 52.602C93.6123 53.1527 93.449 53.7593 93.4117 54.422C93.393 54.8607 93.449 55.2433 93.5797 55.57C93.7197 55.8873 93.9017 56.13 94.1257 56.298ZM15.97 79.434C15.2793 79.518 14.668 79.4853 14.136 79.336C13.604 79.196 13.1887 78.958 12.89 78.622C12.5913 78.286 12.442 77.866 12.442 77.362C12.442 76.6993 12.708 76.0507 13.24 75.416C13.7813 74.772 14.5233 74.2493 15.466 73.848V71.734C14.9527 71.7713 14.4533 71.7993 13.968 71.818C13.492 71.8367 13.0487 71.8367 12.638 71.818L12.554 70.208C12.9087 70.2453 13.3427 70.2593 13.856 70.25C14.3693 70.2313 14.906 70.194 15.466 70.138V67.884L17.02 67.898V69.956C17.4867 69.8813 17.9207 69.802 18.322 69.718C18.7327 69.6247 19.0687 69.5267 19.33 69.424L19.498 70.964C19.1713 71.0853 18.7933 71.1927 18.364 71.286C17.9347 71.3793 17.4867 71.4633 17.02 71.538V73.372C17.3467 73.2973 17.6873 73.2413 18.042 73.204C18.3967 73.1667 18.7653 73.148 19.148 73.148C20.044 73.148 20.8047 73.288 21.43 73.568C22.0647 73.8387 22.5453 74.2073 22.872 74.674C23.1987 75.1313 23.362 75.6493 23.362 76.228C23.362 77.124 23.0913 77.8287 22.55 78.342C22.0087 78.8553 21.276 79.1073 20.352 79.098C19.6333 79.098 19.0267 78.9207 18.532 78.566C18.0467 78.202 17.6967 77.6653 17.482 76.956C17.6967 76.8907 17.958 76.7927 18.266 76.662C18.574 76.522 18.8167 76.3913 18.994 76.27C19.2273 77.0447 19.6753 77.432 20.338 77.432C20.7487 77.432 21.0613 77.3153 21.276 77.082C21.4907 76.8393 21.598 76.5407 21.598 76.186C21.598 75.7287 21.3927 75.3507 20.982 75.052C20.5713 74.744 19.9553 74.59 19.134 74.59C18.3873 74.59 17.6827 74.6833 17.02 74.87V78.356C17.02 78.7013 16.9407 78.9533 16.782 79.112C16.6233 79.28 16.3527 79.3873 15.97 79.434ZM23.096 72.952C22.872 72.728 22.5687 72.4853 22.186 72.224C21.8033 71.9533 21.4113 71.7013 21.01 71.468C20.6087 71.2253 20.2493 71.0433 19.932 70.922L20.814 69.662C21.15 69.7927 21.5187 69.97 21.92 70.194C22.3213 70.418 22.7133 70.656 23.096 70.908C23.4787 71.16 23.8007 71.4027 24.062 71.636C23.9687 71.7387 23.852 71.8787 23.712 72.056C23.5813 72.2333 23.4553 72.406 23.334 72.574C23.222 72.742 23.1427 72.868 23.096 72.952ZM14.962 77.95C15.1393 77.9593 15.2653 77.9407 15.34 77.894C15.424 77.8473 15.466 77.7633 15.466 77.642V75.5C15.0367 75.7613 14.696 76.046 14.444 76.354C14.192 76.662 14.066 76.97 14.066 77.278C14.066 77.4927 14.1453 77.656 14.304 77.768C14.4627 77.88 14.682 77.9407 14.962 77.95ZM31.104 80.092V76.466H26.61V69.172H31.104V67.282H32.868V69.172H37.39V76.466H32.868V80.092H31.104ZM32.868 74.912H35.598V73.54H32.868V74.912ZM28.402 74.912H31.104V73.54H28.402V74.912ZM32.868 72.07H35.598V70.726H32.868V72.07ZM28.402 72.07H31.104V70.726H28.402V72.07ZM44.502 77.642C44.3433 77.446 44.152 77.2453 43.928 77.04C43.7133 76.8253 43.4987 76.6573 43.284 76.536C43.928 76.088 44.474 75.542 44.922 74.898C45.3793 74.254 45.7433 73.5633 46.014 72.826C46.294 72.0887 46.476 71.3607 46.56 70.642L47.4 70.768C47.3813 70.5627 47.3673 70.3573 47.358 70.152C47.3487 69.9373 47.344 69.718 47.344 69.494H44.796V67.884H48.94C48.856 69.144 48.9027 70.292 49.08 71.328C49.2573 72.3547 49.612 73.2787 50.144 74.1C50.676 74.9213 51.4227 75.6587 52.384 76.312C52.1693 76.4893 51.9453 76.7087 51.712 76.97C51.4787 77.2313 51.2967 77.4413 51.166 77.6C50.3447 77.0027 49.6353 76.298 49.038 75.486C48.4407 74.6647 47.9973 73.6987 47.708 72.588C47.4187 73.6147 47.0033 74.5573 46.462 75.416C45.93 76.2653 45.2767 77.0073 44.502 77.642ZM47.372 79.84C46.3827 79.84 45.5613 79.7887 44.908 79.686C44.2547 79.5927 43.718 79.4433 43.298 79.238C42.878 79.042 42.5187 78.7947 42.22 78.496C42.052 78.6173 41.8327 78.762 41.562 78.93C41.3007 79.0887 41.03 79.2473 40.75 79.406C40.4793 79.574 40.2413 79.714 40.036 79.826L39.35 78.188C39.5367 78.1133 39.7607 78.0247 40.022 77.922C40.2927 77.81 40.554 77.698 40.806 77.586C41.058 77.4647 41.2447 77.3713 41.366 77.306V73.82H39.7V72.364H42.962V77.096C43.1393 77.544 43.564 77.8613 44.236 78.048C44.9173 78.2347 45.9627 78.328 47.372 78.328C48.5667 78.328 49.5933 78.3093 50.452 78.272C51.3107 78.2253 52.006 78.1647 52.538 78.09C52.4913 78.1927 52.44 78.356 52.384 78.58C52.328 78.7947 52.2813 79.0187 52.244 79.252C52.2067 79.4853 52.1833 79.672 52.174 79.812C51.9127 79.812 51.572 79.812 51.152 79.812C50.732 79.8213 50.284 79.826 49.808 79.826C49.3413 79.8353 48.8933 79.84 48.464 79.84C48.0347 79.84 47.6707 79.84 47.372 79.84ZM42.402 70.698C42.234 70.4927 42.01 70.2593 41.73 69.998C41.45 69.7367 41.156 69.48 40.848 69.228C40.54 68.9667 40.2553 68.7567 39.994 68.598L41.044 67.52C41.2773 67.6507 41.5527 67.842 41.87 68.094C42.1967 68.3367 42.5093 68.5933 42.808 68.864C43.116 69.1253 43.354 69.354 43.522 69.55C43.438 69.6247 43.3213 69.7367 43.172 69.886C43.0227 70.026 42.8733 70.1707 42.724 70.32C42.584 70.4693 42.4767 70.5953 42.402 70.698ZM60.182 79.854C60.0327 79.6953 59.8133 79.5227 59.524 79.336C59.244 79.1587 58.9967 79.028 58.782 78.944C59.4447 78.4867 60.042 77.9173 60.574 77.236C61.1153 76.5453 61.5587 75.8033 61.904 75.01C61.5027 74.8887 61.0967 74.7907 60.686 74.716C60.2753 74.632 59.874 74.5713 59.482 74.534C59.2393 74.9913 58.9873 75.4113 58.726 75.794C58.474 76.1673 58.2173 76.4847 57.956 76.746C57.564 77.1473 57.1347 77.4273 56.668 77.586C56.2107 77.7447 55.7673 77.7913 55.338 77.726C54.918 77.6513 54.5727 77.4693 54.302 77.18C54.0313 76.8907 53.896 76.5033 53.896 76.018C53.896 75.4767 54.0733 74.982 54.428 74.534C54.7827 74.086 55.296 73.7267 55.968 73.456C56.6493 73.1853 57.48 73.0407 58.46 73.022C58.712 72.49 58.9547 71.9253 59.188 71.328C59.4213 70.7307 59.6313 70.138 59.818 69.55C59.4727 69.6433 59.1087 69.7367 58.726 69.83C58.3527 69.914 57.998 69.9887 57.662 70.054C57.3353 70.1193 57.0647 70.166 56.85 70.194L56.402 68.584C56.6447 68.5747 56.9573 68.5467 57.34 68.5C57.7227 68.4533 58.124 68.3927 58.544 68.318C58.9733 68.2433 59.3747 68.164 59.748 68.08C60.1307 67.996 60.434 67.912 60.658 67.828L61.834 68.458C61.6753 69.1113 61.4513 69.8533 61.162 70.684C60.8727 71.5147 60.5413 72.3313 60.168 73.134C60.5227 73.1807 60.882 73.2413 61.246 73.316C61.6193 73.3907 61.9973 73.4793 62.38 73.582C62.464 73.2553 62.5293 72.9333 62.576 72.616C62.6227 72.2893 62.6507 71.9673 62.66 71.65L64.326 72.056C64.2793 72.7093 64.1673 73.372 63.99 74.044C64.3633 74.1653 64.7273 74.296 65.082 74.436C65.446 74.576 65.7913 74.7253 66.118 74.884C66.0247 74.996 65.922 75.1453 65.81 75.332C65.698 75.5187 65.5953 75.7147 65.502 75.92C65.418 76.116 65.348 76.2887 65.292 76.438C65.0027 76.2793 64.704 76.1253 64.396 75.976C64.0973 75.8173 63.7893 75.6773 63.472 75.556C63.108 76.4053 62.646 77.208 62.086 77.964C61.526 78.7107 60.8913 79.3407 60.182 79.854ZM55.366 75.822C55.3847 75.9433 55.464 76.0413 55.604 76.116C55.744 76.1813 55.9167 76.1907 56.122 76.144C56.3367 76.0973 56.5653 75.9573 56.808 75.724C56.9387 75.5933 57.0787 75.4253 57.228 75.22C57.3773 75.0147 57.5267 74.7813 57.676 74.52C56.8827 74.604 56.29 74.7767 55.898 75.038C55.506 75.29 55.3287 75.5513 55.366 75.822ZM74.168 79.252C73.44 79.2147 72.8567 79 72.418 78.608C71.9793 78.216 71.7647 77.7307 71.774 77.152C71.7833 76.7973 71.9 76.4707 72.124 76.172C72.348 75.864 72.6653 75.6213 73.076 75.444C73.4867 75.2573 73.9767 75.164 74.546 75.164C74.8447 75.164 75.1247 75.178 75.386 75.206C75.3767 74.7953 75.3627 74.3287 75.344 73.806C75.3253 73.2833 75.3067 72.714 75.288 72.098C74.7093 72.1353 74.1493 72.1587 73.608 72.168C73.0667 72.168 72.6047 72.1587 72.222 72.14L72.11 70.432C72.4553 70.488 72.908 70.5207 73.468 70.53C74.0373 70.53 74.6347 70.516 75.26 70.488C75.2507 70.1147 75.2413 69.7367 75.232 69.354C75.232 68.962 75.232 68.5653 75.232 68.164H76.87C76.8607 68.5187 76.8513 68.8827 76.842 69.256C76.842 69.6293 76.842 70.0073 76.842 70.39C77.402 70.3433 77.9107 70.292 78.368 70.236C78.8253 70.1707 79.1707 70.1007 79.404 70.026V71.706C79.1427 71.762 78.788 71.8133 78.34 71.86C77.892 71.9067 77.4067 71.9533 76.884 72C76.9027 72.6813 76.926 73.3347 76.954 73.96C76.982 74.576 77.0053 75.1173 77.024 75.584C77.5467 75.7707 78.0507 76.0087 78.536 76.298C79.0213 76.5873 79.4973 76.9093 79.964 77.264C79.8613 77.348 79.74 77.4787 79.6 77.656C79.4693 77.824 79.348 78.0013 79.236 78.188C79.124 78.3653 79.04 78.5147 78.984 78.636C78.3587 78.0667 77.7147 77.6093 77.052 77.264C76.9867 78.0013 76.702 78.5287 76.198 78.846C75.7033 79.154 75.0267 79.2893 74.168 79.252ZM68.974 79.42C68.9087 79.056 68.8573 78.5893 68.82 78.02C68.7827 77.4413 68.7547 76.802 68.736 76.102C68.7267 75.3927 68.7267 74.6647 68.736 73.918C68.7453 73.162 68.7687 72.4247 68.806 71.706C68.8433 70.9873 68.89 70.3247 68.946 69.718C69.0113 69.1113 69.086 68.6073 69.17 68.206L70.766 68.584C70.6633 68.9107 70.5747 69.3493 70.5 69.9C70.4347 70.4507 70.3833 71.0667 70.346 71.748C70.3087 72.42 70.2853 73.1153 70.276 73.834C70.2667 74.5527 70.2713 75.2527 70.29 75.934C70.318 76.606 70.3553 77.222 70.402 77.782C70.458 78.342 70.5233 78.7947 70.598 79.14L68.974 79.42ZM74.294 77.824C74.6767 77.824 74.9613 77.7493 75.148 77.6C75.344 77.4413 75.442 77.1613 75.442 76.76V76.662C75.1247 76.5873 74.7933 76.5407 74.448 76.522C74.1027 76.5127 73.8227 76.5687 73.608 76.69C73.4027 76.8113 73.2953 76.97 73.286 77.166C73.2767 77.362 73.3653 77.5207 73.552 77.642C73.7387 77.7633 73.986 77.824 74.294 77.824ZM87.146 78.692C86.5207 78.692 85.9607 78.6267 85.466 78.496C84.9807 78.356 84.5607 78.1087 84.206 77.754C83.8607 77.3993 83.576 76.9047 83.352 76.27L84.836 75.458C84.9573 75.9433 85.2047 76.312 85.578 76.564C85.9513 76.816 86.474 76.942 87.146 76.942C87.7433 76.942 88.3593 76.914 88.994 76.858C89.6287 76.802 90.226 76.7227 90.786 76.62C91.346 76.5173 91.808 76.4007 92.172 76.27C92.172 76.4193 92.1813 76.6153 92.2 76.858C92.228 77.1007 92.2607 77.3387 92.298 77.572C92.3447 77.8053 92.3867 77.9873 92.424 78.118C92.0507 78.2393 91.5747 78.342 90.996 78.426C90.4173 78.51 89.792 78.5753 89.12 78.622C88.4573 78.6687 87.7993 78.692 87.146 78.692ZM84.948 70.46L84.934 68.766C85.2047 68.85 85.5407 68.9153 85.942 68.962C86.3527 69.0087 86.7913 69.0367 87.258 69.046C87.734 69.0553 88.21 69.0507 88.686 69.032C89.162 69.004 89.6007 68.9667 90.002 68.92C90.4033 68.864 90.7347 68.794 90.996 68.71V70.418C90.7627 70.4927 90.4453 70.5533 90.044 70.6C89.6427 70.6467 89.204 70.684 88.728 70.712C88.252 70.7307 87.7713 70.7353 87.286 70.726C86.8007 70.7167 86.3527 70.6887 85.942 70.642C85.5313 70.5953 85.2 70.5347 84.948 70.46ZM100.698 79.812C100.67 79.6533 100.614 79.462 100.53 79.238C100.455 79.0233 100.367 78.8133 100.264 78.608C100.161 78.3933 100.054 78.2207 99.942 78.09C101.501 78.2113 102.728 78.0947 103.624 77.74C104.52 77.376 104.968 76.8113 104.968 76.046C104.968 75.6353 104.795 75.3087 104.45 75.066C104.114 74.8233 103.685 74.702 103.162 74.702C102.555 74.702 101.939 74.8187 101.314 75.052C100.689 75.276 100.124 75.6587 99.62 76.2C99.5827 76.2467 99.5407 76.298 99.494 76.354C99.4567 76.4007 99.4147 76.4473 99.368 76.494L98.01 75.528C98.458 75.0893 98.8407 74.4967 99.158 73.75C99.4753 73.0033 99.7227 72.2193 99.9 71.398C98.6027 71.4447 97.4967 71.4447 96.582 71.398L96.47 69.746C96.8807 69.802 97.4127 69.8393 98.066 69.858C98.7193 69.8673 99.424 69.858 100.18 69.83C100.292 68.9433 100.334 68.1407 100.306 67.422H102.07C102.07 68.1033 102.014 68.878 101.902 69.746C102.555 69.6993 103.185 69.6433 103.792 69.578C104.399 69.5127 104.949 69.4427 105.444 69.368C105.939 69.284 106.34 69.1953 106.648 69.102L106.536 70.754C105.985 70.8753 105.271 70.9873 104.394 71.09C103.517 71.1833 102.597 71.258 101.636 71.314C101.543 71.7433 101.435 72.1727 101.314 72.602C101.202 73.0313 101.067 73.4467 100.908 73.848C101.319 73.6333 101.72 73.47 102.112 73.358C102.513 73.2367 102.91 73.176 103.302 73.176C103.965 73.1667 104.553 73.2787 105.066 73.512C105.589 73.7453 105.999 74.0813 106.298 74.52C106.597 74.9493 106.746 75.4673 106.746 76.074C106.746 77.306 106.228 78.2533 105.192 78.916C104.156 79.5787 102.658 79.8773 100.698 79.812ZM114.922 79.742C114.894 79.602 114.838 79.4247 114.754 79.21C114.679 78.9953 114.586 78.7807 114.474 78.566C114.362 78.3513 114.25 78.1833 114.138 78.062C115.631 78.0993 116.77 77.922 117.554 77.53C118.347 77.138 118.744 76.5827 118.744 75.864C118.744 75.444 118.576 75.1173 118.24 74.884C117.904 74.6507 117.465 74.534 116.924 74.534C116.504 74.534 116.056 74.5993 115.58 74.73C115.104 74.8513 114.651 75.0567 114.222 75.346C113.802 75.626 113.447 76.004 113.158 76.48L111.66 75.822C111.847 75.4953 112.005 75.0893 112.136 74.604C112.276 74.1093 112.388 73.596 112.472 73.064C112.556 72.532 112.617 72.028 112.654 71.552C112.691 71.076 112.696 70.684 112.668 70.376L114.418 70.586C114.427 71.0433 114.39 71.5847 114.306 72.21C114.222 72.826 114.091 73.4373 113.914 74.044C114.409 73.7173 114.927 73.4653 115.468 73.288C116.009 73.1107 116.518 73.022 116.994 73.022C117.722 73.022 118.352 73.148 118.884 73.4C119.425 73.6427 119.845 73.9833 120.144 74.422C120.443 74.8513 120.592 75.346 120.592 75.906C120.592 76.6153 120.387 77.2547 119.976 77.824C119.575 78.384 118.954 78.832 118.114 79.168C117.283 79.504 116.219 79.6953 114.922 79.742ZM117.246 70.768C117.013 70.5813 116.733 70.3947 116.406 70.208C116.089 70.0213 115.753 69.844 115.398 69.676C115.043 69.508 114.693 69.3633 114.348 69.242C114.012 69.1113 113.713 69.0227 113.452 68.976L114.292 67.52C114.535 67.5853 114.824 67.688 115.16 67.828C115.496 67.9587 115.846 68.108 116.21 68.276C116.583 68.444 116.933 68.612 117.26 68.78C117.596 68.948 117.871 69.102 118.086 69.242L117.246 70.768Z" fill="#057CD8"/>
<path d="M13.002 24.132V15.508H19.998V24.132H13.002ZM14.399 22.878H18.601V20.337H14.399V22.878ZM14.399 19.138H18.601V16.762H14.399V19.138ZM26.829 24.847V21.932H25.102V24.363H23.793V20.898H26.829V20.414H24.761V17.972H30.228V20.414H28.16V20.898H31.284V23.263C31.284 23.6663 31.1813 23.9597 30.976 24.143C30.7707 24.3263 30.4333 24.418 29.964 24.418H29.106C29.0913 24.2347 29.0547 24.022 28.996 23.78C28.9447 23.5307 28.886 23.3327 28.82 23.186H29.568C29.7147 23.186 29.8173 23.164 29.876 23.12C29.9347 23.0687 29.964 22.9697 29.964 22.823V21.932H28.16V24.847H26.829ZM22.671 19.05V16.465H24.816C24.6987 16.2743 24.5667 16.0727 24.42 15.86C24.2807 15.64 24.1633 15.475 24.068 15.365L25.19 14.771C25.2853 14.8737 25.399 15.024 25.531 15.222C25.6703 15.4127 25.7987 15.6033 25.916 15.794C26.0407 15.9847 26.125 16.1277 26.169 16.223C26.103 16.2523 26.026 16.289 25.938 16.333C25.8573 16.3697 25.7693 16.4137 25.674 16.465H26.829V14.76H28.16V16.465H29.381C29.161 16.3697 28.9777 16.2927 28.831 16.234C28.9777 16.0213 29.1243 15.7793 29.271 15.508C29.4177 15.2293 29.535 14.98 29.623 14.76L30.811 15.266C30.7377 15.42 30.6387 15.6107 30.514 15.838C30.3893 16.0653 30.2647 16.2743 30.14 16.465H32.34V19.05H31.086V17.521H23.936V19.05H22.671ZM25.982 19.512H29.007V18.874H25.982V19.512ZM39.347 24.099C39.3177 23.9817 39.2627 23.8423 39.182 23.681C39.1013 23.5197 39.006 23.3657 38.896 23.219C38.7933 23.065 38.6907 22.9403 38.588 22.845C39.5927 22.691 40.3553 22.3647 40.876 21.866C41.404 21.36 41.6827 20.766 41.712 20.084C41.7413 19.5413 41.6423 19.0573 41.415 18.632C41.1877 18.2067 40.876 17.862 40.48 17.598C40.0913 17.334 39.6623 17.1763 39.193 17.125C39.1343 17.807 39.0243 18.5037 38.863 19.215C38.7017 19.9263 38.4817 20.5937 38.203 21.217C37.9317 21.8403 37.598 22.3683 37.202 22.801C36.9013 23.1237 36.608 23.3107 36.322 23.362C36.0433 23.4133 35.7463 23.373 35.431 23.241C35.123 23.109 34.8517 22.9 34.617 22.614C34.3823 22.328 34.2027 21.9907 34.078 21.602C33.9533 21.206 33.902 20.7843 33.924 20.337C33.9607 19.6697 34.1183 19.061 34.397 18.511C34.6757 17.9537 35.0497 17.4733 35.519 17.07C35.9883 16.6667 36.5273 16.3623 37.136 16.157C37.7447 15.9517 38.3937 15.8673 39.083 15.904C39.6403 15.9333 40.1647 16.058 40.656 16.278C41.1473 16.498 41.5763 16.8023 41.943 17.191C42.317 17.5723 42.603 18.016 42.801 18.522C43.0063 19.028 43.0907 19.5817 43.054 20.183C43.0027 21.1877 42.6507 22.031 41.998 22.713C41.3453 23.3877 40.4617 23.8497 39.347 24.099ZM35.772 21.877C35.8527 21.9357 35.937 21.965 36.025 21.965C36.113 21.965 36.201 21.921 36.289 21.833C36.553 21.569 36.795 21.195 37.015 20.711C37.2423 20.227 37.4293 19.6807 37.576 19.072C37.73 18.4633 37.829 17.8437 37.873 17.213C37.367 17.3303 36.916 17.543 36.52 17.851C36.1313 18.159 35.8233 18.533 35.596 18.973C35.3687 19.4057 35.2403 19.8823 35.211 20.403C35.1963 20.7477 35.2403 21.0483 35.343 21.305C35.453 21.5543 35.596 21.745 35.772 21.877ZM47.982 24.539C47.872 24.3703 47.718 24.1797 47.52 23.967C47.322 23.7543 47.1387 23.593 46.97 23.483C47.8867 22.999 48.5833 22.394 49.06 21.668C49.5367 20.9347 49.8117 20.0803 49.885 19.105H47.773C47.5017 19.4423 47.2157 19.754 46.915 20.04C46.6143 20.326 46.2953 20.5863 45.958 20.821C45.8407 20.6817 45.683 20.5167 45.485 20.326C45.287 20.1353 45.1037 19.9923 44.935 19.897C45.4777 19.545 45.9653 19.1197 46.398 18.621C46.8307 18.1223 47.201 17.5833 47.509 17.004C47.8243 16.4247 48.059 15.849 48.213 15.277L49.544 15.673C49.434 16.047 49.302 16.4137 49.148 16.773C49.0013 17.125 48.8327 17.4697 48.642 17.807H53.911V19.105H51.26C51.1867 20.3003 50.875 21.3453 50.325 22.24C49.7823 23.1347 49.0013 23.901 47.982 24.539ZM56.903 24.121C56.8297 23.9597 56.6977 23.769 56.507 23.549C56.3237 23.329 56.144 23.1603 55.968 23.043C56.892 22.669 57.6583 22.1447 58.267 21.47C58.8757 20.788 59.3193 19.9263 59.598 18.885L56.639 18.984L56.529 17.697C56.6243 17.7043 56.8333 17.708 57.156 17.708C57.4787 17.7007 57.8747 17.6933 58.344 17.686C58.8207 17.6787 59.323 17.6677 59.851 17.653C59.9463 16.971 59.9903 16.2193 59.983 15.398L61.347 15.409C61.3543 15.805 61.347 16.1863 61.325 16.553C61.303 16.9197 61.27 17.2753 61.226 17.62C61.7393 17.6053 62.216 17.5907 62.656 17.576C63.1033 17.5613 63.481 17.5467 63.789 17.532C64.097 17.5173 64.2913 17.5063 64.372 17.499C64.372 17.807 64.3537 18.1773 64.317 18.61C64.2803 19.0353 64.2327 19.479 64.174 19.941C64.1153 20.403 64.053 20.8357 63.987 21.239C63.921 21.6423 63.855 21.9687 63.789 22.218C63.6643 22.724 63.4957 23.109 63.283 23.373C63.0703 23.637 62.777 23.8167 62.403 23.912C62.0363 24 61.545 24.0403 60.929 24.033C60.907 23.857 60.852 23.6297 60.764 23.351C60.6833 23.0723 60.5807 22.8413 60.456 22.658C60.9253 22.6653 61.292 22.6543 61.556 22.625C61.82 22.5957 62.018 22.5223 62.15 22.405C62.2893 22.2877 62.3957 22.108 62.469 21.866C62.5423 21.6387 62.612 21.349 62.678 20.997C62.744 20.645 62.8027 20.2747 62.854 19.886C62.9053 19.49 62.942 19.1197 62.964 18.775L60.995 18.841C60.6943 20.095 60.1993 21.1583 59.51 22.031C58.8207 22.9037 57.9517 23.6003 56.903 24.121ZM64.119 17.158C63.987 16.9233 63.811 16.6703 63.591 16.399C63.371 16.1277 63.173 15.9113 62.997 15.75L63.613 15.288C63.7157 15.3833 63.8403 15.519 63.987 15.695C64.141 15.871 64.2877 16.0507 64.427 16.234C64.5737 16.41 64.6873 16.5603 64.768 16.685L64.119 17.158ZM65.142 16.366C65.054 16.212 64.944 16.0507 64.812 15.882C64.68 15.706 64.5407 15.5373 64.394 15.376C64.2547 15.2147 64.1263 15.0827 64.009 14.98L64.625 14.518C64.7277 14.6133 64.856 14.749 65.01 14.925C65.164 15.0937 65.3107 15.2697 65.45 15.453C65.5967 15.629 65.7103 15.7793 65.791 15.904L65.142 16.366ZM67.65 24.077C67.5987 23.7763 67.5583 23.4097 67.529 22.977C67.4997 22.537 67.4777 22.0603 67.463 21.547C67.4557 21.0263 67.4557 20.491 67.463 19.941C67.4777 19.391 67.4997 18.8557 67.529 18.335C67.5657 17.807 67.6097 17.3193 67.661 16.872C67.7197 16.4247 67.7857 16.0433 67.859 15.728L69.146 15.992C69.0653 16.256 68.9957 16.6007 68.937 17.026C68.8783 17.444 68.8307 17.906 68.794 18.412C68.7573 18.9107 68.7317 19.424 68.717 19.952C68.7097 20.48 68.7133 20.9933 68.728 21.492C68.7427 21.9907 68.7683 22.4417 68.805 22.845C68.8417 23.2483 68.8893 23.5747 68.948 23.824L67.65 24.077ZM72.325 23.483C71.0563 23.4463 70.3377 23.032 70.169 22.24C70.125 22.042 70.1103 21.822 70.125 21.58C70.1397 21.338 70.1947 21.0703 70.29 20.777L71.445 21.063C71.3937 21.2023 71.3643 21.327 71.357 21.437C71.357 21.547 71.3717 21.646 71.401 21.734C71.4963 21.998 71.885 22.141 72.567 22.163C72.897 22.1703 73.249 22.1593 73.623 22.13C74.0043 22.0933 74.3747 22.042 74.734 21.976C75.1007 21.91 75.4197 21.8367 75.691 21.756C75.6763 21.8587 75.658 21.998 75.636 22.174C75.6213 22.35 75.6103 22.5297 75.603 22.713C75.5957 22.889 75.5957 23.0357 75.603 23.153C75.2583 23.241 74.888 23.3107 74.492 23.362C74.1033 23.4133 73.7183 23.45 73.337 23.472C72.963 23.4867 72.6257 23.4903 72.325 23.483ZM70.675 18.115L70.598 16.762C70.8767 16.7987 71.2177 16.8207 71.621 16.828C72.0243 16.8353 72.4423 16.8317 72.875 16.817C73.315 16.795 73.733 16.762 74.129 16.718C74.5323 16.6667 74.866 16.6043 75.13 16.531L75.075 17.862C74.7817 17.9133 74.4407 17.961 74.052 18.005C73.6633 18.0417 73.26 18.071 72.842 18.093C72.4313 18.115 72.0353 18.1297 71.654 18.137C71.28 18.137 70.9537 18.1297 70.675 18.115ZM83.457 24.627C82.6357 24.627 81.972 24.3997 81.466 23.945C80.9673 23.4903 80.7143 22.834 80.707 21.976C80.707 21.8733 80.7107 21.7487 80.718 21.602C80.7327 21.4553 80.7473 21.2903 80.762 21.107C80.2927 21.0483 79.8527 20.9787 79.442 20.898C79.0387 20.8173 78.7123 20.7293 78.463 20.634L78.672 19.413C78.892 19.5083 79.2 19.5963 79.596 19.677C79.9993 19.7503 80.4247 19.8163 80.872 19.875C80.9013 19.6183 80.9307 19.358 80.96 19.094C80.9893 18.83 81.0187 18.5623 81.048 18.291C80.6447 18.2323 80.267 18.17 79.915 18.104C79.563 18.038 79.2917 17.9793 79.101 17.928L79.321 16.685C79.497 16.751 79.7537 16.8207 80.091 16.894C80.4283 16.96 80.7913 17.0223 81.18 17.081C81.2387 16.6043 81.2863 16.1753 81.323 15.794C81.367 15.4127 81.3963 15.1303 81.411 14.947L82.786 15.134C82.742 15.332 82.6907 15.618 82.632 15.992C82.5733 16.3587 82.5147 16.773 82.456 17.235C82.72 17.2643 82.9657 17.2863 83.193 17.301C83.4203 17.3157 83.6073 17.3193 83.754 17.312L83.567 18.555C83.4277 18.555 83.248 18.5477 83.028 18.533C82.808 18.511 82.566 18.4853 82.302 18.456C82.2727 18.72 82.2433 18.9803 82.214 19.237C82.192 19.4937 82.17 19.7503 82.148 20.007C82.4413 20.0217 82.7127 20.0327 82.962 20.04C83.2187 20.04 83.4387 20.0327 83.622 20.018L83.468 21.25C83.27 21.2573 83.05 21.261 82.808 21.261C82.5733 21.2537 82.324 21.2427 82.06 21.228C82.0527 21.3527 82.0453 21.4737 82.038 21.591C82.038 21.701 82.038 21.8073 82.038 21.91C82.0453 22.3793 82.159 22.7277 82.379 22.955C82.599 23.1823 82.9583 23.296 83.457 23.296C83.9483 23.296 84.3333 23.186 84.612 22.966C84.898 22.7387 85.041 22.4087 85.041 21.976C85.041 21.6093 84.9273 21.217 84.7 20.799C84.4727 20.381 84.1243 20.0217 83.655 19.721C83.8603 19.6917 84.0767 19.6293 84.304 19.534C84.5313 19.4313 84.7 19.336 84.81 19.248C85.3233 19.6367 85.7157 20.0767 85.987 20.568C86.2583 21.0593 86.394 21.547 86.394 22.031C86.394 22.5663 86.2657 23.0283 86.009 23.417C85.7597 23.8057 85.415 24.1027 84.975 24.308C84.535 24.5207 84.029 24.627 83.457 24.627ZM89.573 24.803V19.721C89.4923 19.8457 89.408 19.9703 89.32 20.095C89.2393 20.2123 89.155 20.3223 89.067 20.425C88.9497 20.293 88.7957 20.15 88.605 19.996C88.4143 19.8347 88.2383 19.7173 88.077 19.644C88.341 19.336 88.594 18.973 88.836 18.555C89.0853 18.1297 89.309 17.6897 89.507 17.235C89.7123 16.773 89.8847 16.3257 90.024 15.893C90.1707 15.4603 90.2733 15.079 90.332 14.749L91.586 15.035C91.4907 15.4163 91.3733 15.8013 91.234 16.19C91.102 16.5787 90.9553 16.9673 90.794 17.356V23.637C91.0507 23.1163 91.2267 22.515 91.322 21.833C91.4173 21.151 91.465 20.3993 91.465 19.578V17.521H93.17V16.795H91.619V15.739H93.17V14.804H94.38V15.739H95.337V14.804H96.547V15.739H98.142V16.795H96.547V17.521H98.428V18.599H92.609V19.578C92.609 20.7147 92.532 21.69 92.378 22.504C92.224 23.3107 91.9673 24.0073 91.608 24.594C91.5127 24.5133 91.388 24.4327 91.234 24.352C91.0873 24.2787 90.9407 24.2163 90.794 24.165V24.803H89.573ZM93.104 24.792V19.127H98.01L97.999 23.835C97.999 24.1723 97.911 24.4143 97.735 24.561C97.5663 24.715 97.2877 24.792 96.899 24.792H96.481C96.4663 24.6453 96.437 24.462 96.393 24.242C96.349 24.022 96.3013 23.8533 96.25 23.736H96.624C96.7487 23.736 96.8293 23.7213 96.866 23.692C96.91 23.6553 96.932 23.5747 96.932 23.45V23.087H96.074V24.561H95.018V23.087H94.182V24.792H93.104ZM94.38 17.521H95.337V16.795H94.38V17.521ZM96.074 22.218H96.932V21.58H96.074V22.218ZM96.074 20.711H96.932V20.084H96.074V20.711ZM94.182 22.218H95.018V21.58H94.182V22.218ZM94.182 20.711H95.018V20.084H94.182V20.711ZM106.744 24.495C106.304 24.495 105.952 24.44 105.688 24.33C105.424 24.22 105.237 24.0293 105.127 23.758C105.017 23.4793 104.966 23.098 104.973 22.614C104.988 22.1373 104.977 21.811 104.94 21.635C104.903 21.459 104.834 21.349 104.731 21.305C104.489 21.2023 104.273 21.2647 104.082 21.492C103.715 21.9173 103.363 22.328 103.026 22.724C102.696 23.1127 102.403 23.4573 102.146 23.758C101.897 24.0587 101.71 24.2897 101.585 24.451L100.463 23.626C100.639 23.472 100.866 23.252 101.145 22.966C101.424 22.68 101.728 22.3573 102.058 21.998C102.388 21.6313 102.714 21.261 103.037 20.887C103.367 20.5057 103.671 20.15 103.95 19.82C104.229 19.49 104.452 19.2113 104.621 18.984C104.416 19.0207 104.163 19.061 103.862 19.105C103.561 19.149 103.25 19.193 102.927 19.237C102.612 19.2737 102.322 19.3067 102.058 19.336C101.794 19.3653 101.596 19.3837 101.464 19.391L101.266 18.17C101.449 18.17 101.691 18.1627 101.992 18.148C102.293 18.126 102.623 18.0967 102.982 18.06C103.341 18.0233 103.704 17.983 104.071 17.939C104.438 17.8877 104.779 17.8363 105.094 17.785C105.409 17.7263 105.673 17.6677 105.886 17.609L106.821 18.39C106.74 18.456 106.612 18.588 106.436 18.786C106.26 18.9767 106.051 19.2113 105.809 19.49C105.567 19.7613 105.307 20.0547 105.028 20.37C105.131 20.3407 105.252 20.348 105.391 20.392C105.538 20.4287 105.655 20.4763 105.743 20.535C105.846 20.601 105.926 20.6853 105.985 20.788C106.051 20.8907 106.099 21.0373 106.128 21.228C106.157 21.4113 106.168 21.6643 106.161 21.987C106.154 22.361 106.176 22.636 106.227 22.812C106.278 22.9807 106.363 23.087 106.48 23.131C106.605 23.175 106.766 23.2007 106.964 23.208C107.147 23.208 107.36 23.2007 107.602 23.186C107.844 23.164 108.082 23.1347 108.317 23.098C108.559 23.0613 108.764 23.021 108.933 22.977C108.896 23.0723 108.867 23.2043 108.845 23.373C108.83 23.5417 108.823 23.714 108.823 23.89C108.823 24.066 108.827 24.209 108.834 24.319C108.621 24.3557 108.387 24.385 108.13 24.407C107.873 24.4363 107.624 24.4583 107.382 24.473C107.14 24.4877 106.927 24.495 106.744 24.495ZM105.831 17.136C105.67 17.0993 105.45 17.0407 105.171 16.96C104.9 16.872 104.61 16.7767 104.302 16.674C104.001 16.564 103.719 16.4577 103.455 16.355C103.198 16.245 103.004 16.1497 102.872 16.069L103.466 14.969C103.569 15.035 103.734 15.1157 103.961 15.211C104.196 15.3063 104.452 15.4053 104.731 15.508C105.017 15.6033 105.296 15.6913 105.567 15.772C105.838 15.8527 106.066 15.9113 106.249 15.948L105.831 17.136ZM115.797 24.352C114.917 24.352 114.268 24.187 113.85 23.857C113.432 23.5197 113.223 23.109 113.223 22.625C113.223 22.3097 113.3 22.042 113.454 21.822C113.608 21.602 113.81 21.4333 114.059 21.316C114.308 21.1913 114.576 21.129 114.862 21.129C115.405 21.129 115.841 21.2977 116.171 21.635C116.508 21.9723 116.725 22.3903 116.82 22.889C117.091 22.7643 117.311 22.5737 117.48 22.317C117.656 22.0603 117.744 21.7523 117.744 21.393C117.744 21.085 117.671 20.81 117.524 20.568C117.377 20.326 117.168 20.1353 116.897 19.996C116.633 19.8493 116.325 19.776 115.973 19.776C115.482 19.776 115.053 19.8347 114.686 19.952C114.327 20.0693 114 20.2563 113.707 20.513C113.575 20.6303 113.399 20.7807 113.179 20.964C112.966 21.1473 112.765 21.3123 112.574 21.459L111.672 20.491C112.002 20.3003 112.354 20.0583 112.728 19.765C113.102 19.4717 113.48 19.1453 113.861 18.786C114.242 18.4267 114.605 18.0563 114.95 17.675C115.295 17.2863 115.603 16.905 115.874 16.531C115.559 16.6043 115.214 16.674 114.84 16.74C114.473 16.806 114.118 16.861 113.773 16.905C113.436 16.949 113.15 16.9783 112.915 16.993L112.673 15.739C112.871 15.7537 113.117 15.7537 113.41 15.739C113.711 15.717 114.033 15.6913 114.378 15.662C114.723 15.6253 115.056 15.5813 115.379 15.53C115.709 15.4787 116.002 15.4273 116.259 15.376C116.523 15.3173 116.717 15.2587 116.842 15.2L117.832 15.86C117.583 16.3513 117.238 16.8683 116.798 17.411C116.365 17.9463 115.9 18.4633 115.401 18.962C115.526 18.9033 115.665 18.8593 115.819 18.83C115.973 18.7933 116.123 18.775 116.27 18.775C116.849 18.775 117.352 18.885 117.777 19.105C118.202 19.325 118.532 19.633 118.767 20.029C119.009 20.4177 119.13 20.8723 119.13 21.393C119.13 21.943 118.991 22.4417 118.712 22.889C118.441 23.3363 118.056 23.692 117.557 23.956C117.058 24.22 116.472 24.352 115.797 24.352ZM115.654 23.142C115.617 22.8633 115.529 22.6397 115.39 22.471C115.258 22.3023 115.082 22.218 114.862 22.218C114.745 22.218 114.646 22.2473 114.565 22.306C114.484 22.3647 114.444 22.4527 114.444 22.57C114.444 22.724 114.525 22.8523 114.686 22.955C114.855 23.0577 115.133 23.1163 115.522 23.131C115.544 23.1383 115.566 23.142 115.588 23.142C115.61 23.142 115.632 23.142 115.654 23.142Z" fill="white"/>
</svg>
