<svg fill="none" height="40" width="40" xmlns="http://www.w3.org/2000/svg"><path d="M12.75 21.098c1.292-.255 2.046-1.946 1.684-3.776-.362-1.83-1.703-3.108-2.995-2.852-1.292.256-2.047 1.947-1.684 3.777s1.702 3.107 2.995 2.851zm17.491-2.854c.362-1.83-.392-3.52-1.684-3.777-1.292-.255-2.633 1.021-2.995 2.852-.362 1.83.392 3.521 1.684 3.777 1.292.255 2.633-1.021 2.995-2.852zm-13.107-2.018c1.318 0 2.385-1.512 2.385-3.378s-1.067-3.38-2.385-3.38-2.384 1.514-2.384 3.38c0 1.866 1.067 3.378 2.384 3.378zm5.721-.101c1.317 0 2.385-1.513 2.385-3.38 0-1.866-1.068-3.378-2.385-3.378-1.316 0-2.386 1.513-2.386 3.378 0 1.866 1.069 3.38 2.386 3.38zm.389 1.842c-.851-.864-2.034-1.322-3.24-1.342-1.206.02-2.388.477-3.24 1.342-1.056 1.07-1.401 2.59-2.216 3.818-1.151 1.74-3.407 3.013-2.808 5.48.568 2.342 3.438 3.996 5.723 3.138.688-.258 1.311-.707 2.037-.825a3.57 3.57 0 011.008 0c.726.118 1.35.567 2.038.825 2.284.858 5.154-.795 5.722-3.138.6-2.467-1.656-3.74-2.808-5.48-.812-1.228-1.16-2.748-2.216-3.818z" fill="#ffdaba"/></svg>