<svg fill="none" height="167" width="167" xmlns="http://www.w3.org/2000/svg"><mask id="a" height="167" maskUnits="userSpaceOnUse" width="167" x="0" y="0"><path d="M167 83.5c0 46.116-37.384 83.5-83.5 83.5S0 129.616 0 83.5 37.384 0 83.5 0 167 37.384 167 83.5z" fill="#d9d9d9"/></mask><path d="M167 83.5c0 46.116-37.384 83.5-83.5 83.5S0 129.616 0 83.5 37.384 0 83.5 0 167 37.384 167 83.5z" fill="#f8f5f2"/><g mask="url(#a)"><path d="M118.661 42.862s-10.473-23.755-13.611-23.885c-3.138-.13-4.931 17.936-4.931 17.936l18.542 5.906zM67.236 58.325s4.116-30.356 6.928-31.92c2.812-1.519 11.695 13.941 11.695 13.941z" fill="#ce9c89"/><path d="M109.984 176.404c-5.42-2.866-7.946 0-7.946 0l2.852-57.194s12.674-16.546 5.828-37.347c-.123-.391-.245-.695-.367-1.043-7.254-19.672-29.34-19.02-29.34-19.02s-.122 0-.408.13c-1.467.564-7.416 2.91-14.792 7.643-13 8.208-30.685 23.755-37.165 49.637-5.42 21.627-4.686 37.999-2.037 49.377 2.608 11.161 7.09 17.501 9.413 19.238 4.727 3.605 52.528 7.904 59.863 2.866 1.589 1.52 3.626 2.476 6.153 2.302 11.247-.825 13.366-13.723 7.946-16.589zm-27.18 5.037l6.52-9.293s.407 6.297 2.608 11.986c-4.157-1.65-9.128-2.693-9.128-2.693z" fill="#f4f3eb"/><path d="M126.081 54.42c1.916 8.99-1.956 15.85-7.62 21.323-3.831 3.69-9.576 5.472-15.363 6.861-7.987 1.91-15.73 1.607-22.168-.347-4.32-1.39-8.069-3.561-10.84-6.384-2.567-2.519-4.32-5.602-5.053-9.12-1.507-7.165 1.549-14.678 7.58-20.671 5.053-5.038 12.103-9.033 20.375-11.03 18.256-4.387 30.278 6.296 33.049 19.411z" fill="#f4f3eb"/><g fill="#000"><path d="M103.913 59.84s-5.582 1.172-5.542 1.346c.163.825 2.527 2.519 3.383 2.302 1.304-.304 2.159-3.648 2.159-3.648zm6.768-25.056c-.448 0-.856-.304-.978-.781-.774-2.997-2.2-6.471-3.219-7.253-.489.739-1.019 3.692-1.141 6.558 0 .608-.448 1.042-1.06 1.042-.57 0-1.018-.521-.978-1.13.082-2.17.489-7.295 2.242-8.424.489-.347 1.1-.347 1.67-.087 2.405 1.216 4.116 7.47 4.442 8.729.163.565-.163 1.173-.693 1.346h-.285zm1.579 18.202a1.02 1.02 0 01-.978-.825l-1.344-6.384c-.123-.564.203-1.172.774-1.303.57-.13 1.1.26 1.222.826l1.345 6.383c.122.565-.204 1.173-.774 1.303h-.245zm-23.713 5.722c-.448 0-.896-.348-.977-.869l-1.345-6.427c-.122-.564.204-1.172.774-1.303.57-.13 1.1.217 1.222.825l1.345 6.428c.122.564-.204 1.172-.774 1.302h-.204z"/><path d="M99.715 68.69s-.326 0-.49-.13c-.488-.26-.692-.912-.448-1.476l2.038-4.126c.163-.304.448-.52.774-.564.326-.087.652.086.897.347l2.689 2.997c.367.434.367 1.129 0 1.52a.976.976 0 01-1.426 0l-1.671-1.911-1.345 2.78c-.163.39-.529.564-.896.564z"/></g><path d="M80.807 64.923c.163 5.515-2.527 9.945-6.235 13.42-7.376 6.947-18.623 9.987-18.623 9.987s12.103 29.487 2.119 57.585c-5.868 16.633-20.538 21.54-31.5 22.712-2.649-11.378-3.382-27.75 2.078-49.42 6.52-25.839 24.165-41.386 37.165-49.637-1.875-3.084-2.894-6.47-2.894-10.075 0-7.34 4.28-13.94 11.003-18.37 0 0 5.583 6.34 6.642 20.845.082.955.122 1.954.163 2.997z" fill="#ce9c89"/><path d="M75.02 43.384c-.49 0-.897-.347-1.02-.912-.203-1.26-1.18-7.73.49-9.901.407-.522.937-.782 1.548-.695 2.038.217 4.483 4.69 5.42 6.6.245.522.082 1.173-.407 1.477-.49.26-1.1.087-1.386-.434-1.263-2.519-2.934-4.95-3.667-5.385-.612 1.173-.49 4.95 0 7.99.081.609-.286 1.173-.815 1.26h-.163z" fill="#000"/></g></svg>