<svg width="33" height="32" viewBox="0 0 33 32" fill="none" xmlns="http://www.w3.org/2000/svg">
<path d="M5.99301 10.1384C5.99301 10.1384 4.85429 9.89657 4.33048 10.4444C3.80667 10.9922 2.75052 11.6686 2.29218 11.6686C1.83385 11.6686 1.91071 13.0458 2.55124 13.2233C3.19177 13.4008 4.72334 13.1866 4.87707 13.3518C5.03079 13.5171 5.99301 14.3771 5.99301 15.586C5.99301 16.7949 6.75025 18.0956 6.75025 18.0956L6.98938 22.3282L6.10118 22.7383L6.2663 23.5279H8.09393C8.09393 23.5279 8.66329 19.3442 8.40423 18.3771C8.40423 18.3771 10.4198 18.4261 11.3222 17.866C11.5598 17.7009 11.8331 17.6049 12.1154 17.5872C12.3978 17.5695 12.6797 17.6308 12.9335 17.765C12.9335 17.765 13.4886 19.8033 14.5761 19.7023L14.8095 22.2517L13.9782 22.7628L14.001 23.4208H15.9482V18.218L16.0108 16.7734C16.0335 16.2832 15.9186 15.797 15.681 15.3779C15.4434 14.9588 15.0942 14.6261 14.6786 14.423C14.349 14.2638 13.9922 14.1804 13.6309 14.1782C12.1848 14.1782 9.70522 14.3648 8.85687 13.7681C7.49896 12.804 7.2399 10.1384 5.99301 10.1384Z" stroke="#EA5404" stroke-width="0.6" stroke-linecap="round" stroke-linejoin="round"/>
<path d="M5.38102 10.0874C5.38102 10.0874 4.52698 12.6 5.73687 12.9459C6.94675 13.2917 6.7731 10.5679 6.7731 10.5679" stroke="#EA5404" stroke-width="0.6" stroke-linecap="round" stroke-linejoin="round"/>
<path d="M16.0654 16.6937C16.0654 16.6937 16.5636 19.3931 18.582 19.5032" stroke="#EA5404" stroke-width="0.6" stroke-linecap="round" stroke-linejoin="round"/>
<path d="M23.7566 18.1364C23.7566 18.1364 23.0075 18.0938 22.0697 19.5844C21.1319 21.075 23.5229 22.4346 23.5229 22.4346C22.4293 22.0677 21.4255 22.8474 21.4255 22.8474V23.7778H19.3582V23.1226L20.1522 22.7229V18.1758C20.1522 18.1758 19.9634 18.1758 19.6788 16.4395C19.3941 14.7032 20.1522 13.835 20.1522 13.2945C20.1522 12.7539 19.0286 13.0586 18.69 12.6884C18.3515 12.3182 18.7649 11.9906 19.0286 11.1782C19.2108 10.6643 19.5438 10.2311 19.9754 9.94636L19.8735 8.26576C19.8735 8.26576 20.9761 7.85625 20.9761 9.53358C20.9761 9.53358 22.5491 9.69739 22.648 11.2699C22.7469 12.8424 23.3731 14.5459 24.4817 15.2011C25.5903 15.8563 27.5288 18.926 27.1782 21.0161C26.8277 23.1062 26.4022 23.7778 26.4022 23.7778H21.4345" stroke="#EA5404" stroke-width="0.6" stroke-linecap="round" stroke-linejoin="round"/>
<path d="M30.5802 18.2608C30.5802 18.2608 31.7571 15.6905 30.1705 15.4334C28.5839 15.1764 28.056 16.5472 28.2955 17.6336C28.5349 18.72 29.3051 22.0579 28.6561 22.829C28.007 23.6001 26.6714 23.7783 26.6714 23.7783" stroke="#EA5404" stroke-width="0.6" stroke-linecap="round" stroke-linejoin="round"/>
</svg>
