<svg width="32" height="32" viewBox="0 0 32 32" fill="none" xmlns="http://www.w3.org/2000/svg">
<path d="M10.404 20.9905C10.8124 20.7183 11.0846 20.1735 11.9695 20.2419C12.8543 20.3098 13.0585 19.5651 13.3307 19.8014C13.6029 20.0376 14.1476 20.6503 14.1476 20.6503C14.1476 20.6503 14.0797 21.5352 14.1476 22.0795C14.2156 22.6239 14.4198 23.1686 13.6712 23.1686C12.9226 23.1686 12.1825 22.495 11.7656 22.42C11.0878 22.2982 10.0825 22.488 9.99482 22.1028C9.90679 21.7172 10.4043 20.9908 10.4043 20.9908L10.404 20.9905Z" fill="#EA5404"/>
<path d="M11.536 14.7208C11.4775 14.7374 11.5297 15.0782 11.2075 15.3645C10.8159 15.7127 10.292 15.8944 10.292 15.8944C10.292 15.8944 10.1159 16 10.0807 16.1057C10.0455 16.2113 9.75043 16.7426 10.0807 16.5282C10.7881 16.069 10.9761 16.4525 11.1723 16.2817C11.417 16.0687 11.5966 15.6138 11.5966 15.6138C11.5966 15.6138 11.7702 15.0419 11.7747 14.9726C11.7793 14.9036 11.5944 14.7039 11.5363 14.7205L11.536 14.7208Z" fill="#EA5404"/>
<path d="M11.5015 14.3918C11.5015 14.3918 11.4997 14.0985 11.6641 14.0985C11.8286 14.0985 12.1687 14.1689 12.2159 14.2453C12.2631 14.3218 12.4036 14.4858 12.3567 14.5798C12.3099 14.6739 12.392 14.6503 12.1339 14.7443C11.8758 14.8383 11.8286 14.8263 11.6761 14.7443C11.5236 14.6622 11.5018 14.3922 11.5018 14.3922L11.5015 14.3918Z" fill="#EA5404"/>
<path d="M9.42944 16.4424C9.48825 16.3719 9.47804 16.2427 9.59458 16.2547C9.71113 16.2663 9.82839 16.4424 9.82839 16.4424C9.82839 16.4424 9.88719 16.6184 9.75797 16.7829C9.62874 16.9473 9.68754 16.9705 9.51149 17.0177C9.33543 17.0645 9.21818 16.9121 9.2298 16.8533C9.24142 16.7945 9.42944 16.4424 9.42944 16.4424Z" fill="#EA5404"/>
<path d="M9.5613 18.4288C9.60813 18.5813 9.85461 18.5581 9.8194 18.7693C9.78418 18.9806 9.8201 19.2035 9.66728 19.3443C9.51447 19.4852 9.4539 19.5102 9.36095 19.4095C9.26799 19.3091 9.20918 18.863 9.27961 18.7221C9.35003 18.5813 9.5613 18.4288 9.5613 18.4288Z" fill="#EA5404"/>
<path d="M10.2616 16.6346C10.3824 16.5243 10.662 16.4655 10.7208 16.455C10.7796 16.4448 10.8933 16.4127 10.8352 16.5867C10.7771 16.7606 10.6229 16.7201 10.4866 16.8236C10.3507 16.9272 10.2179 17.0043 10.1806 16.9434C10.1433 16.8821 10.2616 16.6346 10.2616 16.6346Z" fill="#EA5404"/>
<path d="M16 6C10.4771 6 6 10.4771 6 16C6 21.5229 10.4771 26 16 26C21.5229 26 26 21.5229 26 16C26 10.4771 21.5229 6 16 6ZM25.1018 16C25.1018 16.5211 25.0581 17.0352 24.9725 17.5387C24.8923 17.3792 24.8176 17.2278 24.787 17.1577C24.7077 16.9768 23.6338 16.5039 23.4282 16.4317C23.2225 16.3595 22.7754 16.2641 22.3282 16.3165C21.8813 16.3694 21.7458 16.5754 21.2282 16.3165C20.7106 16.0577 20.3222 15.8637 20.193 15.4754C20.0634 15.087 20.193 15.087 20.193 15.087C20.193 15.087 21.0732 14.7507 21.2282 14.6342C21.4673 14.4542 21.9655 14.0982 22.1989 13.6637C22.4197 13.2525 23.3563 12.162 23.4282 11.8521C23.5 11.5423 22.781 10.4285 22.7165 9.9757C22.7095 9.92746 22.6926 9.86972 22.6683 9.80599C24.2398 11.4947 25.1018 13.681 25.1018 16ZM9.56408 22.4359C8.67113 21.543 7.98697 20.4965 7.53521 19.3567C7.61303 19.4232 7.6993 19.4873 7.79542 19.5482C9.08873 20.3651 8.61232 19.412 8.47606 18.3912C8.33979 17.3701 8.27183 17.1658 8.27183 16.6215C8.27183 16.0771 9.42887 16.0088 10.1095 15.3961C10.7901 14.7835 10.9944 14.0349 11.607 13.2863C12.2197 12.5377 13.0109 11.9739 12.7106 11.2113C12.4391 10.5215 11.8479 9.60915 11.3725 9.38028C11.0461 9.22324 10.6039 9.38908 9.85282 9.28803C11.5352 7.74401 13.7025 6.89824 16 6.89824C17.4004 6.89824 18.7521 7.21303 19.9754 7.80775C19.8451 7.77817 19.7211 7.76444 19.6106 7.77535C18.9634 7.84014 18.1222 7.77535 18.1222 7.77535L17.4581 7.77148H16.7891C16.7891 7.77148 15.8472 8.17923 15.3296 7.85599C14.812 7.53239 12.8982 8.1831 12.8761 8.53521C12.8539 8.88732 13.787 11.0757 13.787 11.0757C13.787 11.0757 13.9018 11.5634 14.2398 11.6581C14.5778 11.7525 14.6926 11.5289 15.5338 11.2053C16.375 10.8817 16.0496 11.3701 16.5046 11.6581C16.9595 11.9461 17.0032 11.6592 17.5398 12.4345C17.863 12.9014 17.863 14.6444 18.3162 15.0873C18.7694 15.5303 19.2546 16.0581 19.5134 16.1225C19.7722 16.1873 21.2796 16.9616 21.4222 17.093C21.5912 17.2486 21.7116 17.6651 21.7187 18.2708C21.725 18.8 21.4018 19.6264 21.487 20.0694C21.5722 20.5123 21.5518 22.3342 21.5518 22.9165C21.5518 23.0324 21.588 23.1039 21.6458 23.1398C20.0444 24.4109 18.0754 25.1014 16 25.1014C13.569 25.1014 11.2831 24.1546 9.56408 22.4356V22.4359ZM22.4419 22.4299C22.4521 22.3778 22.4577 22.3246 22.4577 22.2697C22.4577 21.5581 23.0401 21.6873 23.5577 20.7169C23.8144 20.2359 24.2296 19.5806 24.5835 19.0412C24.138 20.3011 23.4137 21.4563 22.4419 22.4299Z" fill="#EA5404"/>
</svg>
