<svg width="32" height="32" viewBox="0 0 32 32" fill="none" xmlns="http://www.w3.org/2000/svg">
<path d="M25.4952 11.1461H18.9663C18.4139 11.1461 17.962 11.598 17.962 12.1503V16.7584C17.962 16.7584 17.962 16.7588 17.962 16.7593L17.9563 19.8878C17.9563 19.9133 17.9587 19.938 17.962 19.9624V21.1753H16.5575C14.9517 21.1753 13.6109 21.8362 12.6807 23.0868C11.8749 24.1701 11.4173 25.6545 11.3926 27.2666C11.3914 27.3412 11.4202 27.4133 11.4729 27.4668C11.5252 27.5203 11.5969 27.5499 11.6715 27.5499H25.4956C26.048 27.5499 26.4999 27.098 26.4999 26.5457V12.1503C26.4999 11.598 26.048 11.1461 25.4956 11.1461H25.4952ZM20.1073 26.4553L16.8092 22.2695H17.966C17.9729 22.2747 17.9798 22.2804 17.9871 22.2857L23.9452 26.4557H20.1073V26.4553ZM18.9238 26.4407H15.6533L14.1751 23.0816C14.6149 22.714 15.1252 22.4705 15.7027 22.3525L18.9238 26.4407ZM19.0559 15.0706L25.4048 14.4355V17.3643L19.0559 16.3204V15.0706ZM20.0181 22.6682L25.4048 23.5723V26.4383L20.0181 22.6682ZM19.0559 21.6437V20.4418L25.4048 20.7315V22.7092L19.0559 21.6433V21.6437ZM19.0559 19.3877V17.387L25.4048 18.4309V19.6775L19.0559 19.3877ZM25.4048 12.2403V13.3774L19.0559 14.0125V12.2403H25.4048ZM13.497 23.8256L14.6542 26.4553H12.5433C12.6694 25.4426 12.9981 24.532 13.497 23.8256Z" fill="#EA5404"/>
<path d="M5.99915 25.4088C6.05306 25.2702 6.21397 25.192 6.35624 25.2354L7.92602 25.7115C8.06829 25.7549 8.15867 25.9089 8.12665 26.0544L7.84091 27.3475C7.80889 27.4926 7.66581 27.5765 7.52354 27.5331L5.67855 26.9735C5.53628 26.9301 5.46373 26.7814 5.51804 26.6428L5.99915 25.4088Z" fill="#EA5404"/>
<path d="M17.4803 7.67628C17.5556 7.23455 17.2581 6.81471 16.8163 6.73974C14.2965 6.31017 11.8354 5.5637 9.50162 4.52099C9.09266 4.33782 8.61236 4.5218 8.42916 4.9311C8.24636 5.34041 8.42956 5.82023 8.83893 6.0034C9.0574 6.10106 9.27708 6.1963 9.49797 6.2887L7.28738 13.5739C7.23429 13.749 7.24483 13.937 7.31697 14.1048L8.78827 17.53L6.52539 24.9886L7.91724 25.4109L10.1801 17.9522L13.3067 15.9219C13.4599 15.8222 13.5734 15.6719 13.6261 15.4968L15.8367 8.21161C16.0718 8.257 16.3073 8.29996 16.5432 8.34048C16.985 8.41586 17.4045 8.11881 17.4798 7.67668L17.4803 7.67628ZM13.6332 11.7999L9.43331 10.4874L10.5787 6.73974L14.8 8.02074L13.6332 11.7999ZM9.69581 16.7872L8.38334 13.6373L9.17082 11.2749L13.3067 12.5873L12.5832 14.9498L9.69581 16.7872Z" fill="#EA5404"/>
</svg>
