<svg width="32" height="32" viewBox="0 0 32 32" fill="none" xmlns="http://www.w3.org/2000/svg">
<path d="M26.7111 11.2435C26.4397 10.6023 25.9886 10.0594 25.4199 9.67476C24.8516 9.29044 24.1613 9.06507 23.4256 9.06541H20.4101V8.25314C20.4101 7.8197 20.3217 7.40287 20.1617 7.02499C19.9218 6.45771 19.5229 5.97781 19.0196 5.63758C18.5175 5.29766 17.9057 5.09805 17.2554 5.09839H14.7446C14.3115 5.09839 13.8943 5.18684 13.5164 5.34682C12.9492 5.58675 12.469 5.98563 12.129 6.48884C11.7892 6.99111 11.5898 7.60244 11.5898 8.2531V9.06541H8.57442C8.08439 9.06541 7.61299 9.16541 7.18633 9.34604C6.54517 9.61748 6.00224 10.0685 5.61761 10.6372C5.23333 11.2055 5.00796 11.8958 5.0083 12.6316V23.3354C5.0083 23.8258 5.10791 24.2965 5.28893 24.7238C5.56003 25.3646 6.01142 25.9075 6.58012 26.2919C7.14842 26.6765 7.83871 26.9019 8.57442 26.9016H23.4256C23.9156 26.9019 24.3867 26.8019 24.814 26.621C25.4549 26.3498 25.9978 25.8984 26.3821 25.3298C26.7667 24.7618 26.9921 24.0712 26.9918 23.3354V12.6316C26.9917 12.1415 26.8921 11.6701 26.7111 11.2435ZM13.1972 8.25314C13.1972 8.03725 13.2406 7.83563 13.3185 7.65091C13.4355 7.3744 13.6327 7.13649 13.8801 6.96943C14.1282 6.80266 14.4216 6.7061 14.7446 6.70575H17.2554C17.4713 6.70575 17.6726 6.74912 17.8573 6.82709C18.1342 6.94367 18.3717 7.14126 18.5388 7.38866C18.7059 7.6367 18.8025 7.92983 18.8025 8.25314V9.06545H13.1972V8.25314ZM25.3844 23.3354C25.3844 23.6082 25.3295 23.8637 25.2305 24.0976C25.0824 24.4479 24.833 24.7486 24.5201 24.96C24.2063 25.1711 23.8339 25.2938 23.4255 25.2942H8.57442C8.30165 25.2942 8.04644 25.2392 7.81226 25.1403C7.46186 24.9925 7.16126 24.7431 6.9498 24.4296C6.73868 24.1165 6.61601 23.7438 6.61567 23.3354V15.4887H25.3844V23.3354ZM25.3844 13.8627H6.61567V12.6316C6.61601 12.3591 6.67054 12.1036 6.76955 11.8694C6.91725 11.519 7.16706 11.2184 7.48019 11.0069C7.79337 10.7958 8.16614 10.6731 8.57447 10.6728H23.4256C23.6985 10.6731 23.9536 10.7276 24.1878 10.8267C24.5382 10.9744 24.8388 11.2242 25.0503 11.537C25.2614 11.8505 25.3838 12.2233 25.3844 12.6316L25.3844 13.8627Z" fill="#EA5404"/>
<path d="M14.8433 23.8247H17.3379V21.4966H19.6661V19.002H17.3379V16.6742H14.8433V19.002H12.5151V21.4966H14.8433V23.8247Z" fill="#EA5404"/>
</svg>
