<svg width="32" height="32" viewBox="0 0 32 32" fill="none" xmlns="http://www.w3.org/2000/svg">
<path d="M5.71008 10.6998C6.08275 10.1487 6.60876 9.71178 7.22985 9.44884C7.64298 9.27393 8.09959 9.17704 8.57442 9.17704H11.5898H11.7015V9.06541V8.2531C11.7015 7.62535 11.8938 7.03571 12.2215 6.5514L12.2215 6.55133C12.5495 6.06583 13.0128 5.68106 13.5599 5.44963L13.56 5.44961C13.9243 5.29536 14.3267 5.21002 14.7446 5.21002L17.2554 5.21002L17.2555 5.21002C17.8828 5.20969 18.4728 5.40224 18.9571 5.73003L18.9571 5.73006C19.4428 6.05835 19.8275 6.52132 20.0589 7.06848L20.0589 7.0685C20.2132 7.43286 20.2985 7.83491 20.2985 8.25314V9.06541V9.17704H20.4101H23.4256H23.4256C24.1384 9.1767 24.807 9.39502 25.3574 9.76722C25.9084 10.1399 26.3454 10.6659 26.6083 11.287L26.6084 11.2871C26.7836 11.7001 26.8801 12.1567 26.8801 12.6316V23.3354V23.3354C26.8805 24.0482 26.6621 24.7171 26.2897 25.2672L26.2896 25.2673C25.9172 25.8183 25.3913 26.2555 24.7705 26.5182L24.7705 26.5182C24.3567 26.6934 23.9004 26.7902 23.4257 26.7899H23.4256H8.57442H8.57438C7.86165 26.7902 7.19306 26.5719 6.64268 26.1994L6.64262 26.1994C6.09159 25.827 5.65432 25.301 5.39174 24.6803L5.39172 24.6803C5.21645 24.2665 5.11993 23.8106 5.11993 23.3354L5.11993 12.6316L5.11993 12.6315C5.1196 11.9187 5.33791 11.2502 5.71008 10.6998ZM5.71008 10.6998L5.61761 10.6372M5.71008 10.6998L5.61761 10.6372M5.61761 10.6372C6.00223 10.0685 6.54517 9.61748 7.18633 9.34604C7.61299 9.16541 8.08439 9.06541 8.57442 9.06541H11.4782M5.61761 10.6372C5.23333 11.2055 5.00796 11.8958 5.0083 12.6316L11.4782 9.06541M11.4782 9.06541H11.5898V8.95378V8.2531C11.5898 7.60244 11.7892 6.99111 12.129 6.48884C12.469 5.98563 12.9492 5.58675 13.5164 5.34682L11.4782 9.06541ZM24.814 26.621C24.3867 26.802 23.9156 26.9019 23.4256 26.9016H8.57442C7.83871 26.9019 7.14842 26.6765 6.58012 26.2919C6.01142 25.9075 5.56003 25.3646 5.28893 24.7238L24.814 26.621ZM24.814 26.621C25.4549 26.3498 25.9978 25.8984 26.3821 25.3298L24.814 26.621ZM13.2157 7.60744L13.2157 7.6075C13.1321 7.80562 13.0856 8.02198 13.0856 8.25314V9.06545V9.17708H13.1972H18.8025H18.9141V9.06545V8.25314C18.9141 7.90678 18.8104 7.59207 18.6314 7.3263L18.6313 7.32618C18.4523 7.06122 18.1979 6.84941 17.9007 6.72426C17.7026 6.64063 17.4866 6.59413 17.2554 6.59413H14.7446L14.7445 6.59413C14.3986 6.5945 14.0836 6.69812 13.8178 6.87679L13.8176 6.87692C13.5525 7.05594 13.3412 7.3108 13.2157 7.60744ZM24.5824 25.0526L24.5826 25.0525C24.9131 24.8291 25.1767 24.5115 25.3333 24.141C25.438 23.8937 25.496 23.6235 25.496 23.3354V15.4887V15.3771H25.3844H6.61567H6.50404V15.4887V23.3354V23.3354C6.5044 23.7668 6.63413 24.1612 6.85725 24.492L6.85726 24.4921C7.08066 24.8232 7.39821 25.0868 7.76882 25.2431C8.01639 25.3477 8.28635 25.4058 8.57442 25.4058H23.4255H23.4256C23.857 25.4054 24.2509 25.2757 24.5824 25.0526ZM25.3844 13.9744H25.496L25.496 13.8627L25.4961 12.6316V12.6314C25.4953 12.2002 25.366 11.8059 25.1429 11.4746L25.1428 11.4745C24.9194 11.144 24.6019 10.8801 24.2312 10.7238C23.9835 10.6191 23.7137 10.5615 23.4258 10.5611H23.4256H8.57447H8.57437C8.14309 10.5615 7.74875 10.6912 7.41779 10.9143L7.41771 10.9144C7.08695 11.1378 6.82294 11.4553 6.66669 11.8261C6.56199 12.0737 6.5044 12.3439 6.50404 12.6314V12.6316V13.8627V13.9744H6.61567H25.3844Z" fill="#EA5404" stroke="white" stroke-width="0.223255"/>
<path d="M17.3379 21.3012H17.1425V21.4966V23.6294H15.0387V21.4966V21.3012H14.8433H12.7105V19.1974H14.8433H15.0387V19.002V16.8695H17.1425V19.002V19.1974H17.3379H19.4707V21.3012H17.3379Z" fill="#EA5404" stroke="white" stroke-width="0.390697"/>
</svg>
