<svg width="32" height="32" viewBox="0 0 32 32" fill="none" xmlns="http://www.w3.org/2000/svg">
<path d="M18.2108 14.3351C19.1153 14.3351 19.8492 14.0046 19.8492 13.5943C19.8492 13.2554 19.3448 12.9737 18.66 12.8847V6.34791L23.301 4.36644L17.7616 2V6.39077V6.73146V12.8847C17.0762 12.9732 16.5728 13.2554 16.5728 13.5943C16.5728 14.0046 17.3047 14.3351 18.2108 14.3351Z" fill="#EA5404"/>
<path d="M25.4987 14.0749C25.1072 13.0645 24.3167 12.0961 23.2485 11.2291C22.3783 10.5251 21.3169 9.89282 20.1205 9.38218L19.8486 10.3968C21.3587 11.0605 22.6142 11.9292 23.4621 12.8368C23.9709 13.3794 24.3329 13.9332 24.5304 14.4478C24.7285 14.9645 24.7647 15.4314 24.6533 15.8491C24.6407 15.8961 24.626 15.9431 24.609 15.9902C24.552 16.1517 24.4239 16.3497 24.221 16.5694C23.9179 16.8994 23.4566 17.2685 22.9181 17.6746C22.3832 18.0788 21.772 18.5228 21.1575 19.0312C20.0941 19.7773 19.2431 20.7607 18.6097 21.626C18.2912 22.0616 18.0282 22.4677 17.8253 22.7991C17.6227 23.129 17.4768 23.3889 17.4037 23.5125C16.8672 24.4168 16.134 25.0387 15.2308 25.3721C14.3273 25.7034 13.2374 25.7455 11.9873 25.4109C11.5871 25.3037 11.171 25.1579 10.7415 24.9702C9.43122 24.3995 8.41348 23.6361 7.80688 22.8263C7.50265 22.4212 7.29996 22.0074 7.20059 21.5982C7.10141 21.1883 7.10116 20.7826 7.21161 20.3687C7.24196 20.2555 7.28048 20.1419 7.32835 20.028C7.46076 19.7116 7.67597 19.4234 7.95243 19.1432C8.36617 18.7226 8.91149 18.3349 9.42778 17.905C9.68587 17.6889 9.93748 17.4605 10.159 17.2003C10.3727 16.9492 10.5582 16.6652 10.6812 16.3386C10.7934 16.1411 10.8785 15.9395 10.9325 15.7381C11.0445 15.3198 11.038 14.9121 10.9867 14.5311C10.9082 13.9581 10.74 13.4279 10.6449 12.8985C10.5487 12.3678 10.5171 11.8502 10.6703 11.2738C10.6929 11.1895 10.7198 11.1039 10.7513 11.0167C10.8892 10.6347 11.149 10.3097 11.545 10.032C12.1364 9.61706 13.0374 9.33715 14.1257 9.26476C14.9502 9.20888 15.8796 9.27025 16.8562 9.4569L17.1246 8.45503C15.5784 8.15051 14.1178 8.12874 12.8885 8.38852C12.1498 8.54606 11.4912 8.80498 10.9514 9.18094C10.413 9.5552 9.99247 10.0567 9.77442 10.6657C9.73338 10.7798 9.69814 10.893 9.66808 11.0052C9.39205 12.0341 9.57575 12.9311 9.74758 13.6664C9.83468 14.0355 9.91862 14.37 9.95801 14.6686C9.99799 14.9683 9.99527 15.2255 9.9299 15.4694C9.8951 15.5993 9.84255 15.7277 9.76141 15.8633L9.73573 15.9065L9.71858 15.9539C9.62697 16.2114 9.44765 16.462 9.19137 16.7198C8.80951 17.1074 8.26685 17.491 7.73527 17.9373C7.20661 18.3848 6.67497 18.9065 6.37139 19.627C6.30565 19.7833 6.25169 19.9411 6.20913 20.1C6.05269 20.6823 6.05364 21.2766 6.19228 21.8436C6.40021 22.6955 6.90547 23.4813 7.61601 24.1685C8.32758 24.8563 9.24896 25.4506 10.3265 25.9213C10.8002 26.1278 11.2647 26.2918 11.7188 26.4134C13.1339 26.793 14.4542 26.763 15.5885 26.3458C16.7235 25.9309 17.6566 25.1277 18.2971 24.0399C18.3814 23.897 18.5165 23.6564 18.7097 23.3418C19.2844 22.4006 20.3712 20.8368 21.7711 19.8682L21.789 19.8556L21.8062 19.8412C22.5887 19.1918 23.395 18.6331 24.0745 18.0924C24.4147 17.8216 24.7234 17.5549 24.9842 17.2725C25.2435 16.9901 25.4596 16.6897 25.5862 16.3407C25.6125 16.2666 25.6356 16.1925 25.6557 16.1176C25.8347 15.4501 25.7584 14.747 25.4987 14.0749Z" fill="#EA5404"/>
</svg>
