<svg width="32" height="32" viewBox="0 0 32 32" fill="none" xmlns="http://www.w3.org/2000/svg">
<path d="M18.017 16.7594V16.7593V16.7592V16.7592V16.7592V16.7592V16.7592V16.7592V16.7592V16.7592V16.7592V16.7592V16.7592V16.7592V16.7592V16.7592V16.7592V16.7592V16.7592V16.7592V16.7592V16.7592V16.7592V16.7591V16.7591V16.7591V16.7591V16.7591V16.7591V16.7591V16.7591V16.7591V16.7591V16.7591V16.7591V16.7591V16.7591V16.7591V16.7591V16.7591V16.7591V16.7591V16.7591V16.7591V16.7591V16.759V16.759V16.759V16.759V16.759V16.759V16.759V16.759V16.759V16.759V16.759V16.759V16.759V16.759V16.759V16.759V16.759V16.759V16.759V16.759V16.759V16.759V16.7589V16.7589V16.7589V16.7589V16.7589V16.7589V16.7589V16.7589V16.7589V16.7589V16.7589V16.7589V16.7589V16.7589V16.7589V16.7589V16.7589V16.7589V16.7589V16.7589V16.7589V16.7589V16.7589V16.7588V16.7588V16.7588V16.7588V16.7588V16.7588V16.7588V16.7588V16.7588V16.7588V16.7588V16.7588V16.7588V16.7588V16.7588V16.7588V16.7588V16.7588V16.7588V16.7588V16.7588V16.7588V16.7588V16.7588V16.7588V16.7587V16.7587V16.7587V16.7587V16.7587V16.7587V16.7587V16.7587V16.7587V16.7587V16.7587V16.7587V16.7587V16.7587V16.7587V16.7587V16.7587V16.7587V16.7587V16.7587V16.7587V16.7587V16.7586V16.7586V16.7586V16.7586V16.7586V16.7586V16.7586V16.7586V16.7586V16.7586V16.7586V16.7586V16.7586V16.7586V16.7586V16.7586V16.7586V16.7586V16.7586V16.7586V16.7586V16.7586V16.7586V16.7585V16.7585V16.7585V16.7585V16.7585V16.7585V16.7585V16.7585V16.7585V16.7585V16.7585V16.7585V16.7585V16.7585V16.7585V16.7585V16.7585V16.7585V16.7585V16.7585V16.7585V16.7585V16.7585V16.7585V16.7584V16.7584V12.1503C18.017 11.6284 18.4443 11.2011 18.9663 11.2011H25.4952H25.4956C26.0176 11.2011 26.4449 11.6284 26.4449 12.1503V26.5457C26.4449 27.0676 26.0176 27.4949 25.4956 27.4949H11.6715C11.6114 27.4949 11.5539 27.4711 11.5122 27.4284L11.5121 27.4282C11.4697 27.3852 11.4466 27.3273 11.4476 27.2675L11.4476 27.2675C11.4722 25.6646 11.9272 24.192 12.7248 23.1197L12.6807 23.0868L12.7248 23.1197C13.6443 21.8835 14.9685 21.2303 16.5575 21.2303H17.962H18.017V21.1753V19.9624H18.0175L18.0165 19.9551C18.0134 19.932 18.0113 19.91 18.0113 19.8879C18.0113 19.8879 18.0113 19.8878 18.0113 19.8878L18.017 16.7594ZM16.8092 22.2145H16.6959L16.766 22.3035L20.0523 26.4744V26.5107H20.1073H23.9452H24.1197L23.9768 26.4106L18.0193 22.2411C18.0192 22.241 18.0191 22.2409 18.019 22.2408C18.0152 22.2381 18.0123 22.2358 18.0087 22.233C18.0062 22.231 18.0033 22.2287 17.9994 22.2258L17.9846 22.2145H17.966H16.8092ZM18.9238 26.4957H19.0371L18.967 26.4067L15.7459 22.3185L15.725 22.2919L15.6917 22.2986C15.1055 22.4183 14.5868 22.6658 14.1398 23.0394L14.1081 23.0659L14.1248 23.1037L15.6029 26.4629L15.6174 26.4957H15.6533H18.9238ZM19.0504 15.0158L19.0009 15.0208V15.0706V16.3204V16.3671L19.047 16.3746L25.3958 17.4186L25.4598 17.4291V17.3643V14.4355V14.3748L25.3993 14.3808L19.0504 15.0158ZM20.0272 22.614L19.9866 22.7133L25.3732 26.4833L25.4598 26.5439V26.4383V23.5723V23.5258L25.4139 23.5181L20.0272 22.614ZM19.0584 20.3868L19.0009 20.3842V20.4418V21.5783V21.6433V21.6437H19.0558L19.0468 21.6976L25.3957 22.7634L25.4598 22.7742V22.7092V20.7315V20.679L25.4073 20.6766L19.0584 20.3868ZM19.0009 19.3877V19.4403L19.0534 19.4427L25.4023 19.7324L25.4598 19.735V19.6775V18.4309V18.3842L25.4137 18.3766L19.0648 17.3327L19.0009 17.3222V17.387V19.3877ZM25.4598 12.2403V12.1853H25.4048H19.0559H19.0009V12.2403V14.0125V14.0732L19.0614 14.0672L25.4102 13.4322L25.4598 13.4272V13.3774V12.2403ZM13.5474 23.8035L13.5082 23.7145L13.4521 23.7939C12.947 24.5089 12.6157 25.4285 12.4887 26.4485L12.481 26.5103H12.5433H14.6542H14.7385L14.7045 26.4331L13.5474 23.8035Z" fill="#EA5404" stroke="white" stroke-width="0.11"/>
<path d="M5.99915 25.4088C6.05306 25.2702 6.21397 25.192 6.35624 25.2354L7.92602 25.7115C8.06829 25.7549 8.15867 25.9089 8.12665 26.0544L7.84091 27.3475C7.80889 27.4926 7.66581 27.5765 7.52354 27.5331L5.67855 26.9735C5.53628 26.9301 5.46373 26.7814 5.51804 26.6428L5.99915 25.4088Z" fill="#EA5404"/>
<path d="M17.4803 7.67628C17.5556 7.23455 17.2581 6.81471 16.8163 6.73974C14.2965 6.31017 11.8354 5.5637 9.50162 4.52099C9.09266 4.33782 8.61236 4.5218 8.42916 4.9311C8.24636 5.34041 8.42956 5.82023 8.83893 6.0034C9.0574 6.10106 9.27708 6.1963 9.49797 6.2887L7.28738 13.5739C7.23429 13.749 7.24483 13.937 7.31697 14.1048L8.78827 17.53L6.52539 24.9886L7.91724 25.4109L10.1801 17.9522L13.3067 15.9219C13.4599 15.8222 13.5734 15.6719 13.6261 15.4968L15.8367 8.21161C16.0718 8.257 16.3073 8.29996 16.5432 8.34048C16.985 8.41586 17.4045 8.11881 17.4798 7.67668L17.4803 7.67628ZM13.6332 11.7999L9.43331 10.4874L10.5787 6.73974L14.8 8.02074L13.6332 11.7999ZM9.69581 16.7872L8.38334 13.6373L9.17082 11.2749L13.3067 12.5873L12.5832 14.9498L9.69581 16.7872Z" fill="#EA5404"/>
</svg>
