<svg width="32" height="32" viewBox="0 0 32 32" fill="none" xmlns="http://www.w3.org/2000/svg">
<g clip-path="url(#clip0_1451_538)">
<path d="M5.09768 28.4808C5.11681 28.482 5.13796 28.483 5.16155 28.4839C5.17846 28.4845 5.1986 28.485 5.221 28.4856C5.28891 28.4873 5.37771 28.4896 5.46116 28.4966C5.47761 28.4968 5.49312 28.4972 5.50627 28.4976L5.54693 28.499L5.69339 28.4468C5.70024 28.4417 5.71054 28.4334 5.72539 28.4205C5.74061 28.4072 5.75381 28.3952 5.77076 28.3797C5.77831 28.3728 5.7866 28.3652 5.79614 28.3565C5.79917 28.3538 5.80239 28.3508 5.80577 28.3478C5.85947 28.0002 5.95464 27.6626 6.08054 27.3417L6.08425 27.3322L6.08435 27.3322C6.22013 27.0058 6.41741 26.735 6.61127 26.5035C6.70822 26.3878 6.80873 26.2768 6.90234 26.1737L6.91524 26.1595C6.98228 26.0857 7.0456 26.016 7.10619 25.9469L7.12995 25.84L7.01292 25.6931C6.93028 25.5894 6.8836 25.543 6.84617 25.5189L6.6616 25.4004L6.62385 25.1843C6.61526 25.1351 6.60862 25.0823 6.60572 25.0261L6.60174 24.9487L6.62135 24.8738C6.62588 24.8565 6.63049 24.8398 6.63425 24.8261L6.64338 24.7927C6.59563 24.8132 6.53608 24.8344 6.4675 24.8477L6.30543 24.8791L6.1565 24.8078C6.0475 24.7557 5.963 24.7068 5.85512 24.6285L5.5979 24.4416L5.65806 24.1294C5.66778 24.0789 5.68118 24.0322 5.69226 23.9967C5.6221 24.033 5.55238 24.0688 5.48312 24.1043C5.08431 24.3092 4.70077 24.5062 4.33469 24.7304C4.30978 24.7485 4.28585 24.764 4.26678 24.7761C4.23925 24.7936 4.20977 24.8112 4.18442 24.8264L4.18023 24.8289C4.12695 24.8608 4.08301 24.8871 4.04295 24.9143C4.04106 24.9155 4.03921 24.9168 4.0374 24.918L4.03262 24.9833L4.43375 24.9253C4.53307 24.911 4.64211 24.9164 4.67937 24.9182C4.68428 24.9185 4.68795 24.9187 4.69018 24.9187L5.12908 24.9318L5.17282 25.3687C5.18148 25.4552 5.19687 25.5424 5.21615 25.6517C5.22038 25.6757 5.2248 25.7007 5.22938 25.7271C5.25283 25.862 5.27943 26.0267 5.2842 26.1977L5.28764 26.321L5.23339 26.4317C5.16209 26.5772 5.06091 26.6831 5.0025 26.7429C4.98205 26.7638 4.96578 26.7803 4.95257 26.7937C4.917 26.8297 4.90359 26.8433 4.8903 26.8614L4.87885 26.8769L4.86624 26.8916C4.71201 27.0706 4.56856 27.2643 4.42623 27.4701L4.6541 27.5165C4.70293 27.5264 4.7479 27.5377 4.78657 27.5479L5.09768 28.4808ZM5.09768 28.4808C5.13711 28.3971 5.17099 28.3165 5.20104 28.2442L5.41655 27.7258L4.87671 27.5716C4.85362 27.565 4.8318 27.5593 4.81568 27.5552L4.79485 27.55L4.78844 27.5484C4.78746 27.5481 4.78691 27.548 4.78668 27.5479C4.78668 27.5479 4.78667 27.5479 4.78667 27.5479L5.09768 28.4808ZM3.99429 28.1244C3.99312 28.1267 3.99323 28.1261 3.99483 28.1234L3.99429 28.1244ZM4.10777 25.8947C4.10771 25.8947 4.10754 25.8934 4.10743 25.8909C4.10778 25.8935 4.10783 25.8948 4.10777 25.8947ZM5.92749 23.8719C5.93165 23.8692 5.93145 23.8696 5.92744 23.8719L5.92749 23.8719ZM6.83501 24.695C6.83498 24.6951 6.83391 24.6956 6.83187 24.6963C6.83403 24.6954 6.83505 24.695 6.83501 24.695ZM7.31765 25.8741C7.31855 25.8742 7.3184 25.8742 7.31733 25.874L7.31765 25.8741Z" stroke="#EA5404"/>
<path d="M9.43914 23.9773C9.31333 23.8671 9.1623 23.7944 9.00164 23.7622L9.43914 23.9773ZM9.43914 23.9773C9.45547 23.9887 9.47165 24.0006 9.48787 24.0125C9.53442 24.0467 9.58134 24.0812 9.63324 24.1057M9.43914 23.9773L9.63324 24.1057M9.63324 24.1057C9.70294 24.1149 9.77293 24.0995 9.84065 24.083M9.63324 24.1057L9.84065 24.083M9.84065 24.083C9.86686 24.0758 9.89306 24.0686 9.91926 24.0613M9.84065 24.083L9.91926 24.0613M10.4575 23.9351C10.4668 23.9071 10.475 23.8786 10.4833 23.8501C10.4998 23.7932 10.5164 23.7361 10.5411 23.6822C10.6119 23.527 10.8755 23.374 11.0449 23.3673M10.4575 23.9351L10.996 23.8898L10.9955 23.8909M10.4575 23.9351C10.2748 23.9629 10.097 24.0121 9.91926 24.0613M10.4575 23.9351L9.91926 24.0613M11.0449 23.3673L11.0495 23.4853H10.9025V23.4859V23.7817L11.0579 23.8671C11.037 23.8671 11.0242 23.8635 11.0242 23.8635C11.0242 23.8635 11.0291 23.8649 11.0402 23.8694C11.0448 23.8712 11.0496 23.8733 11.0549 23.8756M11.0449 23.3673L11.0496 23.4853H11.4025C11.376 23.4741 11.3494 23.4615 11.3226 23.4488C11.2341 23.4067 11.1432 23.3634 11.0449 23.3673ZM11.0549 23.8756C11.0431 23.8809 11.0299 23.8877 11.0163 23.896C11.0033 23.9039 10.9929 23.9114 10.9854 23.9175M11.0549 23.8756C11.0669 23.8809 11.0815 23.8878 11.102 23.8975C11.1042 23.8985 11.1065 23.8996 11.1089 23.9008C11.1271 23.9094 11.1509 23.9208 11.1766 23.9323C11.3529 24.0291 11.4881 24.1038 11.5924 24.1802C11.5912 24.1827 11.5901 24.1852 11.5889 24.1877C11.4958 24.3712 11.3783 24.5373 11.2397 24.6768C11.0506 24.6385 10.8681 24.6341 10.724 24.633C10.4793 24.6285 10.2482 24.6442 10.0244 24.7552C9.83809 24.8477 9.68942 24.9949 9.56576 25.1173C9.55641 25.1266 9.5472 25.1357 9.53813 25.1447M11.0549 23.8756C11.0585 23.874 11.0621 23.8725 11.0654 23.8712L9.53813 25.1447M10.9854 23.9175C10.9899 23.904 10.9931 23.8961 10.9955 23.8909M10.9854 23.9175C10.9824 23.9261 10.9789 23.9371 10.9747 23.9512C10.9729 23.9572 10.9704 23.9659 10.9673 23.9764C10.9582 24.0078 10.9445 24.0549 10.9322 24.0922L10.8358 24.3833L10.5327 24.4294C10.3816 24.4524 10.2348 24.4929 10.0544 24.5428C10.028 24.5501 10.0008 24.5576 9.97287 24.5652L9.96597 24.5671L9.95902 24.5688C9.95677 24.5694 9.95439 24.5699 9.95189 24.5706C9.88605 24.5867 9.73559 24.6236 9.56761 24.6014L9.49041 24.5911L9.41998 24.5579C9.31373 24.5078 9.19847 24.4214 9.16272 24.3946C9.15768 24.3908 9.15422 24.3882 9.15259 24.387L9.13022 24.3714L9.1097 24.3534C9.06393 24.3133 9.01041 24.2834 8.95196 24.265M10.9854 23.9175C10.9806 23.9213 10.9769 23.9245 10.9744 23.927C10.9732 23.9281 10.9727 23.9287 10.9727 23.9288C10.9726 23.9288 10.9738 23.9275 10.9759 23.9248C10.9791 23.9205 10.987 23.9093 10.9955 23.8909M10.9955 23.8909L8.95196 24.265M8.95196 24.265C8.95271 24.2636 8.95345 24.2621 8.95419 24.2607L8.96424 24.2418L8.96549 24.2388L9.05532 24.2111L9.14911 24.1025C9.11277 24.1445 9.05668 24.1879 8.98193 24.2128C8.97995 24.2135 8.97799 24.2141 8.97604 24.2147C8.97644 24.214 8.97666 24.2136 8.97666 24.2136C8.97666 24.2136 8.97641 24.214 8.97586 24.2148C8.97185 24.216 8.96788 24.2172 8.96395 24.2183C8.94502 24.2237 8.92718 24.2271 8.91079 24.2293C8.90988 24.2294 8.90897 24.2296 8.90806 24.2297C8.90784 24.2297 8.90762 24.2297 8.9074 24.2298C8.90411 24.2302 8.90088 24.2305 8.89771 24.2308C8.86655 24.2339 8.84171 24.2324 8.82633 24.2307C8.81052 24.2289 8.79926 24.2262 8.7992 24.2262C8.79917 24.2262 8.8018 24.2268 8.80785 24.2285C8.80854 24.2287 8.8097 24.229 8.81128 24.2294C8.82412 24.2331 8.86476 24.2447 8.90284 24.2524L8.90349 24.2525C8.91997 24.2558 8.93615 24.26 8.95196 24.265ZM8.95196 24.265C8.93825 24.291 8.92464 24.3176 8.90934 24.3475L8.85213 24.4594L8.74879 24.531C8.70238 24.5631 8.6587 24.5965 8.60459 24.6379C8.59085 24.6484 8.57644 24.6595 8.56115 24.6711C8.50018 24.7175 8.42754 24.7718 8.34673 24.8239M8.95196 24.265L8.04844 24.4209L8.3618 24.8105C8.35634 24.8149 8.35092 24.8191 8.34554 24.8232L8.34673 24.8239M8.34673 24.8239C8.34193 24.827 8.3371 24.8301 8.33224 24.8331M8.34673 24.8239L8.46968 24.8907L8.50349 25.1176M8.33224 24.8331L8.30945 25.7637C8.43692 25.9865 8.56734 26.2145 8.75739 26.389L8.8645 26.197L9.00089 25.9523C8.97208 25.9363 8.92441 25.919 8.8645 25.919C8.80259 25.919 8.76017 25.9376 8.74451 25.9458C8.73816 25.9491 8.73483 25.9514 8.73482 25.9514C8.73482 25.9514 8.73912 25.9483 8.74817 25.9404C8.7651 25.9255 8.7842 25.9064 8.81576 25.8742C8.81765 25.8722 8.81963 25.8702 8.8217 25.8681C8.84258 25.8468 8.8726 25.8161 8.90517 25.7859M8.33224 24.8331C8.30031 24.8564 8.27073 24.8745 8.24762 24.8878L8.22716 24.8996L8.20568 24.9094C8.19258 24.9154 8.17932 24.9214 8.16592 24.9275C8.07323 24.9691 7.9732 25.0111 7.86546 25.0489L7.84909 25.0547L7.83235 25.0593C7.84332 25.0563 7.85425 25.0524 7.86504 25.0477C7.99772 24.9903 8.10888 24.8124 8.00966 24.6268L7.76335 24.7585L7.7513 24.7649L7.56872 24.8625L8.33224 24.8331ZM8.50349 25.1176C8.50097 25.1126 8.50003 25.1103 8.50001 25.1102C8.50001 25.1102 8.50002 25.1103 8.50003 25.1103C8.50029 25.111 8.50392 25.1205 8.50643 25.1373L8.50349 25.1176ZM8.50349 25.1176C8.50454 25.1197 8.50587 25.1222 8.50753 25.1253C8.51353 25.1363 8.5218 25.1501 8.53381 25.169C8.54221 25.1822 8.5491 25.1928 8.55735 25.2054C8.5628 25.2137 8.56885 25.223 8.57631 25.2345L8.57804 25.2372L8.57803 25.2372C8.63185 25.3214 8.68144 25.4072 8.7259 25.4848C8.73193 25.4953 8.73787 25.5057 8.74371 25.5159C8.78262 25.5839 8.81778 25.6453 8.85463 25.7058C8.87183 25.734 8.88863 25.7607 8.90517 25.7859M8.90517 25.7859C8.90528 25.7861 8.9054 25.7862 8.90551 25.7864C8.90831 25.7836 8.91112 25.7807 8.91392 25.7779M8.90517 25.7859C8.90807 25.7832 8.91099 25.7805 8.91392 25.7779M8.91392 25.7779C8.97029 25.7204 9.0283 25.6605 9.08752 25.5994C9.23244 25.4498 9.38466 25.2926 9.53813 25.1447M8.91392 25.7779C8.91927 25.773 8.92467 25.7682 8.93009 25.7634L9.25949 26.1396C9.32462 26.0733 9.38928 26.0065 9.45395 25.9398L9.53813 25.1447" stroke="#EA5404"/>
<mask id="path-3-inside-1_1451_538" fill="white">
<path d="M22.4187 12.8141C22.4277 12.7487 22.4365 12.681 22.4051 12.6192C22.2668 12.3963 22.097 12.184 21.9208 11.9879C21.9336 11.9591 21.9367 11.9261 21.9279 11.8943C21.8882 11.7499 21.8607 11.602 21.8304 11.4554C21.7746 11.2233 21.7471 10.9702 21.653 10.7467C21.6148 10.672 21.5286 10.6544 21.453 10.6432C21.3235 10.6242 21.1937 10.6004 21.0634 10.5892C20.9809 10.5761 20.8985 10.592 20.8313 10.6424C20.5593 10.7881 20.4709 11.0048 20.833 11.0977C20.8596 11.348 20.8985 11.595 20.8826 11.8478C20.7766 11.8682 20.6695 11.8847 20.5618 11.8931C20.5386 11.8937 20.5154 11.8937 20.4924 11.8931C20.4638 11.7144 20.5743 11.3424 20.2796 11.3707C20.0643 11.414 19.8192 11.4048 19.6171 11.4851C19.5551 11.5245 19.5423 11.6 19.5389 11.6674C19.493 12.1138 19.4539 12.5613 19.4253 13.0094C19.3635 13.0217 19.3009 13.0435 19.2513 13.0547C19.1074 13.1078 19.0799 13.2734 19.0788 13.4079C19.0765 13.5039 19.0688 13.6241 19.1323 13.7041C19.1978 13.7872 19.2986 13.8045 19.3927 13.8395C19.3978 13.9368 19.397 14.0344 19.399 14.1323C19.4007 14.2333 19.4029 14.3345 19.4077 14.4361C19.4086 14.4607 19.414 14.4819 19.4233 14.4998C19.4077 14.6377 19.3919 14.7753 19.3754 14.9129C19.365 14.9971 19.3576 15.0821 19.3409 15.1649C19.2899 15.2608 19.2309 15.3526 19.1788 15.448C19.0703 15.653 18.9297 15.8381 18.8056 16.0336C18.6637 16.3284 18.4098 16.548 18.2706 16.8447C18.2012 16.9829 18.1389 17.1252 18.093 17.2729C18.0352 17.3361 17.985 17.4209 17.9326 17.4673C17.6767 17.7243 17.4333 18.0121 17.1301 18.2141C17.1131 18.2169 17.097 18.2227 17.0828 18.2308C17.0828 18.2308 17.082 18.2308 17.0817 18.2314C17.0709 18.2359 17.0602 18.2418 17.0497 18.2493C16.6816 18.5144 16.3277 18.7995 15.9418 19.0397C15.7947 19.0456 15.4499 19.1636 15.5201 18.8996C15.587 18.8104 15.6887 18.7421 15.704 18.6224C15.7219 18.4935 15.755 18.3332 15.6598 18.2264C15.7669 18.1184 15.8689 18.006 15.9738 17.8955C16.0596 17.8211 16.1189 17.7042 16.0622 17.5948C16.0035 17.4723 15.9216 17.3031 15.757 17.3331C15.5793 17.368 15.4136 17.443 15.2379 17.4877C15.1637 17.5081 15.0577 17.5182 14.9939 17.5618C14.9449 17.5744 14.9033 17.6116 14.8897 17.662C14.8273 17.9053 14.7843 18.1528 14.7202 18.3961C14.6794 18.5572 14.6403 18.7183 14.6006 18.8797C14.5298 18.927 14.4641 19.0112 14.4094 19.0598C14.2226 19.2727 13.9877 19.4355 13.7988 19.6441C13.648 19.7918 13.7302 20.0066 13.7285 20.1901C13.7194 20.4614 13.6613 20.7282 13.6239 20.9964C13.4103 21.0467 13.1748 21.1264 12.9646 21.2098C12.6821 21.1404 12.4075 21.0266 12.1309 20.9315C12.1114 20.9108 12.0853 20.896 12.0558 20.8915C11.5484 20.7861 11.0086 20.8859 10.49 20.8501C10.1404 20.8303 9.74226 20.7313 9.42944 20.9349C9.18349 21.0725 8.95567 21.2369 8.73494 21.4109C8.36176 21.6623 7.99425 21.9496 7.64828 22.2399C7.28275 22.3344 6.91326 22.4589 6.55369 22.5914C6.46358 22.627 6.31623 22.6597 6.21649 22.7229C6.19978 22.7195 6.18164 22.7195 6.16322 22.7229C5.98188 22.7651 6.06093 22.9648 6.11335 23.0812C6.18023 23.2476 6.23888 23.4174 6.3049 23.5843C6.32587 23.6394 6.36611 23.6685 6.40946 23.6775C6.57777 23.8559 7.03567 23.9563 7.23827 23.9885C7.64431 23.9507 7.98122 23.6814 8.37083 23.5813C8.49041 23.5695 8.6131 23.5843 8.73126 23.5497C9.16535 23.4473 9.61475 23.4644 10.0574 23.4305C10.3404 23.3077 10.6286 23.1936 10.9238 23.1002C11.1058 23.0381 11.2865 22.9685 11.475 22.9262C11.5795 22.9508 11.6798 22.9894 11.7844 23.016C12.0782 23.0868 12.3673 23.1746 12.6574 23.2585C12.5129 23.5583 12.3729 24.0799 12.3786 24.2078C12.4426 24.4589 12.7223 24.58 12.8473 24.8004C12.9745 24.9643 13.062 25.2406 13.3097 25.237C13.512 25.2303 13.7276 25.2107 13.9138 25.1282C13.9722 25.0933 13.9911 25.0396 13.9835 24.9895C14.0963 24.9101 14.1079 24.6477 14.1648 24.537C14.1918 24.4634 14.2473 24.3719 14.2433 24.2953C14.2952 24.2506 14.3434 24.2027 14.3836 24.1728C14.5655 24.0097 14.7834 23.9023 14.965 23.7384C15.1186 23.6148 15.1365 23.4445 15.0877 23.2652C15.0642 23.037 15.0285 22.8009 15.0693 22.5733C15.2722 22.5422 15.2679 22.7514 15.3782 22.8454C15.381 22.8795 15.398 22.9131 15.4337 22.9411C15.568 23.0479 15.7346 23.1047 15.9012 23.1408C15.9032 23.1413 15.9052 23.1416 15.9069 23.1422C15.9157 23.1469 15.9253 23.1514 15.9358 23.1553C15.9928 23.1718 16.0469 23.1503 16.0979 23.1226C16.1441 23.0966 16.1911 23.0714 16.2376 23.0454C16.5371 23.1581 16.8508 23.2406 17.1701 23.2722C17.3041 23.2703 17.4027 23.1615 17.4948 23.0775C17.547 23.0236 17.5977 22.9682 17.6495 22.9139C17.7731 22.9338 17.8329 22.7677 17.9017 22.6801C17.9054 22.6793 17.9091 22.6784 17.9128 22.6776C17.9476 22.6709 17.9825 22.6644 18.0179 22.6589C17.9414 22.8513 17.6617 23.2943 18.0496 23.3091C18.1924 23.2999 18.3667 23.3402 18.4778 23.2303C18.5965 23.0641 18.6577 22.8616 18.7552 22.6821C18.9802 22.276 19.1485 21.8296 19.4491 21.4554C19.4893 21.4142 19.5267 21.3678 19.578 21.3401C19.5979 21.3281 19.6135 21.3141 19.6245 21.299C19.6322 21.2971 19.6395 21.2945 19.6466 21.2917C19.614 21.4649 19.5826 21.638 19.5607 21.8131C19.527 22.0052 19.4944 22.206 19.7534 22.2273C20.2368 22.307 20.3286 22.1593 20.5655 21.7826C20.661 21.6422 20.7707 21.5096 20.8574 21.3631C20.8769 21.3278 20.8812 21.2881 20.871 21.2517C20.9053 21.1578 20.9274 21.0529 20.9548 20.9897C21.0178 20.7833 21.0764 20.5906 21.1569 20.3872C21.1912 20.2879 21.2595 20.1923 21.2459 20.0835C21.113 19.7918 20.9792 19.5188 20.8772 19.2092C20.8554 19.1474 20.8336 19.0856 20.8186 19.0221C20.8568 18.9013 20.9067 18.7821 20.948 18.6618C21.0447 18.381 21.1504 18.117 21.3065 17.8591C21.3445 17.7853 21.4224 17.7185 21.4093 17.629C21.3762 17.5076 21.2776 17.415 21.2138 17.309C21.1603 17.2455 21.1079 17.1169 21.039 17.0327C21.0688 16.8503 21.0982 16.673 21.1543 16.4906C21.2708 16.4383 21.3881 16.3871 21.5105 16.3497C21.702 16.5365 21.9049 16.5899 21.9933 16.2851C22.1549 15.8966 22.2367 15.4782 22.4062 15.0942C22.4133 15.0844 22.4192 15.0743 22.4235 15.0645C22.4668 15.0441 22.4994 15.0019 22.5003 14.9392C22.4682 14.3804 22.4745 13.8205 22.4272 13.2619C22.4192 13.1129 22.4104 12.9627 22.4181 12.8133L22.4187 12.8141Z"/>
</mask>
<path d="M22.4187 12.8141C22.4277 12.7487 22.4365 12.681 22.4051 12.6192C22.2668 12.3963 22.097 12.184 21.9208 11.9879C21.9336 11.9591 21.9367 11.9261 21.9279 11.8943C21.8882 11.7499 21.8607 11.602 21.8304 11.4554C21.7746 11.2233 21.7471 10.9702 21.653 10.7467C21.6148 10.672 21.5286 10.6544 21.453 10.6432C21.3235 10.6242 21.1937 10.6004 21.0634 10.5892C20.9809 10.5761 20.8985 10.592 20.8313 10.6424C20.5593 10.7881 20.4709 11.0048 20.833 11.0977C20.8596 11.348 20.8985 11.595 20.8826 11.8478C20.7766 11.8682 20.6695 11.8847 20.5618 11.8931C20.5386 11.8937 20.5154 11.8937 20.4924 11.8931C20.4638 11.7144 20.5743 11.3424 20.2796 11.3707C20.0643 11.414 19.8192 11.4048 19.6171 11.4851C19.5551 11.5245 19.5423 11.6 19.5389 11.6674C19.493 12.1138 19.4539 12.5613 19.4253 13.0094C19.3635 13.0217 19.3009 13.0435 19.2513 13.0547C19.1074 13.1078 19.0799 13.2734 19.0788 13.4079C19.0765 13.5039 19.0688 13.6241 19.1323 13.7041C19.1978 13.7872 19.2986 13.8045 19.3927 13.8395C19.3978 13.9368 19.397 14.0344 19.399 14.1323C19.4007 14.2333 19.4029 14.3345 19.4077 14.4361C19.4086 14.4607 19.414 14.4819 19.4233 14.4998C19.4077 14.6377 19.3919 14.7753 19.3754 14.9129C19.365 14.9971 19.3576 15.0821 19.3409 15.1649C19.2899 15.2608 19.2309 15.3526 19.1788 15.448C19.0703 15.653 18.9297 15.8381 18.8056 16.0336C18.6637 16.3284 18.4098 16.548 18.2706 16.8447C18.2012 16.9829 18.1389 17.1252 18.093 17.2729C18.0352 17.3361 17.985 17.4209 17.9326 17.4673C17.6767 17.7243 17.4333 18.0121 17.1301 18.2141C17.1131 18.2169 17.097 18.2227 17.0828 18.2308C17.0828 18.2308 17.082 18.2308 17.0817 18.2314C17.0709 18.2359 17.0602 18.2418 17.0497 18.2493C16.6816 18.5144 16.3277 18.7995 15.9418 19.0397C15.7947 19.0456 15.4499 19.1636 15.5201 18.8996C15.587 18.8104 15.6887 18.7421 15.704 18.6224C15.7219 18.4935 15.755 18.3332 15.6598 18.2264C15.7669 18.1184 15.8689 18.006 15.9738 17.8955C16.0596 17.8211 16.1189 17.7042 16.0622 17.5948C16.0035 17.4723 15.9216 17.3031 15.757 17.3331C15.5793 17.368 15.4136 17.443 15.2379 17.4877C15.1637 17.5081 15.0577 17.5182 14.9939 17.5618C14.9449 17.5744 14.9033 17.6116 14.8897 17.662C14.8273 17.9053 14.7843 18.1528 14.7202 18.3961C14.6794 18.5572 14.6403 18.7183 14.6006 18.8797C14.5298 18.927 14.4641 19.0112 14.4094 19.0598C14.2226 19.2727 13.9877 19.4355 13.7988 19.6441C13.648 19.7918 13.7302 20.0066 13.7285 20.1901C13.7194 20.4614 13.6613 20.7282 13.6239 20.9964C13.4103 21.0467 13.1748 21.1264 12.9646 21.2098C12.6821 21.1404 12.4075 21.0266 12.1309 20.9315C12.1114 20.9108 12.0853 20.896 12.0558 20.8915C11.5484 20.7861 11.0086 20.8859 10.49 20.8501C10.1404 20.8303 9.74226 20.7313 9.42944 20.9349C9.18349 21.0725 8.95567 21.2369 8.73494 21.4109C8.36176 21.6623 7.99425 21.9496 7.64828 22.2399C7.28275 22.3344 6.91326 22.4589 6.55369 22.5914C6.46358 22.627 6.31623 22.6597 6.21649 22.7229C6.19978 22.7195 6.18164 22.7195 6.16322 22.7229C5.98188 22.7651 6.06093 22.9648 6.11335 23.0812C6.18023 23.2476 6.23888 23.4174 6.3049 23.5843C6.32587 23.6394 6.36611 23.6685 6.40946 23.6775C6.57777 23.8559 7.03567 23.9563 7.23827 23.9885C7.64431 23.9507 7.98122 23.6814 8.37083 23.5813C8.49041 23.5695 8.6131 23.5843 8.73126 23.5497C9.16535 23.4473 9.61475 23.4644 10.0574 23.4305C10.3404 23.3077 10.6286 23.1936 10.9238 23.1002C11.1058 23.0381 11.2865 22.9685 11.475 22.9262C11.5795 22.9508 11.6798 22.9894 11.7844 23.016C12.0782 23.0868 12.3673 23.1746 12.6574 23.2585C12.5129 23.5583 12.3729 24.0799 12.3786 24.2078C12.4426 24.4589 12.7223 24.58 12.8473 24.8004C12.9745 24.9643 13.062 25.2406 13.3097 25.237C13.512 25.2303 13.7276 25.2107 13.9138 25.1282C13.9722 25.0933 13.9911 25.0396 13.9835 24.9895C14.0963 24.9101 14.1079 24.6477 14.1648 24.537C14.1918 24.4634 14.2473 24.3719 14.2433 24.2953C14.2952 24.2506 14.3434 24.2027 14.3836 24.1728C14.5655 24.0097 14.7834 23.9023 14.965 23.7384C15.1186 23.6148 15.1365 23.4445 15.0877 23.2652C15.0642 23.037 15.0285 22.8009 15.0693 22.5733C15.2722 22.5422 15.2679 22.7514 15.3782 22.8454C15.381 22.8795 15.398 22.9131 15.4337 22.9411C15.568 23.0479 15.7346 23.1047 15.9012 23.1408C15.9032 23.1413 15.9052 23.1416 15.9069 23.1422C15.9157 23.1469 15.9253 23.1514 15.9358 23.1553C15.9928 23.1718 16.0469 23.1503 16.0979 23.1226C16.1441 23.0966 16.1911 23.0714 16.2376 23.0454C16.5371 23.1581 16.8508 23.2406 17.1701 23.2722C17.3041 23.2703 17.4027 23.1615 17.4948 23.0775C17.547 23.0236 17.5977 22.9682 17.6495 22.9139C17.7731 22.9338 17.8329 22.7677 17.9017 22.6801C17.9054 22.6793 17.9091 22.6784 17.9128 22.6776C17.9476 22.6709 17.9825 22.6644 18.0179 22.6589C17.9414 22.8513 17.6617 23.2943 18.0496 23.3091C18.1924 23.2999 18.3667 23.3402 18.4778 23.2303C18.5965 23.0641 18.6577 22.8616 18.7552 22.6821C18.9802 22.276 19.1485 21.8296 19.4491 21.4554C19.4893 21.4142 19.5267 21.3678 19.578 21.3401C19.5979 21.3281 19.6135 21.3141 19.6245 21.299C19.6322 21.2971 19.6395 21.2945 19.6466 21.2917C19.614 21.4649 19.5826 21.638 19.5607 21.8131C19.527 22.0052 19.4944 22.206 19.7534 22.2273C20.2368 22.307 20.3286 22.1593 20.5655 21.7826C20.661 21.6422 20.7707 21.5096 20.8574 21.3631C20.8769 21.3278 20.8812 21.2881 20.871 21.2517C20.9053 21.1578 20.9274 21.0529 20.9548 20.9897C21.0178 20.7833 21.0764 20.5906 21.1569 20.3872C21.1912 20.2879 21.2595 20.1923 21.2459 20.0835C21.113 19.7918 20.9792 19.5188 20.8772 19.2092C20.8554 19.1474 20.8336 19.0856 20.8186 19.0221C20.8568 18.9013 20.9067 18.7821 20.948 18.6618C21.0447 18.381 21.1504 18.117 21.3065 17.8591C21.3445 17.7853 21.4224 17.7185 21.4093 17.629C21.3762 17.5076 21.2776 17.415 21.2138 17.309C21.1603 17.2455 21.1079 17.1169 21.039 17.0327C21.0688 16.8503 21.0982 16.673 21.1543 16.4906C21.2708 16.4383 21.3881 16.3871 21.5105 16.3497C21.702 16.5365 21.9049 16.5899 21.9933 16.2851C22.1549 15.8966 22.2367 15.4782 22.4062 15.0942C22.4133 15.0844 22.4192 15.0743 22.4235 15.0645C22.4668 15.0441 22.4994 15.0019 22.5003 14.9392C22.4682 14.3804 22.4745 13.8205 22.4272 13.2619C22.4192 13.1129 22.4104 12.9627 22.4181 12.8133L22.4187 12.8141Z" stroke="#EA5404" stroke-width="2" mask="url(#path-3-inside-1_1451_538)"/>
<path d="M16.5932 16.4774L16.3497 16.3137L16.5648 16.5084M16.5932 16.4774L16.8704 16.0982C16.8945 16.1099 16.9215 16.1198 16.9513 16.1267M16.5932 16.4774C16.583 16.4888 16.5738 16.4989 16.5648 16.5084M16.5932 16.4774L16.6418 16.51M16.5648 16.5084C16.5582 16.5154 16.5518 16.522 16.5451 16.5285C16.534 16.5394 16.5274 16.5447 16.5253 16.5463C16.5285 16.5441 16.5416 16.5354 16.5639 16.5271C16.5687 16.5253 16.5739 16.5235 16.5795 16.5218M16.5648 16.5084L16.5795 16.5218M16.5795 16.5218L16.6361 16.573M16.5795 16.5218C16.5967 16.5165 16.6177 16.512 16.6418 16.51M16.6361 16.573L16.3962 16.6949L16.6595 16.5942M16.6361 16.573L16.6595 16.5942M16.6361 16.573L16.6927 16.5442M16.6595 16.5942L16.7203 16.6493C16.7512 16.6152 16.7831 16.574 16.8071 16.5424M16.6595 16.5942L16.728 16.568M16.8071 16.5424C16.8088 16.5433 16.8104 16.5442 16.812 16.545L16.5702 16.9827L16.8464 16.5659C16.89 16.5948 16.9113 16.6269 16.9163 16.6353C16.9159 16.6346 16.9155 16.6338 16.915 16.6328C16.9102 16.6229 16.9051 16.6108 16.8924 16.5802L16.8916 16.5783C16.8832 16.5581 16.8703 16.527 16.8542 16.4934M16.8071 16.5424C16.8085 16.5406 16.8098 16.5388 16.8111 16.5371C16.8115 16.5367 16.8118 16.5363 16.8121 16.5359L16.8632 16.5163C16.8602 16.5085 16.8572 16.5008 16.8542 16.4934M16.8071 16.5424C16.8054 16.5415 16.8037 16.5406 16.8019 16.5398L16.7911 16.5439M16.8542 16.4934C16.853 16.4904 16.8519 16.4875 16.8507 16.4846M16.8542 16.4934C16.8529 16.4907 16.8516 16.4879 16.8503 16.4852C16.8504 16.485 16.8506 16.4848 16.8507 16.4846M16.8507 16.4846C16.8528 16.4819 16.8548 16.4791 16.8569 16.4764C16.8727 16.4554 16.8885 16.4343 16.8999 16.4192C16.9134 16.4014 16.9269 16.3837 16.9404 16.3663M16.8507 16.4846C16.8467 16.4747 16.8429 16.4655 16.8396 16.4575C16.838 16.4537 16.8365 16.4502 16.8351 16.4468C16.8301 16.4347 16.8262 16.4255 16.8223 16.4158C16.8133 16.3932 16.8111 16.3854 16.811 16.3854C16.811 16.3854 16.8111 16.3855 16.8111 16.3856L16.8111 16.3857C16.8117 16.388 16.818 16.4136 16.8143 16.4537C16.8133 16.4638 16.8118 16.4743 16.8096 16.4848L16.7435 16.5184M16.9404 16.3663L17.1689 16.6015L16.9736 16.3238M16.9404 16.3663C16.9515 16.3519 16.9626 16.3378 16.9736 16.3238M16.9404 16.3663L16.9736 16.3238M16.9736 16.3238C16.9864 16.3077 16.9992 16.2918 17.0119 16.2764C17.0121 16.2761 17.0124 16.2757 17.0127 16.2754C17.039 16.2435 17.065 16.2133 17.0904 16.1858C17.145 16.1269 17.1718 16.1086 17.1713 16.1078C17.1712 16.1076 17.1678 16.1093 17.1613 16.1122C17.1452 16.1194 17.0903 16.1411 17.0115 16.1357C16.9952 16.1346 16.978 16.1323 16.9598 16.1285C16.9588 16.1283 16.9579 16.1281 16.9569 16.1279M16.9569 16.1279C16.9656 16.1133 16.972 16.1068 16.9704 16.1085C16.9681 16.1111 16.9631 16.1161 16.9513 16.1267M16.9569 16.1279C16.9525 16.1351 16.9476 16.1444 16.9428 16.1555C16.9427 16.1556 16.9427 16.1557 16.9426 16.1559L16.9277 16.1473C16.9282 16.1468 16.9287 16.1464 16.9292 16.146C16.9384 16.1381 16.9456 16.1317 16.9513 16.1267M16.9569 16.1279C16.955 16.1275 16.9531 16.1271 16.9513 16.1267M16.7911 16.5439C16.7922 16.5413 16.7933 16.5387 16.7943 16.5362C16.7794 16.5293 16.7623 16.5231 16.7435 16.5184M16.7911 16.5439L16.728 16.568M16.7911 16.5439C16.784 16.5605 16.7752 16.5769 16.7647 16.5926L16.728 16.568M16.7435 16.5184L16.6927 16.5442M16.7435 16.5184C16.7254 16.5139 16.7055 16.5107 16.6843 16.5095C16.6693 16.5087 16.6551 16.509 16.6418 16.51M16.6927 16.5442L16.6418 16.51M16.6927 16.5442L16.728 16.568" stroke="#EA5404"/>
<path d="M27.0366 6.56262C27.0422 6.56366 27.0481 6.56496 27.0537 6.566C27.0554 6.56625 27.0569 6.56651 27.0587 6.56677C27.0513 6.56548 27.044 6.56418 27.0366 6.56262Z" fill="#009D8F"/>
<path d="M26.2093 6.84618C26.1563 6.81725 26.1009 6.77969 26.0495 6.7305C25.9081 6.59519 25.837 6.41198 25.8461 6.21581C25.8506 6.11717 25.8749 6.02468 25.9072 5.94126C25.8661 5.94827 25.825 5.95496 25.784 5.96131C25.7837 5.9614 25.7834 5.96149 25.7831 5.96158L25.7822 5.96185L25.7506 5.97175L25.7452 5.9735L25.7452 5.97347C25.6885 5.99097 25.6309 6.00847 25.5727 6.02554L25.5702 6.02628L25.5702 6.02628L25.5511 6.0317C25.5498 6.03209 25.5484 6.03249 25.547 6.03291C25.495 6.04824 25.3877 6.07988 25.2639 6.0836L25.2564 6.08383H25.2489H25.2488H25.2488H25.2488H25.2488H25.2488H25.2488H25.2488H25.2487H25.2487H25.2487H25.2487H25.2487H25.2487H25.2487H25.2487H25.2486H25.2486H25.2486H25.2486H25.2486H25.2486H25.2486H25.2485H25.2485H25.2485H25.2485H25.2485H25.2485H25.2485H25.2485H25.2484H25.2484H25.2484H25.2484H25.2484H25.2484H25.2484H25.2483H25.2483H25.2483H25.2483H25.2483H25.2483H25.2483H25.2483H25.2482H25.2482H25.2482H25.2482H25.2482H25.2482H25.2482H25.2481H25.2481H25.2481H25.2481H25.2481H25.2481H25.2481H25.2481H25.248H25.248H25.248H25.248H25.248H25.248H25.248H25.2479H25.2479H25.2479H25.2479H25.2479H25.2479H25.2479H25.2479H25.2478H25.2478H25.2478H25.2478H25.2478H25.2478H25.2478H25.2477H25.2477H25.2477H25.2477H25.2477H25.2477H25.2477H25.2477H25.2476H25.2476H25.2476H25.2476H25.2476H25.2476H25.2476H25.2475H25.2475H25.2475H25.2475H25.2475H25.2475H25.2475H25.2475H25.2474H25.2474H25.2474H25.2474H25.2474H25.2474H25.2474H25.2473H25.2473H25.2473H25.2473H25.2473H25.2473H25.2473H25.2473H25.2472H25.2472H25.2472H25.2472H25.2472H25.2472H25.2472H25.2472H25.2471H25.2471H25.2471H25.2471H25.2471H25.2471H25.2471H25.247H25.247H25.247H25.247H25.247H25.247H25.247H25.247H25.2469H25.2469H25.2469H25.2469H25.2469H25.2469H25.2469H25.2468H25.2468H25.2468H25.2468H25.2468H25.2468H25.2468H25.2468H25.2467H25.2467H25.2467H25.2467H25.2467H25.2467H25.2467H25.2466H25.2466H25.2466H25.2466H25.2466H25.2466H25.2466H25.2466H25.2465H25.2465H25.2465H25.2465H25.2465H25.2465H25.2465H25.2464H25.2464H25.2464H25.2464H25.2464H25.2464H25.2464H25.2464H25.2463H25.2463H25.2463H25.2463H25.2463H25.2463H25.2463H25.2462H25.2462H25.2462H25.2462H25.2462H25.2462H25.2462H25.2462H25.2461H25.2461H25.2461H25.2461H25.2461H25.2461H25.2461H25.246H25.246H25.246H25.246H25.246H25.246H25.246H25.246H25.2459H25.2459H25.2459H25.2459H25.2459H25.2459H25.2459H25.2458H25.2458H25.2458H25.2458H25.2458H25.2458H25.2458H25.2458H25.2457H25.2457H25.2457H25.2457H25.2457H25.2457H25.2457H25.2456H25.2456H25.2456H25.2456H25.2456H25.2456H25.2456H25.2456H25.2455H25.2455H25.2455H25.2455H25.2455H25.2455H25.2455H25.2455H25.2454H25.2454H25.2454H25.2454H25.2454H25.2454H25.2454H25.2453H25.2453H25.2453H25.2453H25.2453H25.2453H25.2453H25.2453H25.2452H25.2452H25.2452H25.2452H25.2452H25.2452H25.2452H25.2451H25.2451H25.2451H25.2451H25.2451H25.2451H25.2451H25.2451H25.245H25.245H25.245H25.245H25.245H25.245H25.245H25.2449H25.2449H25.2449H25.2449H25.2449H25.2449H25.2449H25.2449H25.2448H25.2448H25.2448H25.2448H25.2448H25.2448H25.2448H25.2447H25.2447H25.2447H25.2447H25.2447H25.2447H25.2447H25.2447H25.2446H25.2446H25.2446H25.2446H25.2446H25.2446H25.2446H25.2445H25.2445H25.2445H25.2445H25.2445H25.2445H25.2445H25.2445H25.2444H25.2444H25.2444H25.2444H25.2444H25.2444H25.2444H25.2443H25.2443H25.2443H25.2443H25.2443H25.2443H25.2443H25.2443H25.2442H25.2442H25.2442H25.2442H25.2442H25.2442H25.2442H25.2441H25.2441H25.2441H25.2441H25.2441H25.2441H25.2441H25.2441H25.244H25.244H25.244H25.244H25.244H25.244H25.244H25.2439H25.2439H25.2439H25.2439H25.2439H25.2439H25.2439H25.2439H25.2438H25.2438H25.2438H25.2438H25.2438H25.2438H25.2438H25.2438H25.2437H25.2437H25.2437H25.2437H25.2437H25.2437H25.2437H25.2436H25.2436H25.2436H25.2436H25.2436H25.2436H25.2436H25.2436H25.2435H25.2435H25.2435H25.2435H25.2435H25.2435H25.2435H25.2434H25.2434H25.2434H25.2434H25.2434H25.2434H25.2434H25.2434H25.2433H25.2433H25.2433H25.2433H25.2433H25.2433H25.2433H25.2432H25.2432H25.2432H25.2432H25.2432H25.2432H25.2432H25.2432H25.2431H25.2431H25.2431H25.2431H25.2431H25.2431H25.2431H25.243H25.243H25.243H25.243H25.243H25.243H25.243H25.243H25.2429H25.2429H25.2429H25.2429H25.2429H25.2429H25.2429H25.2428H25.2428H25.2428H25.2428H25.2428H25.2428H25.2428H25.2428H25.2427H25.2427H25.2427H25.2427H25.2427H25.2427H25.2427H25.2426H25.2426H25.2426H25.2426H25.2426H25.2426H25.2426H25.2426H25.2425H25.2425H25.2425H25.2425H25.2425H25.2425H25.2425H25.2424H25.2424H25.2424H25.2424H25.2424H25.2424H25.2424H25.2424H25.2423H25.2423H25.2423H25.2423H25.2423H25.2423H25.2423H25.2422H25.2422H25.2422H25.2422H25.2422H25.2422H25.2422H25.2422H25.2421H25.2421H25.2421H25.2421H25.2421H25.2421H25.2421H25.2421H25.2392C25.1616 6.08383 25.0951 6.07249 25.0517 6.06384L25.0477 6.06304L25.0477 6.06302L25.046 6.06268C25.0367 6.06074 25.0204 6.05736 25.0031 6.05326C24.9787 6.04762 24.954 6.04206 24.9291 6.03645C24.6749 5.97919 24.3966 5.91649 24.0862 5.70069L24.0859 5.70051C23.8379 5.52786 23.5554 5.33101 23.3009 5.09065L23.3005 5.09031C23.25 5.04251 23.198 4.98783 23.1582 4.94609C23.1462 4.93349 23.1354 4.92208 23.126 4.91238L23.4855 4.56493M26.2093 6.84618L21.2473 5.34581L21.7349 5.45681C21.7349 5.45668 21.7349 5.45656 21.7349 5.45643C21.749 5.3947 21.76 5.33524 21.7693 5.28231L21.7768 5.23943V5.23598C21.8139 5.00566 21.8288 4.77869 21.8393 4.57196L21.8434 4.49289L21.8228 4.41645C21.8004 4.33342 21.7776 4.24971 21.7538 4.16549C21.7252 4.02283 21.6851 3.88403 21.6519 3.76886C21.6456 3.74715 21.6396 3.72628 21.6339 3.70638C21.614 3.63622 21.5971 3.57353 21.5837 3.51499C21.5875 3.51424 21.5913 3.51351 21.5951 3.51279C21.6306 3.50614 21.661 3.50216 21.6854 3.50037C21.6894 3.50417 21.6939 3.50851 21.6988 3.51344C21.7241 3.53857 21.7501 3.56747 21.786 3.60742L21.7899 3.61175C21.8209 3.64636 21.8636 3.69388 21.9076 3.73675C21.9509 3.77897 21.9924 3.82321 22.0429 3.87703C22.0494 3.88393 22.056 3.891 22.0628 3.89823C22.1191 3.95819 22.1863 4.02901 22.2607 4.09779L22.6001 3.73062M26.2093 6.84618C26.1316 6.87747 26.0505 6.90196 25.9675 6.919L25.9673 6.91904C25.8612 6.94086 25.7549 6.94381 25.5944 6.94825C25.5834 6.94855 25.5721 6.94887 25.5606 6.94919C25.3964 6.95382 25.1773 6.96166 24.9467 7.02703L24.9233 7.03355L24.9024 7.03935L24.7089 7.09204L24.6054 7.26386C24.5895 7.29032 24.5733 7.3165 24.5569 7.3424L24.5569 7.34238L24.5538 7.34746C24.3799 7.6295 24.1939 7.90672 24.0015 8.18846L23.9294 8.29405L23.9253 8.33521C23.8152 8.50079 23.7061 8.67076 23.6017 8.84545C23.5786 8.87956 23.5583 8.91393 23.5426 8.94108C23.5271 8.96807 23.5103 8.9983 23.4951 9.02564C23.4914 9.03235 23.4878 9.0389 23.4843 9.04517C23.4617 9.08586 23.441 9.12223 23.4215 9.15459L26.2093 6.84618ZM23.4855 4.56493L23.1264 4.91284C23.0875 4.87264 23.0478 4.83441 23.0064 4.7972C22.995 4.78783 22.9821 4.77738 22.9683 4.76611C22.9204 4.7272 22.8607 4.67867 22.8083 4.63212C22.7294 4.56222 22.6593 4.49103 22.5974 4.42603C22.4905 4.31495 22.3783 4.20695 22.26 4.09716L22.6001 3.73062M23.4855 4.56493C23.436 4.51375 23.3852 4.46508 23.3322 4.41781L24.3716 5.29016C24.1197 5.11479 23.8675 4.93803 23.6442 4.72715C23.6042 4.68923 23.5662 4.64939 23.5282 4.60945C23.514 4.59459 23.4998 4.57972 23.4855 4.56493ZM22.6001 3.73062C22.5328 3.66845 22.4701 3.60165 22.4075 3.53486C22.3579 3.48206 22.3084 3.42928 22.2566 3.37877L23.1401 4.25811C23.0764 4.20161 23.0172 4.14176 22.9585 4.08023C22.8426 3.95969 22.7228 3.84445 22.6001 3.73062ZM23.1847 8.99648L23.2743 9.0562C23.2759 9.05725 23.28 9.05998 23.2857 9.06389L23.2879 9.06527C23.2926 9.06834 23.2998 9.073 23.3081 9.07858C23.3371 9.09797 23.3672 9.11805 23.3972 9.13823L23.1847 8.99648ZM23.1847 8.99648L23.1848 8.99641C23.0989 8.93868 23.0172 8.8809 22.9303 8.8195C22.8941 8.7939 22.857 8.76768 22.8183 8.74057C22.6762 8.62742 22.5208 8.50932 22.3498 8.40182C22.3466 8.39977 22.3433 8.39768 22.34 8.39556C22.2768 8.35518 22.1928 8.30156 22.1031 8.25472L22.1029 8.25462C22.0696 8.23724 22.0354 8.22109 22.0103 8.20931C21.9884 8.19724 21.9649 8.18521 21.9402 8.17377C21.9274 8.1678 21.9146 8.16234 21.9019 8.15736L21.7959 8.06026L21.5462 8.11117C21.4726 8.12615 21.4011 8.14271 21.3333 8.15906C21.2486 8.17514 21.173 8.19893 21.114 8.21915C21.0837 8.22956 21.0539 8.24037 21.0289 8.24945L21.0254 8.25074C21.0091 8.25666 20.9947 8.26188 20.9812 8.26667C20.9366 8.20903 20.8897 8.16028 20.8599 8.12936L20.8513 8.12042C20.8196 8.08757 20.8047 8.07219 20.7917 8.05657L20.5479 7.76379C20.5885 7.75032 20.6307 7.73694 20.6749 7.72335C20.7847 7.6896 20.967 7.62902 21.1049 7.46251C21.2108 7.33465 21.2573 7.17464 21.2794 7.09853C21.2814 7.09163 21.2832 7.08543 21.2848 7.07999L23.1847 8.99648ZM26.2267 5.3626C26.1173 5.39336 26.0063 5.41602 25.8943 5.43587L25.9633 5.8174L25.9811 5.78384C25.9994 5.7503 26.0187 5.71712 26.0337 5.69143C26.0358 5.68784 26.0378 5.68439 26.0397 5.68112C26.0571 5.65127 26.0691 5.63032 26.0789 5.61142C26.0928 5.5847 26.0959 5.57393 26.096 5.57395C26.096 5.57395 26.0954 5.57594 26.0949 5.5795C26.0949 5.57955 26.0949 5.5796 26.0949 5.57966C26.094 5.58649 26.0907 5.62162 26.1095 5.67113C26.1295 5.72363 26.1663 5.77048 26.2129 5.80292C26.2567 5.83346 26.2971 5.84311 26.3211 5.84573C26.3449 5.84833 26.3586 5.8449 26.3614 5.84412L26.2954 5.60807L26.2953 5.60797L26.2267 5.3626ZM26.2267 5.3626L26.2957 5.60803L26.2958 5.60813L26.3621 5.84392C26.2992 5.86159 26.237 5.87675 26.1762 5.89006M26.2267 5.3626L26.1762 5.89006M26.1762 5.89006L26.4202 6.02294L26.1761 5.89009L26.1762 5.89006ZM19.764 9.1181C19.7704 9.10106 19.7794 9.08015 19.7917 9.05456C19.8086 9.10054 19.8259 9.14205 19.8413 9.1781L19.9165 9.35362C19.9135 9.35588 19.9104 9.35817 19.9073 9.3605L19.7742 9.46159C19.7592 9.38394 19.7494 9.31593 19.7451 9.25433L19.7517 9.24408L19.7594 9.13139C19.7604 9.12828 19.7619 9.12388 19.764 9.1181ZM20.5524 9.6863C20.5524 9.68629 20.5518 9.68527 20.551 9.68327C20.5521 9.68532 20.5525 9.68632 20.5524 9.6863ZM19.9529 10.2695C19.9529 10.2696 19.9526 10.2689 19.9521 10.2674C19.9527 10.2688 19.9529 10.2695 19.9529 10.2695ZM23.1594 8.98042C23.1594 8.98038 23.1595 8.98047 23.1598 8.98065C23.1597 8.98057 23.1596 8.9805 23.1595 8.98046L23.1594 8.98042Z" stroke="#EA5404"/>
<path d="M27.3351 5.4937C27.3352 5.49357 27.3366 5.49319 27.3391 5.49298C27.3363 5.49372 27.3351 5.49383 27.3351 5.4937Z" stroke="#EA5404"/>
</g>
<defs>
<clipPath id="clip0_1451_538">
<rect width="25" height="26" fill="white" transform="translate(3.5 3)"/>
</clipPath>
</defs>
</svg>
