<svg width="18" height="13" viewBox="0 0 18 13" fill="none" xmlns="http://www.w3.org/2000/svg">
<g clip-path="url(#clip0_1723_626)">
<path fill-rule="evenodd" clip-rule="evenodd" d="M8.74239 0.610971C9.0704 0.207498 9.53747 -0.000136358 10.0083 -0.000136358V0.00064947C10.3855 0.00064947 10.7656 0.133567 11.0763 0.407269L18 6.49475L11.0634 12.5932C10.3643 13.2075 9.31981 13.1155 8.72954 12.3888C8.13927 11.6612 8.2277 10.5743 8.92604 9.96005L10.6622 8.43359H1.85772C0.83212 8.43359 0 7.56766 0 6.50039C0 5.43311 0.831364 4.56718 1.85772 4.56718H10.6765L8.93889 3.03967C8.23979 2.42542 8.15212 1.33769 8.74239 0.610971Z" fill="#404AC7"/>
</g>
<defs>
<clipPath id="clip0_1723_626">
<rect width="18" height="13" fill="white" transform="matrix(1 0 0 -1 0 13)"/>
</clipPath>
</defs>
</svg>
