<svg width="23" height="15" viewBox="0 0 23 15" fill="none" xmlns="http://www.w3.org/2000/svg">
<g clip-path="url(#clip0_9_15791)">
<path d="M18.6273 5.27312L2.33197 5.27312C1.0436 5.27312 0 6.27228 0 7.50375C0 8.73522 1.04455 9.73438 2.33197 9.73438L18.6273 9.73437C19.9157 9.73437 20.9593 8.73522 20.9593 7.50375C20.9593 6.27228 19.9147 5.27312 18.6273 5.27312Z" fill="#6B9E13"/>
<path d="M12.9709 -0.00015831C12.3798 -0.00015831 11.7935 0.239419 11.3818 0.704965C10.6408 1.54349 10.7509 2.79856 11.6285 3.50731L16.5609 7.49303L11.6123 11.4924C10.7357 12.2011 10.6247 13.4553 11.3657 14.2947C12.1066 15.1332 13.4178 15.2394 14.2953 14.5307L23.0027 7.49394L14.3115 0.469924C13.9215 0.154115 13.4443 0.000748634 12.9709 0.000748634V-0.00015831Z" fill="#6B9E13"/>
</g>
<defs>
<clipPath id="clip0_9_15791">
<rect width="23" height="15" fill="white" transform="matrix(1 0 0 -1 0 15)"/>
</clipPath>
</defs>
</svg>
