<svg width="56" height="56" fill="none" xmlns="http://www.w3.org/2000/svg"><path d="M12.969 39.032h-.255a.602.602 0 01.255-.056H33.78c.091 0 .177.02.255.056H12.969zm-.606.55c0-.09.02-.177.056-.255v3.145a2.286 2.286 0 002.284 2.285h20.758l-.66-.88a2.33 2.33 0 01-.47-1.404v-3.146a.602.602 0 01.056.255v2.89a2.286 2.286 0 002.285 2.285 2.286 2.286 0 002.284-2.284V18.19a2.286 2.286 0 00-2.284-2.284H19.328a2.287 2.287 0 00-2.284 2.284v17.922a.028.028 0 01-.028.028.028.028 0 01-.028-.028V18.191c0-1.29 1.05-2.34 2.34-2.34h17.344c1.29 0 2.34 1.05 2.34 2.34v24.282c0 1.29-1.05 2.34-2.34 2.34H14.703c-1.29 0-2.34-1.05-2.34-2.34v-2.891z" fill="#EA5404" stroke="#EA5404" stroke-width="1.1"/><path d="M33.81 21.66a.028.028 0 01-.029.028h-9.25a.028.028 0 01-.028-.028c0-.015.013-.028.028-.028h9.25c.016 0 .028.013.028.028zm-12.17 3.497a.028.028 0 01-.027-.028c0-.016.012-.028.028-.028h12.14c.016 0 .028.012.028.028a.028.028 0 01-.028.028h-12.14zm12.141 3.469h-12.14a.028.028 0 01-.028-.028c0-.016.012-.028.028-.028h12.14c.016 0 .028.012.028.028a.028.028 0 01-.028.028zm0 3.468h-12.14a.028.028 0 01-.028-.028c0-.015.012-.028.028-.028h12.14c.016 0 .028.013.028.028a.028.028 0 01-.028.028zm-2.312 3.469H21.64a.028.028 0 01-.028-.028c0-.015.012-.028.028-.028h9.828c.015 0 .028.013.028.028a.028.028 0 01-.028.028z" fill="#EA5404" stroke="#EA5404" stroke-width="1.1"/><mask id="a" fill="#fff"><path d="M41.297 10.676H23.953a2.894 2.894 0 00-2.89 2.89.578.578 0 001.156 0c0-.956.778-1.734 1.734-1.734h17.344c.956 0 1.734.778 1.734 1.734v24.282c0 .956-.778 1.734-1.734 1.734a.578.578 0 000 1.156 2.894 2.894 0 002.89-2.89V13.566a2.894 2.894 0 00-2.89-2.89z"/></mask><path d="M41.297 10.676H23.953a2.894 2.894 0 00-2.89 2.89.578.578 0 001.156 0c0-.956.778-1.734 1.734-1.734h17.344c.956 0 1.734.778 1.734 1.734v24.282c0 .956-.778 1.734-1.734 1.734a.578.578 0 000 1.156 2.894 2.894 0 002.89-2.89V13.566a2.894 2.894 0 00-2.89-2.89z" fill="#EA5404"/><path d="M41.297 9.476H23.953v2.4h17.344v-2.4zm-17.344 0a4.094 4.094 0 00-4.09 4.09h2.4c0-.93.759-1.69 1.69-1.69v-2.4zm-4.09 4.09c0 .982.796 1.778 1.778 1.778v-2.4c.343 0 .622.279.622.622h-2.4zm1.778 1.778c.982 0 1.778-.796 1.778-1.778h-2.4c0-.343.278-.622.622-.622v2.4zm1.778-1.778c0-.293.24-.534.534-.534v-2.4a2.937 2.937 0 00-2.934 2.934h2.4zm.534-.534h17.344v-2.4H23.953v2.4zm17.344 0c.293 0 .534.24.534.534h2.4a2.937 2.937 0 00-2.934-2.934v2.4zm.534.534v24.282h2.4V13.566h-2.4zm0 24.282c0 .293-.24.534-.534.534v2.4a2.937 2.937 0 002.934-2.934h-2.4zm-.534.534c-.982 0-1.778.796-1.778 1.778h2.4a.622.622 0 01-.622.622v-2.4zm-1.778 1.778c0 .982.796 1.778 1.778 1.778v-2.4c.344 0 .622.279.622.622h-2.4zm1.778 1.778a4.094 4.094 0 004.09-4.09h-2.4c0 .93-.759 1.69-1.69 1.69v2.4zm4.09-4.09V13.566h-2.4v24.282h2.4zm0-24.282a4.094 4.094 0 00-4.09-4.09v2.4c.93 0 1.69.76 1.69 1.69h2.4z" fill="#EA5404" mask="url(#a)"/></svg>