<svg xmlns="http://www.w3.org/2000/svg" width="56" height="56" fill="none"><path d="M16.54 33.866h0c.248.075.552.273.867.533a9.2 9.2 0 01.997.979c.661.746 1.283 1.65 1.53 2.387h0c.181.543.174 1.015-.08 1.37-.464.654-1.234 1.126-1.982 1.445-.75.32-1.5.495-1.948.543h0l.617-7.257zm0 0a1.94 1.94 0 00-.557-.082l.558.082zm-7.645-6.198c-.43.062-.751.421-.73.848.073 1.494.63 3.083 1.56 4.479.935 1.403 2.188 2.518 3.532 3.138a.75.75 0 00.316.07h.003a.843.843 0 00.73-.45 2.74 2.74 0 01.71-.82c.296-.224.629-.365.967-.365h0c.114 0 .227.017.337.05h0c.054.016.136.057.242.127.105.069.226.16.359.273.265.223.57.52.873.855.609.675 1.187 1.485 1.407 2.144h0c.04.119.073.252.082.377.008.126-.012.222-.056.285-.367.515-1.017.913-1.687 1.194-.667.28-1.33.433-1.697.473a.856.856 0 01-.199-.024 3.28 3.28 0 01-.24-.058c-2.527-.913-5.147-3.177-7.18-6.226-2.023-3.034-3.123-6.34-3.034-9.066a3.362 3.362 0 01.056-.367c.007-.03.012-.042.012-.044 0 0 0 0 0 0h0c.184-.377.58-.962 1.087-1.493.51-.533 1.113-.992 1.706-1.146l-.038-.145.037.145a.245.245 0 01.062-.007v0h0c.08 0 .193.036.335.129.14.091.297.23.463.415h0c.48.535.938 1.326 1.27 2.062.165.367.297.717.385 1.01.089.3.125.522.115.643-.036.398-.262.738-.596.999a2.574 2.574 0 01-1.189.495zm0 0l.022.148-.022-.148s0 0 0 0zm6.284 13.345c.035.01.398.114.654.114L11.3 26.23c.069-.779-.89-3.039-1.93-4.197-.533-.594-1.036-.839-1.475-.724l-.038-.146s0 0 0 0c-.79.206-1.518.78-2.091 1.386-.575.608-1.009 1.265-1.204 1.664h0a1.538 1.538 0 00-.108.39 4.095 4.095 0 00-.039.31h0v.023c-.097 2.908 1.062 6.383 3.166 9.54h0c2.119 3.171 4.874 5.557 7.576 6.53h0l.005.001.013.005h.004zm-1.594-5.598a.042.042 0 01-.011.004l2.409-1.635c-1.094 0-1.95.868-2.35 1.584l.13.073-.13-.074a.117.117 0 01-.048.048zm2.323 5.559c.866-.092 2.94-.684 3.825-1.926l-3.825 1.926zm-1.22-15.254l-.022.148c.475.07.928.247 1.328.518.4.27.736.63.983 1.05a3.34 3.34 0 01.266 2.818.276.276 0 00.15.347h.001l.22.09s0 0 0 0a.263.263 0 00.295-.063.269.269 0 00.055-.09v-.002l-3.355-5.192-.15-.015h0l-.025.24h0a.276.276 0 00.233.3l.02-.15zm0 0a.12.12 0 01-.08-.046.126.126 0 01-.025-.09l2.868 4.88a.126.126 0 01-.067-.158m-2.696-4.587a3.403 3.403 0 012.418 1.64 3.491 3.491 0 01.278 2.946m0 0h0zm-2.682-7.644h0a.271.271 0 01.113-.172.265.265 0 01.204-.04h0a7.118 7.118 0 012.6 1.146 7.26 7.26 0 011.962 2.08 7.396 7.396 0 011.02 2.69 7.447 7.447 0 01-.08 2.88v.001a.268.268 0 01-.325.2h0l.037-.145-.037.145-5.494-8.785zm0 0h0l-.046.238h0v.001a.275.275 0 00.209.316l-.163-.555z" fill="#EA5404" stroke="#EA5404" stroke-width=".3"/><path d="M22.204 31.745a.273.273 0 00.215.314h0l.233.044h0a.265.265 0 00.275-.12.27.27 0 00.038-.098h0a10.628 10.628 0 00-1.513-7.531 10.286 10.286 0 00-6.158-4.45h0a.266.266 0 00-.324.203l-.054.234h0v.002a.274.274 0 00.199.322l.035-.145-.036.145a9.513 9.513 0 015.689 4.114 9.839 9.839 0 011.401 6.966zm0 0s0 0 0 0l.148.025-.148-.025s0 0 0 0z" fill="#EA5404" stroke="#EA5404" stroke-width=".3"/><mask id="a" maskUnits="userSpaceOnUse" x="24.489" y="9" width="28" height="38" fill="#000"><path fill="#fff" d="M24.489 9h28v38h-28z"/><path d="M29.244 34.779l-.37-.178a.921.921 0 00-.989.12.87.87 0 00-.214.268l-2.089 4.043a.84.84 0 00-.047.66.877.877 0 00.45.5l11.887 5.717a.933.933 0 00.873-.038.875.875 0 00.33-.35l2.088-4.044a.84.84 0 00.047-.66.877.877 0 00-.45-.5l-.395-.191c.195-.39.336-.68.426-.88.32-.693.5-.817.806-1.023.27-.183.605-.411 1.1-.994a25.227 25.227 0 001.546-2.034h2.709a.915.915 0 00.634-.254.852.852 0 00.263-.612v-5.057c.295-.006.582-.1.82-.27l1.381-.899.015-.01c.151-.11.279-.247.375-.404a1.357 1.357 0 00.155-1.052 1.37 1.37 0 00-.244-.489l-.273-.351a1.426 1.426 0 00-.48-.393l1.268-.9c.151-.11.278-.247.375-.404a1.358 1.358 0 00.154-1.052 1.367 1.367 0 00-.243-.488l-.273-.352a1.41 1.41 0 00-.256-.252 1.353 1.353 0 00.16-1.839l-.273-.351a1.437 1.437 0 00-.509-.408c-.2-.096-.42-.147-.643-.147a1.457 1.457 0 00-.861.277l-.645.457v-1.843a1.39 1.39 0 00.31-.165l1.102-.74c.151-.11.278-.247.374-.404a1.357 1.357 0 00.155-1.053 1.368 1.368 0 00-.243-.488l-.273-.351a1.42 1.42 0 00-.633-.464 1.472 1.472 0 00-.792-.063v-3.508a.85.85 0 00-.263-.612.915.915 0 00-.634-.254H33.99a.916.916 0 00-.635.254.852.852 0 00-.263.612v4.856c-.295-.236-.612-.384-.934-.428a1.382 1.382 0 00-1.097.325c-.582.495-.571 1.627-.557 3.06.006.635.012 1.292-.039 1.902-.167 2.005-.746 3.734-1.252 5.26-.82 2.461-1.527 4.587.022 6.563.123.154.633 1.166.1 2.197l-.091.178zm11.284 6.393l-2.088 4.042a.183.183 0 01-.07.073.193.193 0 01-.18.008L26.301 39.58a.183.183 0 01-.093-.104.175.175 0 01.01-.137l2.087-4.043a.183.183 0 01.07-.073.193.193 0 01.181-.008l11.887 5.716a.183.183 0 01.094.104.175.175 0 01-.01.138zm6.427-6.662H33.99a.191.191 0 01-.133-.053.178.178 0 01-.054-.128v-2.991h13.34v2.99a.18.18 0 01-.055.129.192.192 0 01-.133.053zm2.558-8.301l.273.35a.686.686 0 01-.139.981l-1.38.898-.015.01a.743.743 0 01-.54.134.747.747 0 01-.48-.274l-.274-.35a.685.685 0 01.139-.981l.342-.223c.226-.036.44-.124.623-.257l.794-.565a.754.754 0 01.366.055.725.725 0 01.292.222h-.001zm1.211-2.716a.684.684 0 01-.281.463l-2.805 1.992a.74.74 0 01-.54.134.747.747 0 01-.48-.274l-.274-.351a.685.685 0 01.142-.983l.213-.15c.044.003.088.007.133.007.31 0 .613-.096.86-.277l2.331-1.655a.717.717 0 01.29.222l.274.352a.686.686 0 01.138.52zm-1.804-3.456a.742.742 0 01.54-.134.745.745 0 01.481.274l.273.35a.686.686 0 01-.142.984l-2.804 1.992a.74.74 0 01-.54.135.743.743 0 01-.481-.275l-.274-.351a.685.685 0 01.142-.983l2.805-1.992zm-3.228 1.442c-.151.11-.279.247-.375.404a1.357 1.357 0 00-.155 1.053c.047.176.13.342.244.488l.273.351c.074.095.16.18.256.253a1.353 1.353 0 00-.16 1.84l.274.35c.117.151.266.278.437.372a1.354 1.354 0 00-.096 1.779l.272.35c.128.164.292.298.48.393v1.542h-13.34v-17.99h13.34v2.04l-.97.652c-.152.11-.28.247-.376.404a1.357 1.357 0 00-.154 1.053c.047.176.13.342.243.488l.273.351c.117.151.265.278.434.371.17.094.357.154.552.175v2.252l-1.452 1.03zm3.017-6.168l.273.351a.685.685 0 01-.135.977l-1.1.743a.75.75 0 01-1.022-.14l-.273-.351a.684.684 0 01.134-.977l1.102-.743a.75.75 0 011.021.14zm-14.72-4.627h12.966a.19.19 0 01.133.053c.035.034.054.08.054.128v1.113h-13.34v-1.113a.175.175 0 01.055-.128.186.186 0 01.133-.053h-.001zm-4.102 15.368c.52-1.563 1.11-3.334 1.284-5.416.053-.642.047-1.315.04-1.965-.01-1.055-.021-2.251.32-2.54a.633.633 0 01.528-.16c.34.046.718.33 1.032.763V34.33c0 .23.095.45.264.612a.916.916 0 00.634.254h9.403a24.348 24.348 0 01-1.242 1.6c-.428.507-.712.7-.959.866-.403.273-.67.483-1.048 1.308-.086.188-.226.475-.414.852l-9.85-4.737.092-.177c.635-1.23.16-2.497-.17-2.917-1.326-1.692-.732-3.473.088-5.938h-.002z"/></mask><path d="M29.244 34.779l-.37-.178a.921.921 0 00-.989.12.87.87 0 00-.214.268l-2.089 4.043a.84.84 0 00-.047.66.877.877 0 00.45.5l11.887 5.717a.933.933 0 00.873-.038.875.875 0 00.33-.35l2.088-4.044a.84.84 0 00.047-.66.877.877 0 00-.45-.5l-.395-.191c.195-.39.336-.68.426-.88.32-.693.5-.817.806-1.023.27-.183.605-.411 1.1-.994a25.227 25.227 0 001.546-2.034h2.709a.915.915 0 00.634-.254.852.852 0 00.263-.612v-5.057c.295-.006.582-.1.82-.27l1.381-.899.015-.01c.151-.11.279-.247.375-.404a1.357 1.357 0 00.155-1.052 1.37 1.37 0 00-.244-.489l-.273-.351a1.426 1.426 0 00-.48-.393l1.268-.9c.151-.11.278-.247.375-.404a1.358 1.358 0 00.154-1.052 1.367 1.367 0 00-.243-.488l-.273-.352a1.41 1.41 0 00-.256-.252 1.353 1.353 0 00.16-1.839l-.273-.351a1.437 1.437 0 00-.509-.408c-.2-.096-.42-.147-.643-.147a1.457 1.457 0 00-.861.277l-.645.457v-1.843a1.39 1.39 0 00.31-.165l1.102-.74c.151-.11.278-.247.374-.404a1.357 1.357 0 00.155-1.053 1.368 1.368 0 00-.243-.488l-.273-.351a1.42 1.42 0 00-.633-.464 1.472 1.472 0 00-.792-.063v-3.508a.85.85 0 00-.263-.612.915.915 0 00-.634-.254H33.99a.916.916 0 00-.635.254.852.852 0 00-.263.612v4.856c-.295-.236-.612-.384-.934-.428a1.382 1.382 0 00-1.097.325c-.582.495-.571 1.627-.557 3.06.006.635.012 1.292-.039 1.902-.167 2.005-.746 3.734-1.252 5.26-.82 2.461-1.527 4.587.022 6.563.123.154.633 1.166.1 2.197l-.091.178zm11.284 6.393l-2.088 4.042a.183.183 0 01-.07.073.193.193 0 01-.18.008L26.301 39.58a.183.183 0 01-.093-.104.175.175 0 01.01-.137l2.087-4.043a.183.183 0 01.07-.073.193.193 0 01.181-.008l11.887 5.716a.183.183 0 01.094.104.175.175 0 01-.01.138zm6.427-6.662H33.99a.191.191 0 01-.133-.053.178.178 0 01-.054-.128v-2.991h13.34v2.99a.18.18 0 01-.055.129.192.192 0 01-.133.053zm2.558-8.301l.273.35a.686.686 0 01-.139.981l-1.38.898-.015.01a.743.743 0 01-.54.134.747.747 0 01-.48-.274l-.274-.35a.685.685 0 01.139-.981l.342-.223c.226-.036.44-.124.623-.257l.794-.565a.754.754 0 01.366.055.725.725 0 01.292.222h-.001zm1.211-2.716a.684.684 0 01-.281.463l-2.805 1.992a.74.74 0 01-.54.134.747.747 0 01-.48-.274l-.274-.351a.685.685 0 01.142-.983l.213-.15c.044.003.088.007.133.007.31 0 .613-.096.86-.277l2.331-1.655a.717.717 0 01.29.222l.274.352a.686.686 0 01.138.52zm-1.804-3.456a.742.742 0 01.54-.134.745.745 0 01.481.274l.273.35a.686.686 0 01-.142.984l-2.804 1.992a.74.74 0 01-.54.135.743.743 0 01-.481-.275l-.274-.351a.685.685 0 01.142-.983l2.805-1.992zm-3.228 1.442c-.151.11-.279.247-.375.404a1.357 1.357 0 00-.155 1.053c.047.176.13.342.244.488l.273.351c.074.095.16.18.256.253a1.353 1.353 0 00-.16 1.84l.274.35c.117.151.266.278.437.372a1.354 1.354 0 00-.096 1.779l.272.35c.128.164.292.298.48.393v1.542h-13.34v-17.99h13.34v2.04l-.97.652c-.152.11-.28.247-.376.404a1.357 1.357 0 00-.154 1.053c.047.176.13.342.243.488l.273.351c.117.151.265.278.434.371.17.094.357.154.552.175v2.252l-1.452 1.03zm3.017-6.168l.273.351a.685.685 0 01-.135.977l-1.1.743a.75.75 0 01-1.022-.14l-.273-.351a.684.684 0 01.134-.977l1.102-.743a.75.75 0 011.021.14zm-14.72-4.627h12.966a.19.19 0 01.133.053c.035.034.054.08.054.128v1.113h-13.34v-1.113a.175.175 0 01.055-.128.186.186 0 01.133-.053h-.001zm-4.102 15.368c.52-1.563 1.11-3.334 1.284-5.416.053-.642.047-1.315.04-1.965-.01-1.055-.021-2.251.32-2.54a.633.633 0 01.528-.16c.34.046.718.33 1.032.763V34.33c0 .23.095.45.264.612a.916.916 0 00.634.254h9.403a24.348 24.348 0 01-1.242 1.6c-.428.507-.712.7-.959.866-.403.273-.67.483-1.048 1.308-.086.188-.226.475-.414.852l-9.85-4.737.092-.177c.635-1.23.16-2.497-.17-2.917-1.326-1.692-.732-3.473.088-5.938h-.002z" fill="#EA5404"/><path d="M29.244 34.779l-.37-.178a.921.921 0 00-.989.12.87.87 0 00-.214.268l-2.089 4.043a.84.84 0 00-.047.66.877.877 0 00.45.5l11.887 5.717a.933.933 0 00.873-.038.875.875 0 00.33-.35l2.088-4.044a.84.84 0 00.047-.66.877.877 0 00-.45-.5l-.395-.191c.195-.39.336-.68.426-.88.32-.693.5-.817.806-1.023.27-.183.605-.411 1.1-.994a25.227 25.227 0 001.546-2.034h2.709a.915.915 0 00.634-.254.852.852 0 00.263-.612v-5.057c.295-.006.582-.1.82-.27l1.381-.899.015-.01c.151-.11.279-.247.375-.404a1.357 1.357 0 00.155-1.052 1.37 1.37 0 00-.244-.489l-.273-.351a1.426 1.426 0 00-.48-.393l1.268-.9c.151-.11.278-.247.375-.404a1.358 1.358 0 00.154-1.052 1.367 1.367 0 00-.243-.488l-.273-.352a1.41 1.41 0 00-.256-.252 1.353 1.353 0 00.16-1.839l-.273-.351a1.437 1.437 0 00-.509-.408c-.2-.096-.42-.147-.643-.147a1.457 1.457 0 00-.861.277l-.645.457v-1.843a1.39 1.39 0 00.31-.165l1.102-.74c.151-.11.278-.247.374-.404a1.357 1.357 0 00.155-1.053 1.368 1.368 0 00-.243-.488l-.273-.351a1.42 1.42 0 00-.633-.464 1.472 1.472 0 00-.792-.063v-3.508a.85.85 0 00-.263-.612.915.915 0 00-.634-.254H33.99a.916.916 0 00-.635.254.852.852 0 00-.263.612v4.856c-.295-.236-.612-.384-.934-.428a1.382 1.382 0 00-1.097.325c-.582.495-.571 1.627-.557 3.06.006.635.012 1.292-.039 1.902-.167 2.005-.746 3.734-1.252 5.26-.82 2.461-1.527 4.587.022 6.563.123.154.633 1.166.1 2.197l-.091.178zm11.284 6.393l-2.088 4.042a.183.183 0 01-.07.073.193.193 0 01-.18.008L26.301 39.58a.183.183 0 01-.093-.104.175.175 0 01.01-.137l2.087-4.043a.183.183 0 01.07-.073.193.193 0 01.181-.008l11.887 5.716a.183.183 0 01.094.104.175.175 0 01-.01.138zm6.427-6.662H33.99a.191.191 0 01-.133-.053.178.178 0 01-.054-.128v-2.991h13.34v2.99a.18.18 0 01-.055.129.192.192 0 01-.133.053zm2.558-8.301l.273.35a.686.686 0 01-.139.981l-1.38.898-.015.01a.743.743 0 01-.54.134.747.747 0 01-.48-.274l-.274-.35a.685.685 0 01.139-.981l.342-.223c.226-.036.44-.124.623-.257l.794-.565a.754.754 0 01.366.055.725.725 0 01.292.222h-.001zm1.211-2.716a.684.684 0 01-.281.463l-2.805 1.992a.74.74 0 01-.54.134.747.747 0 01-.48-.274l-.274-.351a.685.685 0 01.142-.983l.213-.15c.044.003.088.007.133.007.31 0 .613-.096.86-.277l2.331-1.655a.717.717 0 01.29.222l.274.352a.686.686 0 01.138.52h0zm-1.804-3.456a.742.742 0 01.54-.134.745.745 0 01.481.274l.273.35a.686.686 0 01-.142.984l-2.804 1.992a.74.74 0 01-.54.135.743.743 0 01-.481-.275l-.274-.351a.685.685 0 01.142-.983l2.805-1.992zm-3.228 1.442c-.151.11-.279.247-.375.404a1.357 1.357 0 00-.155 1.053c.047.176.13.342.244.488l.273.351c.074.095.16.18.256.253a1.353 1.353 0 00-.16 1.84l.274.35c.117.151.266.278.437.372a1.354 1.354 0 00-.096 1.779l.272.35c.128.164.292.298.48.393v1.542h-13.34v-17.99h13.34v2.04l-.97.652c-.152.11-.28.247-.376.404a1.357 1.357 0 00-.154 1.053c.047.176.13.342.243.488l.273.351c.117.151.265.278.434.371.17.094.357.154.552.175v2.252l-1.452 1.03zm3.017-6.168l.273.351a.685.685 0 01-.135.977l-1.1.743a.75.75 0 01-1.022-.14l-.273-.351a.684.684 0 01.134-.977l1.102-.743a.75.75 0 011.021.14h0zm-14.72-4.627h12.966a.19.19 0 01.133.053c.035.034.054.08.054.128v1.113h-13.34v-1.113a.175.175 0 01.055-.128.186.186 0 01.133-.053h-.001zm-4.102 15.368c.52-1.563 1.11-3.334 1.284-5.416.053-.642.047-1.315.04-1.965-.01-1.055-.021-2.251.32-2.54a.633.633 0 01.528-.16c.34.046.718.33 1.032.763V34.33c0 .23.095.45.264.612a.916.916 0 00.634.254h9.403a24.348 24.348 0 01-1.242 1.6c-.428.507-.712.7-.959.866-.403.273-.67.483-1.048 1.308-.086.188-.226.475-.414.852l-9.85-4.737.092-.177c.635-1.23.16-2.497-.17-2.917-1.326-1.692-.732-3.473.088-5.938h-.002z" stroke="#EA5404" stroke-width=".4" mask="url(#a)"/><path d="M40.128 31.867a1.16 1.16 0 00-.628.184 1.1 1.1 0 00-.417.49 1.056 1.056 0 00.245 1.189c.158.153.36.257.579.299.22.042.447.02.653-.062.207-.083.384-.223.508-.402a1.064 1.064 0 00-.14-1.377c-.213-.205-.5-.32-.8-.32zm0 1.497a.432.432 0 01-.233-.068.409.409 0 01-.155-.182.392.392 0 01.09-.442.426.426 0 01.459-.088.41.41 0 01.189.15.395.395 0 01-.053.511.429.429 0 01-.297.12z" fill="#EA5404"/></svg>