<svg width="12" height="17" fill="none" xmlns="http://www.w3.org/2000/svg"><g clip-path="url(#clip0_325_10978)" fill="#EA5404"><path d="M7.741 13.825V2.49c0-.896-.782-1.622-1.745-1.622-.964 0-1.746.727-1.746 1.622v11.336c0 .897.782 1.623 1.746 1.623.963 0 1.745-.727 1.745-1.623z"/><path d="M11.872 9.888c0-.411-.187-.82-.552-1.106-.656-.515-1.638-.439-2.193.172l-3.12 3.431-3.13-3.442c-.554-.61-1.535-.687-2.192-.172-.656.515-.74 1.428-.185 2.038l5.507 6.057 5.497-6.046a1.38 1.38 0 00.367-.932h.001z"/></g><defs><clipPath id="clip0_325_10978"><path fill="#fff" transform="matrix(0 1 1 0 .133 .867)" d="M0 0h16v11.739H0z"/></clipPath></defs></svg>