<svg width="56" height="56" fill="none" xmlns="http://www.w3.org/2000/svg"><path d="M43.717 43.706L41.567 38a6.025 6.025 0 00-3.08-3.339.657.657 0 10-.56 1.19 4.719 4.719 0 012.411 2.613l2.15 5.706a.659.659 0 01-.615.89h-3.849v-3.852a.657.657 0 00-1.314 0v3.852H19.293v-3.852a.657.657 0 00-1.314 0v3.852h-3.85a.66.66 0 01-.613-.892l2.148-5.703a4.74 4.74 0 012.939-2.83l4.21-1.407.87 5.056a.662.662 0 001.08.384l2.581-2.244v3.784a.657.657 0 001.314 0v-3.785l2.583 2.246a.663.663 0 001.08-.39l.828-5.09 2.367.808a.657.657 0 00.425-1.243l-2.943-1.005-1.217-1.323v-1.482c4.535-2.645 4.626-7.48 4.253-10.64-.971-8.317-9.767-8.372-13.265-5.544a.658.658 0 00.82 1.028c3.42-2.676 11.111-1.941 11.25 5.696-1.12.899-3.458.662-4.32.48-3.068-.615-4.768-4.635-4.785-4.676a.661.661 0 00-1.255.142c-.512 3.044-2.322 3.797-3.31 3.98a9.43 9.43 0 01.928-3.798.657.657 0 00-1.162-.614 9.286 9.286 0 00-.96 3.264 13.764 13.764 0 00.115 4.78 8.415 8.415 0 003.992 5.818v1.579l-1.137 1.36-4.759 1.59a6.048 6.048 0 00-3.751 3.612l-2.148 5.701a1.983 1.983 0 001.843 2.672h27.743a1.983 1.983 0 001.844-2.67zM27.99 34.88l-2.594-3.417v-.972c.838.319 1.714.529 2.605.626a10.732 10.732 0 002.466-.573v.924L27.99 34.88zm3.936-1.354l-.713 4.378-2.326-2.023 2.296-3.162.743.807zM21.863 25.38a18.29 18.29 0 004.038 1.798 1.77 1.77 0 001.647 1.134h1.079a1.77 1.77 0 000-3.54h-1.08a1.77 1.77 0 00-1.611 1.047 21.633 21.633 0 01-4.608-2.306 12.014 12.014 0 01-.184-1.78 5.154 5.154 0 004.18-3.415c1.323 2.19 3.523 4.268 6.958 4.13.878.02 1.75-.137 2.567-.46-.111 2.29-.876 5.387-3.929 6.933a8.942 8.942 0 01-2.919.876c-2.774-.356-5.089-1.774-6.138-4.417zm5.229 1.162a.456.456 0 01.456-.456h1.079a.456.456 0 110 .912h-1.08a.456.456 0 01-.455-.456zm-2.38 6.193l2.394 3.155-2.325 2.022-.75-4.361.68-.816z" fill="#EA5404"/><path d="M16.698 25.902h1.824a.657.657 0 00.657-.657v-6.078c.483-10.98 17.156-10.977 17.637 0v6.078a.658.658 0 00.657.657h1.824a1.92 1.92 0 001.917-1.917v-3.558a1.92 1.92 0 00-1.917-1.917h-1.202c-1.25-11.848-18.946-11.846-20.195 0h-1.202a1.919 1.919 0 00-1.917 1.917v3.558a1.92 1.92 0 001.917 1.917zm21.432-6.078h1.167a.603.603 0 01.603.603v3.558a.603.603 0 01-.602.603H38.13v-4.764zm-22.035.603a.603.603 0 01.603-.602h1.167v4.763h-1.167a.603.603 0 01-.602-.603v-3.558z" fill="#EA5404"/><path d="M16.698 25.902h1.824a.657.657 0 00.657-.657v-6.078c.483-10.98 17.156-10.977 17.637 0v6.078a.658.658 0 00.657.657h1.824a1.92 1.92 0 001.917-1.917v-3.558a1.92 1.92 0 00-1.917-1.917h-1.202c-1.25-11.848-18.946-11.846-20.195 0h-1.202a1.919 1.919 0 00-1.917 1.917v3.558a1.92 1.92 0 001.917 1.917zm21.432-6.078h1.167a.603.603 0 01.603.603v3.558a.603.603 0 01-.602.603H38.13v-4.764zm-22.035.603a.603.603 0 01.603-.602h1.167v4.763h-1.167a.603.603 0 01-.602-.603v-3.558z" stroke="#fff"/></svg>