<svg width="56" height="56" fill="none" xmlns="http://www.w3.org/2000/svg"><mask id="a" fill="#fff"><path d="M9.201 23.479c0-.732-.01-1.488.02-2.222a1.12 1.12 0 01.153-.502c.285-.468.595-.942.889-1.4.293-.46.595-.91.875-1.378.085-.14.135-.197.373-.185h5.448c.077 0 .154.005.23.016.01.07.015.14.014.21v5.866c.001.079-.005.157-.018.234a1.432 1.432 0 01-.262.02H9.446c-.076 0-.15-.006-.225-.018a1.282 1.282 0 01-.016-.23v-.419l-.004.008zm-1.56-2.283c-.03.77-.025 1.545-.02 2.295v.417c0 1.18.636 1.8 1.818 1.804h7.486c1.228 0 1.851-.614 1.855-1.816v-5.874c0-1.18-.615-1.785-1.82-1.789h-5.44a1.909 1.909 0 00-1 .229c-.307.166-.56.412-.735.712-.273.449-.567.901-.85 1.34-.284.439-.618.95-.915 1.44a2.688 2.688 0 00-.38 1.248l.003-.006z"/></mask><path d="M9.201 23.479c0-.732-.01-1.488.02-2.222a1.12 1.12 0 01.153-.502c.285-.468.595-.942.889-1.4.293-.46.595-.91.875-1.378.085-.14.135-.197.373-.185h5.448c.077 0 .154.005.23.016.01.07.015.14.014.21v5.866c.001.079-.005.157-.018.234a1.432 1.432 0 01-.262.02H9.446c-.076 0-.15-.006-.225-.018a1.282 1.282 0 01-.016-.23v-.419l-.004.008zm-1.56-2.283c-.03.77-.025 1.545-.02 2.295v.417c0 1.18.636 1.8 1.818 1.804h7.486c1.228 0 1.851-.614 1.855-1.816v-5.874c0-1.18-.615-1.785-1.82-1.789h-5.44a1.909 1.909 0 00-1 .229c-.307.166-.56.412-.735.712-.273.449-.567.901-.85 1.34-.284.439-.618.95-.915 1.44a2.688 2.688 0 00-.38 1.248l.003-.006z" fill="#EA5404"/><path d="M9.201 23.479h-.1l.19.045-.09-.045zm.02-2.222l-.1-.006v.002l.1.004zm.153-.502l-.086-.052v.002l.086.05zm1.764-2.778l-.086-.052.086.052zm.373-.185l-.005.1h.005v-.1zm5.448 0v.1-.1zm.23.016l.099-.016-.011-.073-.074-.01-.014.099zm.014.21l-.1-.002v.002h.1zm0 5.866h-.1v.002l.1-.002zm-.018.234l.016.1.07-.012.013-.07-.099-.018zm-.262.02l.002-.1h-.002v.1zm-7.478 0v.1-.1zm-.224-.018l-.099.016.012.072.071.011.016-.099zm-.016-.23l.1.002v-.002h-.1zm0-.419h.1l-.19-.045.09.045zm-1.563-2.275l.1.004-.195-.036.095.032zm-.02 2.295h.1v-.001h-.1zm1.817 2.221v.1-.1zm9.341-1.816h.1-.1zm-1.82-7.663l.001-.1v.1zm-5.441 0l-.005.1h.005v-.1zm-1.735.94l.086.053.001-.002-.087-.05zM8.02 19.956l-.086-.052.086.052zm-.38 1.247l-.1-.005.195.037-.094-.032zm1.662 2.277c0-.734-.01-1.486.02-2.218l-.2-.008c-.03.737-.02 1.496-.02 2.226h.2zm.02-2.216a1.02 1.02 0 01.139-.457l-.172-.101a1.221 1.221 0 00-.167.546l.2.012zm.138-.456c.285-.467.594-.94.888-1.399l-.168-.108c-.294.458-.604.934-.89 1.403l.17.105zm.888-1.399c.292-.456.596-.91.877-1.38l-.172-.102c-.279.466-.578.914-.873 1.374l.168.108zm.876-1.38c.044-.07.066-.098.094-.114.027-.015.075-.028.189-.022l.01-.2a.534.534 0 00-.299.049.483.483 0 00-.165.184l.171.104zm.288-.136h3.223v-.2H11.51v.2zm3.224 0h2.224v-.2h-2.224v.2zm2.224 0c.072 0 .145.005.216.015l.028-.198a1.75 1.75 0 00-.244-.017v.2zm.131-.07c.01.065.014.13.013.194l.2.004a1.316 1.316 0 00-.015-.228l-.198.03zm.013.196v5.865h.2v-5.865h-.2zm0 5.868c.001.072-.004.144-.017.216l.198.033c.014-.083.02-.168.019-.252l-.2.003zm.066.134a1.4 1.4 0 01-.245.018l-.002.2c.093.001.187-.006.28-.02l-.033-.198zm-.246.018h-2.626v.2h2.625v-.2zm-2.625 0h-2.222v.2h2.222v-.2zm-2.222 0H9.445v.2h2.631v-.2zm-2.63 0c-.07 0-.14-.005-.21-.016l-.03.197c.079.013.159.02.24.02v-.2zm-.126.067a1.183 1.183 0 01-.015-.213l-.2-.004c-.002.083.004.166.017.248l.198-.031zm-.015-.215v-.419h-.2v.42h.2zm-.19-.464l-.003.008.178.09.004-.008-.178-.09zm-1.573-2.234a49.47 49.47 0 00-.02 2.3l.2-.002c-.006-.75-.01-1.523.02-2.29l-.2-.008zm-.02 2.299v.417h.2v-.417h-.2zm0 .417c0 .607.163 1.087.495 1.415.33.327.814.487 1.422.49v-.2c-.574-.003-1-.154-1.282-.433-.281-.278-.435-.7-.435-1.272h-.2zm1.917 1.904h7.486v-.2H9.44v.2zm7.486 0c.63 0 1.122-.157 1.457-.486.335-.328.496-.812.498-1.43h-.2c-.002.585-.154 1.009-.438 1.288-.285.279-.718.428-1.317.428v.2zm1.955-1.916v-5.875h-.2v5.873h.2zm0-5.874c0-.607-.158-1.083-.488-1.407-.329-.324-.813-.48-1.43-.482l-.001.2c.586.002 1.012.15 1.291.425.279.274.428.69.428 1.264h.2zm-1.92-1.889h-2.229v.2h2.228v-.2zm-2.23 0H11.52v.2h3.21v-.2zm-3.207 0a2.008 2.008 0 00-1.053.24l.096.176c.29-.157.618-.232.948-.216l.01-.2zm-1.053.24a1.994 1.994 0 00-.772.75l.173.101c.165-.284.405-.517.695-.675l-.096-.175zm-.77.749c-.274.447-.567.899-.85 1.338l.167.108c.284-.438.578-.892.853-1.342l-.17-.104zm-.85 1.338c-.284.438-.618.951-.917 1.443l.171.103c.297-.488.63-.998.913-1.438l-.168-.108zm-.917 1.443c-.236.393-.37.837-.393 1.294l.2.01a2.58 2.58 0 01.364-1.201l-.171-.103zm-.199 1.331l.002-.006-.19-.064-.001.006.19.064z" fill="#fff" mask="url(#a)"/><mask id="b" fill="#fff"><path d="M4.542 34.754a38.816 38.816 0 010-2.255c0-.197.04-.29.335-.303h.577c.21 0 .413-.083.562-.23a.784.784 0 00.232-.557v-2.735c0-2.407 0-4.896.014-7.342-.002-.215.05-.427.153-.616.676-1.108 1.389-2.23 2.065-3.312.419-.663.851-1.35 1.274-2.029a.485.485 0 01.5-.272h14.212c.323 0 .397.07.397.07s.075.08.077.42v5.054l-.026 8.792v1.157h-3.91a.797.797 0 00-.562.23.784.784 0 000 1.114c.15.147.351.23.562.23h16.485a6.275 6.275 0 00-1.359 2.891H18.67a6.314 6.314 0 00-2.188-3.71 6.409 6.409 0 00-4.073-1.465 6.405 6.405 0 00-4.088 1.476 6.31 6.31 0 00-2.18 3.733c-.409 0-.814 0-1.208-.014-.358 0-.373-.1-.38-.329l-.011.002zm7.855 6.14a4.762 4.762 0 01-3.35-1.378 4.684 4.684 0 01-1.388-3.321 4.686 4.686 0 011.388-3.323 4.764 4.764 0 013.35-1.378 4.765 4.765 0 013.35 1.378 4.688 4.688 0 011.39 3.323 4.686 4.686 0 01-1.39 3.321 4.764 4.764 0 01-3.35 1.378zm29.991 0a4.762 4.762 0 01-3.345-1.376 4.684 4.684 0 01-1.391-3.316 4.686 4.686 0 011.389-3.322 4.764 4.764 0 013.349-1.379 4.766 4.766 0 013.35 1.379 4.688 4.688 0 011.39 3.322 4.686 4.686 0 01-1.394 3.318 4.764 4.764 0 01-3.348 1.374zm8.532-5.805a85.603 85.603 0 00-2.022-.01h-.248a6.261 6.261 0 00-1.363-2.915h3.067a.8.8 0 00.266.024c.58-.051.758.034.845.16v2.542c-.083.13-.214.197-.545.197v.002zM2.964 32.448a37.072 37.072 0 000 2.35c.03 1.117.768 1.828 1.927 1.851.397 0 .794.012 1.208.014a6.253 6.253 0 002.002 4.127 6.354 6.354 0 004.296 1.678 6.355 6.355 0 004.31-1.689 6.255 6.255 0 001.993-4.15h17.387a6.251 6.251 0 001.991 4.15 6.351 6.351 0 004.31 1.689 6.355 6.355 0 004.301-1.681 6.255 6.255 0 002-4.134h2.277c1.21 0 1.768-.687 2.024-1.267a.782.782 0 00.065-.313v-2.914a.78.78 0 00-.063-.31c-.53-1.221-1.696-1.274-2.29-1.241a.66.66 0 00-.14-.014h-5.328a6.342 6.342 0 00-5.68 0h-13.06V29.44l.026-8.792v-5.062c0-1.322-.732-2.052-2.051-2.054H10.256a2.065 2.065 0 00-1.064.254 2.044 2.044 0 00-.781.761c-.419.675-.851 1.36-1.268 2.021A342.856 342.856 0 005.066 19.9a2.8 2.8 0 00-.381 1.417c-.016 2.452-.014 4.943-.014 7.354v1.967a1.81 1.81 0 00-1.216.565c-.317.337-.49.781-.485 1.242l-.006.002z"/></mask><path d="M4.542 34.754a38.816 38.816 0 010-2.255c0-.197.04-.29.335-.303h.577c.21 0 .413-.083.562-.23a.784.784 0 00.232-.557v-2.735c0-2.407 0-4.896.014-7.342-.002-.215.05-.427.153-.616.676-1.108 1.389-2.23 2.065-3.312.419-.663.851-1.35 1.274-2.029a.485.485 0 01.5-.272h14.212c.323 0 .397.07.397.07s.075.08.077.42v5.054l-.026 8.792v1.157h-3.91a.797.797 0 00-.562.23.784.784 0 000 1.114c.15.147.351.23.562.23h16.485a6.275 6.275 0 00-1.359 2.891H18.67a6.314 6.314 0 00-2.188-3.71 6.409 6.409 0 00-4.073-1.465 6.405 6.405 0 00-4.088 1.476 6.31 6.31 0 00-2.18 3.733c-.409 0-.814 0-1.208-.014-.358 0-.373-.1-.38-.329l-.011.002zm7.855 6.14a4.762 4.762 0 01-3.35-1.378 4.684 4.684 0 01-1.388-3.321 4.686 4.686 0 011.388-3.323 4.764 4.764 0 013.35-1.378 4.765 4.765 0 013.35 1.378 4.688 4.688 0 011.39 3.323 4.686 4.686 0 01-1.39 3.321 4.764 4.764 0 01-3.35 1.378zm29.991 0a4.762 4.762 0 01-3.345-1.376 4.684 4.684 0 01-1.391-3.316 4.686 4.686 0 011.389-3.322 4.764 4.764 0 013.349-1.379 4.766 4.766 0 013.35 1.379 4.688 4.688 0 011.39 3.322 4.686 4.686 0 01-1.394 3.318 4.764 4.764 0 01-3.348 1.374zm8.532-5.805a85.603 85.603 0 00-2.022-.01h-.248a6.261 6.261 0 00-1.363-2.915h3.067a.8.8 0 00.266.024c.58-.051.758.034.845.16v2.542c-.083.13-.214.197-.545.197v.002zM2.964 32.448a37.072 37.072 0 000 2.35c.03 1.117.768 1.828 1.927 1.851.397 0 .794.012 1.208.014a6.253 6.253 0 002.002 4.127 6.354 6.354 0 004.296 1.678 6.355 6.355 0 004.31-1.689 6.255 6.255 0 001.993-4.15h17.387a6.251 6.251 0 001.991 4.15 6.351 6.351 0 004.31 1.689 6.355 6.355 0 004.301-1.681 6.255 6.255 0 002-4.134h2.277c1.21 0 1.768-.687 2.024-1.267a.782.782 0 00.065-.313v-2.914a.78.78 0 00-.063-.31c-.53-1.221-1.696-1.274-2.29-1.241a.66.66 0 00-.14-.014h-5.328a6.342 6.342 0 00-5.68 0h-13.06V29.44l.026-8.792v-5.062c0-1.322-.732-2.052-2.051-2.054H10.256a2.065 2.065 0 00-1.064.254 2.044 2.044 0 00-.781.761c-.419.675-.851 1.36-1.268 2.021A342.856 342.856 0 005.066 19.9a2.8 2.8 0 00-.381 1.417c-.016 2.452-.014 4.943-.014 7.354v1.967a1.81 1.81 0 00-1.216.565c-.317.337-.49.781-.485 1.242l-.006.002z" fill="#EA5404" stroke="#fff" stroke-width=".2" mask="url(#b)"/><path d="M42.388 37.37h0c.313 0 .612-.123.833-.341.221-.22.346-.516.346-.826v0c0-.31-.124-.608-.345-.828a1.184 1.184 0 00-.834-.342h0a1.17 1.17 0 00-1.176 1.17h0c0 .31.124.606.345.825.22.219.52.342.831.342zm-1.878-3.03a2.673 2.673 0 013.758 0c.498.494.778 1.164.779 1.863a2.627 2.627 0 01-.78 1.862 2.672 2.672 0 01-3.757-.001 2.629 2.629 0 01-.78-1.861 2.628 2.628 0 01.78-1.863zm-29.308 1.863h0c0 .31.125.607.346.826.22.218.52.341.832.341h0c.313 0 .612-.123.833-.342a1.17 1.17 0 00.346-.825h0c0-.31-.125-.608-.346-.827a1.185 1.185 0 00-.832-.343h0c-.313 0-.613.123-.834.342-.221.22-.345.517-.345.828zm-.696-1.861a2.672 2.672 0 011.875-.776c.704.002 1.38.28 1.878.774a2.63 2.63 0 01.78 1.862 2.63 2.63 0 01-.78 1.862 2.674 2.674 0 01-1.879.773 2.671 2.671 0 01-1.873-.775 2.627 2.627 0 01-.777-1.86c0-.697.28-1.366.776-1.86zm11.093-18.049c.197 0 .386.078.526.216s.217.326.217.521v9.398a.734.734 0 01-.217.521.747.747 0 01-1.052 0 .734.734 0 01-.218-.52V17.03c0-.195.078-.383.218-.521a.747.747 0 01.526-.216z" fill="#EA5404" stroke="#fff" stroke-width=".1"/><mask id="c" maskUnits="userSpaceOnUse" x="28.782" y="15.797" width="23" height="16" fill="#000"><path fill="#fff" d="M28.782 15.797h23v16h-23z"/><path d="M46.65 22.935c-2.082 0-3.791 1.67-3.945 3.78h-.564a1.37 1.37 0 00-.52-.987l1.991-5.221h.94a.645.645 0 00.633-.655v-.726a.664.664 0 00-.21-.486.617.617 0 00-.49-.165l-2.73.296a.645.645 0 00-.567.65v.432c0 .361.284.655.633.655h1.149l-1.814 4.758-5.04-4.72.998-3.13h1.259a.304.304 0 00.299-.31.305.305 0 00-.3-.309h-1.474a.3.3 0 00-.284.212l-.247.777h-5.108a.293.293 0 00-.222.103.312.312 0 00-.074.24l.457 4.14a.303.303 0 00.297.273h3.135l-.163.513a3.825 3.825 0 00-.95-.12c-2.182 0-3.957 1.835-3.957 4.09 0 2.254 1.775 4.089 3.957 4.089s3.957-1.835 3.957-4.09c0-1.7-1.009-3.159-2.44-3.775l.255-.796 4.1 3.85a1.395 1.395 0 00-.096.51c0 .515.28.965.69 1.196l-.387.867h-.884a.304.304 0 00-.3.309c0 .17.135.309.3.309h2.092a.305.305 0 00.299-.31.305.305 0 00-.299-.308h-.55l.314-.705.04.002a1.32 1.32 0 001.216-.839h.66c.153 2.111 1.864 3.78 3.944 3.78s3.957-1.834 3.957-4.089c0-2.254-1.775-4.089-3.957-4.089zm-4.864-3.083v-.431c0-.02.013-.035.032-.037l2.73-.296h.003c.01 0 .017.003.024.01a.036.036 0 01.012.027v.726a.036.036 0 01-.036.037h-2.73a.036.036 0 01-.035-.036zm-4.688 7.172c0 1.915-1.506 3.472-3.36 3.472-1.852 0-3.359-1.557-3.359-3.472 0-1.914 1.507-3.471 3.36-3.471.262 0 .517.032.762.09l-1.046 3.284a.311.311 0 00.19.39.295.295 0 00.378-.197l1.046-3.283c1.193.533 2.03 1.76 2.03 3.187zm2.86-1.228l-4.244-3.985.198-.624 4.598 4.308a1.308 1.308 0 00-.551.3zm-6.7-5.379V19.7h1.021v.717h-1.022zm1.021.618v.89h-1.022v-.89h1.023zM31.737 19.7h.923v.717h-.844l-.079-.717zm1.52-.617v-.68h1.023v.68h-1.023zm1.62.617h.88l-.228.717h-.652V19.7zm1.077-.617h-1.077v-.68h1.294l-.217.68zm-3.294-.68v.68h-.99l-.076-.68h1.066zm-.776 2.632h.776v.89h-.677l-.099-.89zm2.992.89v-.89h.455l-.283.89h-.172zm5.953 5.63a.732.732 0 01-.718-.742c0-.41.323-.743.718-.743.396 0 .72.333.72.742 0 .41-.323.743-.72.743zm5.82 2.942c-1.751 0-3.193-1.393-3.346-3.163h3.335a.304.304 0 00.299-.309.303.303 0 00-.299-.308h-3.334c.151-1.77 1.593-3.163 3.345-3.163 1.853 0 3.36 1.557 3.36 3.471 0 1.915-1.507 3.472-3.36 3.472z"/></mask><path d="M46.65 22.935c-2.082 0-3.791 1.67-3.945 3.78h-.564a1.37 1.37 0 00-.52-.987l1.991-5.221h.94a.645.645 0 00.633-.655v-.726a.664.664 0 00-.21-.486.617.617 0 00-.49-.165l-2.73.296a.645.645 0 00-.567.65v.432c0 .361.284.655.633.655h1.149l-1.814 4.758-5.04-4.72.998-3.13h1.259a.304.304 0 00.299-.31.305.305 0 00-.3-.309h-1.474a.3.3 0 00-.284.212l-.247.777h-5.108a.293.293 0 00-.222.103.312.312 0 00-.074.24l.457 4.14a.303.303 0 00.297.273h3.135l-.163.513a3.825 3.825 0 00-.95-.12c-2.182 0-3.957 1.835-3.957 4.09 0 2.254 1.775 4.089 3.957 4.089s3.957-1.835 3.957-4.09c0-1.7-1.009-3.159-2.44-3.775l.255-.796 4.1 3.85a1.395 1.395 0 00-.096.51c0 .515.28.965.69 1.196l-.387.867h-.884a.304.304 0 00-.3.309c0 .17.135.309.3.309h2.092a.305.305 0 00.299-.31.305.305 0 00-.299-.308h-.55l.314-.705.04.002a1.32 1.32 0 001.216-.839h.66c.153 2.111 1.864 3.78 3.944 3.78s3.957-1.834 3.957-4.089c0-2.254-1.775-4.089-3.957-4.089zm-4.864-3.083v-.431c0-.02.013-.035.032-.037l2.73-.296h.003c.01 0 .017.003.024.01a.036.036 0 01.012.027v.726a.036.036 0 01-.036.037h-2.73a.036.036 0 01-.035-.036zm-4.688 7.172c0 1.915-1.506 3.472-3.36 3.472-1.852 0-3.359-1.557-3.359-3.472 0-1.914 1.507-3.471 3.36-3.471.262 0 .517.032.762.09l-1.046 3.284a.311.311 0 00.19.39.295.295 0 00.378-.197l1.046-3.283c1.193.533 2.03 1.76 2.03 3.187zm2.86-1.228l-4.244-3.985.198-.624 4.598 4.308a1.308 1.308 0 00-.551.3zm-6.7-5.379V19.7h1.021v.717h-1.022zm1.021.618v.89h-1.022v-.89h1.023zM31.737 19.7h.923v.717h-.844l-.079-.717zm1.52-.617v-.68h1.023v.68h-1.023zm1.62.617h.88l-.228.717h-.652V19.7zm1.077-.617h-1.077v-.68h1.294l-.217.68zm-3.294-.68v.68h-.99l-.076-.68h1.066zm-.776 2.632h.776v.89h-.677l-.099-.89zm2.992.89v-.89h.455l-.283.89h-.172zm5.953 5.63a.732.732 0 01-.718-.742c0-.41.323-.743.718-.743.396 0 .72.333.72.742 0 .41-.323.743-.72.743zm5.82 2.942c-1.751 0-3.193-1.393-3.346-3.163h3.335a.304.304 0 00.299-.309.303.303 0 00-.299-.308h-3.334c.151-1.77 1.593-3.163 3.345-3.163 1.853 0 3.36 1.557 3.36 3.471 0 1.915-1.507 3.472-3.36 3.472z" fill="#EA5404"/><path d="M46.65 22.935c-2.082 0-3.791 1.67-3.945 3.78h-.564a1.37 1.37 0 00-.52-.987l1.991-5.221h.94a.645.645 0 00.633-.655v-.726a.664.664 0 00-.21-.486.617.617 0 00-.49-.165l-2.73.296a.645.645 0 00-.567.65v.432c0 .361.284.655.633.655h1.149l-1.814 4.758-5.04-4.72.998-3.13h1.259a.304.304 0 00.299-.31.305.305 0 00-.3-.309h-1.474a.3.3 0 00-.284.212l-.247.777h-5.108a.293.293 0 00-.222.103.312.312 0 00-.074.24l.457 4.14a.303.303 0 00.297.273h3.135l-.163.513a3.825 3.825 0 00-.95-.12c-2.182 0-3.957 1.835-3.957 4.09 0 2.254 1.775 4.089 3.957 4.089s3.957-1.835 3.957-4.09c0-1.7-1.009-3.159-2.44-3.775l.255-.796 4.1 3.85a1.395 1.395 0 00-.096.51c0 .515.28.965.69 1.196l-.387.867h-.884a.304.304 0 00-.3.309c0 .17.135.309.3.309h2.092a.305.305 0 00.299-.31.305.305 0 00-.299-.308h-.55l.314-.705.04.002a1.32 1.32 0 001.216-.839h.66c.153 2.111 1.864 3.78 3.944 3.78s3.957-1.834 3.957-4.089c0-2.254-1.775-4.089-3.957-4.089h0zm-4.864-3.083v-.431c0-.02.013-.035.032-.037l2.73-.296h.003c.01 0 .017.003.024.01a.036.036 0 01.012.027v.726a.036.036 0 01-.036.037h-2.73a.036.036 0 01-.035-.036zm-4.688 7.172c0 1.915-1.506 3.472-3.36 3.472-1.852 0-3.359-1.557-3.359-3.472 0-1.914 1.507-3.471 3.36-3.471.262 0 .517.032.762.09l-1.046 3.284a.311.311 0 00.19.39.295.295 0 00.378-.197l1.046-3.283c1.193.533 2.03 1.76 2.03 3.187zm2.86-1.228l-4.244-3.985.198-.624 4.598 4.308a1.308 1.308 0 00-.551.3zm-6.7-5.379V19.7h1.021v.717h-1.022zm1.021.618v.89h-1.022v-.89h1.023zM31.737 19.7h.923v.717h-.844l-.079-.717zm1.52-.617v-.68h1.023v.68h-1.023zm1.62.617h.88l-.228.717h-.652V19.7zm1.077-.617h-1.077v-.68h1.294l-.217.68zm-3.294-.68v.68h-.99l-.076-.68h1.066zm-.776 2.632h.776v.89h-.677l-.099-.89zm2.992.89v-.89h.455l-.283.89h-.172zm5.953 5.63a.732.732 0 01-.718-.742c0-.41.323-.743.718-.743.396 0 .72.333.72.742 0 .41-.323.743-.72.743zm5.82 2.942c-1.751 0-3.193-1.393-3.346-3.163h3.335a.304.304 0 00.299-.309.303.303 0 00-.299-.308h-3.334c.151-1.77 1.593-3.163 3.345-3.163 1.853 0 3.36 1.557 3.36 3.471 0 1.915-1.507 3.472-3.36 3.472z" stroke="#EA5404" stroke-width=".4" mask="url(#c)"/></svg>