<svg width="56" height="56" fill="none" xmlns="http://www.w3.org/2000/svg"><path d="M46.22 33.336a2.05 2.05 0 00-2.718-1.057l-7.013 3.044a2.296 2.296 0 00-2.296-2.381H30.54c-1.67.057-4.068-.652-5.698-1.038a10.779 10.779 0 00-7.47.919c0-.004-2.582 1.358-2.575 1.343a1.627 1.627 0 00-1.624-1.625H11.25a1.627 1.627 0 00-1.625 1.625v10.308A1.627 1.627 0 0011.25 46.1h1.923a1.627 1.627 0 001.624-1.625v-.466a13.941 13.941 0 016.948-2.033c1.494.028 2.976.279 4.396.744.974.34 3.84.13 4.874.186a5.474 5.474 0 002.62-.67l11.68-6.345a2.013 2.013 0 00.904-2.554zM13.484 44.474a.313.313 0 01-.312.313H11.25a.313.313 0 01-.313-.313V34.166a.313.313 0 01.313-.312h1.923a.312.312 0 01.312.312v10.308zm31.205-9.738l-11.684 6.346c-.61.334-1.295.51-1.99.51h-3.468a11.975 11.975 0 01-2.554-.53 13.53 13.53 0 00-9.367 1.056l-.83.42v-6.886l3.182-1.665a9.456 9.456 0 016.556-.807l2.907.708c1.839.513 4.84.343 6.75.366a.992.992 0 01.153 1.97c-2.075.424-5.352.294-7.495.31a.657.657 0 000 1.314c2.241-.014 5.526.113 7.697-.327.093.126 9.14-3.929 9.504-4.05a.71.71 0 01.64 1.265zM29.052 30.1a9.448 9.448 0 006.678-2.779 9.498 9.498 0 002.772-6.696c-.52-12.57-18.383-12.566-18.9 0a9.499 9.499 0 002.77 6.696 9.449 9.449 0 006.68 2.778zm0-17.682c2.17.003 4.25.868 5.785 2.407a8.226 8.226 0 012.4 5.8c-.45 10.886-15.922 10.883-16.37 0a8.227 8.227 0 012.4-5.8 8.184 8.184 0 015.785-2.407z" fill="#EA5404"/><path d="M28.373 25.9v-2.39h-2.76v-1h2.76v-.66l-.254-.379h-2.506v-.999h1.85l-2.611-4.023h1.61l2.597 4.077 2.581-4.077h1.612l-2.612 4.023h1.85v1h-2.506l-.239.377v.662h2.746v.999h-2.746v2.39h-1.372z" fill="#EA5404"/></svg>