<svg width="56" height="56" fill="none" xmlns="http://www.w3.org/2000/svg"><g clip-path="url(#clip0_1703_582)"><path d="M24.463 7.33v-.15H18.49c-1.254 0-2.278 1.004-2.278 2.242v37.156c0 1.238 1.024 2.241 2.278 2.241h19.02c1.203 0 2.194-.923 2.273-2.091h.005V9.422c0-1.238-1.024-2.241-2.277-2.241h-5.974v.469c0 .789-.651 1.433-1.46 1.433h-4.153c-.81 0-1.46-.644-1.46-1.433v-.32zM18.49 5.65h19.02c2.12 0 3.84 1.695 3.84 3.772v37.156c0 2.077-1.72 3.772-3.84 3.772H18.49c-2.12 0-3.84-1.695-3.84-3.772V9.422c0-2.077 1.72-3.772 3.84-3.772z" fill="#EA5404" stroke="#fff" stroke-width=".3"/><path d="M32.737 46.125h-9.484a.561.561 0 00-.566.556c0 .306.254.556.566.556h9.484c.312 0 .565-.25.565-.556a.561.561 0 00-.565-.556z" fill="#EA5404"/><rect x="20.25" y="17.805" width="15.5" height="15.229" rx="4.5" stroke="#EA5404"/><g clip-path="url(#clip1_1703_582)"><path d="M31.72 25.213c-1.2 0-2.185.946-2.273 2.143h-.325a.773.773 0 00-.3-.56l1.148-2.96h.54a.368.368 0 00.366-.37v-.412a.374.374 0 00-.121-.275.36.36 0 00-.282-.094l-1.573.168a.368.368 0 00-.327.369v.244c0 .205.163.371.365.371h.662l-1.046 2.697-2.904-2.675.575-1.775h.726a.174.174 0 00.172-.175.174.174 0 00-.172-.175h-.85a.173.173 0 00-.164.12l-.143.44h-2.943a.175.175 0 00-.17.195l.263 2.346c.01.088.084.155.171.155h1.807l-.095.291a2.236 2.236 0 00-.547-.068c-1.257 0-2.28 1.04-2.28 2.318s1.023 2.318 2.28 2.318c1.258 0 2.28-1.04 2.28-2.318 0-.963-.58-1.79-1.405-2.14l.146-.45 2.363 2.181a.78.78 0 00.342.967l-.223.491h-.51a.174.174 0 00-.171.175c0 .097.077.175.172.175h1.206a.174.174 0 00.172-.175.174.174 0 00-.172-.175h-.318l.181-.4.024.002a.76.76 0 00.7-.476h.38c.089 1.197 1.074 2.143 2.273 2.143 1.2 0 2.28-1.04 2.28-2.318 0-1.277-1.023-2.317-2.28-2.317zm-2.803-1.747v-.245c0-.01.008-.02.019-.02l1.573-.168h.002a.02.02 0 01.014.005.02.02 0 01.006.016v.411a.02.02 0 01-.02.021h-1.573a.02.02 0 01-.02-.02zm-2.7 4.065c0 1.085-.87 1.968-1.937 1.968-1.067 0-1.936-.883-1.936-1.968s.869-1.968 1.936-1.968c.151 0 .298.018.44.052l-.603 1.86c-.03.092.02.192.11.222a.173.173 0 00.217-.112l.603-1.86a1.97 1.97 0 011.17 1.806zm1.647-.696l-2.446-2.259.115-.354 2.65 2.442a.76.76 0 00-.32.17h.001zm-3.861-3.049v-.407h.589v.407h-.59zm.589.35v.505h-.59v-.505h.59zm-1.465-.756h.531v.406h-.486l-.045-.407zm.876-.35v-.386h.589v.386h-.59zm.933.35h.507l-.131.406h-.376v-.407zm.62-.35h-.62v-.386h.746l-.125.386zm-1.898-.386v.386h-.57l-.044-.386h.614zm-.446 1.492h.446v.505h-.39l-.056-.505zm1.724.505v-.505h.262l-.163.505h-.1zm3.43 3.19a.418.418 0 01-.414-.42c0-.232.186-.421.414-.421.228 0 .414.189.414.42a.418.418 0 01-.414.422zM31.72 29.5c-1.01 0-1.84-.79-1.928-1.793h1.921a.174.174 0 00.173-.175.173.173 0 00-.173-.175h-1.921c.087-1.003.918-1.792 1.928-1.792 1.067 0 1.936.882 1.936 1.967S32.787 29.5 31.72 29.5z" fill="#EA5404"/></g></g><defs><clipPath id="clip0_1703_582"><path fill="#fff" transform="translate(14.5 5.5)" d="M0 0h27v45H0z"/></clipPath><clipPath id="clip1_1703_582"><path fill="#fff" transform="translate(22 21.734)" d="M0 0h12v8.115H0z"/></clipPath></defs></svg>