<svg width="32" height="32" fill="none" xmlns="http://www.w3.org/2000/svg"><path d="M10.404 20.99c.408-.272.68-.816 1.566-.748.884.068 1.088-.677 1.36-.44.273.236.818.848.818.848s-.068.885 0 1.43c.068.544.272 1.089-.477 1.089-.748 0-1.489-.674-1.905-.749-.678-.122-1.684.068-1.771-.317-.088-.386.41-1.112.41-1.112h-.001zm1.132-6.27c-.059.017-.006.358-.329.644-.391.349-.915.53-.915.53s-.176.106-.211.212c-.035.105-.33.637 0 .422.707-.459.895-.075 1.091-.246.245-.213.425-.668.425-.668s.173-.572.178-.641c.004-.07-.18-.27-.239-.253zm-.034-.328s-.002-.293.162-.293c.165 0 .505.07.552.146.047.077.188.24.14.335-.046.094.036.07-.222.164s-.305.082-.458 0c-.152-.082-.174-.352-.174-.352zm-2.072 2.05c.058-.07.048-.2.165-.187.116.011.233.187.233.187s.06.176-.07.34c-.13.165-.07.189-.247.236-.176.046-.293-.106-.281-.165.011-.059.2-.41.2-.41zm.131 1.987c.047.152.294.13.258.34-.035.212.001.434-.152.575-.153.141-.213.166-.306.066s-.152-.547-.081-.688c.07-.14.281-.293.281-.293z" fill="#EA5404"/><path d="M10.262 16.635c.12-.11.4-.17.459-.18.059-.01.172-.042.114.132-.058.174-.212.133-.348.237-.136.103-.27.18-.306.12-.038-.062.08-.31.08-.31z" fill="#EA5404"/><path d="M16 6C10.477 6 6 10.477 6 16s4.477 10 10 10 10-4.477 10-10S21.523 6 16 6zm9.102 10c0 .521-.044 1.035-.13 1.539-.08-.16-.154-.311-.185-.381-.08-.181-1.153-.654-1.359-.726a2.7 2.7 0 00-1.1-.115c-.447.052-.582.258-1.1 0-.517-.26-.906-.453-1.035-.842-.13-.388 0-.388 0-.388s.88-.336 1.035-.453c.24-.18.737-.536.97-.97.222-.412 1.158-1.502 1.23-1.812.072-.31-.647-1.424-.712-1.876a.833.833 0 00-.048-.17A9.036 9.036 0 0125.102 16zM9.564 22.436a9.083 9.083 0 01-2.029-3.08c.078.067.164.131.26.192 1.294.817.817-.136.681-1.157-.136-1.02-.204-1.225-.204-1.77 0-.544 1.157-.612 1.838-1.225.68-.613.884-1.361 1.497-2.11.613-.748 1.404-1.312 1.104-2.075-.272-.69-.863-1.602-1.338-1.83-.327-.158-.77.008-1.52-.093A9.036 9.036 0 0116 6.898c1.4 0 2.752.315 3.975.91a1.164 1.164 0 00-.364-.033c-.648.065-1.489 0-1.489 0l-.664-.004h-.669s-.942.408-1.46.085c-.517-.324-2.43.327-2.453.68-.022.351.911 2.54.911 2.54s.115.487.453.582c.338.095.453-.13 1.294-.453s.516.165.97.453c.455.288.5.001 1.036.777.323.466.323 2.21.776 2.652.453.443.939.971 1.197 1.035.26.065 1.767.84 1.91.971.168.156.289.572.296 1.178.006.529-.317 1.355-.232 1.798.085.443.065 2.265.065 2.848 0 .115.036.187.094.223A9.034 9.034 0 0116 25.1a9.043 9.043 0 01-6.436-2.665zm12.878-.006a.83.83 0 00.016-.16c0-.712.582-.583 1.1-1.553.256-.481.672-1.136 1.026-1.676a9.071 9.071 0 01-2.142 3.389z" fill="#EA5404"/></svg>