<svg width="32" height="32" fill="none" xmlns="http://www.w3.org/2000/svg"><path d="M23.868 14.716c-2.698 0-4.914 2.1-5.113 4.753h-.73a1.708 1.708 0 00-.674-1.24l2.58-6.566h1.217a.823.823 0 00.822-.823v-.912a.824.824 0 00-.907-.819l-3.54.372a.82.82 0 00-.735.818v.543c0 .453.368.822.821.822h1.49l-2.353 5.983-6.533-5.935 1.293-3.936h1.632a.389.389 0 000-.776h-1.912a.388.388 0 00-.368.266l-.32.976H3.915a.385.385 0 00-.289.13.384.384 0 00-.095.303l.592 5.203a.388.388 0 00.385.344h4.065l-.212.645a5.108 5.108 0 00-1.232-.15c-2.828 0-5.13 2.306-5.13 5.14C2 22.693 4.302 25 7.13 25c2.829 0 5.13-2.307 5.13-5.141a5.148 5.148 0 00-3.162-4.747l.33-1 5.316 4.84a1.706 1.706 0 00.77 2.144l-.502 1.09h-1.147a.389.389 0 000 .777h2.713a.389.389 0 000-.776h-.714l.408-.887c.018 0 .034.003.052.003a1.71 1.71 0 001.576-1.055h.856C18.955 22.901 21.172 25 23.87 25c2.697 0 5.13-2.307 5.13-5.141 0-2.835-2.302-5.141-5.13-5.141l-.002-.002zm-6.305-3.876v-.542c0-.024.018-.044.042-.047l3.538-.371h.005c.012 0 .022.004.031.012.011.01.016.021.016.035v.912a.047.047 0 01-.047.047H17.61a.047.047 0 01-.046-.047v.001zm-6.077 9.018a4.365 4.365 0 01-4.356 4.364 4.365 4.365 0 010-8.73c.34 0 .67.041.989.116l-1.357 4.128a.389.389 0 00.368.509.388.388 0 00.369-.267l1.356-4.128a4.37 4.37 0 012.63 4.008zm3.708-1.545l-5.503-5.01.257-.784 5.961 5.415c-.269.069-.513.2-.716.38h.001zm-8.688-6.762v-.902H7.83v.902H6.506zm1.325.777v1.119H6.506v-1.12H7.83zm-3.296-1.679h1.196v.902H4.638l-.103-.902zm1.97-.776v-.854h1.326v.854H6.506zm2.101.776h1.14l-.295.902h-.845v-.902zm1.396-.776H8.606v-.854h1.677l-.28.854h-.001zM5.73 9.019v.854H4.447l-.098-.854h1.382zm-1.005 3.309H5.73v1.119h-.877l-.128-1.12zm3.879 1.119v-1.12h.59l-.367 1.12h-.223zm7.718 7.078a.933.933 0 010-1.868.935.935 0 010 1.868zm7.545 3.699c-2.27 0-4.14-1.752-4.337-3.977h4.323a.388.388 0 000-.776H19.53a4.364 4.364 0 014.337-3.977 4.365 4.365 0 010 8.73z" fill="#EA5404"/></svg>