<svg width="32" height="32" fill="none" xmlns="http://www.w3.org/2000/svg"><path d="M18.21 14.335c.905 0 1.64-.33 1.64-.74 0-.34-.505-.621-1.19-.71V6.348l4.641-1.982L17.761 2v10.885c-.685.088-1.188.37-1.188.71 0 .41.732.74 1.638.74z" fill="#EA5404"/><path d="M25.499 14.075c-.392-1.01-1.182-1.979-2.25-2.846-.87-.704-1.932-1.336-3.128-1.847l-.272 1.015c1.51.663 2.765 1.532 3.613 2.44.509.542.87 1.096 1.068 1.61.198.518.235.984.123 1.402a1.75 1.75 0 01-.044.141c-.057.162-.185.36-.388.58-.303.33-.764.698-1.303 1.105-.535.404-1.146.848-1.76 1.356-1.064.746-1.915 1.73-2.548 2.595-.319.436-.582.842-.785 1.173-.202.33-.348.59-.421.713-.537.905-1.27 1.527-2.173 1.86-.904.331-1.994.373-3.244.039a8.807 8.807 0 01-1.245-.44c-1.31-.572-2.329-1.335-2.935-2.145a3.398 3.398 0 01-.606-1.228 2.444 2.444 0 01.127-1.57c.133-.316.348-.605.624-.885.414-.42.96-.808 1.476-1.238.258-.216.51-.445.731-.705.214-.25.4-.535.522-.861.112-.198.198-.4.252-.6.111-.42.105-.827.054-1.208-.079-.573-.247-1.103-.342-1.633-.096-.53-.128-1.048.025-1.624.023-.084.05-.17.081-.257.138-.382.398-.707.794-.985.591-.415 1.492-.695 2.58-.767.825-.056 1.755.005 2.731.192l.269-1.002c-1.547-.304-3.007-.326-4.236-.066-.74.157-1.398.416-1.938.792-.538.374-.959.876-1.177 1.485a4.259 4.259 0 00-.106.34c-.276 1.028-.092 1.925.08 2.66.087.37.17.704.21 1.003.04.3.037.556-.028.8a1.52 1.52 0 01-.169.394l-.025.043-.017.048c-.092.257-.271.508-.528.766-.381.387-.924.771-1.456 1.217-.528.448-1.06.97-1.364 1.69a3.492 3.492 0 00-.18 2.217c.21.851.714 1.637 1.425 2.325.712.687 1.633 1.282 2.71 1.752.474.207.939.37 1.393.492 1.415.38 2.735.35 3.87-.067 1.135-.415 2.068-1.218 2.708-2.306.084-.143.22-.384.413-.698.574-.941 1.661-2.505 3.061-3.474l.018-.012.017-.015c.783-.65 1.589-1.208 2.268-1.749.34-.27.65-.537.91-.82.26-.282.476-.582.602-.931.027-.074.05-.149.07-.223.179-.668.102-1.371-.157-2.043z" fill="#EA5404"/></svg>