<svg width="32" height="32" fill="none" xmlns="http://www.w3.org/2000/svg"><g clip-path="url(#clip0_1451_538)"><path d="M5.098 28.48l.064.004.059.002c.068.001.157.004.24.01l.045.002.04.001.147-.052a2.588 2.588 0 00.077-.067l.026-.023.01-.01c.053-.347.149-.684.275-1.005l.003-.01h0c.136-.326.333-.597.527-.829.097-.115.198-.226.291-.33l.013-.013.191-.213.024-.107-.117-.147a.805.805 0 00-.167-.174l-.184-.119-.038-.216a1.31 1.31 0 01-.018-.158l-.004-.077.02-.075.012-.048.01-.033a.863.863 0 01-.176.055l-.163.031-.148-.071a1.778 1.778 0 01-.302-.18l-.257-.186.06-.313c.01-.05.023-.097.034-.132l-.209.107c-.399.205-.782.402-1.148.626a1.294 1.294 0 01-.068.046l-.083.05-.004.003c-.053.032-.097.058-.137.085l-.006.004-.004.065.4-.058c.1-.014.21-.009.246-.007h.011l.44.014.043.437c.008.086.024.173.043.283l.013.075c.024.135.05.3.055.47l.004.124-.055.11a1.21 1.21 0 01-.23.312l-.05.05a.625.625 0 00-.063.068l-.011.016-.013.015a6.856 6.856 0 00-.44.578l.228.047c.049.01.094.02.133.03l.31.934zm0 0c.04-.083.073-.163.103-.236l.216-.518-.54-.154a2.182 2.182 0 00-.061-.017l-.021-.005-.007-.002h-.001s0 0 0 0l.31.933zm-1.104-.356c0 .003 0 .002 0 0h0zm.114-2.23v-.003a.02.02 0 010 .004zm1.82-2.022c.004-.003.003-.002 0 0h0zm.907.823l-.003.001.003-.001zm.483 1.18v-.001h0zm2.122-1.898a.944.944 0 00-.438-.215l.437.215zm0 0l.048.035c.046.035.093.07.145.094m-.194-.129l.194.129m0 0c.07.009.14-.007.208-.023m-.208.023l.208-.023m0 0l.078-.022m-.078.022l.078-.022m.538-.126c.01-.028.018-.056.026-.085.017-.057.033-.114.058-.168.07-.155.335-.308.504-.315m-.588.568l.539-.045h0m-.539.045c-.182.028-.36.077-.538.126m.538-.126l-.538.126m1.126-.694l.005.118h-.148v.297l.156.085c-.021 0-.034-.004-.034-.004l.016.006.015.007m-.01-.509l.005.118h.352a2.075 2.075 0 01-.08-.036c-.088-.042-.179-.086-.277-.082zm.01.509a.35.35 0 00-.07.041m.07-.041a2.173 2.173 0 01.054.025l.068.031c.176.097.311.172.415.248 0 .003-.002.005-.003.008a1.9 1.9 0 01-.35.489 2.678 2.678 0 00-.515-.044c-.245-.005-.476.011-.7.122-.186.093-.335.24-.458.362l-.028.028m1.517-1.27a.269.269 0 01.01-.004l-1.527 1.274m1.447-1.227a.26.26 0 01.01-.027m-.01.027a.79.79 0 00-.01.033l-.008.025-.035.116-.096.291-.303.046a4.14 4.14 0 00-.479.114l-.081.022-.007.002-.007.002c-.002 0-.005 0-.007.002-.066.016-.216.053-.384.03l-.078-.01-.07-.033a1.659 1.659 0 01-.267-.171l-.023-.016-.02-.018a.438.438 0 00-.158-.088m2.033-.348a.133.133 0 00-.012.012s0-.002.003-.004a.19.19 0 00.02-.034m0 0l-2.044.374m0 0l.002-.004.01-.02.001-.002.09-.028.094-.108a.381.381 0 01-.167.11l-.006.002v-.001s0 0 0 0l-.012.004a.375.375 0 01-.053.011h-.003s0 0 0 0l-.01.002a.343.343 0 01-.072 0l-.027-.005.009.003h.003a.914.914 0 00.092.023h0a.46.46 0 01.049.013zm0 0l-.043.082-.057.112-.103.072c-.047.032-.09.066-.144.107l-.044.033c-.06.047-.133.1-.214.153m.605-.559l-.904.156.314.39a.758.758 0 01-.016.012h0m0 0a.842.842 0 01-.014.01m.015-.01l.123.068.033.227m-.17-.285l-.024.93c.128.223.258.451.448.626l.107-.192.137-.245a.285.285 0 00-.256-.006l-.01.005.013-.01c.017-.015.036-.035.068-.067l.006-.006c.02-.021.05-.052.083-.082m-.573-.953a.93.93 0 01-.084.055l-.02.012-.022.01-.04.017a3.82 3.82 0 01-.3.122l-.017.006-.017.004a.3.3 0 00.177-.433l-.246.133-.012.006-.182.098.763-.03zm.171.285a.094.094 0 01-.003-.008c0 .001.004.01.006.027l-.003-.02zm0 0a.33.33 0 00.03.051 3.134 3.134 0 00.043.066l.002.002h0c.054.084.103.17.148.248l.018.03a8.04 8.04 0 00.161.27m0 0v.001l.009-.008m-.009.008a.498.498 0 01.009-.008m0 0l.174-.179c.144-.15.297-.306.45-.454m-.624.633l.016-.015.33.377.194-.2.084-.795" stroke="#EA5404"/><mask id="a" fill="#fff"><path d="M22.419 12.814c.009-.065.017-.133-.014-.195a4.558 4.558 0 00-.484-.631.139.139 0 00.007-.094c-.04-.144-.067-.292-.098-.439-.055-.232-.083-.485-.177-.708-.038-.075-.124-.093-.2-.104-.13-.019-.26-.043-.39-.054a.302.302 0 00-.232.053c-.272.146-.36.363.002.456.027.25.066.497.05.75a2.89 2.89 0 01-.321.045h-.07c-.028-.179.082-.55-.212-.522-.216.043-.46.034-.663.114-.062.04-.075.115-.078.182-.046.447-.085.894-.114 1.342-.062.013-.124.034-.174.046-.144.053-.171.218-.172.353-.003.096-.01.216.053.296.066.083.167.1.26.135.006.098.005.195.007.293.002.101.004.203.009.304a.14.14 0 00.015.064c-.015.138-.031.275-.048.413-.01.084-.017.17-.034.252-.051.096-.11.188-.162.283-.109.205-.25.39-.373.586-.142.294-.396.514-.535.81a2.83 2.83 0 00-.178.429c-.058.063-.108.148-.16.194-.256.257-.5.545-.803.747a.143.143 0 00-.047.017h-.001a.163.163 0 00-.032.018c-.368.265-.722.55-1.108.79-.147.007-.492.125-.422-.14.067-.089.169-.157.184-.277.018-.128.051-.289-.044-.396.107-.108.209-.22.314-.33.086-.075.145-.192.088-.301-.059-.123-.14-.292-.305-.262-.178.035-.343.11-.52.155-.073.02-.18.03-.243.074a.144.144 0 00-.104.1c-.063.243-.106.49-.17.734l-.12.484c-.07.047-.136.131-.19.18-.187.213-.422.376-.611.584-.151.148-.069.363-.07.546-.01.271-.068.538-.105.806-.214.05-.45.13-.66.214-.282-.07-.556-.183-.833-.279a.13.13 0 00-.075-.04c-.508-.105-1.047-.005-1.566-.04-.35-.02-.748-.12-1.06.084a5.345 5.345 0 00-.695.476c-.373.251-.74.539-1.087.829a11.6 11.6 0 00-1.094.351c-.09.036-.238.069-.338.132a.14.14 0 00-.053 0c-.181.042-.102.242-.05.358.067.167.126.336.192.503a.141.141 0 00.104.093c.169.179.627.28.83.311.405-.037.742-.307 1.132-.407.12-.011.242.003.36-.031.434-.103.884-.086 1.326-.12a9.43 9.43 0 01.867-.33c.182-.062.363-.132.551-.174.104.025.205.063.31.09.293.07.582.159.872.243-.144.3-.284.82-.278.949.064.25.343.372.468.592.128.164.215.44.463.437.202-.007.418-.026.604-.109a.134.134 0 00.07-.139c.112-.079.124-.341.18-.452.028-.074.083-.165.08-.242.051-.044.1-.092.14-.122.181-.163.4-.27.581-.435.154-.123.171-.293.123-.473-.024-.228-.06-.464-.019-.692.203-.03.199.178.31.272a.13.13 0 00.055.096c.134.107.3.164.467.2l.006.001c.009.005.018.01.029.013.057.017.11-.005.162-.032l.14-.078c.3.113.613.196.932.227.134-.002.233-.11.325-.194l.154-.164c.124.02.184-.146.253-.234l.01-.002.106-.02c-.077.193-.356.636.032.651.142-.01.317.031.428-.079.118-.166.18-.368.277-.548.225-.406.393-.852.694-1.227.04-.04.078-.087.129-.115a.157.157 0 00.047-.041.173.173 0 00.022-.007 8.568 8.568 0 00-.086.521c-.034.192-.067.393.192.414.484.08.576-.068.813-.444.095-.14.205-.273.291-.42a.147.147 0 00.014-.111c.034-.094.056-.2.084-.262.063-.207.121-.4.202-.603.034-.1.102-.195.089-.303-.133-.292-.267-.565-.369-.875a1.833 1.833 0 01-.058-.187c.038-.12.088-.24.129-.36.097-.281.202-.545.358-.803.038-.074.116-.14.103-.23-.033-.121-.131-.214-.195-.32-.054-.064-.106-.192-.175-.276.03-.183.06-.36.115-.542.117-.053.234-.104.357-.141.191.186.394.24.482-.065.162-.388.244-.807.413-1.19a.163.163 0 00.018-.03.134.134 0 00.076-.126c-.032-.559-.026-1.119-.073-1.677-.008-.15-.017-.3-.009-.449v.001z"/></mask><path d="M22.419 12.814c.009-.065.017-.133-.014-.195a4.558 4.558 0 00-.484-.631.139.139 0 00.007-.094c-.04-.144-.067-.292-.098-.439-.055-.232-.083-.485-.177-.708-.038-.075-.124-.093-.2-.104-.13-.019-.26-.043-.39-.054a.302.302 0 00-.232.053c-.272.146-.36.363.002.456.027.25.066.497.05.75a2.89 2.89 0 01-.321.045h-.07c-.028-.179.082-.55-.212-.522-.216.043-.46.034-.663.114-.062.04-.075.115-.078.182-.046.447-.085.894-.114 1.342-.062.013-.124.034-.174.046-.144.053-.171.218-.172.353-.003.096-.01.216.053.296.066.083.167.1.26.135.006.098.005.195.007.293.002.101.004.203.009.304a.14.14 0 00.015.064c-.015.138-.031.275-.048.413-.01.084-.017.17-.034.252-.051.096-.11.188-.162.283-.109.205-.25.39-.373.586-.142.294-.396.514-.535.81a2.83 2.83 0 00-.178.429c-.058.063-.108.148-.16.194-.256.257-.5.545-.803.747a.143.143 0 00-.047.017h-.001a.163.163 0 00-.032.018c-.368.265-.722.55-1.108.79-.147.007-.492.125-.422-.14.067-.089.169-.157.184-.277.018-.128.051-.289-.044-.396.107-.108.209-.22.314-.33.086-.075.145-.192.088-.301-.059-.123-.14-.292-.305-.262-.178.035-.343.11-.52.155-.073.02-.18.03-.243.074a.144.144 0 00-.104.1c-.063.243-.106.49-.17.734l-.12.484c-.07.047-.136.131-.19.18-.187.213-.422.376-.611.584-.151.148-.069.363-.07.546-.01.271-.068.538-.105.806-.214.05-.45.13-.66.214-.282-.07-.556-.183-.833-.279a.13.13 0 00-.075-.04c-.508-.105-1.047-.005-1.566-.04-.35-.02-.748-.12-1.06.084a5.345 5.345 0 00-.695.476c-.373.251-.74.539-1.087.829a11.6 11.6 0 00-1.094.351c-.09.036-.238.069-.338.132a.14.14 0 00-.053 0c-.181.042-.102.242-.05.358.067.167.126.336.192.503a.141.141 0 00.104.093c.169.179.627.28.83.311.405-.037.742-.307 1.132-.407.12-.011.242.003.36-.031.434-.103.884-.086 1.326-.12a9.43 9.43 0 01.867-.33c.182-.062.363-.132.551-.174.104.025.205.063.31.09.293.07.582.159.872.243-.144.3-.284.82-.278.949.064.25.343.372.468.592.128.164.215.44.463.437.202-.007.418-.026.604-.109a.134.134 0 00.07-.139c.112-.079.124-.341.18-.452.028-.074.083-.165.08-.242.051-.044.1-.092.14-.122.181-.163.4-.27.581-.435.154-.123.171-.293.123-.473-.024-.228-.06-.464-.019-.692.203-.03.199.178.31.272a.13.13 0 00.055.096c.134.107.3.164.467.2l.006.001c.009.005.018.01.029.013.057.017.11-.005.162-.032l.14-.078c.3.113.613.196.932.227.134-.002.233-.11.325-.194l.154-.164c.124.02.184-.146.253-.234l.01-.002.106-.02c-.077.193-.356.636.032.651.142-.01.317.031.428-.079.118-.166.18-.368.277-.548.225-.406.393-.852.694-1.227.04-.04.078-.087.129-.115a.157.157 0 00.047-.041.173.173 0 00.022-.007 8.568 8.568 0 00-.086.521c-.034.192-.067.393.192.414.484.08.576-.068.813-.444.095-.14.205-.273.291-.42a.147.147 0 00.014-.111c.034-.094.056-.2.084-.262.063-.207.121-.4.202-.603.034-.1.102-.195.089-.303-.133-.292-.267-.565-.369-.875a1.833 1.833 0 01-.058-.187c.038-.12.088-.24.129-.36.097-.281.202-.545.358-.803.038-.074.116-.14.103-.23-.033-.121-.131-.214-.195-.32-.054-.064-.106-.192-.175-.276.03-.183.06-.36.115-.542.117-.053.234-.104.357-.141.191.186.394.24.482-.065.162-.388.244-.807.413-1.19a.163.163 0 00.018-.03.134.134 0 00.076-.126c-.032-.559-.026-1.119-.073-1.677-.008-.15-.017-.3-.009-.449v.001z" stroke="#EA5404" stroke-width="2" mask="url(#a)"/><path d="M16.593 16.477l-.243-.163.215.194m.028-.03l.277-.38a.383.383 0 00.081.029m-.358.35l-.028.031m.028-.03l.049.032m-.077-.002a.627.627 0 01-.04.038.18.18 0 01.055-.024m-.015-.014l.014.014m0 0l.057.051m-.056-.051a.295.295 0 01.062-.012m-.006.063l-.24.122.264-.1m-.024-.022l.024.021m-.024-.021l.057-.029m-.034.05l.061.055a1.67 1.67 0 00.087-.107m-.147.052l.068-.026m.08-.026l.004.003-.242.438.276-.417a.233.233 0 01.07.07l-.001-.003a1.096 1.096 0 01-.023-.053v-.002l-.038-.085m-.047.05l.004-.006.001-.001.051-.02a1.38 1.38 0 00-.009-.023m-.047.05a.084.084 0 00-.005-.003l-.01.004m.062-.05l-.003-.01m.003.01l-.004-.009s0 0 0 0m0 0l.007-.009.043-.057.04-.053m-.09.119l-.01-.027-.005-.011-.013-.031-.011-.03s0 0 0 0h0c0 .002.007.028.003.068a.293.293 0 01-.004.03l-.066.034m.196-.152l.229.236-.195-.278m-.034.042l.034-.042m-.034.042l.034-.042m0 0a3.418 3.418 0 01.116-.138c.055-.06.082-.077.081-.078l-.01.004a.32.32 0 01-.201.017l-.003-.001m0 0c.009-.015.015-.021.013-.02a.267.267 0 01-.019.019m.006 0a.224.224 0 00-.014.029s0 0 0 0l-.015-.009.001-.001a.154.154 0 00.022-.02m.006.002l-.006-.001m-.16.417a.43.43 0 00.003-.008.287.287 0 00-.05-.018m.047.026l-.063.024m.063-.024a.3.3 0 01-.026.049l-.037-.025m.015-.05l-.05.026m.05-.026a.321.321 0 00-.101-.008m.05.034l-.05-.034m.05.034l.036.024" stroke="#EA5404"/><path d="M27.037 6.563l.017.003h.005a.635.635 0 01-.022-.003z" fill="#EA5404"/><path d="M26.21 6.846a.75.75 0 01-.16-.115.66.66 0 01-.204-.515.871.871 0 01.061-.275 8.174 8.174 0 01-.123.02s0 0 0 0h-.002l-.031.01-.006.002h0l-.172.053h-.003 0l-.019.006h-.004a1.09 1.09 0 01-.283.052h-.015 0-.001 0-.001 0-.001 0-.001 0-.001 0-.001 0-.004a.955.955 0 01-.187-.02l-.004-.001h0-.002l-.043-.01c-.024-.005-.049-.01-.074-.017-.254-.057-.532-.12-.843-.335h0a6.658 6.658 0 01-.785-.61h0c-.051-.048-.103-.103-.143-.145l-.032-.034.36-.347m2.723 2.281l-4.962-1.5.488.11s0 0 0 0c.014-.061.025-.12.034-.174l.008-.043v-.003a5.99 5.99 0 00.062-.664l.004-.08-.02-.076a21.829 21.829 0 00-.07-.25c-.028-.143-.068-.282-.101-.397a3.9 3.9 0 01-.068-.254 1.525 1.525 0 01.101-.015 2.346 2.346 0 01.1.107l.005.005c.03.034.074.082.118.125.043.042.084.086.135.14l.02.021c.056.06.123.131.198.2l.34-.367m3.608 3.115a1.404 1.404 0 01-.241.073h0a2.141 2.141 0 01-.374.03h-.033a2.45 2.45 0 00-.614.078l-.024.007-.02.005-.194.053-.104.172a3.947 3.947 0 01-.048.078h0l-.003.005c-.174.282-.36.56-.552.841l-.073.106-.004.041a12.556 12.556 0 00-.382.606l-.048.085-.01.02a3.63 3.63 0 01-.063.109l2.787-2.309zm-2.724-2.281l-.359.348a2.382 2.382 0 00-.12-.116 4.887 4.887 0 01-.198-.165 3.456 3.456 0 01-.21-.206 8.333 8.333 0 00-.338-.329l.34-.366m.885.834c-.049-.051-.1-.1-.153-.147l1.04.872a6.195 6.195 0 01-.728-.563 3.203 3.203 0 01-.116-.118l-.043-.044zM22.6 3.73a3.816 3.816 0 01-.193-.196c-.05-.053-.099-.106-.15-.156l.883.88a3.038 3.038 0 01-.181-.179 8.75 8.75 0 00-.359-.35zm.585 5.265l.09.06a.746.746 0 01.01.008l.003.001.02.014.09.06-.213-.143zm0 0h0a9.08 9.08 0 01-.255-.177 30.393 30.393 0 00-.112-.078 5.18 5.18 0 00-.468-.34l-.01-.005a3.155 3.155 0 00-.237-.141h0a2.472 2.472 0 00-.093-.046 1.126 1.126 0 00-.108-.052l-.106-.097-.25.051a6.081 6.081 0 00-.432.108l-.085.03-.004.002-.044.016a1.672 1.672 0 00-.121-.138l-.009-.009-.06-.063-.243-.293c.04-.014.083-.027.127-.04a.855.855 0 00.43-.261 1.007 1.007 0 00.18-.383l1.9 1.916zm3.042-3.633c-.11.03-.22.053-.333.073l.07.381.017-.033c.018-.034.038-.067.053-.093l.006-.01c.017-.03.03-.05.039-.07.014-.026.017-.037.017-.037l-.001.006s0 0 0 0a.195.195 0 00.015.091c.02.053.056.1.103.132a.25.25 0 00.108.043.11.11 0 00.04-.002l-.066-.236h0l-.068-.245zm0 0l.069.245h0l.066.236a3.283 3.283 0 01-.186.046m.05-.527l-.05.527m0 0l.244.133-.244-.133h0zm-6.412 3.228a.795.795 0 01.028-.063c.017.046.034.087.05.123l.075.176-.01.007-.133.1a1.74 1.74 0 01-.029-.207l.007-.01.007-.113a.387.387 0 01.005-.013zm.788.568l-.001-.003a.012.012 0 01.001.003zm-.6.584v-.003.003zm3.207-1.29s0 0 0 0 0 0 0 0h0zm4.176-3.485l.004-.001h-.004z" stroke="#EA5404"/></g><defs><clipPath id="clip0_1451_538"><path fill="#fff" transform="translate(3.5 3)" d="M0 0h25v26H0z"/></clipPath></defs></svg>