<svg width="32" height="32" fill="none" xmlns="http://www.w3.org/2000/svg"><path d="M25.495 11.146h-6.529c-.552 0-1.004.452-1.004 1.004v4.609l-.006 3.129c0 .025.003.05.006.074v1.213h-1.404c-1.606 0-2.947.661-3.877 1.912-.806 1.083-1.264 2.567-1.288 4.18a.279.279 0 00.278.283h13.825c.552 0 1.004-.452 1.004-1.004V12.15c0-.552-.452-1.004-1.004-1.004zm-5.388 15.31L16.81 22.27h1.157l.021.016 5.958 4.17h-3.838zm-1.183-.015h-3.27l-1.479-3.36a3.41 3.41 0 011.528-.729l3.22 4.089zm.132-11.37l6.349-.636v2.93l-6.35-1.045v-1.25zm.962 7.597l5.387.904v2.866l-5.387-3.77zm-.962-1.024v-1.202l6.349.29v1.977l-6.35-1.066zm0-2.256v-2.001l6.349 1.044v1.246l-6.35-.29zm6.349-7.148v1.137l-6.35.635V12.24h6.35zM13.497 23.826l1.157 2.63h-2.11c.125-1.013.454-1.924.953-2.63zM6 25.409a.298.298 0 01.356-.174l1.57.477a.298.298 0 01.2.342l-.285 1.294a.247.247 0 01-.317.185l-1.845-.56a.247.247 0 01-.161-.33l.481-1.234zM17.48 7.676a.812.812 0 00-.664-.936 30.516 30.516 0 01-7.314-2.22.812.812 0 00-.663 1.482c.218.098.438.193.659.286l-2.21 7.285a.775.775 0 00.029.53l1.471 3.426-2.263 7.459 1.392.422 2.263-7.459 3.127-2.03c.153-.1.266-.25.32-.425l2.21-7.285c.235.045.47.088.706.128a.812.812 0 00.937-.663zM13.633 11.8l-4.2-1.313L10.58 6.74l4.22 1.28-1.167 3.78zm-3.937 4.987l-1.313-3.15.788-2.362 4.136 1.312-.724 2.363-2.887 1.837z" fill="#EA5404"/></svg>