<svg width="17" height="18" viewBox="0 0 17 18" fill="none" xmlns="http://www.w3.org/2000/svg">
<path d="M15.6687 6.99767C15.891 7.71389 16.0027 8.46016 16 9.21045C15.9993 10.8912 15.4407 12.5236 14.4126 13.8486C13.3845 15.1736 11.946 16.1154 10.3252 16.5244C8.70438 16.9334 6.9942 16.7863 5.466 16.1064C3.9378 15.4265 2.67912 14.2527 1.88969 12.7713C1.10027 11.29 0.825315 9.58587 1.10846 7.92942C1.39161 6.27298 2.21664 4.75909 3.45263 3.62797C4.68863 2.49686 6.26479 1.81332 7.93101 1.68581C9.59723 1.5583 11.2581 1.99413 12.65 2.92415" stroke="#EA5404" stroke-width="2" stroke-linejoin="round"/>
<path d="M6 8.71588L8.23912 10.7145L15 4.67969" stroke="#EA5404" stroke-width="2" stroke-miterlimit="10" stroke-linecap="square"/>
</svg>
