<svg width="56" height="56" fill="none" xmlns="http://www.w3.org/2000/svg"><path d="M0 0h56v56H0V0z" fill="#EA5404"/><path fill="#fff" d="M19.648 9.883l18.87 18.87-1.435 1.434-18.87-18.87z"/><path fill="#fff" d="M18 28.82L36.87 9.95l1.434 1.435-18.87 18.87zm22.036 18.798c-.96 0-1.668-.18-2.124-.54-.456-.368-.684-.816-.684-1.344 0-.344.084-.636.252-.876.168-.24.388-.424.66-.552.272-.136.564-.204.876-.204.592 0 1.068.184 1.428.552.368.368.604.824.708 1.368.296-.136.536-.344.72-.624.192-.28.288-.616.288-1.008 0-.336-.08-.636-.24-.9a1.67 1.67 0 00-.684-.624 2.042 2.042 0 00-1.008-.24c-.536 0-1.004.064-1.404.192a3.043 3.043 0 00-1.068.612c-.144.128-.336.292-.576.492-.232.2-.452.38-.66.54l-.984-1.056c.36-.208.744-.472 1.152-.792.408-.32.82-.676 1.236-1.068.416-.392.812-.796 1.188-1.212.376-.424.712-.84 1.008-1.248-.344.08-.72.156-1.128.228-.4.072-.788.132-1.164.18-.368.048-.68.08-.936.096l-.264-1.368c.216.016.484.016.804 0 .328-.024.68-.052 1.056-.084.376-.04.74-.088 1.092-.144.36-.056.68-.112.96-.168.288-.064.5-.128.636-.192l1.08.72a9.7 9.7 0 01-1.128 1.692c-.472.584-.98 1.148-1.524 1.692.136-.064.288-.112.456-.144.168-.04.332-.06.492-.06.632 0 1.18.12 1.644.36.464.24.824.576 1.08 1.008.264.424.396.92.396 1.488 0 .6-.152 1.144-.456 1.632a3.17 3.17 0 01-1.26 1.164c-.544.288-1.184.432-1.92.432zm-.156-1.32c-.04-.304-.136-.548-.288-.732a.694.694 0 00-.576-.276.536.536 0 00-.324.096c-.088.064-.132.16-.132.288 0 .168.088.308.264.42.184.112.488.176.912.192a.227.227 0 00.072.012h.072zm-11.328 1.308c-.64 0-1.16-.064-1.56-.192-.392-.128-.68-.344-.864-.648-.176-.304-.264-.716-.264-1.236v-7.932l1.572.096a11.68 11.68 0 00-.048.684c-.016.32-.028.664-.036 1.032l-.024.972v4.86c0 .352.096.592.288.72.2.128.544.192 1.032.192.784 0 1.524-.148 2.22-.444a6.842 6.842 0 001.824-1.104c.008.152.024.336.048.552.032.208.064.408.096.6l.096.432a7.687 7.687 0 01-2.016 1.02 7.153 7.153 0 01-2.364.396zm2.604-7.068a5.152 5.152 0 00-.636-.78 7.185 7.185 0 00-.696-.66l.636-.552c.12.096.268.232.444.408.184.176.36.36.528.552.168.184.3.34.396.468l-.672.564zm1.056-.948a6.366 6.366 0 00-.648-.768 6.081 6.081 0 00-.696-.648l.624-.552c.128.088.28.22.456.396.176.176.348.356.516.54a5.4 5.4 0 01.408.468l-.66.564zm-11.268 8.508a2.916 2.916 0 00-.072-.468 8.876 8.876 0 00-.108-.492c-.04-.168-.084-.3-.132-.396h.816c.16 0 .272-.028.336-.084.072-.056.108-.156.108-.3v-4.884h-3.36v-3.996h4.716v9.396c0 .416-.112.724-.336.924-.216.2-.572.3-1.068.3h-.9zM13 48.11V37.478h4.692v3.996h-3.336v6.636H13zm4.308-.18a3.668 3.668 0 00-.06-.432 8.876 8.876 0 00-.108-.492c-.04-.168-.084-.3-.132-.396h.672c.16 0 .272-.024.336-.072.072-.048.108-.148.108-.3V44.87c-.376.448-.816.892-1.32 1.332-.496.44-.988.8-1.476 1.08a1.952 1.952 0 00-.264-.312 5.239 5.239 0 00-.36-.372 1.678 1.678 0 00-.324-.264c.288-.152.6-.352.936-.6.344-.248.68-.52 1.008-.816.336-.296.632-.584.888-.864h-2.316v-1.188h3.228v-1.104h1.332v1.104H21.4v1.188h-1.944v2.7c0 .416-.12.716-.36.9-.232.184-.584.276-1.056.276h-.732zm2.532-7.476h2.052v-.528H19.84v.528zm-5.484 0h2.028v-.528h-2.028v.528zm5.484-1.44h2.052v-.516H19.84v.516zm-5.484 0h2.028v-.516h-2.028v.516z"/></svg>