<svg width="32" height="32" fill="none" xmlns="http://www.w3.org/2000/svg"><path d="M26.711 11.243a3.579 3.579 0 00-1.291-1.568 3.555 3.555 0 00-1.994-.61H20.41v-.812a3.15 3.15 0 00-1.39-2.615 3.145 3.145 0 00-1.765-.54h-2.51a3.151 3.151 0 00-3.155 3.155v.812H8.574a3.56 3.56 0 00-2.956 1.572 3.555 3.555 0 00-.61 1.995v10.703a3.556 3.556 0 001.572 2.957 3.56 3.56 0 001.994.61h14.852a3.554 3.554 0 002.956-1.572c.385-.568.61-1.259.61-1.995V12.632c0-.49-.1-.962-.28-1.389zm-13.514-2.99a1.54 1.54 0 01.683-1.284c.248-.166.542-.263.865-.263h2.51a1.536 1.536 0 011.284.683c.167.248.263.54.263.864v.812h-5.605v-.812zm12.187 15.082a1.947 1.947 0 01-.864 1.625 1.948 1.948 0 01-1.095.334H8.575a1.966 1.966 0 01-1.959-1.959V15.49h18.768v7.846zm0-9.472H6.616v-1.231a1.951 1.951 0 01.864-1.625 1.945 1.945 0 011.094-.334h14.852a1.948 1.948 0 011.624.864c.211.313.334.686.334 1.095v1.23z" fill="#EA5404"/><path d="M14.843 23.825h2.495v-2.328h2.328v-2.495h-2.328v-2.328h-2.495v2.328h-2.328v2.495h2.328v2.328z" fill="#EA5404"/></svg>