<svg width="33" height="32" fill="none" xmlns="http://www.w3.org/2000/svg"><path d="M5.993 10.138s-1.139-.241-1.663.306c-.523.548-1.58 1.225-2.038 1.225-.458 0-.381 1.377.26 1.554.64.178 2.171-.036 2.325.129.154.165 1.116 1.025 1.116 2.234s.757 2.51.757 2.51l.24 4.232-.889.41.165.79h1.828s.57-4.184.31-5.15c0 0 2.016.048 2.918-.512a1.541 1.541 0 011.611-.101s.556 2.038 1.643 1.937l.233 2.55-.83.51.022.659h1.947v-5.203l.063-1.445a2.592 2.592 0 00-.33-1.395 2.34 2.34 0 00-2.05-1.2c-1.446 0-3.926.187-4.774-.41-1.358-.964-1.617-3.63-2.864-3.63z" stroke="#EA5404" stroke-width=".6" stroke-linecap="round" stroke-linejoin="round"/><path d="M5.381 10.087s-.854 2.513.356 2.859c1.21.346 1.036-2.378 1.036-2.378m9.292 6.126s.499 2.7 2.517 2.81m5.175-1.368s-.75-.042-1.687 1.448c-.938 1.491 1.453 2.85 1.453 2.85-1.094-.366-2.098.413-2.098.413v.93h-2.067v-.654l.794-.4v-4.547s-.189 0-.473-1.736c-.285-1.737.473-2.605.473-3.146 0-.54-1.123-.235-1.462-.606-.338-.37.075-.697.339-1.51a2.45 2.45 0 01.946-1.232l-.102-1.68s1.103-.41 1.103 1.268c0 0 1.573.163 1.672 1.736.099 1.572.725 3.276 1.834 3.931 1.108.655 3.047 3.725 2.696 5.815-.35 2.09-.776 2.762-.776 2.762h-4.968m9.146-5.518s1.177-2.57-.41-2.827c-1.586-.257-2.114 1.114-1.875 2.2.24 1.087 1.01 4.425.361 5.196-.649.771-1.985.95-1.985.95" stroke="#EA5404" stroke-width=".6" stroke-linecap="round" stroke-linejoin="round"/></svg>