<svg width="23" height="15" fill="none" xmlns="http://www.w3.org/2000/svg"><g clip-path="url(#clip0_9_15791)" fill="#6B9E13"><path d="M18.627 5.273H2.332c-1.288 0-2.332 1-2.332 2.23 0 1.232 1.045 2.231 2.332 2.231h16.295c1.289 0 2.332-.999 2.332-2.23 0-1.232-1.044-2.23-2.332-2.23z"/><path d="M12.97 0c-.59 0-1.177.24-1.588.705a1.93 1.93 0 00.247 2.802l4.932 3.986-4.949 4a1.93 1.93 0 00-.246 2.802c.74.838 2.052.944 2.93.236l8.707-7.037L14.312.47A2.126 2.126 0 0012.97 0z"/></g><defs><clipPath id="clip0_9_15791"><path fill="#fff" transform="matrix(1 0 0 -1 0 15)" d="M0 0h23v15H0z"/></clipPath></defs></svg>