<svg width="18" height="13" fill="none" xmlns="http://www.w3.org/2000/svg"><g clip-path="url(#clip0_1703_562)"><path fill-rule="evenodd" clip-rule="evenodd" d="M8.91.611A1.588 1.588 0 0110.152 0c.37 0 .744.134 1.049.407l6.802 6.088-6.815 6.098c-.687.614-1.713.523-2.293-.204-.58-.728-.493-1.815.193-2.429l1.702-1.523H1.825C.817 8.437 0 7.571 0 6.504c0-1.067.817-1.933 1.825-1.933h8.988L9.103 3.04c-.688-.615-.774-1.702-.194-2.429z" fill="#EA5404"/></g><defs><clipPath id="clip0_1703_562"><path fill="#fff" transform="matrix(1 0 0 -1 0 13)" d="M0 0h18v13H0z"/></clipPath></defs></svg>