<svg width="23" height="16" fill="none" xmlns="http://www.w3.org/2000/svg"><g clip-path="url(#clip0_2122_2015)"><path fill-rule="evenodd" clip-rule="evenodd" d="M11.382 1.424A2.115 2.115 0 0112.97.719c.473 0 .95.154 1.34.47l8.692 7.024-8.708 7.036c-.877.71-2.188.603-2.93-.236a1.93 1.93 0 01.247-2.802l2.176-1.758H2.332C1.045 10.453 0 9.454 0 8.223 0 6.99 1.044 5.992 2.332 5.992h11.482l-2.185-1.766a1.93 1.93 0 01-.247-2.802z" fill="#000"/></g><defs><clipPath id="clip0_2122_2015"><path fill="#fff" transform="matrix(1 0 0 -1 0 15.719)" d="M0 0h23v15H0z"/></clipPath></defs></svg>