<svg width="32" height="32" fill="none" xmlns="http://www.w3.org/2000/svg"><path d="M18.017 16.76v0-.001 0-4.609c0-.522.427-.949.95-.949h6.528c.523 0 .95.427.95.95v14.395a.952.952 0 01-.95.949H11.672a.222.222 0 01-.159-.067h0a.224.224 0 01-.064-.16h0c.024-1.603.48-3.076 1.277-4.148l-.044-.033.044.033c.92-1.236 2.244-1.89 3.833-1.89h1.458v-1.268h0v-.007a.503.503 0 01-.006-.067s0 0 0 0l.006-3.129zm-1.208 5.454h-.113l.07.09 3.286 4.17v.037h4.068l-.143-.1-5.958-4.17s0 0 0 0l-.01-.008a.314.314 0 00-.01-.007l-.014-.011h-1.176zm2.115 4.282h.113l-.07-.09-3.221-4.087-.021-.027-.033.007a3.464 3.464 0 00-1.552.74l-.032.027.017.038 1.478 3.359.014.033h3.306zm.126-11.48l-.05.005v1.346l.047.008 6.349 1.044.064.01v-3.054l-.06.006-6.35.635zm.977 7.598l-.04.1 5.386 3.77.087.06v-3.018l-.046-.008-5.387-.904zm-.969-2.227l-.057-.003v1.259h.055l-.01.055 6.35 1.065.064.011V20.68l-.053-.002-6.349-.29zm-.057-1v.053l.052.003 6.35.29.057.002v-1.351l-.046-.007-6.35-1.044-.063-.01v2.064zm6.459-7.147v-.055H19v1.888l.06-.006 6.35-.635.049-.005V12.24zM13.547 23.803l-.039-.088-.056.079c-.505.715-.836 1.634-.963 2.654l-.008.062h2.258l-.035-.077-1.157-2.63z" fill="#EA5404" stroke="#fff" stroke-width=".11"/><path d="M6 25.409a.298.298 0 01.356-.174l1.57.477a.298.298 0 01.2.342l-.285 1.294a.247.247 0 01-.317.185l-1.845-.56a.247.247 0 01-.161-.33l.481-1.234zM17.48 7.676a.812.812 0 00-.664-.936 30.516 30.516 0 01-7.314-2.22.812.812 0 00-.663 1.482c.218.098.438.193.659.286l-2.21 7.285a.775.775 0 00.029.53l1.471 3.426-2.263 7.459 1.392.422 2.263-7.459 3.127-2.03c.153-.1.266-.25.32-.425l2.21-7.285c.235.045.47.088.706.128a.812.812 0 00.937-.663zM13.633 11.8l-4.2-1.313L10.58 6.74l4.22 1.28-1.167 3.78zm-3.937 4.987l-1.313-3.15.788-2.362 4.136 1.312-.724 2.363-2.887 1.837z" fill="#EA5404"/></svg>