<svg width="32" height="32" fill="none" xmlns="http://www.w3.org/2000/svg"><path d="M5.71 10.7a3.449 3.449 0 012.864-1.523h3.127v-.924c0-.628.193-1.217.52-1.702h0A3.05 3.05 0 0113.56 5.45h0c.364-.155.767-.24 1.185-.24h2.51c.628 0 1.218.192 1.702.52h0c.486.328.87.791 1.102 1.338h0c.154.365.24.767.24 1.185v.924h3.126c.712 0 1.381.218 1.931.59.551.373.988.899 1.251 1.52h0c.176.413.272.87.272 1.345v10.703a3.44 3.44 0 01-.59 1.932h0a3.464 3.464 0 01-1.52 1.251h0c-.413.175-.87.272-1.344.272h0H8.574h0a3.441 3.441 0 01-1.931-.59h0a3.464 3.464 0 01-1.251-1.52h0a3.445 3.445 0 01-.272-1.345V12.632h0c0-.713.218-1.382.59-1.932zm0 0l-.092-.063m.092.063l-.092-.063m0 0a3.56 3.56 0 012.957-1.572h2.903m-5.86 1.572a3.555 3.555 0 00-.61 1.995l6.47-3.567m0 0h.112v-.811a3.148 3.148 0 011.926-2.907l-2.038 3.718zm13.336 17.556c-.427.181-.898.28-1.388.28H8.574a3.553 3.553 0 01-1.994-.61 3.576 3.576 0 01-1.291-1.567l19.525 1.897zm0 0a3.576 3.576 0 001.568-1.291l-1.568 1.291zM13.216 7.607h0a1.65 1.65 0 00-.13.646v.924h5.828v-.924c0-.346-.104-.66-.283-.927h0a1.666 1.666 0 00-1.376-.732h-2.51 0c-.346 0-.661.104-.927.283h0a1.67 1.67 0 00-.602.73zm11.366 17.446h0a2.079 2.079 0 00.914-1.718v-7.958H6.504v7.958c0 .432.13.826.353 1.157h0a2.078 2.078 0 001.717.914h14.851c.432 0 .826-.13 1.157-.353zm.802-11.079h.112v-1.342 0c0-.432-.13-.826-.353-1.157h0a2.08 2.08 0 00-1.717-.914h0H8.574h0c-.43 0-.825.13-1.156.353h0a2.079 2.079 0 00-.914 1.717v1.343h18.88z" fill="#EA5404" stroke="#fff" stroke-width=".223"/><path d="M17.338 21.301h-.196v2.329H15.04v-2.329h-2.33v-2.104h2.329V16.87h2.103v2.328h2.329v2.104h-2.133z" fill="#EA5404" stroke="#fff" stroke-width=".391"/></svg>