<svg width="37" height="43" fill="none" xmlns="http://www.w3.org/2000/svg"><path d="M36.075 39.08l-2.405-6.383a6.743 6.743 0 00-3.449-3.737.735.735 0 10-.626 1.33 5.28 5.28 0 012.699 2.926l2.406 6.386a.739.739 0 01-.688.995h-4.308v-4.31a.735.735 0 00-1.47 0v4.31H8.744v-4.31a.735.735 0 00-1.471 0v4.31H2.966a.737.737 0 01-.687-.998l2.403-6.382a5.302 5.302 0 013.289-3.166l4.712-1.575.974 5.657a.74.74 0 001.207.43l2.89-2.512v4.235a.735.735 0 001.47 0v-4.235l2.89 2.513a.741.741 0 001.208-.437l.927-5.695 2.65.904a.735.735 0 00.474-1.391L24.08 26.82l-1.36-1.48v-1.66c5.074-2.96 5.175-8.37 4.758-11.906-1.086-9.307-10.93-9.37-14.844-6.204a.736.736 0 00.917 1.15c3.829-2.994 12.434-2.172 12.59 6.374-1.253 1.006-3.87.74-4.834.537-3.434-.688-5.336-5.187-5.355-5.232a.74.74 0 00-1.405.159c-.572 3.406-2.598 4.249-3.703 4.454a10.552 10.552 0 011.038-4.251.735.735 0 00-1.3-.687 10.39 10.39 0 00-1.074 3.653 15.401 15.401 0 00.129 5.348 9.419 9.419 0 004.466 6.511v1.767l-1.272 1.522-5.325 1.78a6.769 6.769 0 00-4.198 4.041l-2.404 6.38a2.22 2.22 0 002.063 2.99h31.046a2.22 2.22 0 002.063-2.987zm-17.6-9.876l-2.902-3.824v-1.087c.938.356 1.918.591 2.915.7a12.013 12.013 0 002.76-.64v1.033l-2.773 3.818zm4.405-1.515l-.797 4.899-2.604-2.264 2.57-3.539.83.904zm-11.26-9.116a20.467 20.467 0 004.518 2.012 1.98 1.98 0 001.843 1.27h1.207a1.98 1.98 0 100-3.963h-1.207a1.98 1.98 0 00-1.804 1.172 24.21 24.21 0 01-5.156-2.58 13.436 13.436 0 01-.207-1.992 5.767 5.767 0 004.679-3.822c1.48 2.45 3.942 4.776 7.785 4.621a7.357 7.357 0 002.873-.515c-.124 2.563-.98 6.029-4.397 7.76-1.024.511-2.13.842-3.266.98-3.105-.399-5.694-1.986-6.869-4.943zm5.85 1.3a.51.51 0 01.51-.51h1.208a.51.51 0 010 1.02h-1.207a.51.51 0 01-.51-.51zm-2.663 6.93l2.68 3.53-2.603 2.263-.84-4.88.763-.913z" fill="#fff"/><path d="M5.848 19.152H7.89a.735.735 0 00.736-.735v-6.801c.54-12.287 19.197-12.285 19.736 0v6.801a.736.736 0 00.735.735h2.042a2.148 2.148 0 002.145-2.145v-3.982a2.148 2.148 0 00-2.145-2.145h-1.346c-1.399-13.258-21.201-13.256-22.599 0H5.848a2.148 2.148 0 00-2.145 2.145v3.982a2.147 2.147 0 002.145 2.145zm23.984-6.8h1.306a.675.675 0 01.674.673v3.982a.675.675 0 01-.674.675h-1.306v-5.33zm-24.658.673a.675.675 0 01.674-.674h1.306v5.33H5.848a.675.675 0 01-.674-.674v-3.982z" fill="#fff"/></svg>