<svg width="32" height="35" fill="none" xmlns="http://www.w3.org/2000/svg"><path d="M19.889 23.298h0c.373.112.841.416 1.337.827.5.414 1.043.948 1.565 1.538 1.04 1.177 2.013 2.596 2.397 3.746h0c.282.845.263 1.56-.113 2.088-.721 1.016-1.918 1.754-3.093 2.257-1.177.503-2.352.777-3.052.852h0a1.198 1.198 0 01-.132.006m1.091-11.314L6.228 3.207c-1.223.318-2.36 1.213-3.26 2.167-.901.955-1.581 1.988-1.885 2.61h0c-.078.16-.13.392-.163.593a6.397 6.397 0 00-.06.484H.858v.031c-.153 4.575 1.668 10.054 4.984 15.037h0c3.337 5.007 7.673 8.766 11.916 10.296h0l.005.002.021.006h0l.004.002c.058.016.619.177 1.009.177m1.091-11.314a2.964 2.964 0 00-.856-.126l.856.126zm-1.091 11.314s0 0 0 0v-.15.15s0 0 0 0zm-8.704-13.421h0c1.367 2.053 3.181 3.672 5.105 4.56.017.008.046.01.086-.009a.27.27 0 00.113-.11c.627-1.12 1.954-2.46 3.635-2.46l-8.939-1.981zm0 0c-1.36-2.042-2.164-4.352-2.27-6.498h0m2.27 6.498l-2.27-6.498m0 0c-.001-.024.009-.052.042-.083a.27.27 0 01.138-.062c1.674-.241 3.608-1.393 3.786-3.399h0m-3.966 3.544l3.966-3.544m0 0c.03-.336-.05-.812-.204-1.353a13.836 13.836 0 00-.675-1.815c-.574-1.285-1.37-2.652-2.204-3.584h0m3.083 6.752L8.707 4.397m0 0c-.85-.949-1.7-1.394-2.48-1.19l2.48 1.19zm-6.68 4.06h-.001a.55.55 0 00-.027.089 5.398 5.398 0 00-.09.596c-.142 4.334 1.604 9.582 4.805 14.393 3.216 4.834 7.367 8.43 11.38 9.882.1.029.247.066.388.094.15.03.275.045.34.038.588-.062 1.643-.307 2.703-.752 1.063-.447 2.107-1.085 2.7-1.92.087-.122.118-.298.104-.507a2.538 2.538 0 00-.133-.617h0c-.354-1.06-1.276-2.353-2.239-3.422a14.606 14.606 0 00-1.387-1.363 6.302 6.302 0 00-.574-.437 1.715 1.715 0 00-.406-.212l.044-.143-.044.143a1.926 1.926 0 00-.557-.082h0c-.557 0-1.1.234-1.578.596a4.409 4.409 0 00-1.145 1.325 1.273 1.273 0 01-.45.479 1.25 1.25 0 01-.628.186h-.003c-.16 0-.318-.035-.463-.102-2.105-.973-4.07-2.726-5.539-4.933-1.46-2.196-2.334-4.695-2.448-7.04l-4.753-6.29zm0 0c.293-.605.924-1.537 1.73-2.382.808-.848 1.774-1.588 2.733-1.837l-.037-.145.037.145a.468.468 0 01.119-.015h0M2.027 8.457L6.61 4.223m0 0c.15 0 .344.067.575.218.229.15.482.376.748.672h0m-1.323-.89l1.323.89m0 0c.766.856 1.493 2.115 2.018 3.284M7.933 5.114L9.95 8.397m0 0c.262.583.473 1.14.612 1.609m-.612-1.61l.612 1.61m0 0c.141.475.204.84.185 1.05m-.185-1.05l.185 1.05m0 0c-.058.66-.432 1.218-.973 1.64a4.147 4.147 0 01-1.917.801c-.639.092-1.11.625-1.08 1.251l3.97-3.692z" fill="#EA5404" stroke="#EA5404" stroke-width=".3"/><path d="M17.292 9.91l-.02.098c.642.124 1.256.436 1.799.917.543.481 1.001 1.12 1.339 1.87.337.75.546 1.592.608 2.464a7.73 7.73 0 01-.245 2.576.381.381 0 00.005.219c.023.07.068.133.133.169h.001l.291.156s0 0 0 0a.22.22 0 00.218-.003l-.05-.086.05.086a.262.262 0 00.081-.075.325.325 0 00.048-.1h0L17.187 9.26l-.1-.008h0l-.034.416h0c-.005.074.01.15.048.213a.258.258 0 00.173.128l.018-.099zm0 0a.158.158 0 01-.105-.08.267.267 0 01-.034-.154l3.806 8.46a.195.195 0 01-.086-.113.28.28 0 01-.003-.161 7.831 7.831 0 00.248-2.61 7.414 7.414 0 00-.617-2.498c-.343-.762-.809-1.412-1.364-1.904s-1.185-.813-1.845-.94zm4.161 8.264a8.92 8.92 0 00.292-2.987 8.456 8.456 0 00-.705-2.864c-.392-.872-.926-1.616-1.563-2.178-.637-.561-1.36-.926-2.117-1.067l4.093 9.096zM17.13 4.595h0l-.072.377h0a.296.296 0 00.226.343c1.351.292 2.631.852 3.765 1.648a10.462 10.462 0 012.843 2.988 10.62 10.62 0 011.368 8.006h0a.295.295 0 00.213.349h0l.37.092.024-.097-.024.097h0a.27.27 0 00.113.006l-.015-.099.015.099a.284.284 0 00.107-.04l-.053-.085.053.086a.288.288 0 00.13-.182h0c.339-1.485.381-3.024.125-4.527a11.553 11.553 0 00-1.617-4.225 11.442 11.442 0 00-3.11-3.265 11.33 11.33 0 00-4.119-1.799h0a.286.286 0 00-.341.228z" fill="#EA5404" stroke="#EA5404" stroke-width=".2"/><path d="M18.216 1.485h0l.086-.364a.283.283 0 01.236-.218.29.29 0 01.113.005h0a16.345 16.345 0 019.794 6.837 15.89 15.89 0 012.409 11.581h0a.284.284 0 01-.042.105l-.084-.055.084.055a.286.286 0 01-.183.124.293.293 0 01-.113.002h0l-.373-.07h0a.292.292 0 01-.186-.12.286.286 0 01-.047-.214s0 0 0 0l.098.018L18.216 1.485zm0 0v.001m0 0h0m0 0a.286.286 0 00.037.217m-.037-.217l.037.217m0 0c.04.064.105.11.179.127m-.179-.127l.179.127m0 0l.023-.097-.023.097zm9.93 5.97a15.79 15.79 0 012.393 11.508L28.362 7.801zm0 0a16.245 16.245 0 00-9.735-6.795l9.735 6.796z" fill="#EA5404" stroke="#EA5404" stroke-width=".2"/></svg>