<svg width="21" height="24" fill="none" xmlns="http://www.w3.org/2000/svg"><g clip-path="url(#clip0_1833_660)" fill="#0F0500"><path d="M20.284 21.908l-1.382-3.667a3.873 3.873 0 00-1.98-2.146.423.423 0 00-.36.764c.716.336 1.272.94 1.55 1.68l1.382 3.669a.423.423 0 01-.395.571h-2.474v-2.476a.423.423 0 00-.845 0v2.476H4.583v-2.476a.423.423 0 00-.845 0v2.476H1.264a.423.423 0 01-.395-.573L2.25 18.54a3.047 3.047 0 011.89-1.819l2.706-.905.56 3.25a.425.425 0 00.693.247l1.66-1.443v2.433a.423.423 0 00.845 0V17.87l1.66 1.444a.426.426 0 00.694-.252l.533-3.27 1.521.519a.422.422 0 00.273-.8l-1.892-.645-.782-.851v-.953c2.915-1.7 2.974-4.809 2.734-6.84C14.72.875 9.066.84 6.817 2.658a.423.423 0 00.527.66c2.2-1.72 7.143-1.247 7.233 3.663-.72.577-2.223.425-2.777.308-1.973-.395-3.066-2.98-3.076-3.006a.425.425 0 00-.807.091c-.33 1.958-1.493 2.442-2.128 2.56a6.062 6.062 0 01.596-2.443.422.422 0 00-.747-.394 5.969 5.969 0 00-.616 2.098 8.848 8.848 0 00.074 3.073 5.41 5.41 0 002.565 3.74v1.015l-.73.874-3.06 1.023a3.888 3.888 0 00-2.411 2.32L.08 21.907a1.275 1.275 0 001.184 1.717h17.835a1.277 1.277 0 001.185-1.716zm-10.11-5.673l-1.668-2.197v-.625c.54.205 1.102.34 1.675.402a6.9 6.9 0 001.585-.368v.594l-1.592 2.194zm2.53-.87l-.458 2.813-1.496-1.3 1.477-2.033.477.52zm-6.469-5.238c.815.489 1.687.877 2.596 1.156a1.137 1.137 0 001.059.73h.693a1.138 1.138 0 000-2.277H9.89a1.138 1.138 0 00-1.037.674 13.91 13.91 0 01-2.962-1.483 7.718 7.718 0 01-.118-1.144A3.313 3.313 0 008.46 5.588c.85 1.407 2.265 2.743 4.473 2.654a4.226 4.226 0 001.65-.296c-.071 1.473-.563 3.463-2.526 4.458a5.75 5.75 0 01-1.876.563c-1.784-.23-3.271-1.14-3.946-2.84zm3.361.747a.293.293 0 01.294-.293h.693a.293.293 0 110 .587H9.89a.294.294 0 01-.294-.293zm-1.53 3.981l1.54 2.029-1.495 1.3-.483-2.804.438-.525z"/><path d="M2.92 10.464h1.172a.423.423 0 00.423-.423V6.134c.31-7.058 11.028-7.057 11.338 0v3.907a.421.421 0 00.422.423h1.173a1.234 1.234 0 001.232-1.232V6.944a1.234 1.234 0 00-1.232-1.232h-.773c-.804-7.617-12.18-7.615-12.983 0H2.92a1.234 1.234 0 00-1.232 1.232v2.288a1.234 1.234 0 001.232 1.232zm13.778-3.907h.75a.388.388 0 01.387.387v2.288a.388.388 0 01-.387.387h-.75V6.557zm-14.166.387a.388.388 0 01.388-.387h.75v3.062h-.75a.388.388 0 01-.388-.387V6.944z"/></g><defs><clipPath id="clip0_1833_660"><path fill="#fff" d="M0 0h20.363v23.624H0z"/></clipPath></defs></svg>