<svg width="21" height="23" fill="none" xmlns="http://www.w3.org/2000/svg"><g clip-path="url(#clip0_1723_631)" fill="#fff"><path d="M10.463 10.786c3.186 0 5.77-2.38 5.77-5.315 0-2.935-2.584-5.315-5.77-5.315-3.186 0-5.77 2.38-5.77 5.315 0 2.935 2.584 5.315 5.77 5.315zm.006.644c-5.516 0-10 4.131-10 9.212v1.545c0 .39.346.708.769.708H19.7c.423 0 .769-.319.769-.708v-1.545c0-5.08-4.485-9.212-10-9.212z"/></g><defs><clipPath id="clip0_1723_631"><path fill="#fff" transform="translate(.469 .156)" d="M0 0h20v22.74H0z"/></clipPath></defs></svg>