<svg width="32" height="32" fill="none" xmlns="http://www.w3.org/2000/svg"><g clip-path="url(#clip0_154_178)"><path d="M5.336 0v32h18.667l8-8V0H5.336z" fill="#EFEEEE"/><path d="M24 24v8l8-8h-8z" fill="#ABABAB"/><path d="M16 32h8v-8l-8 8z" fill="#DEDEDD"/><path d="M0 8v9.333h21.333V8H0z" fill="#CB5641"/><path d="M5.082 9.822c.294 0 .54.05.74.148.202.099.362.228.484.388.123.16.211.343.264.548.052.204.08.415.08.628 0 .294-.044.55-.132.768-.088.219-.21.398-.368.535a1.522 1.522 0 01-.572.312 2.552 2.552 0 01-.744.105h-.616v2.28H3.066V9.822h2.016zM4.73 12.41c.23 0 .416-.07.556-.21.142-.138.212-.354.212-.647 0-.288-.06-.507-.184-.656-.122-.148-.328-.224-.616-.224h-.48v1.737h.512zm5.232-2.59c.402 0 .723.067.97.198.245.13.436.316.572.56.137.242.228.533.276.876.048.341.072.722.072 1.142 0 .502-.03.938-.09 1.308-.062.37-.168.676-.317.916a1.38 1.38 0 01-.6.536c-.25.118-.568.176-.952.176H8.074V9.82h1.888zm-.224 4.867a.99.99 0 00.489-.104.714.714 0 00.291-.344c.074-.16.122-.37.144-.633.024-.26.036-.586.036-.975 0-.325-.011-.61-.032-.857a2.117 2.117 0 00-.132-.612.754.754 0 00-.297-.367c-.13-.083-.305-.125-.524-.125h-.487v4.017h.512zm6.864-4.865v.944h-2.04v1.344h1.92v.944h-1.92v2.48H13.41V9.822h3.192z" fill="#fff"/></g><defs><clipPath id="clip0_154_178"><path fill="#fff" d="M0 0h32v32H0z"/></clipPath></defs></svg>