<svg width="32" height="43" fill="none" xmlns="http://www.w3.org/2000/svg"><mask id="a" maskUnits="userSpaceOnUse" x="0" y="0" width="32" height="43" fill="#000"><path fill="#fff" d="M0 0h32v43H0z"/><path d="M5.34 29.644l-.426-.206a1.064 1.064 0 00-1.144.14 1.005 1.005 0 00-.248.309L1.108 34.56a.97.97 0 00-.054.764c.087.252.274.46.52.578l13.741 6.608a1.079 1.079 0 001.009-.044c.164-.098.296-.238.382-.405l2.413-4.674a.97.97 0 00.055-.764 1.014 1.014 0 00-.52-.578l-.458-.22c.226-.45.39-.786.493-1.017.37-.8.579-.945.932-1.183.311-.211.7-.475 1.272-1.15a29.171 29.171 0 001.786-2.35h3.132c.275 0 .538-.106.733-.294a.985.985 0 00.304-.707v-5.846c.341-.007.672-.116.947-.313l1.598-1.038.017-.012c.175-.127.322-.285.433-.467a1.566 1.566 0 00.18-1.216 1.58 1.58 0 00-.282-.565l-.316-.406a1.65 1.65 0 00-.555-.454l1.465-1.04c.175-.127.322-.286.433-.467a1.567 1.567 0 00.18-1.216 1.58 1.58 0 00-.282-.565l-.316-.406a1.63 1.63 0 00-.295-.293 1.564 1.564 0 00.185-2.126l-.317-.405a1.662 1.662 0 00-.587-.471 1.723 1.723 0 00-.744-.17 1.685 1.685 0 00-.995.32l-.745.528v-2.13c.127-.049.247-.113.358-.19l1.273-.857c.175-.127.322-.285.434-.467a1.568 1.568 0 00.179-1.216 1.58 1.58 0 00-.282-.565l-.316-.406a1.639 1.639 0 00-.731-.535 1.7 1.7 0 00-.915-.074V2a.98.98 0 00-.305-.707A1.058 1.058 0 0025.814 1H10.827c-.275 0-.54.106-.734.294A.985.985 0 009.79 2v5.613c-.341-.272-.707-.444-1.08-.495a1.6 1.6 0 00-.677.05 1.56 1.56 0 00-.59.326c-.673.572-.661 1.88-.645 3.538.007.734.015 1.493-.044 2.198-.194 2.318-.863 4.317-1.448 6.082-.947 2.844-1.765 5.3.026 7.585.141.178.731 1.349.115 2.54l-.105.206zm13.045 7.39l-2.413 4.673a.212.212 0 01-.08.084.223.223 0 01-.21.01L1.94 35.193a.21.21 0 01-.108-.12.202.202 0 01.012-.16l2.413-4.673a.212.212 0 01.08-.084.223.223 0 01.21-.01l13.74 6.608a.215.215 0 01.11.12.203.203 0 01-.012.16zm7.43-7.701H10.827a.221.221 0 01-.153-.062.205.205 0 01-.063-.147v-3.458h15.42v3.458a.206.206 0 01-.063.147.221.221 0 01-.153.062zm2.956-9.596l.317.406a.793.793 0 01-.161 1.133l-1.596 1.038-.017.012a.856.856 0 01-.625.155.863.863 0 01-.555-.317l-.316-.406a.792.792 0 01.16-1.133l.396-.258c.261-.041.508-.143.72-.297l.918-.653a.871.871 0 01.424.063.84.84 0 01.336.257zm1.4-3.14a.788.788 0 01-.325.535l-3.241 2.303a.854.854 0 01-.625.155.863.863 0 01-.556-.317l-.315-.405a.792.792 0 01.163-1.137l.247-.173a1.687 1.687 0 001.149-.311l2.693-1.914a.83.83 0 01.335.257l.317.406a.792.792 0 01.16.602h-.001zm-2.085-3.995a.856.856 0 01.625-.154.863.863 0 01.555.317l.316.405a.793.793 0 01-.164 1.137l-3.242 2.303a.853.853 0 01-.625.155.862.862 0 01-.555-.317l-.317-.407a.79.79 0 01.165-1.135l3.242-2.304zm-3.732 1.668a1.624 1.624 0 00-.433.467 1.568 1.568 0 00-.18 1.216c.055.205.151.396.282.565l.317.406c.085.109.185.207.296.292a1.564 1.564 0 00-.185 2.126l.316.406c.136.175.308.321.505.43a1.565 1.565 0 00-.111 2.056l.315.406c.148.189.337.344.555.453v1.783H10.61V4.079h15.42v2.358l-1.123.755a1.626 1.626 0 00-.433.467 1.568 1.568 0 00-.179 1.216c.055.205.15.396.282.565l.316.406c.135.175.305.32.501.429.196.108.413.177.637.201v2.604l-1.678 1.19zm3.488-7.13l.316.406a.792.792 0 01-.156 1.129l-1.272.858a.868.868 0 01-1.181-.161l-.316-.406a.792.792 0 01.155-1.13l1.274-.858a.866.866 0 011.18.161zM10.826 1.79h14.989a.22.22 0 01.153.062c.04.04.063.092.063.148v1.286h-15.42V2a.203.203 0 01.063-.148.217.217 0 01.152-.061zM6.084 19.556c.6-1.806 1.283-3.853 1.484-6.26.062-.742.054-1.52.047-2.271-.012-1.22-.025-2.603.37-2.936a.733.733 0 01.61-.185c.392.053.83.38 1.193.882v20.339c0 .265.11.52.305.707.194.188.458.294.733.294h10.87c-.46.644-.94 1.264-1.436 1.85-.495.586-.823.809-1.108 1.001-.467.316-.775.557-1.212 1.512a36.3 36.3 0 01-.479.984L6.075 29.997l.106-.205c.735-1.423.185-2.886-.195-3.372-1.534-1.956-.847-4.015.1-6.865h-.002z"/></mask><path d="M5.34 29.644l-.426-.206a1.064 1.064 0 00-1.144.14 1.005 1.005 0 00-.248.309L1.108 34.56a.97.97 0 00-.054.764c.087.252.274.46.52.578l13.741 6.608a1.079 1.079 0 001.009-.044c.164-.098.296-.238.382-.405l2.413-4.674a.97.97 0 00.055-.764 1.014 1.014 0 00-.52-.578l-.458-.22c.226-.45.39-.786.493-1.017.37-.8.579-.945.932-1.183.311-.211.7-.475 1.272-1.15a29.171 29.171 0 001.786-2.35h3.132c.275 0 .538-.106.733-.294a.985.985 0 00.304-.707v-5.846c.341-.007.672-.116.947-.313l1.598-1.038.017-.012c.175-.127.322-.285.433-.467a1.566 1.566 0 00.18-1.216 1.58 1.58 0 00-.282-.565l-.316-.406a1.65 1.65 0 00-.555-.454l1.465-1.04c.175-.127.322-.286.433-.467a1.567 1.567 0 00.18-1.216 1.58 1.58 0 00-.282-.565l-.316-.406a1.63 1.63 0 00-.295-.293 1.564 1.564 0 00.185-2.126l-.317-.405a1.662 1.662 0 00-.587-.471 1.723 1.723 0 00-.744-.17 1.685 1.685 0 00-.995.32l-.745.528v-2.13c.127-.049.247-.113.358-.19l1.273-.857c.175-.127.322-.285.434-.467a1.568 1.568 0 00.179-1.216 1.58 1.58 0 00-.282-.565l-.316-.406a1.639 1.639 0 00-.731-.535 1.7 1.7 0 00-.915-.074V2a.98.98 0 00-.305-.707A1.058 1.058 0 0025.814 1H10.827c-.275 0-.54.106-.734.294A.985.985 0 009.79 2v5.613c-.341-.272-.707-.444-1.08-.495a1.6 1.6 0 00-.677.05 1.56 1.56 0 00-.59.326c-.673.572-.661 1.88-.645 3.538.007.734.015 1.493-.044 2.198-.194 2.318-.863 4.317-1.448 6.082-.947 2.844-1.765 5.3.026 7.585.141.178.731 1.349.115 2.54l-.105.206zm13.045 7.39l-2.413 4.673a.212.212 0 01-.08.084.223.223 0 01-.21.01L1.94 35.193a.21.21 0 01-.108-.12.202.202 0 01.012-.16l2.413-4.673a.212.212 0 01.08-.084.223.223 0 01.21-.01l13.74 6.608a.215.215 0 01.11.12.203.203 0 01-.012.16zm7.43-7.701H10.827a.221.221 0 01-.153-.062.205.205 0 01-.063-.147v-3.458h15.42v3.458a.206.206 0 01-.063.147.221.221 0 01-.153.062zm2.956-9.596l.317.406a.793.793 0 01-.161 1.133l-1.596 1.038-.017.012a.856.856 0 01-.625.155.863.863 0 01-.555-.317l-.316-.406a.792.792 0 01.16-1.133l.396-.258c.261-.041.508-.143.72-.297l.918-.653a.871.871 0 01.424.063.84.84 0 01.336.257zm1.4-3.14a.788.788 0 01-.325.535l-3.241 2.303a.854.854 0 01-.625.155.863.863 0 01-.556-.317l-.315-.405a.792.792 0 01.163-1.137l.247-.173a1.687 1.687 0 001.149-.311l2.693-1.914a.83.83 0 01.335.257l.317.406a.792.792 0 01.16.602h-.001zm-2.085-3.995a.856.856 0 01.625-.154.863.863 0 01.555.317l.316.405a.793.793 0 01-.164 1.137l-3.242 2.303a.853.853 0 01-.625.155.862.862 0 01-.555-.317l-.317-.407a.79.79 0 01.165-1.135l3.242-2.304zm-3.732 1.668a1.624 1.624 0 00-.433.467 1.568 1.568 0 00-.18 1.216c.055.205.151.396.282.565l.317.406c.085.109.185.207.296.292a1.564 1.564 0 00-.185 2.126l.316.406c.136.175.308.321.505.43a1.565 1.565 0 00-.111 2.056l.315.406c.148.189.337.344.555.453v1.783H10.61V4.079h15.42v2.358l-1.123.755a1.626 1.626 0 00-.433.467 1.568 1.568 0 00-.179 1.216c.055.205.15.396.282.565l.316.406c.135.175.305.32.501.429.196.108.413.177.637.201v2.604l-1.678 1.19zm3.488-7.13l.316.406a.792.792 0 01-.156 1.129l-1.272.858a.868.868 0 01-1.181-.161l-.316-.406a.792.792 0 01.155-1.13l1.274-.858a.866.866 0 011.18.161zM10.826 1.79h14.989a.22.22 0 01.153.062c.04.04.063.092.063.148v1.286h-15.42V2a.203.203 0 01.063-.148.217.217 0 01.152-.061zM6.084 19.556c.6-1.806 1.283-3.853 1.484-6.26.062-.742.054-1.52.047-2.271-.012-1.22-.025-2.603.37-2.936a.733.733 0 01.61-.185c.392.053.83.38 1.193.882v20.339c0 .265.11.52.305.707.194.188.458.294.733.294h10.87c-.46.644-.94 1.264-1.436 1.85-.495.586-.823.809-1.108 1.001-.467.316-.775.557-1.212 1.512a36.3 36.3 0 01-.479.984L6.075 29.997l.106-.205c.735-1.423.185-2.886-.195-3.372-1.534-1.956-.847-4.015.1-6.865h-.002z" fill="#EA5404"/><path d="M5.34 29.644l-.426-.206a1.064 1.064 0 00-1.144.14 1.005 1.005 0 00-.248.309L1.108 34.56a.97.97 0 00-.054.764c.087.252.274.46.52.578l13.741 6.608a1.079 1.079 0 001.009-.044c.164-.098.296-.238.382-.405l2.413-4.674a.97.97 0 00.055-.764 1.014 1.014 0 00-.52-.578l-.458-.22c.226-.45.39-.786.493-1.017.37-.8.579-.945.932-1.183.311-.211.7-.475 1.272-1.15a29.171 29.171 0 001.786-2.35h3.132c.275 0 .538-.106.733-.294a.985.985 0 00.304-.707v-5.846c.341-.007.672-.116.947-.313l1.598-1.038.017-.012c.175-.127.322-.285.433-.467a1.566 1.566 0 00.18-1.216 1.58 1.58 0 00-.282-.565l-.316-.406a1.65 1.65 0 00-.555-.454l1.465-1.04c.175-.127.322-.286.433-.467a1.567 1.567 0 00.18-1.216 1.58 1.58 0 00-.282-.565l-.316-.406a1.63 1.63 0 00-.295-.293 1.564 1.564 0 00.185-2.126l-.317-.405a1.662 1.662 0 00-.587-.471 1.723 1.723 0 00-.744-.17 1.685 1.685 0 00-.995.32l-.745.528v-2.13c.127-.049.247-.113.358-.19l1.273-.857c.175-.127.322-.285.434-.467a1.568 1.568 0 00.179-1.216 1.58 1.58 0 00-.282-.565l-.316-.406a1.639 1.639 0 00-.731-.535 1.7 1.7 0 00-.915-.074V2a.98.98 0 00-.305-.707A1.058 1.058 0 0025.814 1H10.827c-.275 0-.54.106-.734.294A.985.985 0 009.79 2v5.613c-.341-.272-.707-.444-1.08-.495a1.6 1.6 0 00-.677.05 1.56 1.56 0 00-.59.326c-.673.572-.661 1.88-.645 3.538.007.734.015 1.493-.044 2.198-.194 2.318-.863 4.317-1.448 6.082-.947 2.844-1.765 5.3.026 7.585.141.178.731 1.349.115 2.54l-.105.206zm13.045 7.39l-2.413 4.673a.212.212 0 01-.08.084.223.223 0 01-.21.01L1.94 35.193a.21.21 0 01-.108-.12.202.202 0 01.012-.16l2.413-4.673a.212.212 0 01.08-.084.223.223 0 01.21-.01l13.74 6.608a.215.215 0 01.11.12.203.203 0 01-.012.16zm7.43-7.701H10.827a.221.221 0 01-.153-.062.205.205 0 01-.063-.147v-3.458h15.42v3.458a.206.206 0 01-.063.147.221.221 0 01-.153.062zm2.956-9.596l.317.406a.793.793 0 01-.161 1.133l-1.596 1.038-.017.012a.856.856 0 01-.625.155.863.863 0 01-.555-.317l-.316-.406a.792.792 0 01.16-1.133l.396-.258c.261-.041.508-.143.72-.297l.918-.653a.871.871 0 01.424.063.84.84 0 01.336.257h0zm1.4-3.14a.788.788 0 01-.325.535l-3.241 2.303a.854.854 0 01-.625.155.863.863 0 01-.556-.317l-.315-.405a.792.792 0 01.163-1.137l.247-.173a1.687 1.687 0 001.149-.311l2.693-1.914a.83.83 0 01.335.257l.317.406a.792.792 0 01.16.602h-.001zm-2.085-3.995a.856.856 0 01.625-.154.863.863 0 01.555.317l.316.405a.793.793 0 01-.164 1.137l-3.242 2.303a.853.853 0 01-.625.155.862.862 0 01-.555-.317l-.317-.407a.79.79 0 01.165-1.135l3.242-2.304zm-3.732 1.668a1.624 1.624 0 00-.433.467 1.568 1.568 0 00-.18 1.216c.055.205.151.396.282.565l.317.406c.085.109.185.207.296.292a1.564 1.564 0 00-.185 2.126l.316.406c.136.175.308.321.505.43a1.565 1.565 0 00-.111 2.056l.315.406c.148.189.337.344.555.453v1.783H10.61V4.079h15.42v2.358l-1.123.755a1.626 1.626 0 00-.433.467 1.568 1.568 0 00-.179 1.216c.055.205.15.396.282.565l.316.406c.135.175.305.32.501.429.196.108.413.177.637.201v2.604l-1.678 1.19zm3.488-7.13l.316.406a.792.792 0 01-.156 1.129l-1.272.858a.868.868 0 01-1.181-.161l-.316-.406a.792.792 0 01.155-1.13l1.274-.858a.866.866 0 011.18.161zM10.826 1.79h14.989a.22.22 0 01.153.062c.04.04.063.092.063.148v1.286h-15.42V2a.203.203 0 01.063-.148.217.217 0 01.152-.061zM6.084 19.556c.6-1.806 1.283-3.853 1.484-6.26.062-.742.054-1.52.047-2.271-.012-1.22-.025-2.603.37-2.936a.733.733 0 01.61-.185c.392.053.83.38 1.193.882v20.339c0 .265.11.52.305.707.194.188.458.294.733.294h10.87c-.46.644-.94 1.264-1.436 1.85-.495.586-.823.809-1.108 1.001-.467.316-.775.557-1.212 1.512a36.3 36.3 0 01-.479.984L6.075 29.997l.106-.205c.735-1.423.185-2.886-.195-3.372-1.534-1.956-.847-4.015.1-6.865h-.002z" stroke="#EA5404" stroke-width=".4" mask="url(#a)"/><path d="M17.921 26.277c-.258 0-.511.074-.726.213a1.272 1.272 0 00-.482.566c-.1.23-.125.484-.075.729.05.244.175.47.358.646a1.352 1.352 0 001.425.274c.239-.096.443-.258.587-.465a1.23 1.23 0 00.22-.701c0-.334-.138-.655-.383-.891a1.334 1.334 0 00-.924-.37zm0 1.73a.499.499 0 01-.27-.078.473.473 0 01-.178-.21.454.454 0 01.105-.512.502.502 0 01.748.071.457.457 0 01-.061.592.496.496 0 01-.344.138z" fill="#EA5404"/></svg>