<svg width="32" height="29" fill="none" xmlns="http://www.w3.org/2000/svg"><path d="M31.568 24.124l-12.77-21.82A3.249 3.249 0 0016 .708a3.246 3.246 0 00-2.797 1.594L.432 24.123a3.158 3.158 0 000 3.187 3.247 3.247 0 002.797 1.593H28.77c1.15 0 2.223-.61 2.797-1.593a3.156 3.156 0 000-3.186zM16 25.314c-1.104 0-2-.883-2-1.972 0-1.09.896-1.973 2-1.973s2 .883 2 1.973-.896 1.973-2 1.973zM17.233 19c0 .671-.553 1.215-1.233 1.215A1.223 1.223 0 0114.768 19l-.769-8.923c0-1.09.897-1.974 2.001-1.974 1.104 0 2 .884 2 1.974L17.233 19z" fill="#EA5404"/></svg>