<svg width="18" height="18" fill="none" xmlns="http://www.w3.org/2000/svg"><path d="M17.559 10.617l-1.964.09a.461.461 0 00-.406.286l-.404.973a.464.464 0 00.086.49l1.324 1.453a.464.464 0 01-.015.639l-1.632 1.632a.464.464 0 01-.64.015l-1.452-1.324a.463.463 0 00-.49-.086l-.973.404a.462.462 0 00-.285.406l-.09 1.963a.463.463 0 01-.463.442h-2.31a.463.463 0 01-.462-.442l-.09-1.962a.461.461 0 00-.285-.407l-.974-.404a.462.462 0 00-.49.086l-1.452 1.324a.464.464 0 01-.64-.015L1.82 14.548a.463.463 0 01-.015-.64l1.324-1.453a.462.462 0 00.085-.489l-.403-.973a.462.462 0 00-.407-.285l-1.962-.091A.463.463 0 010 10.155v-2.31c0-.247.195-.45.442-.462l1.962-.09a.462.462 0 00.407-.286l.403-.973a.462.462 0 00-.085-.49L1.805 4.093a.463.463 0 01.014-.64L3.453 1.82a.463.463 0 01.64-.015l1.452 1.324a.463.463 0 00.489.086l.974-.404a.462.462 0 00.284-.407l.09-1.962A.464.464 0 017.846 0h2.31c.247 0 .45.195.462.442l.091 1.962c.008.18.119.339.285.407l.973.404a.463.463 0 00.49-.086l1.452-1.324a.464.464 0 01.64.015l1.632 1.632a.464.464 0 01.015.64l-1.324 1.453a.462.462 0 00-.086.489l.404.973a.461.461 0 00.406.285l1.964.09a.463.463 0 01.44.463v2.31a.462.462 0 01-.44.462zM9 6.06a2.94 2.94 0 100 5.88 2.94 2.94 0 000-5.88z" fill="#000"/></svg>