<svg width="18" height="15" viewBox="0 0 18 15" fill="none" xmlns="http://www.w3.org/2000/svg">
<g clip-path="url(#clip0_958_34203)">
<path d="M14.2087 5.59154H1.7788C0.796043 5.59154 0 6.55798 0 7.74914C0 8.9403 0.796767 9.90674 1.7788 9.90674H14.2087C15.1914 9.90674 15.9874 8.9403 15.9874 7.74914C15.9874 6.55798 15.1907 5.59154 14.2087 5.59154Z" fill="#EA5404"/>
<path d="M9.5831 0.489944C9.13225 0.489944 8.68502 0.721678 8.37094 1.17198C7.80575 1.98306 7.8897 3.19703 8.5591 3.88259L12.3215 7.73782L8.5468 11.6062C7.87812 12.2918 7.79345 13.5049 8.35864 14.3168C8.92383 15.1279 9.92395 15.2306 10.5934 14.5451L17.2352 7.7387L10.6057 0.944635C10.3082 0.639166 9.94422 0.490821 9.5831 0.490821V0.489944Z" fill="#EA5404"/>
</g>
<defs>
<clipPath id="clip0_958_34203">
<rect width="17.5441" height="14.5089" fill="white" transform="matrix(1 0 0 -1 0 14.999)"/>
</clipPath>
</defs>
</svg>
