<svg width="56" height="56" viewBox="0 0 56 56" fill="none" xmlns="http://www.w3.org/2000/svg">
<path d="M18.9376 27.4743C20.5111 27.4422 21.7501 25.6073 21.7042 23.3778C21.6583 21.1484 20.3441 19.366 18.7703 19.399C17.1966 19.4321 15.9568 21.2659 16.0037 23.4955C16.0506 25.7251 17.3629 27.5072 18.9376 27.4743Z" fill="#EA5404"/>
<path d="M40.1122 27.7566C40.9184 25.677 40.3818 23.5298 38.9137 22.9607C37.4456 22.3915 35.6019 23.6159 34.7957 25.6955C33.9895 27.7751 34.5261 29.9223 35.9942 30.4915C37.4623 31.0606 39.306 29.8362 40.1122 27.7566Z" fill="#EA5404"/>
<path d="M25.115 22.6532C26.666 22.9267 28.2366 21.3677 28.624 19.1712C29.0113 16.9747 28.0687 14.9715 26.5177 14.698C24.9667 14.4245 23.3968 15.9847 23.0095 18.1812C22.6222 20.3778 23.5649 22.3799 25.115 22.6532Z" fill="#EA5404"/>
<path d="M31.8757 23.7319C33.4258 24.0052 34.9964 22.4462 35.3839 20.2487C35.7714 18.0512 34.8285 16.05 33.2784 15.7767C31.7284 15.5034 30.1548 17.0618 29.7675 19.2584C29.3802 21.4549 30.3247 23.4584 31.8757 23.7319Z" fill="#EA5404"/>
<path d="M31.9287 25.9725C31.1054 24.7784 29.8083 23.9943 28.3929 23.7205C26.9692 23.4937 25.4821 23.7869 24.3001 24.6274C22.835 25.6679 22.1124 27.3855 20.899 28.6625C19.1821 30.4709 16.262 31.5026 16.4553 34.5309C16.6381 37.4065 19.6736 39.9487 22.5406 39.4133C23.4046 39.2521 24.2317 38.8527 25.1105 38.865C25.5141 38.8782 25.9138 38.9487 26.2976 39.0743C27.1277 39.3633 27.7682 40.0215 28.525 40.4685C31.036 41.9521 34.7579 40.6015 35.9132 37.9618C37.1306 35.1823 34.7394 33.2141 33.7446 30.9276C33.0431 29.3129 32.9495 27.4513 31.9287 25.9725Z" fill="#EA5404"/>
</svg>
