<svg fill="none" height="26" viewBox="0 0 21 26" width="21" xmlns="http://www.w3.org/2000/svg"><path clip-rule="evenodd" d="m.699983 19.5794c-1.065005 1.2692-.899453 3.1615.369767 4.2265 1.26923 1.065 3.16149.8995 4.2265-.3698l4.78515-5.7026 5.4861 6.5381c1.065 1.2692 2.9573 1.4348 4.2265.3697 1.2692-1.065 1.4348-2.9572.3697-4.2264l-6.1661-7.3486 6.1661-7.34856c1.0651-1.26923.8995-3.16149-.3697-4.2265-1.2692-1.065002-3.1615-.899451-4.2265.36977l-5.4861 6.53812-4.78515-5.70267c-1.06501-1.26922-2.95727-1.43477-4.2265-.36977-1.26922 1.06501-1.434772 2.95727-.369767 4.2265l5.465147 6.51311z" fill="#949494" fill-rule="evenodd"/></svg>