<svg fill="none" height="167" viewBox="0 0 167 167" width="167" xmlns="http://www.w3.org/2000/svg" xmlns:xlink="http://www.w3.org/1999/xlink"><mask id="a" height="167" maskUnits="userSpaceOnUse" width="167" x="0" y="0"><path d="m167 83.5c0 46.116-37.384 83.5-83.5 83.5-46.1158 0-83.5-37.384-83.5-83.5 0-46.1158 37.3842-83.5 83.5-83.5 46.116 0 83.5 37.3842 83.5 83.5z" fill="#d9d9d9"/></mask><path d="m167 83.5c0 46.116-37.384 83.5-83.5 83.5-46.1158 0-83.5-37.384-83.5-83.5 0-46.1158 37.3842-83.5 83.5-83.5 46.116 0 83.5 37.3842 83.5 83.5z" fill="#f8f5f2"/><g mask="url(#a)"><path d="m118.661 42.8622s-10.473-23.7547-13.611-23.8849c-3.138-.1303-4.931 17.9354-4.931 17.9354l18.542 5.9061z" fill="#ce9c89"/><path d="m67.2363 58.325s4.1158-30.3557 6.9276-31.9191c2.8118-1.5199 11.6953 13.9402 11.6953 13.9402z" fill="#ce9c89"/><path d="m109.984 176.404c-5.42-2.866-7.946 0-7.946 0l2.852-57.194s12.674-16.546 5.828-37.3472c-.123-.3909-.245-.6949-.367-1.0423-7.254-19.6725-29.3403-19.0211-29.3403-19.0211s-.1222 0-.4075.1303c-1.467.5645-7.4165 2.9096-14.7924 7.6432-12.9993 8.2077-30.685 23.7547-37.1643 49.6371-5.4197 21.627-4.6862 37.999-2.0375 49.377 2.6081 11.161 7.0906 17.501 9.4134 19.238 4.727 3.605 52.5271 7.904 59.8622 2.866 1.5892 1.52 3.6268 2.476 6.1534 2.302 11.247-.825 13.366-13.723 7.946-16.589zm-27.1803 5.037 6.5201-9.293s.4075 6.297 2.608 11.986c-4.1565-1.65-9.1281-2.693-9.1281-2.693z" fill="#f4f3eb"/><path d="m126.081 54.4198c1.916 8.9895-1.956 15.851-7.62 21.3228-3.831 3.6913-9.576 5.4719-15.363 6.8615-7.9869 1.9108-15.7295 1.6068-22.1681-.3474-4.3195-1.3897-8.0685-3.561-10.8395-6.3838-2.5673-2.5188-4.3196-5.6021-5.0531-9.1197-1.5077-7.1655 1.5485-14.6784 7.5796-20.6714 5.053-5.0375 12.1028-9.0328 20.3751-11.0305 18.256-4.3861 30.278 6.297 33.049 19.412z" fill="#f4f3eb"/><g fill="#000"><path d="m103.913 59.8398s-5.5824 1.1726-5.5417 1.3463c.163.8251 2.5267 2.5188 3.3827 2.3016 1.304-.304 2.159-3.6479 2.159-3.6479z"/><path d="m110.681 34.7843c-.448 0-.856-.304-.978-.7817-.774-2.9965-2.2-6.4707-3.219-7.2523-.489.7382-1.019 3.6913-1.141 6.5575 0 .6079-.448 1.0422-1.06 1.0422-.57 0-1.018-.5211-.978-1.1291.082-2.1714.489-7.2958 2.242-8.4249.489-.3474 1.1-.3474 1.67-.0868 2.405 1.2159 4.116 7.4695 4.442 8.7288.163.5646-.163 1.1726-.693 1.3463-.081 0-.163 0-.285 0z"/><path d="m112.26 52.9861c-.448 0-.896-.3474-.978-.8251l-1.344-6.3838c-.123-.5646.203-1.1725.774-1.3028.57-.1303 1.1.2605 1.222.8251l1.345 6.3838c.122.5645-.204 1.1725-.774 1.3028-.082 0-.163 0-.245 0z"/><path d="m88.5475 58.7078c-.4482 0-.8965-.3474-.978-.8685l-1.3447-6.4272c-.1223-.5646.2037-1.1726.7742-1.3028.5705-.1303 1.1003.2171 1.2225.8251l1.3448 6.4272c.1222.5646-.2038 1.1725-.7743 1.3028-.0815 0-.163 0-.2037 0z"/><path d="m99.7147 68.6906s-.326 0-.489-.1302c-.489-.2606-.6928-.912-.4483-1.4766l2.0376-4.1256c.163-.3039.448-.5211.774-.5645.326-.0869.652.0868.897.3474l2.689 2.9965c.367.4343.367 1.1291 0 1.5199-.407.4343-1.059.3909-1.426 0l-1.671-1.9108-1.345 2.7794c-.163.3908-.529.5645-.8961.5645z"/></g><path d="m80.8067 64.9231c.163 5.5153-2.5265 9.9449-6.2348 13.419-7.3758 6.9484-18.6229 9.9883-18.6229 9.9883s12.1028 29.4866 2.119 57.5846c-5.868 16.633-20.5382 21.54-31.5 22.712-2.6488-11.378-3.3823-27.75 2.0783-49.42 6.52-25.839 24.1649-41.386 37.1643-49.6372-1.8745-3.0833-2.8933-6.4706-2.8933-10.0751 0-7.3392 4.2788-13.9401 11.0026-18.3697 0 0 5.5828 6.3404 6.6423 20.8451.0815.9554.1222 1.9542.163 2.9965z" fill="#ce9c89"/><path d="m75.0196 43.384c-.489 0-.8965-.3474-1.0188-.9119-.2037-1.2594-1.1817-7.7301.489-9.9014.4075-.5212.9373-.7817 1.5486-.6949 2.0375.2172 4.4825 4.6902 5.4197 6.601.2446.5211.0816 1.1725-.4075 1.4765-.489.2606-1.1002.0869-1.3855-.4343-1.2632-2.5188-2.934-4.9507-3.6675-5.3849-.6112 1.1725-.489 4.9507 0 7.9906.0815.6079-.2852 1.1725-.815 1.2593-.0408 0-.1223 0-.163 0z" fill="#000"/></g></svg>