<svg width="18" height="18" viewBox="0 0 18 18" fill="none" xmlns="http://www.w3.org/2000/svg">
<path d="M17.5588 10.617L15.5952 10.7078C15.4159 10.7158 15.2575 10.8271 15.1893 10.9926L14.7847 11.9663C14.7167 12.1325 14.7497 12.3229 14.8711 12.4554L16.1953 13.9085C16.3612 14.0909 16.3551 14.3728 16.1805 14.5477L14.5481 16.1805C14.3728 16.3551 14.0909 16.3619 13.9082 16.195L12.4559 14.8707C12.323 14.7497 12.1322 14.7159 11.9663 14.7851L10.9927 15.1889C10.8269 15.2574 10.7163 15.4158 10.7082 15.5955L10.6172 17.5583C10.6056 17.8054 10.402 18 10.1552 18H7.84519C7.59839 18 7.3941 17.8054 7.38267 17.5584L7.29229 15.5956C7.2842 15.4159 7.1736 15.2574 7.00773 15.189L6.03408 14.7851C5.86754 14.7159 5.67671 14.7497 5.54456 14.8707L4.09152 16.195C3.90878 16.3618 3.62693 16.3554 3.45164 16.1805L1.81986 14.5477C1.64457 14.3728 1.63853 14.0909 1.80503 13.9085L3.12929 12.4554C3.25065 12.3229 3.28303 12.1325 3.21423 11.9663L2.81102 10.9926C2.74226 10.8271 2.58448 10.7158 2.40448 10.7078L0.441633 10.617C0.194871 10.6059 0 10.402 0 10.1548V7.84512C0 7.59836 0.194871 7.39406 0.441633 7.38288L2.40448 7.29222C2.58448 7.28416 2.74226 7.17289 2.81102 7.00734L3.21423 6.03373C3.28303 5.86751 3.25065 5.67703 3.12929 5.54456L1.80503 4.09215C1.63782 3.90874 1.64457 3.62725 1.8192 3.45227L3.45294 1.81951C3.62756 1.64454 3.90874 1.63846 4.09215 1.80468L5.54453 3.12926C5.67668 3.2503 5.86821 3.28366 6.03404 3.21486L7.00766 2.81134C7.17356 2.74257 7.28413 2.58409 7.29221 2.40441L7.3826 0.441597C7.39403 0.194801 7.59832 -3.43323e-05 7.84512 -3.43323e-05H10.1552C10.402 -3.43323e-05 10.6056 0.194801 10.617 0.441597L10.7081 2.40441C10.7162 2.58409 10.8268 2.74257 10.9926 2.81134L11.9662 3.21486C12.1321 3.28366 12.3229 3.2503 12.4558 3.12926L13.9081 1.80468C14.0909 1.63846 14.3727 1.64454 14.548 1.81951L16.1804 3.45227C16.355 3.62725 16.3611 3.90874 16.1952 4.09215L14.871 5.54456C14.7496 5.67703 14.7158 5.86751 14.7846 6.03373L15.1892 7.00734C15.2573 7.17289 15.4158 7.28416 15.5951 7.29222L17.5586 7.38288C17.8054 7.39406 17.9996 7.59836 17.9996 7.84512V10.1548C17.9997 10.402 17.8055 10.6059 17.5588 10.617ZM9.00021 6.0603C7.37726 6.0603 6.06038 7.37648 6.06038 8.99979C6.06038 10.6234 7.37726 11.9396 9.00021 11.9396C10.6232 11.9396 11.9393 10.6234 11.9393 8.99979C11.9393 7.37652 10.6232 6.0603 9.00021 6.0603Z" fill="black"/>
</svg>
