<svg width="21" height="24" viewBox="0 0 21 24" fill="none" xmlns="http://www.w3.org/2000/svg">
<g clip-path="url(#clip0_1833_660)">
<path d="M20.284 21.9081L18.9024 18.241C18.5475 17.2944 17.8366 16.5241 16.9215 16.0946C16.8201 16.0469 16.7039 16.0414 16.5985 16.0793C16.4931 16.1173 16.4071 16.1956 16.3594 16.2969C16.3117 16.3983 16.3062 16.5145 16.3442 16.6199C16.3821 16.7253 16.4604 16.8113 16.5618 16.859C17.2779 17.1955 17.8342 17.7984 18.112 18.5392L19.494 22.2076C19.5178 22.2716 19.5258 22.3403 19.5173 22.408C19.5088 22.4757 19.4842 22.5404 19.4454 22.5965C19.4066 22.6526 19.3548 22.6986 19.2945 22.7304C19.2341 22.7622 19.167 22.779 19.0988 22.7794L16.6245 22.7794V20.303C16.623 20.1919 16.5779 20.0859 16.4988 20.0078C16.4198 19.9298 16.3131 19.886 16.202 19.886C16.091 19.886 15.9843 19.9298 15.9053 20.0078C15.8262 20.0859 15.7811 20.1919 15.7796 20.303V22.7794H4.58296V20.303C4.58132 20.1921 4.53609 20.0862 4.45705 20.0083C4.37801 19.9304 4.2715 19.8868 4.16053 19.8868C4.04957 19.8868 3.94306 19.9304 3.86402 20.0083C3.78498 20.0862 3.73975 20.1921 3.73811 20.303V22.7794H1.26376C1.19538 22.7791 1.1281 22.7622 1.06766 22.7302C1.00721 22.6982 0.955401 22.6521 0.91664 22.5958C0.877878 22.5394 0.853317 22.4746 0.845053 22.4067C0.836789 22.3388 0.845067 22.2699 0.86918 22.206L2.25011 18.54C2.40963 18.1153 2.66202 17.7316 2.98883 17.4168C3.31564 17.1021 3.70862 16.8644 4.13907 16.721L6.84622 15.8163L7.40549 19.0662C7.419 19.1396 7.45156 19.2081 7.49991 19.2649C7.54826 19.3217 7.6107 19.3647 7.68095 19.3898C7.75121 19.4148 7.82681 19.4209 7.90018 19.4075C7.97355 19.3941 8.04209 19.3616 8.09894 19.3133L9.75874 17.8703V20.303C9.76038 20.4139 9.80561 20.5198 9.88466 20.5977C9.9637 20.6755 10.0702 20.7192 10.1812 20.7192C10.2921 20.7192 10.3986 20.6755 10.4777 20.5977C10.5567 20.5198 10.6019 20.4139 10.6036 20.303V17.8701L12.2636 19.3135C12.3208 19.3619 12.3897 19.3943 12.4634 19.4076C12.5371 19.4208 12.613 19.4144 12.6834 19.3889C12.7538 19.3635 12.8163 19.3199 12.8645 19.2626C12.9127 19.2053 12.9449 19.1363 12.9579 19.0625L13.4906 15.7913L15.0123 16.3105C15.1181 16.3461 15.2338 16.3383 15.3339 16.2889C15.4341 16.2395 15.5106 16.1524 15.5467 16.0467C15.5828 15.941 15.5755 15.8253 15.5266 15.725C15.4776 15.6246 15.3909 15.5477 15.2854 15.5111L13.3931 14.8655L12.611 14.015V13.0623C15.5265 11.3615 15.5846 8.25327 15.3449 6.22241C14.7207 0.875374 9.06628 0.839763 6.81722 2.6583C6.73187 2.72888 6.67764 2.83016 6.66622 2.94033C6.6548 3.0505 6.6871 3.16075 6.75616 3.24734C6.82522 3.33393 6.92553 3.38993 7.03548 3.4033C7.14543 3.41666 7.25623 3.38632 7.34403 3.31879C9.54375 1.59877 14.4874 2.07099 14.5773 6.98054C13.8568 7.55835 12.3537 7.40591 11.7999 7.28899C9.82724 6.89376 8.73443 4.30928 8.72372 4.28331C8.68731 4.20013 8.62523 4.13079 8.54656 4.08545C8.4679 4.04011 8.37678 4.02114 8.28655 4.03133C8.19633 4.04153 8.11173 4.08034 8.04516 4.14209C7.97859 4.20384 7.93354 4.28528 7.91661 4.37449C7.58784 6.33153 6.4237 6.81556 5.78924 6.93313C5.81512 6.08645 6.01816 5.25458 6.38526 4.49118C6.4354 4.39232 6.44467 4.27772 6.41108 4.17208C6.37748 4.06645 6.30372 3.97825 6.20569 3.92651C6.10766 3.87477 5.99323 3.86364 5.88706 3.8955C5.78089 3.92737 5.6915 3.99969 5.63817 4.09686C5.30519 4.75235 5.09618 5.46373 5.02166 6.19516C4.86685 7.2158 4.89184 8.25566 5.09551 9.26768C5.22702 10.0397 5.52456 10.774 5.96758 11.4197C6.41059 12.0655 6.98853 12.6074 7.66144 13.008V14.0228L6.93042 14.8974L3.87155 15.9197C3.32197 16.1026 2.82021 16.4059 2.40292 16.8076C1.98564 17.2093 1.66337 17.6992 1.45969 18.2414L0.0791937 21.9065C0.0082165 22.0984 -0.0155469 22.3045 0.00990942 22.5076C0.0353657 22.7106 0.109295 22.9045 0.225455 23.0729C0.341615 23.2414 0.496596 23.3794 0.677316 23.4754C0.858035 23.5713 1.05919 23.6224 1.26379 23.6242L19.0988 23.6243C19.3032 23.6223 19.5042 23.5713 19.6848 23.4755C19.8654 23.3796 20.0203 23.2418 20.1365 23.0736C20.2526 22.9053 20.3267 22.7117 20.3524 22.5088C20.378 22.306 20.3546 22.1 20.284 21.9081ZM10.1737 16.2347L8.50634 14.0377V13.4132C9.04527 13.6179 9.60809 13.753 10.1812 13.8154C10.7222 13.7557 11.2542 13.6321 11.7661 13.4474V14.0414L10.1737 16.2347ZM12.7039 15.3641L12.2459 18.1784L10.7504 16.8781L12.2267 14.8452L12.7039 15.3641ZM6.23498 10.1271C7.05029 10.616 7.92186 11.0042 8.83063 11.2833C8.91298 11.4974 9.05818 11.6817 9.24717 11.8118C9.43615 11.9419 9.66008 12.0119 9.88953 12.0124H10.5832C10.885 12.0124 11.1744 11.8925 11.3878 11.6791C11.6012 11.4657 11.7211 11.1763 11.7211 10.8745C11.7211 10.5727 11.6012 10.2832 11.3878 10.0698C11.1744 9.85639 10.885 9.7365 10.5832 9.7365H9.88951C9.67029 9.73696 9.45587 9.80074 9.27203 9.92016C9.0882 10.0396 8.94277 10.2096 8.85323 10.4097C7.81035 10.0353 6.81594 9.53761 5.89115 8.92726C5.82328 8.54928 5.78371 8.16677 5.77278 7.78291C6.37992 7.70122 6.95253 7.45279 7.42697 7.06522C7.90141 6.67766 8.2591 6.16614 8.4603 5.58751C9.31018 6.99483 10.725 8.33111 12.9328 8.24227C13.4971 8.25482 14.0582 8.15418 14.583 7.94629C14.5117 9.41868 14.02 11.4095 12.0574 12.404C11.4687 12.6976 10.834 12.8879 10.181 12.9668C8.39732 12.7379 6.90961 11.8263 6.23498 10.1271ZM9.59641 10.8745C9.59647 10.7967 9.62737 10.7222 9.68232 10.6673C9.73728 10.6123 9.8118 10.5814 9.88951 10.5814H10.5832C10.6609 10.5814 10.7355 10.6122 10.7904 10.6672C10.8454 10.7222 10.8763 10.7967 10.8763 10.8745C10.8763 10.9522 10.8454 11.0267 10.7904 11.0817C10.7355 11.1367 10.6609 11.1676 10.5832 11.1676H9.88951C9.8118 11.1675 9.73728 11.1366 9.68232 11.0817C9.62737 11.0267 9.59647 10.9522 9.59641 10.8745ZM8.06647 14.8554L9.60573 16.8836L8.11071 18.1834L7.62822 15.3798L8.06647 14.8554Z" fill="#0F0500"/>
<path d="M2.9197 10.4639H4.09232C4.20435 10.4639 4.31179 10.4193 4.39101 10.3401C4.47022 10.2609 4.51473 10.1535 4.51474 10.0414V6.13439C4.82489 -0.924003 15.5432 -0.922669 15.8527 6.13441L15.8527 10.0414C15.8526 10.0969 15.8636 10.1519 15.8848 10.2031C15.906 10.2544 15.9371 10.3009 15.9764 10.3402C16.0156 10.3794 16.0622 10.4105 16.1134 10.4317C16.1647 10.453 16.2196 10.4639 16.2751 10.4639H17.4479C17.7746 10.4635 18.0878 10.3335 18.3188 10.1025C18.5498 9.87152 18.6797 9.55832 18.6801 9.23163V6.94418C18.6797 6.61749 18.5498 6.30428 18.3188 6.07328C18.0878 5.84227 17.7746 5.71233 17.4479 5.71195H16.6749C15.8712 -1.90458 4.49542 -1.90341 3.69249 5.71202L2.9197 5.71195C2.59301 5.71233 2.27981 5.84227 2.04881 6.07328C1.81781 6.30428 1.68787 6.61749 1.6875 6.94418V9.23163C1.68787 9.55832 1.81781 9.87152 2.04881 10.1025C2.27981 10.3335 2.59301 10.4635 2.9197 10.4639ZM16.6975 6.5568H17.4479C17.5506 6.5569 17.6491 6.59774 17.7217 6.67037C17.7943 6.743 17.8352 6.84147 17.8353 6.94418V9.23163C17.8352 9.33434 17.7943 9.43281 17.7217 9.50544C17.6491 9.57807 17.5506 9.61891 17.4479 9.619H16.6975V6.5568ZM2.53236 6.94418C2.53243 6.84147 2.57327 6.74299 2.64589 6.67036C2.71851 6.59773 2.81699 6.55689 2.9197 6.5568H3.66988V9.619H2.9197C2.81699 9.61892 2.71851 9.57808 2.64589 9.50545C2.57327 9.43282 2.53243 9.33434 2.53236 9.23163V6.94418Z" fill="#0F0500"/>
</g>
<defs>
<clipPath id="clip0_1833_660">
<rect width="20.3625" height="23.6243" fill="white"/>
</clipPath>
</defs>
</svg>
