<svg width="32" height="32" viewBox="0 0 32 32" fill="none" xmlns="http://www.w3.org/2000/svg">
<g clip-path="url(#clip0_154_178)">
<path d="M5.33594 0V32H24.0026L32.0026 24V0H5.33594Z" fill="#EFEEEE"/>
<path d="M24 24V32L32 24H24Z" fill="#ABABAB"/>
<path d="M16 32H24V24L16 32Z" fill="#DEDEDD"/>
<path d="M0 8V17.3333H21.3333V8H0Z" fill="#CB5641"/>
<path d="M5.08241 9.82227C5.37574 9.82227 5.62107 9.8716 5.82241 9.97027C6.02374 10.0689 6.18374 10.1983 6.30641 10.3583C6.42907 10.5183 6.51707 10.7009 6.57041 10.9063C6.62241 11.1103 6.65041 11.3209 6.65041 11.5343C6.65041 11.8276 6.60641 12.0836 6.51841 12.3023C6.43041 12.5209 6.30774 12.6996 6.15041 12.8369C5.99307 12.9756 5.80241 13.0809 5.57841 13.1489C5.35441 13.2169 5.10641 13.2543 4.83441 13.2543H4.21841V15.5343H3.06641V9.82227H5.08241ZM4.73041 12.4089C4.95974 12.4089 5.14641 12.3383 5.28641 12.1996C5.42774 12.0609 5.49841 11.8449 5.49841 11.5516C5.49841 11.2636 5.43707 11.0449 5.31441 10.8956C5.19174 10.7476 4.98641 10.6716 4.69841 10.6716H4.21841V12.4089H4.73041Z" fill="white"/>
<path d="M9.96246 9.82031C10.3638 9.82031 10.6851 9.88698 10.9318 10.0176C11.1771 10.1483 11.3678 10.3336 11.5038 10.5776C11.6411 10.8203 11.7318 11.111 11.7798 11.4536C11.8278 11.795 11.8518 12.1763 11.8518 12.5963C11.8518 13.0976 11.8225 13.5336 11.7611 13.9043C11.6998 14.2736 11.5945 14.5803 11.4451 14.8203C11.2958 15.0616 11.0958 15.239 10.8451 15.3563C10.5945 15.4736 10.2771 15.5323 9.89313 15.5323H8.07446V9.82031H9.96246ZM9.73846 14.687C9.94113 14.687 10.1038 14.6523 10.2265 14.583C10.3491 14.5136 10.4465 14.399 10.5185 14.239C10.5918 14.079 10.6398 13.8683 10.6625 13.6056C10.6865 13.3456 10.6985 13.0203 10.6985 12.631C10.6985 12.3056 10.6865 12.0203 10.6665 11.7736C10.6451 11.5283 10.6011 11.3243 10.5345 11.1616C10.4665 10.999 10.3691 10.8763 10.2371 10.795C10.1065 10.7123 9.9318 10.6696 9.71313 10.6696H9.22646V14.687H9.73846Z" fill="white"/>
<path d="M16.6022 9.82227V10.7663H14.5622V12.1103H16.4822V13.0543H14.5622V15.5343H13.4102V9.82227H16.6022Z" fill="white"/>
</g>
<defs>
<clipPath id="clip0_154_178">
<rect width="32" height="32" fill="white"/>
</clipPath>
</defs>
</svg>
