<svg width="37" height="43" viewBox="0 0 37 43" fill="none" xmlns="http://www.w3.org/2000/svg">
<path d="M36.0748 39.0801L33.6699 32.6966C33.052 31.0489 31.8145 29.708 30.2215 28.9603C30.0451 28.8772 29.8428 28.8677 29.6593 28.9337C29.4759 28.9998 29.3261 29.1361 29.2431 29.3125C29.16 29.489 29.1505 29.6912 29.2166 29.8747C29.2826 30.0582 29.4189 30.2079 29.5953 30.2909C30.8419 30.8767 31.8103 31.9262 32.294 33.2158L34.6996 39.6015C34.741 39.7129 34.7549 39.8325 34.7402 39.9504C34.7255 40.0682 34.6825 40.1808 34.615 40.2785C34.5474 40.3761 34.4573 40.4561 34.3523 40.5115C34.2473 40.5669 34.1304 40.5962 34.0116 40.5968L29.7045 40.5968V36.2861C29.702 36.0927 29.6234 35.9081 29.4858 35.7723C29.3482 35.6364 29.1626 35.5602 28.9692 35.5602C28.7758 35.5602 28.5902 35.6364 28.4526 35.7723C28.3149 35.9081 28.2364 36.0927 28.2338 36.2861V40.5968H8.74337V36.2861C8.74051 36.0929 8.66178 35.9087 8.52419 35.7731C8.3866 35.6375 8.20119 35.5615 8.00804 35.5615C7.81488 35.5615 7.62948 35.6375 7.49189 35.7731C7.3543 35.9087 7.27556 36.0929 7.2727 36.2861V40.5968H2.96551C2.84648 40.5962 2.72936 40.5669 2.62414 40.5112C2.51892 40.4555 2.42873 40.3752 2.36126 40.2772C2.29378 40.1791 2.25103 40.0662 2.23664 39.948C2.22226 39.8299 2.23667 39.71 2.27864 39.5986L4.68249 33.2172C4.96017 32.4778 5.3995 31.8098 5.9684 31.262C6.53729 30.7142 7.22137 30.3003 7.97068 30.0507L12.6831 28.4759L13.6567 34.1332C13.6802 34.2608 13.7369 34.3801 13.821 34.4789C13.9052 34.5778 14.0139 34.6528 14.1362 34.6963C14.2585 34.7399 14.3901 34.7506 14.5178 34.7272C14.6455 34.7039 14.7648 34.6473 14.8638 34.5633L17.7531 32.0514V36.286C17.7559 36.4792 17.8347 36.6634 17.9723 36.799C18.1098 36.9346 18.2952 37.0105 18.4884 37.0105C18.6816 37.0105 18.867 36.9345 19.0046 36.799C19.1421 36.6634 19.2209 36.4791 19.2237 36.286V32.051L22.1134 34.5636C22.2129 34.6479 22.3329 34.7043 22.4611 34.7274C22.5894 34.7504 22.7215 34.7392 22.8441 34.6949C22.9667 34.6506 23.0754 34.5747 23.1593 34.4749C23.2432 34.3752 23.2993 34.2551 23.322 34.1267L24.2492 28.4324L26.8981 29.3362C27.0824 29.3982 27.2837 29.3846 27.458 29.2986C27.6323 29.2125 27.7655 29.0609 27.8283 28.8769C27.8912 28.693 27.8786 28.4916 27.7934 28.3169C27.7081 28.1421 27.5572 28.0083 27.3735 27.9446L24.0795 26.8207L22.7181 25.3402V23.6818C27.7932 20.7212 27.8944 15.3106 27.4771 11.7754C26.3906 2.46759 16.5477 2.4056 12.6326 5.57121C12.4841 5.69407 12.3897 5.87037 12.3698 6.06215C12.3499 6.25392 12.4061 6.44583 12.5264 6.59656C12.6466 6.74729 12.8212 6.84479 13.0126 6.86805C13.204 6.89132 13.3968 6.83849 13.5497 6.72095C17.3788 3.72684 25.9845 4.54885 26.1409 13.0951C24.8867 14.1009 22.2702 13.8356 21.3062 13.632C17.8723 12.944 15.97 8.44514 15.9514 8.39993C15.888 8.25513 15.7799 8.13443 15.643 8.0555C15.506 7.97657 15.3474 7.94356 15.1904 7.9613C15.0333 7.97904 14.8861 8.04661 14.7702 8.1541C14.6543 8.26159 14.5759 8.40335 14.5464 8.55864C13.9741 11.9653 11.9476 12.8079 10.8432 13.0126C10.8882 11.5387 11.2417 10.0907 11.8807 8.76177C11.968 8.58969 11.9841 8.39019 11.9256 8.20631C11.8672 8.02243 11.7388 7.8689 11.5681 7.77884C11.3975 7.68877 11.1983 7.66938 11.0135 7.72485C10.8287 7.78032 10.6731 7.90621 10.5802 8.07536C10.0006 9.21641 9.63676 10.4547 9.50704 11.728C9.23755 13.5046 9.28105 15.3148 9.63559 17.0764C9.86451 18.4203 10.3825 19.6985 11.1536 20.8226C11.9248 21.9467 12.9308 22.8901 14.1022 23.5874V25.3539L12.8297 26.8763L7.50498 28.6558C6.54832 28.9742 5.67488 29.5023 4.94849 30.2015C4.22211 30.9007 3.66113 31.7534 3.30656 32.6973L0.903481 39.0773C0.779928 39.4114 0.738562 39.7702 0.782875 40.1236C0.827188 40.477 0.955879 40.8146 1.15808 41.1078C1.36029 41.401 1.63007 41.6413 1.94466 41.8083C2.25924 41.9753 2.60939 42.0642 2.96555 42.0675L34.0117 42.0675C34.3675 42.0642 34.7174 41.9753 35.0317 41.8085C35.3461 41.6417 35.6158 41.4017 35.818 41.1089C36.0202 40.816 36.1491 40.4789 36.1938 40.1258C36.2385 39.7728 36.1977 39.4141 36.0748 39.0801ZM18.4754 29.2041L15.573 25.3798V24.2928C16.5111 24.649 17.4908 24.8842 18.4884 24.9928C19.4301 24.8888 20.3562 24.6738 21.2474 24.3522V25.3862L18.4754 29.2041ZM22.8799 27.6887L22.0825 32.5878L19.4792 30.3242L22.0491 26.7855L22.8799 27.6887ZM11.6191 18.5725C13.0383 19.4235 14.5555 20.0993 16.1375 20.585C16.2808 20.9578 16.5336 21.2786 16.8625 21.5051C17.1915 21.7316 17.5813 21.8534 17.9807 21.8543H19.1882C19.7136 21.8543 20.2174 21.6456 20.5889 21.2741C20.9604 20.9026 21.1691 20.3988 21.1691 19.8734C21.1691 19.348 20.9604 18.8442 20.5889 18.4727C20.2174 18.1012 19.7136 17.8925 19.1882 17.8925H17.9807C17.5991 17.8933 17.2258 18.0043 16.9058 18.2122C16.5858 18.4201 16.3327 18.716 16.1768 19.0643C14.3614 18.4126 12.6304 17.5463 11.0206 16.4838C10.9024 15.8259 10.8336 15.16 10.8145 14.4918C11.8714 14.3496 12.8682 13.9172 13.6941 13.2425C14.5199 12.5679 15.1426 11.6774 15.4928 10.6702C16.9722 13.12 19.4351 15.4461 23.2782 15.2915C24.2606 15.3133 25.2373 15.1381 26.1509 14.7762C26.0266 17.3393 25.1709 20.8048 21.7544 22.5359C20.7297 23.047 19.6249 23.3783 18.4881 23.5157C15.3832 23.1171 12.7935 21.5303 11.6191 18.5725ZM17.4705 19.8734C17.4706 19.7381 17.5244 19.6084 17.62 19.5127C17.7157 19.4171 17.8454 19.3633 17.9807 19.3632H19.1882C19.3235 19.3632 19.4533 19.417 19.549 19.5126C19.6446 19.6083 19.6984 19.7381 19.6984 19.8734C19.6984 20.0087 19.6446 20.1385 19.549 20.2342C19.4533 20.3299 19.3235 20.3836 19.1882 20.3836H17.9807C17.8454 20.3835 17.7157 20.3297 17.62 20.2341C17.5244 20.1384 17.4706 20.0087 17.4705 19.8734ZM14.8073 26.8033L17.4867 30.3337L14.8843 32.5964L14.0444 27.7161L14.8073 26.8033Z" fill="white"/>
<path d="M5.84807 19.1524H7.8893C8.08431 19.1524 8.27133 19.0749 8.40923 18.937C8.54713 18.7991 8.6246 18.6121 8.62461 18.4171V11.6159C9.1645 -0.67095 27.8223 -0.668628 28.361 11.6159L28.361 18.4171C28.361 18.5136 28.38 18.6093 28.4169 18.6985C28.4539 18.7877 28.508 18.8688 28.5763 18.9371C28.6446 19.0053 28.7257 19.0595 28.8149 19.0964C28.9041 19.1334 28.9998 19.1524 29.0963 19.1524H31.1379C31.7066 19.1517 32.2518 18.9255 32.6539 18.5234C33.056 18.1213 33.2822 17.5761 33.2829 17.0074V13.0255C33.2822 12.4568 33.056 11.9116 32.6539 11.5095C32.2518 11.1074 31.7066 10.8812 31.1379 10.8805H29.7923C28.3933 -2.37789 8.59099 -2.37584 7.19329 10.8807L5.84807 10.8805C5.27938 10.8812 4.73418 11.1074 4.33207 11.5095C3.92996 11.9116 3.70377 12.4568 3.70312 13.0255V17.0074C3.70377 17.5761 3.92996 18.1213 4.33207 18.5234C4.73419 18.9255 5.27939 19.1517 5.84807 19.1524ZM29.8317 12.3512H31.1379C31.3167 12.3514 31.4881 12.4225 31.6145 12.5489C31.741 12.6753 31.812 12.8467 31.8122 13.0255V17.0074C31.812 17.1862 31.741 17.3576 31.6145 17.484C31.4881 17.6104 31.3167 17.6815 31.1379 17.6817H29.8317V12.3512ZM5.1738 13.0255C5.17394 12.8467 5.24502 12.6753 5.37143 12.5489C5.49785 12.4224 5.66928 12.3513 5.84807 12.3512H7.15393V17.6817H5.84807C5.66928 17.6815 5.49785 17.6105 5.37143 17.484C5.24502 17.3576 5.17394 17.1862 5.1738 17.0074V13.0255Z" fill="white"/>
</svg>
