<svg width="11" height="11" viewBox="0 0 11 11" fill="none" xmlns="http://www.w3.org/2000/svg">
<path fill-rule="evenodd" clip-rule="evenodd" d="M1.29784 0.235116C1.01347 -0.0660655 0.538796 -0.0796986 0.237615 0.204665C-0.0635659 0.489029 -0.0771989 0.963707 0.207165 1.26489L4.21693 5.51179L0.206353 9.7318C-0.0789951 10.032 -0.0669158 10.5068 0.233333 10.7921C0.533582 11.0775 1.0083 11.0654 1.29365 10.7651L5.51227 6.32623L9.70216 10.7639C9.98653 11.0651 10.4612 11.0787 10.7624 10.7944C11.0636 10.51 11.0772 10.0353 10.7928 9.73414L6.78307 5.48723L10.7936 1.26723C11.079 0.966977 11.0669 0.492257 10.7667 0.206909C10.4664 -0.0784397 9.9917 -0.0663605 9.70635 0.233889L5.48773 4.6728L1.29784 0.235116Z" fill="#EA5404"/>
</svg>
