<svg width="32" height="35" viewBox="0 0 32 35" fill="none" xmlns="http://www.w3.org/2000/svg">
<path d="M19.889 23.298L19.8891 23.298C20.2616 23.4104 20.7302 23.7142 21.2264 24.1247C21.7269 24.5386 22.2694 25.0729 22.7911 25.6633C23.8312 26.8403 24.8043 28.2587 25.1882 29.409L25.1882 29.4091C25.4698 30.2543 25.4511 30.9684 25.0751 31.4975C24.354 32.5125 23.1569 33.2514 21.9822 33.7537C20.8053 34.2569 19.6302 34.5314 18.9305 34.6059L18.9302 34.6059C18.8862 34.6105 18.8419 34.6127 18.7976 34.6124M19.889 23.298L6.22782 3.20675C5.00529 3.525 3.86787 4.41983 2.96809 5.37354C2.06654 6.32913 1.38659 7.36203 1.08281 7.98398L1.08278 7.98405C1.00483 8.14385 0.953668 8.37629 0.920094 8.57711C0.885739 8.7826 0.866958 8.97361 0.859484 9.06076L0.858935 9.06071V9.07358V9.09167C0.705787 13.6674 2.5274 19.1464 5.84301 24.1294L5.84307 24.1294C9.17984 29.1358 13.5157 32.8946 17.7594 34.4249L17.7593 34.425L17.7642 34.4265L17.7855 34.4334L17.7855 34.4335L17.7894 34.4346C17.8467 34.4514 18.408 34.6123 18.7976 34.6124M19.889 23.298C19.6111 23.2143 19.3228 23.1718 19.033 23.1719L19.889 23.298ZM18.7976 34.6124C18.7974 34.6124 18.7973 34.6124 18.7971 34.6124L18.798 34.4624V34.6124C18.7979 34.6124 18.7977 34.6124 18.7976 34.6124ZM10.0942 21.1907L10.0943 21.1908C11.4606 23.2441 13.2752 24.8625 15.1993 25.7515C15.2163 25.7591 15.2448 25.7618 15.2851 25.7425C15.3258 25.7229 15.3685 25.6845 15.3983 25.6315C16.0248 24.5123 17.352 23.172 19.033 23.1719L10.0942 21.1907ZM10.0942 21.1907C8.73463 19.1489 7.93016 16.8392 7.82397 14.6934L7.82395 14.6929M10.0942 21.1907L7.82395 14.6929M7.82395 14.6929C7.82269 14.669 7.83256 14.6406 7.86617 14.6104C7.90082 14.5792 7.95182 14.5556 8.0035 14.5481C9.67801 14.3066 11.6124 13.1552 11.7903 11.1492L11.7903 11.1492M7.82395 14.6929L11.7903 11.1492M11.7903 11.1492C11.82 10.8128 11.7392 10.3366 11.5858 9.79585C11.4312 9.25055 11.1981 8.62415 10.9108 7.98079C10.3372 6.69602 9.54101 5.32908 8.70694 4.397L8.70688 4.39693M11.7903 11.1492L8.70688 4.39693M8.70688 4.39693C7.85691 3.44831 7.0069 3.0033 6.22788 3.20674L8.70688 4.39693ZM2.02614 8.45723L2.02595 8.45762C2.02167 8.46634 2.01196 8.49393 1.99936 8.54584C1.98761 8.59426 1.97548 8.65466 1.9638 8.72201C1.94069 8.8553 1.92039 9.00993 1.90865 9.14163C1.76706 13.4764 3.51303 18.7239 6.71425 23.5354C9.93046 28.3691 14.0813 31.965 18.0941 33.4172C18.1947 33.4457 18.3406 33.4832 18.4822 33.5114C18.6326 33.5413 18.7573 33.5562 18.8216 33.5494C19.41 33.4867 20.4648 33.2417 21.5249 32.7965C22.5879 32.35 23.6324 31.7121 24.2253 30.8766C24.3118 30.7545 24.3427 30.5792 24.329 30.3698C24.3155 30.1629 24.2596 29.9432 24.1958 29.7525L24.1958 29.7524C23.842 28.6925 22.9199 27.4004 21.9571 26.3306C21.4775 25.7977 20.9922 25.3248 20.5697 24.9685C20.3584 24.7903 20.1643 24.6425 19.9956 24.5312C19.8248 24.4186 19.6881 24.3488 19.5904 24.3192L19.6337 24.1756L19.5904 24.3192C19.4094 24.2646 19.2217 24.2368 19.0331 24.2369H19.033C18.4756 24.2369 17.9322 24.4705 17.4554 24.8326C16.9793 25.1942 16.5788 25.6772 16.3095 26.1579C16.2034 26.3548 16.0482 26.52 15.8593 26.6369C15.6699 26.7541 15.4535 26.8184 15.2316 26.8232L15.2286 26.8232C15.069 26.8234 14.9113 26.7885 14.7663 26.721C12.6613 25.7481 10.696 23.9948 9.2275 21.7875C7.76633 19.5918 6.8926 17.0931 6.7789 14.7483L2.02614 8.45723ZM2.02614 8.45723C2.32039 7.85202 2.95133 6.9198 3.7573 6.07477C4.56545 5.22746 5.53109 4.48741 6.49026 4.23796L6.45251 4.09279L6.48984 4.23807C6.52874 4.22807 6.5687 4.22312 6.6088 4.22333H6.60956M2.02614 8.45723L6.60956 4.22333M6.60956 4.22333C6.75959 4.22333 6.95364 4.29005 7.18481 4.4415C7.4138 4.59151 7.66714 4.81677 7.93255 5.11349L7.93258 5.11352M6.60956 4.22333L7.93258 5.11352M7.93258 5.11352C8.69859 5.96938 9.4256 7.2281 9.95113 8.39669M7.93258 5.11352L9.95113 8.39669M9.95113 8.39669C10.2134 8.97996 10.4239 9.5371 10.5632 10.0059M9.95113 8.39669L10.5632 10.0059M10.5632 10.0059C10.7044 10.4809 10.7667 10.8465 10.7483 11.0557M10.5632 10.0059L10.7483 11.0557M10.7483 11.0557C10.6898 11.7152 10.3155 12.2736 9.77541 12.6962C9.23475 13.1193 8.53675 13.3985 7.85751 13.4971C7.21905 13.589 6.74789 14.1219 6.77889 14.7481L10.7483 11.0557Z" fill="#EA5404" stroke="#EA5404" stroke-width="0.3"/>
<path d="M17.2918 9.91031L17.2729 10.0085C17.9135 10.1316 18.5279 10.4436 19.071 10.9248C19.6143 11.4062 20.0721 12.0444 20.4097 12.7946C20.7473 13.5448 20.9555 14.3868 21.0185 15.2594C21.0815 16.1319 20.9976 17.0119 20.7733 17.835C20.7534 17.906 20.755 17.9838 20.7778 18.0537C20.8006 18.1234 20.8456 18.187 20.9112 18.223L20.9121 18.2235L21.2032 18.3794C21.2033 18.3794 21.2035 18.3795 21.2037 18.3796C21.2368 18.3977 21.274 18.4075 21.3126 18.4069C21.3514 18.4064 21.3884 18.3954 21.4211 18.3764L21.3709 18.2899L21.4211 18.3764C21.4537 18.3575 21.481 18.3313 21.5024 18.3013C21.5238 18.2712 21.5396 18.2371 21.5497 18.2014L21.5498 18.2009L17.1871 9.26005L17.0874 9.25192L17.0874 9.25224L17.0535 9.66806L17.0535 9.66806L17.0534 9.66867C17.0479 9.74242 17.0636 9.81851 17.1009 9.88146C17.1382 9.94446 17.1981 9.99492 17.2739 10.0087L17.2918 9.91031ZM17.2918 9.91031C17.2504 9.90278 17.2128 9.87418 17.187 9.83051C17.1611 9.78685 17.149 9.73151 17.1532 9.67619L20.9593 18.1353C20.9206 18.1141 20.8896 18.0737 20.8729 18.0226C20.8562 17.9715 20.855 17.9138 20.8697 17.8617C21.0971 17.0272 21.182 16.1358 21.1182 15.2522C21.0544 14.3687 20.8436 13.5151 20.5009 12.7536C20.1582 11.9921 19.6924 11.3418 19.1373 10.85C18.5822 10.3581 17.9518 10.0371 17.2918 9.91031ZM21.4534 18.1742C21.717 17.2198 21.8168 16.1989 21.7453 15.1865C21.6738 14.1741 21.433 13.1958 21.0404 12.3235C20.6479 11.4511 20.1136 10.7069 19.4767 10.1453C18.8399 9.58366 18.1167 9.21898 17.3601 9.07801L21.4534 18.1742Z" fill="#EA5404" stroke="#EA5404" stroke-width="0.2"/>
<path d="M17.1305 4.59472L17.1305 4.59472L17.1304 4.59495L17.0575 4.97182L17.0575 4.97182L17.0573 4.9726C17.0433 5.04806 17.0591 5.12613 17.1015 5.19016C17.1438 5.25414 17.2094 5.29918 17.2844 5.31528C18.6352 5.60726 19.915 6.1674 21.0494 6.96315C22.1838 7.7589 23.1503 8.7744 23.8925 9.95065C24.6348 11.1269 25.1379 12.4404 25.3728 13.8148C25.6076 15.1892 25.5694 16.597 25.2604 17.9564L25.2603 17.957C25.2438 18.0313 25.2567 18.1093 25.2964 18.1744C25.336 18.2395 25.3994 18.2866 25.4733 18.3056L25.4738 18.3057L25.8422 18.3982L25.867 18.3013L25.8426 18.3983L25.8424 18.3983C25.8795 18.4077 25.918 18.4096 25.9558 18.4038L25.9408 18.305L25.9558 18.4038C25.9937 18.3981 26.03 18.3847 26.0626 18.3646L26.0102 18.2795L26.0626 18.3646C26.0953 18.3445 26.1235 18.3181 26.1458 18.287C26.168 18.2559 26.1839 18.2206 26.1924 18.1833L26.1925 18.1832C26.5316 16.6975 26.5744 15.1586 26.3184 13.656C26.0623 12.1535 25.5125 10.7174 24.7009 9.43144C23.8894 8.14549 22.8323 7.03539 21.5913 6.16591C20.3503 5.29642 18.9501 4.68494 17.4725 4.36716L17.4725 4.36716L17.4721 4.36706C17.4347 4.3592 17.3961 4.3589 17.3586 4.36618C17.3211 4.37345 17.2854 4.38815 17.2537 4.40939C17.2219 4.43062 17.1947 4.45794 17.1736 4.48976C17.1525 4.52157 17.1378 4.55726 17.1305 4.59472Z" fill="#EA5404" stroke="#EA5404" stroke-width="0.2"/>
<path d="M18.2159 1.48543L18.2159 1.48543L18.3025 1.12106C18.311 1.08417 18.3269 1.04939 18.3491 1.01874C18.3714 0.987964 18.3996 0.961998 18.432 0.94225C18.4644 0.922504 18.5005 0.909333 18.538 0.903475C18.5755 0.89762 18.6138 0.899175 18.6507 0.908052L18.6508 0.908079C22.6782 1.88174 26.1795 4.32562 28.4454 7.7453C30.7113 11.165 31.5723 15.3048 30.8536 19.3261L30.8535 19.3264C30.8467 19.3638 30.8325 19.3993 30.8117 19.4311L30.728 19.3764L30.8117 19.4311C30.791 19.4628 30.7641 19.4901 30.7327 19.5114C30.7013 19.5327 30.6661 19.5476 30.629 19.5554C30.5919 19.5631 30.5536 19.5636 30.5163 19.5567L30.5162 19.5567L30.1428 19.4871L30.1427 19.4871C30.0678 19.473 30.0011 19.4304 29.9573 19.3679C29.9135 19.3053 29.8964 19.228 29.91 19.1528C29.91 19.1528 29.91 19.1528 29.91 19.1527L30.0084 19.1705L18.2159 1.48543ZM18.2159 1.48543L18.2157 1.48637M18.2159 1.48543L18.2157 1.48637M18.2157 1.48637C18.1988 1.56066 18.2123 1.63844 18.253 1.70281M18.2157 1.48637L18.253 1.70281M18.253 1.70281C18.2937 1.76712 18.3581 1.81268 18.432 1.83025M18.253 1.70281L18.432 1.83025M18.432 1.83025L18.4552 1.73296L18.432 1.83025ZM28.3621 7.80053C30.6138 11.1989 31.4693 15.3126 30.7551 19.3085L28.3621 7.80053ZM28.3621 7.80053C26.1103 4.40214 22.6304 1.97307 18.6273 1.00528L28.3621 7.80053Z" fill="#EA5404" stroke="#EA5404" stroke-width="0.2"/>
</svg>
