<svg fill="none" height="40" viewBox="0 0 40 40" width="40" xmlns="http://www.w3.org/2000/svg"><g fill="#ffdaba"><path d="m12.7499 21.0984c1.2917-.255 2.0458-1.9466 1.6842-3.7766-.3617-1.83-1.7034-3.1075-2.995-2.8517-1.2917.2558-2.0467 1.9467-1.6842 3.7767s1.7025 3.1075 2.995 2.8516z"/><path d="m30.2412 18.2444c.3621-1.8303-.3919-3.5213-1.6841-3.777-1.2921-.2556-2.6332 1.021-2.9952 2.8513-.3621 1.8303.3919 3.5213 1.684 3.777 1.2922.2556 2.6332-1.021 2.9953-2.8513z"/><path d="m17.1342 16.2263c1.3175 0 2.385-1.5125 2.385-3.3784 0-1.8658-1.0675-3.37915-2.385-3.37915s-2.3842 1.51335-2.3842 3.37915c0 1.8659 1.0675 3.3784 2.3842 3.3784z"/><path d="m22.8554 16.1247c1.3167 0 2.3842-1.5125 2.3842-3.3792 0-1.8666-1.0675-3.37831-2.3842-3.37831-1.3166 0-2.3866 1.51251-2.3866 3.37831 0 1.8659 1.0691 3.3792 2.3866 3.3792z"/><path d="m23.2443 17.9667c-.8517-.8642-2.0342-1.3217-3.24-1.3417-1.2059.02-2.3884.4775-3.24 1.3417-1.0559 1.07-1.4017 2.59-2.2159 3.8183-1.1516 1.7392-3.4075 3.0133-2.8083 5.48.5683 2.3425 3.4383 3.9958 5.7225 3.1383.6883-.2583 1.3117-.7075 2.0375-.825.3344-.0477.6739-.0477 1.0083 0 .7259.1175 1.3492.5667 2.0375.825 2.2842.8575 5.1542-.7958 5.7225-3.1383.5992-2.4667-1.6566-3.7408-2.8083-5.48-.8125-1.2283-1.16-2.7483-2.2158-3.8183z"/></g></svg>