<svg width="16" height="12" viewBox="0 0 16 12" fill="none" xmlns="http://www.w3.org/2000/svg">
<path d="M12.3753 4.11818L1.54928 4.11818C0.693329 4.11818 0 4.90533 0 5.8755C0 6.84567 0.69396 7.63281 1.54928 7.63281L12.3753 7.63281C13.2312 7.63281 13.9246 6.84567 13.9246 5.8755C13.9246 4.90533 13.2306 4.11818 12.3753 4.11818Z" fill="white"/>
<path d="M9.35094 0.00218201C8.95895 0.00218201 8.57011 0.190938 8.29704 0.557726C7.80564 1.21837 7.87862 2.2072 8.46063 2.7656L11.7318 5.90582L8.44993 9.05677C7.86856 9.61517 7.79494 10.6033 8.28634 11.2646C8.77774 11.9253 9.64729 12.0089 10.2293 11.4505L16.004 5.90654L10.24 0.372544C9.98139 0.12373 9.66491 0.00289631 9.35094 0.00289631V0.00218201Z" fill="white"/>
</svg>
