<svg width="18" height="13" viewBox="0 0 18 13" fill="none" xmlns="http://www.w3.org/2000/svg">
<g clip-path="url(#clip0_1703_562)">
<path fill-rule="evenodd" clip-rule="evenodd" d="M8.90907 0.610971C9.2313 0.207498 9.69016 -0.000136358 10.1527 -0.000136358V0.00064947C10.5232 0.00064947 10.8967 0.133567 11.2019 0.407269L18.0037 6.49475L11.1892 12.5932C10.5024 13.2075 9.47632 13.1155 8.89644 12.3888C8.31657 11.6612 8.40344 10.5743 9.08949 9.96005L10.7908 8.43738H1.82502C0.817473 8.43738 0 7.57145 0 6.50417C0 5.43689 0.816731 4.57096 1.82502 4.57096H10.8133L9.10211 3.03967C8.41532 2.42542 8.32919 1.33769 8.90907 0.610971Z" fill="#EA5404"/>
</g>
<defs>
<clipPath id="clip0_1703_562">
<rect width="18" height="13" fill="white" transform="matrix(1 0 0 -1 0 13)"/>
</clipPath>
</defs>
</svg>
