<svg width="56" height="56" viewBox="0 0 56 56" fill="none" xmlns="http://www.w3.org/2000/svg">
<path d="M46.2193 33.3358C46.1116 33.0868 45.9556 32.8617 45.7603 32.6735C45.565 32.4853 45.3342 32.3378 45.0814 32.2395C44.8286 32.1413 44.5588 32.0942 44.2877 32.101C44.0166 32.1078 43.7495 32.1684 43.5019 32.2793L36.489 35.3231C36.5004 35.0145 36.4495 34.7067 36.3392 34.4183C36.2289 34.1298 36.0616 33.8665 35.8472 33.6442C35.6328 33.4219 35.3758 33.2451 35.0915 33.1245C34.8073 33.0038 34.5016 32.9417 34.1927 32.9419H30.5404C28.8695 32.9992 26.4717 32.2899 24.8418 31.9037C22.3223 31.3025 19.6705 31.6288 17.3718 32.8227C17.3725 32.8193 14.7901 34.1806 14.7975 34.166C14.797 33.7352 14.6257 33.3222 14.3212 33.0176C14.0166 32.713 13.6036 32.5416 13.1729 32.5411H11.2502C10.8194 32.5416 10.4064 32.7129 10.1017 33.0175C9.797 33.3222 9.62557 33.7352 9.625 34.166V44.4741C9.62558 44.9049 9.797 45.3179 10.1017 45.6225C10.4064 45.9271 10.8194 46.0985 11.2502 46.099H13.1729C13.6036 46.0985 14.0166 45.9271 14.3212 45.6225C14.6257 45.3178 14.797 44.9048 14.7975 44.4741V44.0081C16.894 42.7305 19.2907 42.0292 21.7452 41.9751C23.2392 42.0034 24.7207 42.254 26.1408 42.7188C27.1151 43.0591 29.9819 42.8485 31.0153 42.905C31.9307 42.904 32.8313 42.6735 33.6345 42.2345L45.315 35.8903C45.7568 35.6536 46.0944 35.2605 46.2617 34.7881C46.4289 34.3156 46.4138 33.7977 46.2193 33.3358ZM13.485 44.4741C13.485 44.5569 13.4521 44.6363 13.3936 44.6949C13.3351 44.7535 13.2557 44.7864 13.1729 44.7865H11.2502C11.1674 44.7864 11.0879 44.7535 11.0293 44.695C10.9706 44.6364 10.9376 44.5569 10.9375 44.4741V34.166C10.9376 34.0831 10.9706 34.0037 11.0293 33.9451C11.0879 33.8866 11.1674 33.8536 11.2502 33.8536H13.1729C13.2557 33.8537 13.3351 33.8866 13.3936 33.9452C13.4521 34.0038 13.485 34.0832 13.485 34.166V44.4741ZM44.6902 34.7361L33.0058 41.0822C32.3954 41.4161 31.711 41.5915 31.0153 41.5924H27.5475C26.6795 41.5093 25.8231 41.3315 24.9936 41.0624C21.8457 40.2801 18.5215 40.6548 15.6267 42.1182L14.7975 42.5373V35.6517L17.9794 33.9866C19.9965 32.9385 22.3238 32.6522 24.5348 33.18L27.4424 33.8879C29.2808 34.4012 32.2816 34.2307 34.1927 34.2544C34.4402 34.2577 34.6775 34.3534 34.8581 34.5227C35.0386 34.692 35.1493 34.9227 35.1684 35.1695C35.1875 35.4163 35.1136 35.6613 34.9613 35.8563C34.809 36.0514 34.5892 36.1825 34.3452 36.2238C32.2705 36.6484 28.9934 36.5183 26.8503 36.5337C26.6763 36.5341 26.5096 36.6035 26.3867 36.7267C26.2638 36.8499 26.1947 37.0167 26.1946 37.1907C26.1945 37.3647 26.2634 37.5317 26.3862 37.6549C26.509 37.7782 26.6757 37.8478 26.8497 37.8484C29.0915 37.8341 32.3763 37.9608 34.5465 37.5206C34.6403 37.6469 43.6863 33.592 44.0506 33.4717C44.2167 33.3988 44.4044 33.3924 44.5752 33.4537C44.7459 33.515 44.8867 33.6394 44.9685 33.8013C45.0504 33.9631 45.0672 34.1502 45.0154 34.3241C44.9636 34.4979 44.8473 34.6454 44.6902 34.7361Z" fill="#EA5404"/>
<path d="M29.0516 30.0992C31.557 30.0963 33.959 29.0972 35.7305 27.321C37.5021 25.5448 38.4987 23.1366 38.5016 20.6247C37.9823 8.05554 20.1189 8.0592 19.6016 20.6248C19.6045 23.1367 20.601 25.5449 22.3726 27.3211C24.1442 29.0972 26.5462 30.0963 29.0516 30.0992ZM29.0516 12.4184C31.2216 12.4209 33.3021 13.2863 34.8365 14.8248C36.371 16.3632 37.2341 18.449 37.2366 20.6247C36.7869 31.5114 21.3146 31.5083 20.8665 20.6247C20.869 18.449 21.7322 16.3632 23.2666 14.8247C24.8011 13.2863 26.8815 12.4209 29.0516 12.4184Z" fill="#EA5404"/>
<path d="M28.3727 25.8992V23.5097H25.6125V22.5107H28.3727V21.8492L28.1191 21.4712H25.6125V20.4722H27.4626L24.8516 16.4492H26.4629L29.059 20.5262L31.6402 16.4492H33.2516L30.6405 20.4722H32.4906V21.4712H29.9841L29.7453 21.8492V22.5107H32.4906V23.5097H29.7453V25.8992H28.3727Z" fill="#EA5404"/>
</svg>
