<svg width="56" height="56" viewBox="0 0 56 56" fill="none" xmlns="http://www.w3.org/2000/svg">
<path d="M43.7169 43.7056L41.5678 38.0011C41.0157 36.5287 39.9098 35.3305 38.4863 34.6623C38.3287 34.5881 38.1479 34.5796 37.984 34.6386C37.82 34.6976 37.6862 34.8194 37.612 34.9771C37.5378 35.1348 37.5293 35.3155 37.5883 35.4794C37.6473 35.6434 37.7691 35.7772 37.9268 35.8514C39.0407 36.3748 39.9061 37.3127 40.3383 38.4651L42.488 44.1715C42.525 44.271 42.5375 44.3779 42.5243 44.4832C42.5111 44.5885 42.4728 44.6891 42.4124 44.7764C42.3521 44.8637 42.2715 44.9352 42.1777 44.9847C42.0838 45.0342 41.9794 45.0604 41.8733 45.0609L38.0243 45.0609V41.2087C38.0221 41.036 37.9519 40.871 37.8289 40.7496C37.7059 40.6282 37.54 40.5601 37.3672 40.5601C37.1944 40.5601 37.0286 40.6282 36.9056 40.7496C36.7826 40.871 36.7124 41.036 36.7101 41.2087V45.0609H19.2931V41.2087C19.2906 41.0362 19.2202 40.8715 19.0972 40.7504C18.9743 40.6292 18.8086 40.5613 18.636 40.5613C18.4634 40.5613 18.2977 40.6292 18.1748 40.7504C18.0518 40.8715 17.9815 41.0362 17.9789 41.2087V45.0609H14.1299C14.0235 45.0604 13.9189 45.0341 13.8249 44.9844C13.7308 44.9347 13.6502 44.8629 13.5899 44.7753C13.5296 44.6877 13.4914 44.5867 13.4786 44.4812C13.4657 44.3756 13.4786 44.2684 13.5161 44.1689L15.6642 38.4664C15.9124 37.8057 16.305 37.2087 16.8133 36.7192C17.3217 36.2296 17.933 35.8598 18.6026 35.6367L22.8137 34.2295L23.6837 39.2849C23.7047 39.399 23.7554 39.5055 23.8306 39.5939C23.9058 39.6822 24.0029 39.7492 24.1122 39.7882C24.2215 39.8271 24.3391 39.8366 24.4532 39.8157C24.5674 39.7949 24.674 39.7443 24.7624 39.6692L27.3443 37.4246V41.2087C27.3469 41.3813 27.4172 41.546 27.5402 41.6671C27.6632 41.7883 27.8288 41.8562 28.0014 41.8562C28.174 41.8562 28.3397 41.7882 28.4627 41.6671C28.5856 41.5459 28.656 41.3813 28.6585 41.2087V37.4243L31.2408 39.6696C31.3297 39.7448 31.4369 39.7953 31.5515 39.8159C31.6662 39.8365 31.7842 39.8265 31.8938 39.7868C32.0033 39.7472 32.1005 39.6794 32.1754 39.5903C32.2504 39.5012 32.3005 39.3938 32.3208 39.2791L33.1494 34.1906L35.5165 34.9982C35.6812 35.0536 35.8611 35.0415 36.0168 34.9646C36.1726 34.8877 36.2916 34.7522 36.3477 34.5878C36.4039 34.4234 36.3927 34.2435 36.3165 34.0873C36.2404 33.9312 36.1055 33.8116 35.9413 33.7546L32.9978 32.7503L31.7811 31.4273V29.9454C36.3163 27.2997 36.4068 22.4647 36.0339 19.3056C35.0629 10.988 26.2672 10.9326 22.7686 13.7614C22.6359 13.8712 22.5515 14.0288 22.5337 14.2002C22.516 14.3715 22.5662 14.543 22.6736 14.6777C22.7811 14.8124 22.9371 14.8995 23.1081 14.9203C23.2792 14.9411 23.4515 14.8939 23.5881 14.7889C27.0099 12.1133 34.7001 12.8478 34.8399 20.4849C33.7191 21.3837 31.3809 21.1466 30.5195 20.9647C27.4509 20.3499 25.751 16.3296 25.7343 16.2892C25.6777 16.1598 25.5811 16.052 25.4587 15.9814C25.3363 15.9109 25.1946 15.8814 25.0543 15.8973C24.9139 15.9131 24.7823 15.9735 24.6788 16.0696C24.5752 16.1656 24.5051 16.2923 24.4788 16.4311C23.9674 19.4753 22.1565 20.2283 21.1695 20.4112C21.2098 19.0941 21.5256 17.8001 22.0967 16.6126C22.1747 16.4588 22.1891 16.2805 22.1368 16.1162C22.0846 15.9519 21.9698 15.8147 21.8174 15.7342C21.6649 15.6537 21.4869 15.6364 21.3217 15.686C21.1566 15.7355 21.0175 15.848 20.9346 15.9992C20.4166 17.0189 20.0915 18.1254 19.9755 19.2632C19.7347 20.8509 19.7736 22.4684 20.0904 24.0427C20.295 25.2436 20.7578 26.3858 21.447 27.3903C22.1361 28.3949 23.0351 29.2379 24.0819 29.861V31.4396L22.9447 32.8001L18.1865 34.3902C17.3316 34.6747 16.5511 35.1466 15.9019 35.7715C15.2528 36.3963 14.7515 37.1583 14.4347 38.0018L12.2873 43.703C12.1768 44.0016 12.1399 44.3223 12.1795 44.6381C12.2191 44.9539 12.3341 45.2555 12.5148 45.5176C12.6955 45.7796 12.9365 45.9943 13.2177 46.1435C13.4988 46.2928 13.8117 46.3722 14.13 46.3751L41.8733 46.3751C42.1913 46.3722 42.5039 46.2928 42.7848 46.1437C43.0658 45.9946 43.3067 45.7802 43.4874 45.5185C43.6682 45.2568 43.7834 44.9555 43.8233 44.64C43.8632 44.3245 43.8267 44.004 43.7169 43.7056ZM27.9898 34.8802L25.3961 31.4628V30.4913C26.2345 30.8097 27.11 31.0199 28.0015 31.1169C28.843 31.024 29.6705 30.8319 30.4669 30.5445V31.4684L27.9898 34.8802ZM31.9258 33.526L31.2132 37.9039L28.8868 35.8812L31.1834 32.7189L31.9258 33.526ZM21.8629 25.3796C23.1312 26.1401 24.487 26.744 25.9006 27.178C26.0287 27.5112 26.2546 27.7978 26.5485 28.0002C26.8425 28.2027 27.1908 28.3114 27.5478 28.3123H28.6268C29.0962 28.3123 29.5465 28.1258 29.8785 27.7938C30.2104 27.4619 30.3969 27.0116 30.3969 26.5421C30.3969 26.0727 30.2104 25.6224 29.8785 25.2904C29.5465 24.9585 29.0962 24.772 28.6268 24.772H27.5477C27.2067 24.7727 26.8732 24.8719 26.5872 25.0577C26.3013 25.2434 26.075 25.5078 25.9358 25.8191C24.3135 25.2367 22.7666 24.4626 21.3281 23.5131C21.2225 22.9252 21.161 22.3302 21.1439 21.7331C22.0884 21.606 22.9791 21.2195 23.7171 20.6166C24.4551 20.0138 25.0116 19.2181 25.3245 18.318C26.6466 20.5071 28.8474 22.5858 32.2817 22.4476C33.1595 22.4671 34.0324 22.3106 34.8487 21.9872C34.7377 24.2776 33.973 27.3745 30.92 28.9214C30.0043 29.3781 29.017 29.6742 28.0011 29.7969C25.2266 29.4408 22.9123 28.0227 21.8629 25.3796ZM27.0918 26.5421C27.0919 26.4212 27.14 26.3053 27.2255 26.2198C27.3109 26.1344 27.4269 26.0863 27.5477 26.0862H28.6268C28.7477 26.0862 28.8637 26.1342 28.9492 26.2197C29.0347 26.3052 29.0827 26.4212 29.0827 26.5421C29.0827 26.6631 29.0347 26.779 28.9492 26.8645C28.8637 26.95 28.7477 26.9981 28.6268 26.9981H27.5477C27.4269 26.998 27.3109 26.9499 27.2255 26.8644C27.14 26.7789 27.0919 26.663 27.0918 26.5421ZM24.7119 32.7348L27.1063 35.8897L24.7807 37.9116L24.0302 33.5505L24.7119 32.7348Z" fill="#EA5404"/>
<path d="M16.698 25.9021H18.5221C18.6964 25.9021 18.8635 25.8329 18.9867 25.7096C19.1099 25.5864 19.1792 25.4193 19.1792 25.245V19.1674C19.6616 8.18766 36.3346 8.18974 36.816 19.1674L36.8159 25.245C36.8159 25.3313 36.8329 25.4168 36.8659 25.4965C36.8989 25.5762 36.9473 25.6487 37.0084 25.7097C37.0694 25.7707 37.1418 25.8191 37.2216 25.8521C37.3013 25.8852 37.3868 25.9021 37.4731 25.9021H39.2974C39.8056 25.9015 40.2928 25.6994 40.6522 25.34C41.0115 24.9807 41.2136 24.4935 41.2142 23.9853V20.4271C41.2136 19.9189 41.0115 19.4317 40.6522 19.0723C40.2928 18.713 39.8056 18.5108 39.2974 18.5103H38.095C36.8448 6.66231 19.1491 6.66415 17.9001 18.5104L16.698 18.5103C16.1898 18.5108 15.7026 18.713 15.3433 19.0723C14.984 19.4317 14.7818 19.9189 14.7812 20.4271V23.9853C14.7818 24.4935 14.984 24.9807 15.3433 25.34C15.7026 25.6994 16.1898 25.9015 16.698 25.9021ZM38.1301 19.8245H39.2975C39.4572 19.8246 39.6104 19.8882 39.7234 20.0011C39.8363 20.1141 39.8999 20.2673 39.9 20.4271V23.9853C39.8999 24.1451 39.8363 24.2983 39.7234 24.4112C39.6104 24.5242 39.4572 24.5877 39.2975 24.5879H38.1301V19.8245ZM16.0955 20.4271C16.0956 20.2673 16.1591 20.1141 16.2721 20.0011C16.385 19.8881 16.5382 19.8246 16.698 19.8245H17.8649V24.5879H16.698C16.5382 24.5878 16.385 24.5242 16.2721 24.4113C16.1591 24.2983 16.0956 24.1451 16.0955 23.9853V20.4271Z" fill="#EA5404"/>
<path d="M16.698 25.9021H18.5221C18.6964 25.9021 18.8635 25.8329 18.9867 25.7096C19.1099 25.5864 19.1792 25.4193 19.1792 25.245V19.1674C19.6616 8.18766 36.3346 8.18974 36.816 19.1674L36.8159 25.245C36.8159 25.3313 36.8329 25.4168 36.8659 25.4965C36.8989 25.5762 36.9473 25.6487 37.0084 25.7097C37.0694 25.7707 37.1418 25.8191 37.2216 25.8521C37.3013 25.8852 37.3868 25.9021 37.4731 25.9021H39.2974C39.8056 25.9015 40.2928 25.6994 40.6522 25.34C41.0115 24.9807 41.2136 24.4935 41.2142 23.9853V20.4271C41.2136 19.9189 41.0115 19.4317 40.6522 19.0723C40.2928 18.713 39.8056 18.5108 39.2974 18.5103H38.095C36.8448 6.66231 19.1491 6.66415 17.9001 18.5104L16.698 18.5103C16.1898 18.5108 15.7026 18.713 15.3433 19.0723C14.984 19.4317 14.7818 19.9189 14.7812 20.4271V23.9853C14.7818 24.4935 14.984 24.9807 15.3433 25.34C15.7026 25.6994 16.1898 25.9015 16.698 25.9021ZM38.1301 19.8245H39.2975C39.4572 19.8246 39.6104 19.8882 39.7234 20.0011C39.8363 20.1141 39.8999 20.2673 39.9 20.4271V23.9853C39.8999 24.1451 39.8363 24.2983 39.7234 24.4112C39.6104 24.5242 39.4572 24.5877 39.2975 24.5879H38.1301V19.8245ZM16.0955 20.4271C16.0956 20.2673 16.1591 20.1141 16.2721 20.0011C16.385 19.8881 16.5382 19.8246 16.698 19.8245H17.8649V24.5879H16.698C16.5382 24.5878 16.385 24.5242 16.2721 24.4113C16.1591 24.2983 16.0956 24.1451 16.0955 23.9853V20.4271Z" stroke="white"/>
</svg>
