<svg xmlns="http://www.w3.org/2000/svg" width="56" height="56" viewBox="0 0 56 56" fill="none">
<path d="M16.5407 33.8662L16.5407 33.8663C16.7877 33.9406 17.0916 34.1387 17.407 34.3992C17.7267 34.663 18.0724 35.0029 18.4044 35.3778C19.065 36.124 19.6873 37.0273 19.9339 37.7651L19.934 37.7651C20.115 38.3076 20.1077 38.7801 19.8549 39.1351C19.3895 39.7889 18.6204 40.261 17.8724 40.5803C17.1222 40.9004 16.3725 41.0754 15.9235 41.1231L15.9232 41.1231L16.5407 33.8662ZM16.5407 33.8662C16.3595 33.8118 16.1716 33.7842 15.9826 33.7842L16.5407 33.8662ZM8.89538 27.6681C8.4656 27.7298 8.14382 28.0893 8.16498 28.5163C8.23753 30.0101 8.79492 31.5994 9.72534 32.9948C10.6604 34.3975 11.9127 35.5133 13.2567 36.1333C13.3558 36.1793 13.4635 36.2031 13.5726 36.203L13.5726 36.203L13.5757 36.2029C13.726 36.1997 13.8727 36.1562 14.0009 36.077C14.1288 35.9981 14.2337 35.8866 14.3055 35.7539C14.4726 35.4561 14.7214 35.1569 15.0164 34.9333C15.312 34.7093 15.6449 34.5679 15.9826 34.5679H15.9827C16.0968 34.5678 16.2104 34.5846 16.3199 34.6176L16.3199 34.6176C16.3742 34.634 16.4556 34.6747 16.5622 34.7449C16.6668 34.8137 16.788 34.9058 16.9207 35.0175C17.1861 35.2409 17.4918 35.538 17.7942 35.8734C18.4027 36.5482 18.9806 37.3582 19.201 38.0173L19.201 38.0174C19.2407 38.1356 19.2745 38.2695 19.2827 38.3937C19.291 38.5204 19.2713 38.6162 19.227 38.6785C18.8604 39.1942 18.21 39.5925 17.54 39.8734C16.8728 40.153 16.2099 40.3064 15.8429 40.3455C15.8115 40.3488 15.7402 40.3412 15.6444 40.3222C15.5573 40.3049 15.4673 40.2819 15.4047 40.2642C12.8775 39.3508 10.2573 37.0874 8.22464 34.0385C6.20144 31.0036 5.10085 27.6979 5.18959 24.9724C5.19691 24.8911 5.2095 24.7955 5.22379 24.7132C5.23106 24.6714 5.23851 24.6345 5.24557 24.6055C5.25277 24.5758 5.25757 24.563 5.25824 24.5612C5.25831 24.561 5.25833 24.5609 5.25832 24.561L5.25851 24.5606C5.44204 24.1839 5.83818 23.5991 6.34546 23.0683C6.8549 22.5352 7.45795 22.0761 8.05082 21.9222L8.01313 21.777L8.0504 21.9223C8.0705 21.9172 8.09115 21.9146 8.11186 21.9147V21.9147H8.11262C8.19263 21.9147 8.30495 21.9508 8.44702 22.0437C8.58692 22.1352 8.74382 22.274 8.90983 22.4592L8.90986 22.4593C9.38988 22.9945 9.84766 23.7847 10.1793 24.5208C10.3447 24.8878 10.4771 25.2377 10.5645 25.5312C10.6538 25.8311 10.6903 26.0534 10.6796 26.1743C10.6443 26.572 10.418 26.9123 10.0844 27.1728C9.75015 27.4339 9.31717 27.607 8.89538 27.6681ZM8.89538 27.6681L8.91668 27.8163L8.89522 27.6681C8.89527 27.6681 8.89533 27.6681 8.89538 27.6681ZM15.1794 41.0129C15.2145 41.0232 15.5774 41.1274 15.8333 41.1275L11.2999 26.2299C11.3688 25.4513 10.4094 23.1913 9.37046 22.0326C8.83748 21.4389 8.33363 21.1942 7.89481 21.3086L7.8571 21.1634C7.85706 21.1634 7.85701 21.1635 7.85697 21.1635C7.06787 21.3685 6.33868 21.9429 5.76594 22.5488C5.19144 23.1565 4.75734 23.8141 4.56219 24.2128L4.56216 24.2129C4.50895 24.3218 4.47556 24.4757 4.45425 24.603C4.43215 24.7349 4.4201 24.8573 4.41529 24.9132L4.41474 24.9131V24.926V24.9365C4.31751 27.844 5.47679 31.3188 7.58133 34.4754L7.58139 34.4755C9.6995 37.6471 12.4547 40.0331 15.1572 41.0057L15.1572 41.0058L15.162 41.0074L15.1755 41.0117L15.1755 41.0118L15.1794 41.0129ZM13.5847 35.4148C13.5792 35.4174 13.5756 35.4183 13.5737 35.4186L15.9826 33.7842C14.8886 33.7843 14.0331 34.6524 13.6321 35.3675L13.7627 35.4407L13.6322 35.3673C13.6185 35.3916 13.5996 35.4076 13.5847 35.4148ZM15.9077 40.9739C16.7739 40.882 18.8486 40.2901 19.7327 39.0481L15.9077 40.9739Z" fill="#EA5404" stroke="#EA5404" stroke-width="0.3"/>
<path d="M14.6876 25.7195L14.6658 25.8679C15.1406 25.9378 15.5944 26.1146 15.9941 26.3856C16.3939 26.6567 16.7295 27.0152 16.9766 27.4354C17.2236 27.8555 17.3757 28.3266 17.4217 28.8144C17.4677 29.3021 17.4065 29.794 17.2427 30.2544C17.2188 30.3202 17.2207 30.3927 17.2483 30.4571C17.276 30.5218 17.3276 30.5739 17.3932 30.6014L17.3944 30.6019L17.6133 30.6916C17.6136 30.6917 17.6138 30.6918 17.614 30.6919C17.6469 30.7056 17.6823 30.7125 17.7181 30.7121C17.7541 30.7117 17.7896 30.7039 17.8224 30.6893C17.8552 30.6748 17.8846 30.6537 17.909 30.6276C17.9333 30.6015 17.9521 30.5708 17.9644 30.5374L17.9647 30.5365L14.6087 25.3445L14.4596 25.3286L14.4595 25.3292L14.434 25.5686L14.434 25.5686L14.4338 25.5698C14.427 25.6395 14.4469 25.7096 14.49 25.7653C14.5331 25.8211 14.5964 25.8583 14.6669 25.8681L14.6876 25.7195ZM14.6876 25.7195C14.6564 25.7152 14.6281 25.6987 14.6086 25.6735C14.5891 25.6483 14.58 25.6164 14.5831 25.5845L17.4513 30.4631C17.4221 30.4509 17.3988 30.4275 17.3862 30.3981C17.3736 30.3686 17.3727 30.3354 17.3838 30.3053M14.6876 25.7195C15.1849 25.7927 15.66 25.9778 16.0783 26.2615C16.4966 26.5451 16.8477 26.9202 17.1059 27.3593C17.3641 27.7985 17.523 28.2908 17.5711 28.8004C17.6191 29.3099 17.5552 29.824 17.3838 30.3053M17.3838 30.3053L17.3838 30.3053L17.3838 30.3053Z" fill="#EA5404" stroke="#EA5404" stroke-width="0.3"/>
<path d="M14.7016 22.6614L14.7016 22.6614C14.7083 22.6268 14.7217 22.5938 14.7411 22.5642C14.7606 22.5347 14.7857 22.5092 14.8152 22.4893C14.8447 22.4694 14.8779 22.4555 14.9129 22.4487C14.9479 22.4418 14.984 22.4421 15.0189 22.4495L15.0196 22.4497L15.0196 22.4497C15.9522 22.6521 16.8359 23.0417 17.619 23.5954C18.4021 24.1492 19.069 24.8561 19.581 25.6749C20.0929 26.4936 20.4397 27.4078 20.6012 28.3642C20.7627 29.3206 20.7357 30.3002 20.5218 31.2459L20.5217 31.246C20.5139 31.2806 20.4993 31.3133 20.4788 31.3422C20.4583 31.3712 20.4321 31.3959 20.4018 31.4148C20.3715 31.4336 20.3376 31.4462 20.3022 31.4517C20.2668 31.4571 20.2308 31.4553 20.1962 31.4465L20.1965 31.4465L20.2333 31.3011L20.1959 31.4464L14.7016 22.6614ZM14.7016 22.6614L14.7015 22.6618L14.656 22.8989L14.656 22.8989L14.6558 22.9C14.6431 22.9692 14.6574 23.0409 14.6961 23.1C14.7348 23.1591 14.7951 23.2012 14.8648 23.2163L14.7016 22.6614Z" fill="#EA5404" stroke="#EA5404" stroke-width="0.3"/>
<path d="M22.2043 31.7449C22.1922 31.8144 22.2074 31.8862 22.2471 31.9449C22.2868 32.0037 22.3483 32.045 22.4188 32.0586L22.4189 32.0587L22.6516 32.1035L22.6518 32.1036C22.6869 32.1103 22.723 32.1099 22.7579 32.1023C22.7928 32.0948 22.8257 32.0803 22.8548 32.0598C22.8839 32.0394 22.9086 32.0134 22.9275 31.9835C22.9464 31.9536 22.9592 31.9203 22.9653 31.8855L22.9654 31.8851C23.4169 29.2703 22.8761 26.5781 21.4522 24.3537C20.0282 22.1293 17.8271 20.5386 15.2942 19.9048L15.294 19.9047C15.2592 19.8961 15.2231 19.8946 15.1878 19.9003C15.1524 19.906 15.1186 19.9188 15.0884 19.9378C15.0583 19.9569 15.0323 19.9817 15.0119 20.0108C14.9917 20.0397 14.9774 20.0723 14.9697 20.1066L14.9158 20.3414L14.9158 20.3414L14.9155 20.3428C14.9004 20.4116 14.9123 20.4838 14.9491 20.544C14.986 20.6044 15.0452 20.6484 15.1146 20.6654L15.1504 20.5198L15.1139 20.6653C17.4528 21.2522 19.4864 22.7222 20.8029 24.779C22.1195 26.8359 22.6205 29.3257 22.2043 31.7449ZM22.2043 31.7449C22.2043 31.7448 22.2043 31.7448 22.2043 31.7447L22.3521 31.7705L22.2043 31.7451C22.2043 31.745 22.2043 31.745 22.2043 31.7449Z" fill="#EA5404" stroke="#EA5404" stroke-width="0.3"/>
<mask id="path-5-outside-1_1703_576" maskUnits="userSpaceOnUse" x="24.4888" y="9" width="28" height="38" fill="black">
<rect fill="white" x="24.4888" y="9" width="28" height="38"/>
<path d="M29.2436 34.7786L28.8744 34.6008C28.769 34.5498 28.6542 34.5195 28.5366 34.5114C28.419 34.5034 28.301 34.5178 28.1892 34.5539C28.0774 34.5899 27.974 34.6469 27.8851 34.7215C27.7962 34.7962 27.7234 34.887 27.6709 34.9889L25.5824 39.0319C25.4767 39.2375 25.4598 39.4752 25.5354 39.6928C25.611 39.9104 25.7729 40.0902 25.9857 40.1927L37.8723 45.909C37.9965 45.9684 38.1332 45.9996 38.2719 46C38.4389 46.0005 38.6028 45.9558 38.7448 45.871C38.8869 45.7863 39.0016 45.6648 39.0758 45.5204L41.1632 41.4773C41.2688 41.2718 41.2857 41.0342 41.2103 40.8167C41.1348 40.5991 40.973 40.4193 40.7604 40.3166L40.3646 40.1259C40.5601 39.7362 40.7013 39.4458 40.7908 39.2463C41.1104 38.5534 41.2916 38.4289 41.5968 38.2228C41.8664 38.0403 42.2021 37.8116 42.6975 37.2286C43.2474 36.5761 43.7631 35.8974 44.2426 35.195H46.9517C47.1896 35.1946 47.4176 35.1032 47.5858 34.9408C47.754 34.7785 47.8486 34.5584 47.8489 34.3288V29.272C48.1444 29.2661 48.4308 29.1716 48.6682 29.0016L50.0502 28.1031L50.0652 28.0928C50.2164 27.9833 50.3438 27.8461 50.44 27.6891C50.5362 27.5321 50.5994 27.3583 50.626 27.1777C50.6526 26.9971 50.642 26.8132 50.5949 26.6365C50.5477 26.4598 50.4649 26.2939 50.3513 26.1481L50.0779 25.797C49.9501 25.6336 49.7864 25.4995 49.5985 25.4043L50.8659 24.5042C51.0171 24.3947 51.1444 24.2575 51.2406 24.1005C51.3367 23.9436 51.3999 23.7698 51.4265 23.5893C51.4531 23.4087 51.4425 23.2249 51.3954 23.0483C51.3483 22.8717 51.2656 22.7057 51.152 22.56L50.8787 22.2084C50.805 22.1139 50.719 22.0289 50.623 21.9555C50.8785 21.7211 51.036 21.4044 51.0654 21.0654C51.0949 20.7264 50.9943 20.3888 50.7828 20.1167L50.5095 19.7656C50.3748 19.5936 50.2008 19.4541 50.001 19.3579C49.8012 19.2617 49.581 19.2114 49.3576 19.2109C49.0471 19.2099 48.7447 19.3071 48.4967 19.4875L47.852 19.945V18.1016C47.9623 18.0599 48.0665 18.0046 48.1621 17.9371L49.2639 17.1963C49.415 17.0868 49.5423 16.9497 49.6385 16.7927C49.7347 16.6357 49.7979 16.462 49.8245 16.2814C49.851 16.1009 49.8405 15.917 49.7934 15.7404C49.7463 15.5638 49.6636 15.3979 49.55 15.2521L49.2767 14.901C49.1156 14.6916 48.8961 14.5308 48.6439 14.4374C48.3916 14.344 48.1169 14.3219 47.852 14.3736V10.8662C47.8518 10.6366 47.7572 10.4166 47.589 10.2542C47.4208 10.0918 47.1928 10.0004 46.9549 10H33.9895C33.7515 10.0003 33.5233 10.0916 33.355 10.254C33.1867 10.4164 33.092 10.6365 33.0918 10.8662V15.722C32.7966 15.4865 32.4802 15.3375 32.1578 15.2938C31.9615 15.266 31.7613 15.2808 31.5717 15.337C31.382 15.3932 31.2077 15.4894 31.0614 15.6187C30.4791 16.1137 30.4897 17.2457 30.5036 18.6788C30.51 19.3142 30.5164 19.9707 30.4652 20.5809C30.2979 22.5857 29.7194 24.315 29.2127 25.8417C28.3933 28.3025 27.6858 30.4276 29.2351 32.4037C29.3576 32.5579 29.868 33.5701 29.3352 34.6013L29.2436 34.7786ZM40.5281 41.172L38.4402 45.214C38.4247 45.2442 38.4007 45.2697 38.3709 45.2874C38.3411 45.3051 38.3068 45.3144 38.2719 45.3143C38.2431 45.3144 38.2148 45.3078 38.1893 45.2952L26.3022 39.5794C26.258 39.558 26.2243 39.5206 26.2086 39.4753C26.193 39.43 26.1965 39.3806 26.2186 39.3378L28.3065 35.2947C28.3221 35.2647 28.3461 35.2395 28.3757 35.2219C28.4053 35.2043 28.4395 35.195 28.4743 35.195C28.5032 35.195 28.5316 35.2015 28.5574 35.214L40.4439 40.9298C40.4883 40.9513 40.5221 40.9888 40.5378 41.0341C40.5536 41.0795 40.5501 41.1291 40.5281 41.172ZM46.9554 34.5098H33.9895C33.9398 34.5096 33.8923 34.4905 33.8572 34.4566C33.8222 34.4227 33.8025 34.3767 33.8025 34.3288V31.338H47.1424V34.3288C47.1424 34.3767 47.1227 34.4227 47.0877 34.4566C47.0526 34.4905 47.005 34.5096 46.9554 34.5098ZM49.5127 26.2088L49.7865 26.5599C49.9016 26.7081 49.9515 26.8941 49.9255 27.0776C49.8994 27.261 49.7996 27.4272 49.6475 27.5402L48.2671 28.4382L48.2522 28.448C48.1756 28.5035 48.0885 28.5439 47.9958 28.567C47.9031 28.59 47.8065 28.5952 47.7117 28.5822C47.6169 28.5692 47.5257 28.5383 47.4433 28.4913C47.3609 28.4443 47.2889 28.3821 47.2314 28.3082L46.9581 27.9571C46.8427 27.809 46.7925 27.623 46.8184 27.4394C46.8444 27.2559 46.9443 27.0896 47.0966 26.9768L47.4386 26.7542C47.6648 26.7182 47.8787 26.63 48.062 26.4972L48.8558 25.9317C48.9809 25.9193 49.1072 25.9382 49.2225 25.9868C49.3378 26.0353 49.4381 26.1118 49.5137 26.2088H49.5127ZM50.7242 23.493C50.7112 23.5842 50.6796 23.672 50.6314 23.7514C50.5831 23.8308 50.519 23.9002 50.4429 23.9556L47.6384 25.9476C47.5619 26.0031 47.4748 26.0436 47.382 26.0666C47.2893 26.0896 47.1928 26.0948 47.098 26.0818C47.0032 26.0688 46.912 26.0379 46.8296 25.9909C46.7471 25.9439 46.6751 25.8817 46.6176 25.8078L46.3443 25.4567C46.2284 25.3081 46.1783 25.1212 46.2049 24.937C46.2314 24.7528 46.3325 24.5863 46.486 24.4738L46.6991 24.3237C46.7434 24.3273 46.7871 24.3309 46.8318 24.3309C47.1423 24.3317 47.4446 24.2346 47.6928 24.0544L50.0231 22.3991C50.1381 22.4475 50.238 22.5241 50.3129 22.6212L50.5867 22.9728C50.6443 23.0464 50.6862 23.1302 50.7099 23.2195C50.7337 23.3088 50.7389 23.4017 50.7253 23.493H50.7242ZM48.9202 20.037C48.9968 19.9815 49.084 19.9411 49.1767 19.9181C49.2694 19.8952 49.366 19.89 49.4608 19.9031C49.5556 19.9161 49.6468 19.947 49.7292 19.9941C49.8116 20.0411 49.8836 20.1034 49.941 20.1773L50.2143 20.5279C50.33 20.6767 50.38 20.8637 50.3534 21.0479C50.3267 21.2322 50.2256 21.3988 50.0721 21.5113L47.2676 23.5033C47.1911 23.5589 47.104 23.5993 47.0113 23.6224C46.9185 23.6455 46.822 23.6506 46.7272 23.6376C46.6323 23.6247 46.5411 23.5938 46.4587 23.5467C46.3763 23.4997 46.3043 23.4374 46.2468 23.3635L45.973 23.0118C45.8572 22.8632 45.8072 22.6764 45.8338 22.4923C45.8605 22.3082 45.9617 22.1418 46.1152 22.0295L48.9202 20.037ZM45.6917 21.4794C45.5405 21.5889 45.4131 21.7261 45.3168 21.8831C45.2206 22.0401 45.1574 22.2139 45.1308 22.3945C45.1043 22.5752 45.1148 22.7591 45.162 22.9357C45.2091 23.1124 45.2919 23.2783 45.4056 23.4241L45.6794 23.7752C45.7533 23.8696 45.8392 23.9546 45.9352 24.0281C45.6795 24.2625 45.5219 24.5793 45.4925 24.9184C45.463 25.2575 45.5637 25.5953 45.7753 25.8674L46.0486 26.218C46.1664 26.3695 46.3151 26.4962 46.4855 26.5902C46.2558 26.8287 46.1202 27.1375 46.1026 27.4626C46.085 27.7878 46.1864 28.1085 46.3891 28.3688L46.6624 28.7199C46.7902 28.8833 46.9539 29.0173 47.1419 29.1122V30.6543H33.8025V12.6633H47.1424V14.7031L46.1712 15.3565C46.0199 15.466 45.8926 15.6031 45.7963 15.7602C45.7001 15.9172 45.6369 16.091 45.6103 16.2716C45.5837 16.4522 45.5943 16.6361 45.6415 16.8128C45.6886 16.9894 45.7714 17.1554 45.8851 17.3012L46.1584 17.6523C46.2752 17.8034 46.4229 17.9297 46.5923 18.0235C46.7618 18.1173 46.9493 18.1766 47.1435 18.1977V20.4498L45.6917 21.4794ZM48.7087 15.3107L48.982 15.6624C49.0967 15.8097 49.1468 15.9946 49.1216 16.1773C49.0964 16.3599 48.9979 16.5258 48.8473 16.6391L47.7466 17.3819C47.5918 17.4938 47.3974 17.5419 47.206 17.5157C47.0145 17.4895 46.8416 17.3911 46.7253 17.2421L46.4519 16.8909C46.3371 16.7437 46.2868 16.5588 46.312 16.3761C46.3371 16.1934 46.4356 16.0275 46.5862 15.9142L47.6885 15.1714C47.8431 15.0594 48.0375 15.0113 48.2289 15.0375C48.4203 15.0637 48.5931 15.1622 48.7093 15.3113L48.7087 15.3107ZM33.9889 10.6842H46.9554C47.005 10.6842 47.0526 10.7032 47.0876 10.7371C47.1227 10.7709 47.1424 10.8168 47.1424 10.8646V11.9776H33.8025V10.8646C33.8025 10.841 33.8073 10.8175 33.8167 10.7956C33.8261 10.7737 33.8399 10.7538 33.8572 10.7371C33.8746 10.7203 33.8952 10.707 33.9179 10.698C33.9406 10.6889 33.9649 10.6842 33.9895 10.6842H33.9889ZM29.8866 26.0515C30.4066 24.4887 30.9964 22.7183 31.1706 20.6359C31.2239 19.9938 31.2175 19.3214 31.2111 18.6711C31.201 17.6158 31.1898 16.4196 31.5308 16.1312C31.6003 16.0674 31.684 16.0199 31.7755 15.9922C31.8671 15.9645 31.9639 15.9573 32.0587 15.9713C32.3981 16.0171 32.7774 16.3003 33.0912 16.7342V34.3288C33.0915 34.5585 33.1862 34.7786 33.3545 34.941C33.5228 35.1034 33.7509 35.1947 33.9889 35.195H43.3917C42.9948 35.7523 42.5793 36.2884 42.1504 36.7953C41.7215 37.3021 41.4381 37.4949 41.1914 37.6615C40.7876 37.9344 40.5207 38.1436 40.1429 38.9692C40.0566 39.1574 39.917 39.4442 39.729 39.8205L29.8792 35.084L29.9708 34.9071C30.6064 33.6765 30.1307 32.4104 29.8019 31.9899C28.4748 30.2981 29.0694 28.5169 29.8893 26.0515H29.8866Z"/>
</mask>
<path d="M29.2436 34.7786L28.8744 34.6008C28.769 34.5498 28.6542 34.5195 28.5366 34.5114C28.419 34.5034 28.301 34.5178 28.1892 34.5539C28.0774 34.5899 27.974 34.6469 27.8851 34.7215C27.7962 34.7962 27.7234 34.887 27.6709 34.9889L25.5824 39.0319C25.4767 39.2375 25.4598 39.4752 25.5354 39.6928C25.611 39.9104 25.7729 40.0902 25.9857 40.1927L37.8723 45.909C37.9965 45.9684 38.1332 45.9996 38.2719 46C38.4389 46.0005 38.6028 45.9558 38.7448 45.871C38.8869 45.7863 39.0016 45.6648 39.0758 45.5204L41.1632 41.4773C41.2688 41.2718 41.2857 41.0342 41.2103 40.8167C41.1348 40.5991 40.973 40.4193 40.7604 40.3166L40.3646 40.1259C40.5601 39.7362 40.7013 39.4458 40.7908 39.2463C41.1104 38.5534 41.2916 38.4289 41.5968 38.2228C41.8664 38.0403 42.2021 37.8116 42.6975 37.2286C43.2474 36.5761 43.7631 35.8974 44.2426 35.195H46.9517C47.1896 35.1946 47.4176 35.1032 47.5858 34.9408C47.754 34.7785 47.8486 34.5584 47.8489 34.3288V29.272C48.1444 29.2661 48.4308 29.1716 48.6682 29.0016L50.0502 28.1031L50.0652 28.0928C50.2164 27.9833 50.3438 27.8461 50.44 27.6891C50.5362 27.5321 50.5994 27.3583 50.626 27.1777C50.6526 26.9971 50.642 26.8132 50.5949 26.6365C50.5477 26.4598 50.4649 26.2939 50.3513 26.1481L50.0779 25.797C49.9501 25.6336 49.7864 25.4995 49.5985 25.4043L50.8659 24.5042C51.0171 24.3947 51.1444 24.2575 51.2406 24.1005C51.3367 23.9436 51.3999 23.7698 51.4265 23.5893C51.4531 23.4087 51.4425 23.2249 51.3954 23.0483C51.3483 22.8717 51.2656 22.7057 51.152 22.56L50.8787 22.2084C50.805 22.1139 50.719 22.0289 50.623 21.9555C50.8785 21.7211 51.036 21.4044 51.0654 21.0654C51.0949 20.7264 50.9943 20.3888 50.7828 20.1167L50.5095 19.7656C50.3748 19.5936 50.2008 19.4541 50.001 19.3579C49.8012 19.2617 49.581 19.2114 49.3576 19.2109C49.0471 19.2099 48.7447 19.3071 48.4967 19.4875L47.852 19.945V18.1016C47.9623 18.0599 48.0665 18.0046 48.1621 17.9371L49.2639 17.1963C49.415 17.0868 49.5423 16.9497 49.6385 16.7927C49.7347 16.6357 49.7979 16.462 49.8245 16.2814C49.851 16.1009 49.8405 15.917 49.7934 15.7404C49.7463 15.5638 49.6636 15.3979 49.55 15.2521L49.2767 14.901C49.1156 14.6916 48.8961 14.5308 48.6439 14.4374C48.3916 14.344 48.1169 14.3219 47.852 14.3736V10.8662C47.8518 10.6366 47.7572 10.4166 47.589 10.2542C47.4208 10.0918 47.1928 10.0004 46.9549 10H33.9895C33.7515 10.0003 33.5233 10.0916 33.355 10.254C33.1867 10.4164 33.092 10.6365 33.0918 10.8662V15.722C32.7966 15.4865 32.4802 15.3375 32.1578 15.2938C31.9615 15.266 31.7613 15.2808 31.5717 15.337C31.382 15.3932 31.2077 15.4894 31.0614 15.6187C30.4791 16.1137 30.4897 17.2457 30.5036 18.6788C30.51 19.3142 30.5164 19.9707 30.4652 20.5809C30.2979 22.5857 29.7194 24.315 29.2127 25.8417C28.3933 28.3025 27.6858 30.4276 29.2351 32.4037C29.3576 32.5579 29.868 33.5701 29.3352 34.6013L29.2436 34.7786ZM40.5281 41.172L38.4402 45.214C38.4247 45.2442 38.4007 45.2697 38.3709 45.2874C38.3411 45.3051 38.3068 45.3144 38.2719 45.3143C38.2431 45.3144 38.2148 45.3078 38.1893 45.2952L26.3022 39.5794C26.258 39.558 26.2243 39.5206 26.2086 39.4753C26.193 39.43 26.1965 39.3806 26.2186 39.3378L28.3065 35.2947C28.3221 35.2647 28.3461 35.2395 28.3757 35.2219C28.4053 35.2043 28.4395 35.195 28.4743 35.195C28.5032 35.195 28.5316 35.2015 28.5574 35.214L40.4439 40.9298C40.4883 40.9513 40.5221 40.9888 40.5378 41.0341C40.5536 41.0795 40.5501 41.1291 40.5281 41.172ZM46.9554 34.5098H33.9895C33.9398 34.5096 33.8923 34.4905 33.8572 34.4566C33.8222 34.4227 33.8025 34.3767 33.8025 34.3288V31.338H47.1424V34.3288C47.1424 34.3767 47.1227 34.4227 47.0877 34.4566C47.0526 34.4905 47.005 34.5096 46.9554 34.5098ZM49.5127 26.2088L49.7865 26.5599C49.9016 26.7081 49.9515 26.8941 49.9255 27.0776C49.8994 27.261 49.7996 27.4272 49.6475 27.5402L48.2671 28.4382L48.2522 28.448C48.1756 28.5035 48.0885 28.5439 47.9958 28.567C47.9031 28.59 47.8065 28.5952 47.7117 28.5822C47.6169 28.5692 47.5257 28.5383 47.4433 28.4913C47.3609 28.4443 47.2889 28.3821 47.2314 28.3082L46.9581 27.9571C46.8427 27.809 46.7925 27.623 46.8184 27.4394C46.8444 27.2559 46.9443 27.0896 47.0966 26.9768L47.4386 26.7542C47.6648 26.7182 47.8787 26.63 48.062 26.4972L48.8558 25.9317C48.9809 25.9193 49.1072 25.9382 49.2225 25.9868C49.3378 26.0353 49.4381 26.1118 49.5137 26.2088H49.5127ZM50.7242 23.493C50.7112 23.5842 50.6796 23.672 50.6314 23.7514C50.5831 23.8308 50.519 23.9002 50.4429 23.9556L47.6384 25.9476C47.5619 26.0031 47.4748 26.0436 47.382 26.0666C47.2893 26.0896 47.1928 26.0948 47.098 26.0818C47.0032 26.0688 46.912 26.0379 46.8296 25.9909C46.7471 25.9439 46.6751 25.8817 46.6176 25.8078L46.3443 25.4567C46.2284 25.3081 46.1783 25.1212 46.2049 24.937C46.2314 24.7528 46.3325 24.5863 46.486 24.4738L46.6991 24.3237C46.7434 24.3273 46.7871 24.3309 46.8318 24.3309C47.1423 24.3317 47.4446 24.2346 47.6928 24.0544L50.0231 22.3991C50.1381 22.4475 50.238 22.5241 50.3129 22.6212L50.5867 22.9728C50.6443 23.0464 50.6862 23.1302 50.7099 23.2195C50.7337 23.3088 50.7389 23.4017 50.7253 23.493H50.7242ZM48.9202 20.037C48.9968 19.9815 49.084 19.9411 49.1767 19.9181C49.2694 19.8952 49.366 19.89 49.4608 19.9031C49.5556 19.9161 49.6468 19.947 49.7292 19.9941C49.8116 20.0411 49.8836 20.1034 49.941 20.1773L50.2143 20.5279C50.33 20.6767 50.38 20.8637 50.3534 21.0479C50.3267 21.2322 50.2256 21.3988 50.0721 21.5113L47.2676 23.5033C47.1911 23.5589 47.104 23.5993 47.0113 23.6224C46.9185 23.6455 46.822 23.6506 46.7272 23.6376C46.6323 23.6247 46.5411 23.5938 46.4587 23.5467C46.3763 23.4997 46.3043 23.4374 46.2468 23.3635L45.973 23.0118C45.8572 22.8632 45.8072 22.6764 45.8338 22.4923C45.8605 22.3082 45.9617 22.1418 46.1152 22.0295L48.9202 20.037ZM45.6917 21.4794C45.5405 21.5889 45.4131 21.7261 45.3168 21.8831C45.2206 22.0401 45.1574 22.2139 45.1308 22.3945C45.1043 22.5752 45.1148 22.7591 45.162 22.9357C45.2091 23.1124 45.2919 23.2783 45.4056 23.4241L45.6794 23.7752C45.7533 23.8696 45.8392 23.9546 45.9352 24.0281C45.6795 24.2625 45.5219 24.5793 45.4925 24.9184C45.463 25.2575 45.5637 25.5953 45.7753 25.8674L46.0486 26.218C46.1664 26.3695 46.3151 26.4962 46.4855 26.5902C46.2558 26.8287 46.1202 27.1375 46.1026 27.4626C46.085 27.7878 46.1864 28.1085 46.3891 28.3688L46.6624 28.7199C46.7902 28.8833 46.9539 29.0173 47.1419 29.1122V30.6543H33.8025V12.6633H47.1424V14.7031L46.1712 15.3565C46.0199 15.466 45.8926 15.6031 45.7963 15.7602C45.7001 15.9172 45.6369 16.091 45.6103 16.2716C45.5837 16.4522 45.5943 16.6361 45.6415 16.8128C45.6886 16.9894 45.7714 17.1554 45.8851 17.3012L46.1584 17.6523C46.2752 17.8034 46.4229 17.9297 46.5923 18.0235C46.7618 18.1173 46.9493 18.1766 47.1435 18.1977V20.4498L45.6917 21.4794ZM48.7087 15.3107L48.982 15.6624C49.0967 15.8097 49.1468 15.9946 49.1216 16.1773C49.0964 16.3599 48.9979 16.5258 48.8473 16.6391L47.7466 17.3819C47.5918 17.4938 47.3974 17.5419 47.206 17.5157C47.0145 17.4895 46.8416 17.3911 46.7253 17.2421L46.4519 16.8909C46.3371 16.7437 46.2868 16.5588 46.312 16.3761C46.3371 16.1934 46.4356 16.0275 46.5862 15.9142L47.6885 15.1714C47.8431 15.0594 48.0375 15.0113 48.2289 15.0375C48.4203 15.0637 48.5931 15.1622 48.7093 15.3113L48.7087 15.3107ZM33.9889 10.6842H46.9554C47.005 10.6842 47.0526 10.7032 47.0876 10.7371C47.1227 10.7709 47.1424 10.8168 47.1424 10.8646V11.9776H33.8025V10.8646C33.8025 10.841 33.8073 10.8175 33.8167 10.7956C33.8261 10.7737 33.8399 10.7538 33.8572 10.7371C33.8746 10.7203 33.8952 10.707 33.9179 10.698C33.9406 10.6889 33.9649 10.6842 33.9895 10.6842H33.9889ZM29.8866 26.0515C30.4066 24.4887 30.9964 22.7183 31.1706 20.6359C31.2239 19.9938 31.2175 19.3214 31.2111 18.6711C31.201 17.6158 31.1898 16.4196 31.5308 16.1312C31.6003 16.0674 31.684 16.0199 31.7755 15.9922C31.8671 15.9645 31.9639 15.9573 32.0587 15.9713C32.3981 16.0171 32.7774 16.3003 33.0912 16.7342V34.3288C33.0915 34.5585 33.1862 34.7786 33.3545 34.941C33.5228 35.1034 33.7509 35.1947 33.9889 35.195H43.3917C42.9948 35.7523 42.5793 36.2884 42.1504 36.7953C41.7215 37.3021 41.4381 37.4949 41.1914 37.6615C40.7876 37.9344 40.5207 38.1436 40.1429 38.9692C40.0566 39.1574 39.917 39.4442 39.729 39.8205L29.8792 35.084L29.9708 34.9071C30.6064 33.6765 30.1307 32.4104 29.8019 31.9899C28.4748 30.2981 29.0694 28.5169 29.8893 26.0515H29.8866Z" fill="#EA5404"/>
<path d="M29.2436 34.7786L28.8744 34.6008C28.769 34.5498 28.6542 34.5195 28.5366 34.5114C28.419 34.5034 28.301 34.5178 28.1892 34.5539C28.0774 34.5899 27.974 34.6469 27.8851 34.7215C27.7962 34.7962 27.7234 34.887 27.6709 34.9889L25.5824 39.0319C25.4767 39.2375 25.4598 39.4752 25.5354 39.6928C25.611 39.9104 25.7729 40.0902 25.9857 40.1927L37.8723 45.909C37.9965 45.9684 38.1332 45.9996 38.2719 46C38.4389 46.0005 38.6028 45.9558 38.7448 45.871C38.8869 45.7863 39.0016 45.6648 39.0758 45.5204L41.1632 41.4773C41.2688 41.2718 41.2857 41.0342 41.2103 40.8167C41.1348 40.5991 40.973 40.4193 40.7604 40.3166L40.3646 40.1259C40.5601 39.7362 40.7013 39.4458 40.7908 39.2463C41.1104 38.5534 41.2916 38.4289 41.5968 38.2228C41.8664 38.0403 42.2021 37.8116 42.6975 37.2286C43.2474 36.5761 43.7631 35.8974 44.2426 35.195H46.9517C47.1896 35.1946 47.4176 35.1032 47.5858 34.9408C47.754 34.7785 47.8486 34.5584 47.8489 34.3288V29.272C48.1444 29.2661 48.4308 29.1716 48.6682 29.0016L50.0502 28.1031L50.0652 28.0928C50.2164 27.9833 50.3438 27.8461 50.44 27.6891C50.5362 27.5321 50.5994 27.3583 50.626 27.1777C50.6526 26.9971 50.642 26.8132 50.5949 26.6365C50.5477 26.4598 50.4649 26.2939 50.3513 26.1481L50.0779 25.797C49.9501 25.6336 49.7864 25.4995 49.5985 25.4043L50.8659 24.5042C51.0171 24.3947 51.1444 24.2575 51.2406 24.1005C51.3367 23.9436 51.3999 23.7698 51.4265 23.5893C51.4531 23.4087 51.4425 23.2249 51.3954 23.0483C51.3483 22.8717 51.2656 22.7057 51.152 22.56L50.8787 22.2084C50.805 22.1139 50.719 22.0289 50.623 21.9555C50.8785 21.7211 51.036 21.4044 51.0654 21.0654C51.0949 20.7264 50.9943 20.3888 50.7828 20.1167L50.5095 19.7656C50.3748 19.5936 50.2008 19.4541 50.001 19.3579C49.8012 19.2617 49.581 19.2114 49.3576 19.2109C49.0471 19.2099 48.7447 19.3071 48.4967 19.4875L47.852 19.945V18.1016C47.9623 18.0599 48.0665 18.0046 48.1621 17.9371L49.2639 17.1963C49.415 17.0868 49.5423 16.9497 49.6385 16.7927C49.7347 16.6357 49.7979 16.462 49.8245 16.2814C49.851 16.1009 49.8405 15.917 49.7934 15.7404C49.7463 15.5638 49.6636 15.3979 49.55 15.2521L49.2767 14.901C49.1156 14.6916 48.8961 14.5308 48.6439 14.4374C48.3916 14.344 48.1169 14.3219 47.852 14.3736V10.8662C47.8518 10.6366 47.7572 10.4166 47.589 10.2542C47.4208 10.0918 47.1928 10.0004 46.9549 10H33.9895C33.7515 10.0003 33.5233 10.0916 33.355 10.254C33.1867 10.4164 33.092 10.6365 33.0918 10.8662V15.722C32.7966 15.4865 32.4802 15.3375 32.1578 15.2938C31.9615 15.266 31.7613 15.2808 31.5717 15.337C31.382 15.3932 31.2077 15.4894 31.0614 15.6187C30.4791 16.1137 30.4897 17.2457 30.5036 18.6788C30.51 19.3142 30.5164 19.9707 30.4652 20.5809C30.2979 22.5857 29.7194 24.315 29.2127 25.8417C28.3933 28.3025 27.6858 30.4276 29.2351 32.4037C29.3576 32.5579 29.868 33.5701 29.3352 34.6013L29.2436 34.7786ZM40.5281 41.172L38.4402 45.214C38.4247 45.2442 38.4007 45.2697 38.3709 45.2874C38.3411 45.3051 38.3068 45.3144 38.2719 45.3143C38.2431 45.3144 38.2148 45.3078 38.1893 45.2952L26.3022 39.5794C26.258 39.558 26.2243 39.5206 26.2086 39.4753C26.193 39.43 26.1965 39.3806 26.2186 39.3378L28.3065 35.2947C28.3221 35.2647 28.3461 35.2395 28.3757 35.2219C28.4053 35.2043 28.4395 35.195 28.4743 35.195C28.5032 35.195 28.5316 35.2015 28.5574 35.214L40.4439 40.9298C40.4883 40.9513 40.5221 40.9888 40.5378 41.0341C40.5536 41.0795 40.5501 41.1291 40.5281 41.172ZM46.9554 34.5098H33.9895C33.9398 34.5096 33.8923 34.4905 33.8572 34.4566C33.8222 34.4227 33.8025 34.3767 33.8025 34.3288V31.338H47.1424V34.3288C47.1424 34.3767 47.1227 34.4227 47.0877 34.4566C47.0526 34.4905 47.005 34.5096 46.9554 34.5098ZM49.5127 26.2088L49.7865 26.5599C49.9016 26.7081 49.9515 26.8941 49.9255 27.0776C49.8994 27.261 49.7996 27.4272 49.6475 27.5402L48.2671 28.4382L48.2522 28.448C48.1756 28.5035 48.0885 28.5439 47.9958 28.567C47.9031 28.59 47.8065 28.5952 47.7117 28.5822C47.6169 28.5692 47.5257 28.5383 47.4433 28.4913C47.3609 28.4443 47.2889 28.3821 47.2314 28.3082L46.9581 27.9571C46.8427 27.809 46.7925 27.623 46.8184 27.4394C46.8444 27.2559 46.9443 27.0896 47.0966 26.9768L47.4386 26.7542C47.6648 26.7182 47.8787 26.63 48.062 26.4972L48.8558 25.9317C48.9809 25.9193 49.1072 25.9382 49.2225 25.9868C49.3378 26.0353 49.4381 26.1118 49.5137 26.2088H49.5127ZM50.7242 23.493C50.7112 23.5842 50.6796 23.672 50.6314 23.7514C50.5831 23.8308 50.519 23.9002 50.4429 23.9556L47.6384 25.9476C47.5619 26.0031 47.4748 26.0436 47.382 26.0666C47.2893 26.0896 47.1928 26.0948 47.098 26.0818C47.0032 26.0688 46.912 26.0379 46.8296 25.9909C46.7471 25.9439 46.6751 25.8817 46.6176 25.8078L46.3443 25.4567C46.2284 25.3081 46.1783 25.1212 46.2049 24.937C46.2314 24.7528 46.3325 24.5863 46.486 24.4738L46.6991 24.3237C46.7434 24.3273 46.7871 24.3309 46.8318 24.3309C47.1423 24.3317 47.4446 24.2346 47.6928 24.0544L50.0231 22.3991C50.1381 22.4475 50.238 22.5241 50.3129 22.6212L50.5867 22.9728C50.6443 23.0464 50.6862 23.1302 50.7099 23.2195C50.7337 23.3088 50.7389 23.4017 50.7253 23.493H50.7242ZM48.9202 20.037C48.9968 19.9815 49.084 19.9411 49.1767 19.9181C49.2694 19.8952 49.366 19.89 49.4608 19.9031C49.5556 19.9161 49.6468 19.947 49.7292 19.9941C49.8116 20.0411 49.8836 20.1034 49.941 20.1773L50.2143 20.5279C50.33 20.6767 50.38 20.8637 50.3534 21.0479C50.3267 21.2322 50.2256 21.3988 50.0721 21.5113L47.2676 23.5033C47.1911 23.5589 47.104 23.5993 47.0113 23.6224C46.9185 23.6455 46.822 23.6506 46.7272 23.6376C46.6323 23.6247 46.5411 23.5938 46.4587 23.5467C46.3763 23.4997 46.3043 23.4374 46.2468 23.3635L45.973 23.0118C45.8572 22.8632 45.8072 22.6764 45.8338 22.4923C45.8605 22.3082 45.9617 22.1418 46.1152 22.0295L48.9202 20.037ZM45.6917 21.4794C45.5405 21.5889 45.4131 21.7261 45.3168 21.8831C45.2206 22.0401 45.1574 22.2139 45.1308 22.3945C45.1043 22.5752 45.1148 22.7591 45.162 22.9357C45.2091 23.1124 45.2919 23.2783 45.4056 23.4241L45.6794 23.7752C45.7533 23.8696 45.8392 23.9546 45.9352 24.0281C45.6795 24.2625 45.5219 24.5793 45.4925 24.9184C45.463 25.2575 45.5637 25.5953 45.7753 25.8674L46.0486 26.218C46.1664 26.3695 46.3151 26.4962 46.4855 26.5902C46.2558 26.8287 46.1202 27.1375 46.1026 27.4626C46.085 27.7878 46.1864 28.1085 46.3891 28.3688L46.6624 28.7199C46.7902 28.8833 46.9539 29.0173 47.1419 29.1122V30.6543H33.8025V12.6633H47.1424V14.7031L46.1712 15.3565C46.0199 15.466 45.8926 15.6031 45.7963 15.7602C45.7001 15.9172 45.6369 16.091 45.6103 16.2716C45.5837 16.4522 45.5943 16.6361 45.6415 16.8128C45.6886 16.9894 45.7714 17.1554 45.8851 17.3012L46.1584 17.6523C46.2752 17.8034 46.4229 17.9297 46.5923 18.0235C46.7618 18.1173 46.9493 18.1766 47.1435 18.1977V20.4498L45.6917 21.4794ZM48.7087 15.3107L48.982 15.6624C49.0967 15.8097 49.1468 15.9946 49.1216 16.1773C49.0964 16.3599 48.9979 16.5258 48.8473 16.6391L47.7466 17.3819C47.5918 17.4938 47.3974 17.5419 47.206 17.5157C47.0145 17.4895 46.8416 17.3911 46.7253 17.2421L46.4519 16.8909C46.3371 16.7437 46.2868 16.5588 46.312 16.3761C46.3371 16.1934 46.4356 16.0275 46.5862 15.9142L47.6885 15.1714C47.8431 15.0594 48.0375 15.0113 48.2289 15.0375C48.4203 15.0637 48.5931 15.1622 48.7093 15.3113L48.7087 15.3107ZM33.9889 10.6842H46.9554C47.005 10.6842 47.0526 10.7032 47.0876 10.7371C47.1227 10.7709 47.1424 10.8168 47.1424 10.8646V11.9776H33.8025V10.8646C33.8025 10.841 33.8073 10.8175 33.8167 10.7956C33.8261 10.7737 33.8399 10.7538 33.8572 10.7371C33.8746 10.7203 33.8952 10.707 33.9179 10.698C33.9406 10.6889 33.9649 10.6842 33.9895 10.6842H33.9889ZM29.8866 26.0515C30.4066 24.4887 30.9964 22.7183 31.1706 20.6359C31.2239 19.9938 31.2175 19.3214 31.2111 18.6711C31.201 17.6158 31.1898 16.4196 31.5308 16.1312C31.6003 16.0674 31.684 16.0199 31.7755 15.9922C31.8671 15.9645 31.9639 15.9573 32.0587 15.9713C32.3981 16.0171 32.7774 16.3003 33.0912 16.7342V34.3288C33.0915 34.5585 33.1862 34.7786 33.3545 34.941C33.5228 35.1034 33.7509 35.1947 33.9889 35.195H43.3917C42.9948 35.7523 42.5793 36.2884 42.1504 36.7953C41.7215 37.3021 41.4381 37.4949 41.1914 37.6615C40.7876 37.9344 40.5207 38.1436 40.1429 38.9692C40.0566 39.1574 39.917 39.4442 39.729 39.8205L29.8792 35.084L29.9708 34.9071C30.6064 33.6765 30.1307 32.4104 29.8019 31.9899C28.4748 30.2981 29.0694 28.5169 29.8893 26.0515H29.8866Z" stroke="#EA5404" stroke-width="0.4" mask="url(#path-5-outside-1_1703_576)"/>
<path d="M40.1282 31.8672C39.9045 31.8671 39.6857 31.931 39.4996 32.0509C39.3136 32.1707 39.1685 32.3411 39.0828 32.5405C38.9971 32.7399 38.9747 32.9594 39.0183 33.1711C39.0618 33.3829 39.1695 33.5774 39.3277 33.73C39.4858 33.8827 39.6874 33.9867 39.9068 34.0289C40.1262 34.071 40.3537 34.0494 40.5604 33.9669C40.7671 33.8843 40.9437 33.7444 41.0681 33.5649C41.1924 33.3854 41.2587 33.1744 41.2587 32.9585C41.2583 32.6693 41.1391 32.392 40.9271 32.1875C40.7152 31.9829 40.4279 31.8677 40.1282 31.8672ZM40.1282 33.3641C40.045 33.3641 39.9638 33.3403 39.8946 33.2958C39.8255 33.2512 39.7716 33.1879 39.7398 33.1137C39.708 33.0396 39.6997 32.9581 39.7159 32.8794C39.7321 32.8007 39.7722 32.7285 39.8309 32.6717C39.8897 32.615 39.9646 32.5764 40.0462 32.5607C40.1277 32.5451 40.2122 32.5531 40.289 32.5838C40.3658 32.6145 40.4315 32.6665 40.4777 32.7332C40.5239 32.7999 40.5485 32.8783 40.5485 32.9585C40.5484 33.0661 40.5041 33.1691 40.4253 33.2452C40.3465 33.3212 40.2396 33.364 40.1282 33.3641Z" fill="#EA5404"/>
</svg>
