<svg width="56" height="56" viewBox="0 0 56 56" fill="none" xmlns="http://www.w3.org/2000/svg">
<g clip-path="url(#clip0_1703_582)">
<path d="M24.4634 7.33065V7.18065H24.3134H18.4899C17.2362 7.18065 16.2123 8.18361 16.2123 9.42217V46.5778C16.2123 47.8164 17.2362 48.8193 18.4899 48.8193H37.5101C38.7127 48.8193 39.704 47.8964 39.7827 46.7278H39.7884V46.5778V9.42217C39.7884 8.18361 38.7644 7.18065 37.5108 7.18065H31.6873H31.5373V7.33065V7.64971C31.5373 8.43859 30.8859 9.08257 30.0771 9.08257H25.9236C25.1148 9.08257 24.4634 8.43859 24.4634 7.64971V7.33065ZM18.4899 5.65H37.5101C39.6298 5.65 41.35 7.34464 41.35 9.42217V46.5778C41.35 48.6554 39.6298 50.35 37.5101 50.35H18.4899C16.3702 50.35 14.65 48.6554 14.65 46.5778V9.42217C14.65 7.34464 16.3702 5.65 18.4899 5.65Z" fill="#EA5404" stroke="white" stroke-width="0.3"/>
<path d="M32.737 46.125H23.2528C22.9409 46.125 22.6875 46.3741 22.6875 46.6807C22.6875 46.9874 22.9409 47.2365 23.2528 47.2365H32.737C33.0489 47.2365 33.3023 46.9874 33.3023 46.6807C33.3023 46.3741 33.0489 46.125 32.737 46.125Z" fill="#EA5404"/>
<rect x="20.25" y="17.8047" width="15.5" height="15.2295" rx="4.5" stroke="#EA5404"/>
<g clip-path="url(#clip1_1703_582)">
<path d="M31.7197 25.2131C30.5203 25.2131 29.5354 26.1593 29.4469 27.3558H29.1221C29.1062 27.1275 28.9923 26.9267 28.8228 26.7963L29.9698 23.8367H30.5107C30.712 23.8367 30.8758 23.6703 30.8758 23.4657V23.0543C30.8758 22.9492 30.8318 22.8485 30.755 22.7785C30.6781 22.708 30.5754 22.6741 30.4726 22.6854L28.8996 22.8529C28.7131 22.8728 28.5727 23.0311 28.5727 23.2217V23.4662C28.5727 23.6708 28.7364 23.8372 28.9377 23.8372H29.5995L28.5542 26.5341L25.6503 23.8588L26.2252 22.0844H26.9505C27.0453 22.0844 27.1226 22.0058 27.1226 21.9094C27.1226 21.813 27.0453 21.7344 26.9505 21.7344H26.1007C26.0265 21.7344 25.9603 21.7828 25.937 21.8545L25.7944 22.2944H22.8514C22.8021 22.2944 22.7555 22.316 22.7232 22.3531C22.6903 22.3903 22.675 22.4398 22.6808 22.4894L22.9441 24.8351C22.9542 24.9234 23.0278 24.9902 23.1152 24.9902H24.9219L24.8275 25.281C24.6522 25.2368 24.4689 25.2131 24.2803 25.2131C23.023 25.2131 22 26.253 22 27.5309C22 28.8087 23.023 29.8486 24.2803 29.8486C25.5375 29.8486 26.5605 28.8087 26.5605 27.5309C26.5605 26.5675 25.9793 25.7403 25.155 25.3908L25.3012 24.9401L27.6641 27.1221C27.6286 27.2115 27.6085 27.3085 27.6085 27.4108C27.6085 27.7032 27.7695 27.9579 28.0064 28.0888L27.7833 28.5804H27.2736C27.1788 28.5804 27.1015 28.659 27.1015 28.7554C27.1015 28.8518 27.1788 28.9304 27.2736 28.9304H28.4795C28.5743 28.9304 28.6517 28.8518 28.6517 28.7554C28.6517 28.659 28.5743 28.5804 28.4795 28.5804H28.1621L28.3433 28.1808C28.3513 28.1808 28.3587 28.1819 28.3666 28.1819C28.6819 28.1819 28.9526 27.9854 29.067 27.7064H29.4474C29.5359 28.903 30.5213 29.8491 31.7203 29.8491C32.9192 29.8491 34.0005 28.8093 34.0005 27.5314C34.0005 26.2535 32.9775 25.2137 31.7203 25.2137L31.7197 25.2131ZM28.9171 23.4657V23.2212C28.9171 23.2104 28.925 23.2013 28.9356 23.2002L30.5086 23.0327C30.5086 23.0327 30.5102 23.0327 30.5107 23.0327C30.516 23.0327 30.5203 23.0343 30.5245 23.0381C30.5293 23.0424 30.5314 23.0478 30.5314 23.0537V23.4651C30.5314 23.477 30.5219 23.4861 30.5107 23.4861H28.9377C28.9261 23.4861 28.9171 23.4764 28.9171 23.4651V23.4657ZM26.2162 27.5309C26.2162 28.6159 25.3478 29.4986 24.2803 29.4986C23.2127 29.4986 22.3444 28.6159 22.3444 27.5309C22.3444 26.4458 23.2127 25.5632 24.2803 25.5632C24.4313 25.5632 24.578 25.5815 24.7195 25.6149L24.1166 27.4759C24.0869 27.5675 24.1362 27.6666 24.2262 27.6967C24.2442 27.7026 24.2623 27.7053 24.2803 27.7053C24.3528 27.7053 24.4201 27.6585 24.444 27.5852L25.0469 25.7242C25.734 26.0263 26.2162 26.722 26.2162 27.5309ZM27.8644 26.8346L25.4183 24.5761L25.5327 24.2223L28.1822 26.6639C28.0625 26.6946 27.9539 26.7538 27.8638 26.8346H27.8644ZM24.0026 23.7861V23.3795H24.5918V23.7861H24.0026ZM24.5918 24.1361V24.6407H24.0026V24.1361H24.5918ZM23.1269 23.3795H23.6583V23.7861H23.1724L23.1269 23.3795ZM24.0026 23.0295V22.6445H24.5918V23.0295H24.0026ZM24.9362 23.3795H25.4432L25.3118 23.7861H24.9362V23.3795ZM25.5566 23.0295H24.9362V22.6445H25.6816L25.5571 23.0295H25.5566ZM23.6583 22.6445V23.0295H23.0877L23.0442 22.6445H23.6583ZM23.2117 24.1361H23.6583V24.6407H23.2683L23.2117 24.1361ZM24.9356 24.6407V24.1361H25.1979L25.0347 24.6407H24.9356ZM28.3661 27.8319C28.1377 27.8319 27.9523 27.6429 27.9523 27.4108C27.9523 27.1787 28.1383 26.9897 28.3661 26.9897C28.5939 26.9897 28.7804 27.1787 28.7804 27.4108C28.7804 27.6429 28.5944 27.8319 28.3661 27.8319ZM31.7197 29.4991C30.7105 29.4991 29.8797 28.7096 29.7918 27.7064H31.7134C31.8082 27.7064 31.8856 27.6283 31.8856 27.5314C31.8856 27.4345 31.8087 27.3564 31.7134 27.3564H29.7918C29.8792 26.3531 30.7099 25.5637 31.7197 25.5637C32.7873 25.5637 33.6556 26.4463 33.6556 27.5314C33.6556 28.6165 32.7873 29.4991 31.7197 29.4991Z" fill="#EA5404"/>
</g>
</g>
<defs>
<clipPath id="clip0_1703_582">
<rect width="27" height="45" fill="white" transform="translate(14.5 5.5)"/>
</clipPath>
<clipPath id="clip1_1703_582">
<rect width="12" height="8.11475" fill="white" transform="translate(22 21.7344)"/>
</clipPath>
</defs>
</svg>
