<svg width="134" height="99" fill="none" xmlns="http://www.w3.org/2000/svg"><path d="M.5 9A7.5 7.5 0 018 1.5h118a7.5 7.5 0 017.5 7.5v82a7.5 7.5 0 01-7.5 7.5H8A7.5 7.5 0 01.5 91V9z" fill="#C6C6C6" stroke="#C6C6C6"/><rect x=".5" y=".5" width="133" height="93" rx="8.5" fill="#fff" stroke="#C6C6C6"/><rect x="1" y="1" width="132" height="92" rx="8" fill="#fff"/><path d="M2 9a7 7 0 017-7h116a7 7 0 017 7v27H2V9z" fill="#057CD8" stroke="#fff" stroke-width="2"/><path d="M26.473 59v-9.8h4.116c.802 0 1.465.215 1.988.644.522.42.784 1.031.784 1.834 0 .57-.131 1.045-.392 1.428a1.86 1.86 0 01-.967.756c.505.093.924.369 1.26.826.346.448.519 1.003.519 1.666 0 .905-.271 1.573-.813 2.002-.54.43-1.283.644-2.226.644h-4.27zm1.61-1.498h2.436c.513 0 .89-.107 1.134-.322.252-.224.378-.574.378-1.05 0-.457-.145-.798-.434-1.022-.29-.233-.65-.35-1.079-.35h-2.436v2.744zm0-4.256h2.226c.429 0 .75-.117.965-.35.215-.233.322-.555.322-.966 0-.41-.116-.719-.35-.924-.223-.205-.545-.308-.965-.308h-2.198v2.548zm8.017 8.54a6.65 6.65 0 01-.63-.028 2.94 2.94 0 01-.532-.07v-1.442c.159.037.322.065.49.084.178.028.346.042.504.042.252 0 .439-.028.56-.084a.64.64 0 00.308-.28c.075-.13.159-.308.252-.532l.182-.49-2.66-6.72h1.638l1.708 4.83 1.61-4.83h1.61l-2.744 7.672c-.224.616-.5 1.078-.826 1.386-.317.308-.807.462-1.47.462zm8.785-2.632a3.239 3.239 0 01-1.666-.434 3.282 3.282 0 01-1.162-1.232c-.28-.532-.42-1.153-.42-1.862 0-.71.14-1.325.42-1.848a3.15 3.15 0 011.162-1.232 3.16 3.16 0 011.666-.448c.55 0 1.05.112 1.498.336.457.224.83.546 1.12.966l-1.26.924c-.29-.532-.742-.798-1.358-.798-.485 0-.882.182-1.19.546-.308.364-.462.882-.462 1.554s.154 1.19.462 1.554c.308.364.705.546 1.19.546.607 0 1.064-.261 1.372-.784l1.246.91c-.29.41-.663.733-1.12.966a3.302 3.302 0 01-1.498.336zM48.864 59v-9.982h1.582V59h-1.582zm6.235.154c-.98 0-1.774-.294-2.38-.882-.607-.597-.91-1.48-.91-2.646 0-.728.135-1.353.406-1.876a2.86 2.86 0 011.134-1.218c.485-.29 1.04-.434 1.666-.434.625 0 1.157.154 1.596.462.438.299.774.71 1.008 1.232.233.523.35 1.11.35 1.764v.364h-4.606c.037.672.214 1.153.532 1.442.317.28.728.42 1.232.42.438 0 .798-.103 1.078-.308.28-.215.522-.532.728-.952l1.162.812c-.346.644-.77 1.11-1.274 1.4-.495.28-1.069.42-1.722.42zm-1.666-4.452h2.982c-.075-.439-.238-.775-.49-1.008-.243-.243-.556-.364-.938-.364-.411 0-.752.112-1.022.336-.262.224-.439.57-.532 1.036zM63.523 59v-9.8h4.116c.803 0 1.466.215 1.988.644.523.42.784 1.031.784 1.834 0 .57-.13 1.045-.392 1.428a1.86 1.86 0 01-.966.756c.504.093.924.369 1.26.826.346.448.518 1.003.518 1.666 0 .905-.27 1.573-.812 2.002-.541.43-1.283.644-2.226.644h-4.27zm1.61-1.498h2.436c.514 0 .892-.107 1.134-.322.252-.224.378-.574.378-1.05 0-.457-.144-.798-.434-1.022-.289-.233-.648-.35-1.078-.35h-2.436v2.744zm0-4.256h2.226c.43 0 .752-.117.966-.35.215-.233.322-.555.322-.966 0-.41-.116-.719-.35-.924-.224-.205-.546-.308-.966-.308h-2.198v2.548zm10.118 5.908c-.98 0-1.773-.294-2.38-.882-.607-.597-.91-1.48-.91-2.646 0-.728.135-1.353.406-1.876.27-.532.649-.938 1.134-1.218.485-.29 1.04-.434 1.666-.434.625 0 1.157.154 1.596.462.439.299.775.71 1.008 1.232.233.523.35 1.11.35 1.764v.364h-4.606c.037.672.215 1.153.532 1.442.317.28.728.42 1.232.42.439 0 .798-.103 1.078-.308.28-.215.523-.532.728-.952l1.162.812c-.345.644-.77 1.11-1.274 1.4-.495.28-1.069.42-1.722.42zm-1.666-4.452h2.982c-.075-.439-.238-.775-.49-1.008-.243-.243-.555-.364-.938-.364-.41 0-.751.112-1.022.336-.261.224-.439.57-.532 1.036zm8.449 4.438c-.55 0-1.074-.093-1.568-.28a3.525 3.525 0 01-1.316-.924l.98-1.05c.523.588 1.185.882 1.988.882.383 0 .658-.051.826-.154.177-.112.266-.313.266-.602a.454.454 0 00-.126-.336c-.084-.093-.243-.177-.476-.252a8.308 8.308 0 00-.994-.238c-.654-.13-1.176-.345-1.568-.644-.392-.299-.588-.77-.588-1.414 0-.42.112-.78.336-1.078a2.18 2.18 0 01.91-.714 3.136 3.136 0 011.274-.252c.523 0 .999.08 1.428.238.43.15.802.387 1.12.714l-.882 1.106a1.929 1.929 0 00-.756-.518 2.54 2.54 0 00-.882-.154c-.346 0-.593.06-.742.182a.556.556 0 00-.21.434c0 .121.032.224.098.308.075.084.215.163.42.238.205.075.504.159.896.252.746.177 1.325.434 1.736.77.41.336.616.807.616 1.414 0 .681-.261 1.2-.784 1.554-.514.345-1.18.518-2.002.518zm6.789.014c-.663 0-1.171-.121-1.526-.364-.345-.243-.518-.728-.518-1.456v-3.71H85.49v-1.358h1.288V49.9h1.568v2.366h1.862v1.358h-1.862v3.304c0 .317.075.532.224.644.159.112.383.168.672.168.177 0 .355-.028.532-.084.187-.056.331-.112.434-.168v1.442a2.96 2.96 0 01-.63.154 4.14 4.14 0 01-.756.07zm9.853-.028a2.7 2.7 0 00-.21-.532 3.849 3.849 0 00-.364-.588 2.67 2.67 0 00-.392-.476c1.278-.196 2.249-.611 2.912-1.246.672-.644 1.026-1.4 1.064-2.268.037-.69-.089-1.307-.378-1.848a3.595 3.595 0 00-1.19-1.316 3.563 3.563 0 00-1.638-.602 19.642 19.642 0 01-.42 2.66 13.603 13.603 0 01-.84 2.548c-.346.793-.77 1.465-1.274 2.016-.383.41-.756.649-1.12.714-.355.065-.733.014-1.134-.154a2.723 2.723 0 01-1.036-.798 3.867 3.867 0 01-.686-1.288 4.572 4.572 0 01-.196-1.61c.046-.85.247-1.624.602-2.324a5.83 5.83 0 011.428-1.834 6.128 6.128 0 012.058-1.162 6.589 6.589 0 012.478-.322 5.57 5.57 0 012.002.476 5.09 5.09 0 011.638 1.162c.476.485.84 1.05 1.092 1.694.261.644.368 1.349.322 2.114-.066 1.279-.514 2.352-1.344 3.22-.831.859-1.956 1.447-3.374 1.764zm-4.55-2.828a.54.54 0 00.322.112c.112 0 .224-.056.336-.168.336-.336.644-.812.924-1.428a10.96 10.96 0 00.714-2.086 13.44 13.44 0 00.378-2.366c-.644.15-1.218.42-1.722.812a4.349 4.349 0 00-1.176 1.428 4.395 4.395 0 00-.49 1.82c-.019.439.037.821.168 1.148.14.317.322.56.546.728zM15.97 79.434c-.69.084-1.302.051-1.834-.098-.532-.14-.947-.378-1.246-.714-.299-.336-.448-.756-.448-1.26 0-.663.266-1.311.798-1.946.541-.644 1.283-1.167 2.226-1.568v-2.114c-.513.037-1.013.065-1.498.084-.476.019-.92.019-1.33 0l-.084-1.61c.355.037.789.051 1.302.042.513-.019 1.05-.056 1.61-.112v-2.254l1.554.014v2.058c.467-.075.9-.154 1.302-.238.41-.093.747-.191 1.008-.294l.168 1.54a8.41 8.41 0 01-1.134.322c-.43.093-.877.177-1.344.252v1.834c.327-.075.667-.13 1.022-.168.355-.037.723-.056 1.106-.056.896 0 1.657.14 2.282.42.635.27 1.115.64 1.442 1.106.327.457.49.975.49 1.554 0 .896-.27 1.6-.812 2.114-.541.513-1.274.765-2.198.756-.719 0-1.325-.177-1.82-.532-.485-.364-.835-.9-1.05-1.61.215-.065.476-.163.784-.294.308-.14.55-.27.728-.392.233.775.681 1.162 1.344 1.162.41 0 .723-.117.938-.35.215-.243.322-.541.322-.896 0-.457-.205-.835-.616-1.134-.41-.308-1.027-.462-1.848-.462-.747 0-1.451.093-2.114.28v3.486c0 .345-.08.597-.238.756-.159.168-.43.275-.812.322zm7.126-6.482a6.421 6.421 0 00-.91-.728 15.7 15.7 0 00-1.176-.756 6.888 6.888 0 00-1.078-.546l.882-1.26c.336.13.705.308 1.106.532.401.224.793.462 1.176.714.383.252.705.495.966.728a8.72 8.72 0 00-.35.42c-.13.177-.257.35-.378.518a6.135 6.135 0 00-.238.378zm-8.134 4.998c.177.01.303-.01.378-.056.084-.047.126-.13.126-.252V75.5c-.43.261-.77.546-1.022.854-.252.308-.378.616-.378.924 0 .215.08.378.238.49.159.112.378.173.658.182zm16.142 2.142v-3.626H26.61v-7.294h4.494v-1.89h1.764v1.89h4.522v7.294h-4.522v3.626h-1.764zm1.764-5.18h2.73V73.54h-2.73v1.372zm-4.466 0h2.702V73.54h-2.702v1.372zm4.466-2.842h2.73v-1.344h-2.73v1.344zm-4.466 0h2.702v-1.344h-2.702v1.344zm16.1 5.572a5.642 5.642 0 00-.574-.602 3.036 3.036 0 00-.644-.504 6.505 6.505 0 001.638-1.638 8.806 8.806 0 001.092-2.072 9.13 9.13 0 00.546-2.184l.84.126a13.552 13.552 0 01-.056-1.274h-2.548v-1.61h4.144c-.084 1.26-.037 2.408.14 3.444a7.335 7.335 0 001.064 2.772c.532.821 1.279 1.559 2.24 2.212a6.26 6.26 0 00-.672.658c-.233.261-.415.471-.546.63a9.727 9.727 0 01-2.128-2.114c-.597-.821-1.04-1.787-1.33-2.898a10.724 10.724 0 01-1.246 2.828 9.112 9.112 0 01-1.96 2.226zm2.87 2.198c-.99 0-1.81-.051-2.464-.154-.653-.093-1.19-.243-1.61-.448a3.749 3.749 0 01-1.078-.742 11.72 11.72 0 01-.658.434 30.73 30.73 0 01-.812.476c-.27.168-.509.308-.714.42l-.686-1.638.672-.266c.27-.112.532-.224.784-.336.252-.121.439-.215.56-.28V73.82H39.7v-1.456h3.262v4.732c.177.448.602.765 1.274.952.681.187 1.727.28 3.136.28 1.195 0 2.221-.019 3.08-.056a25.627 25.627 0 002.086-.182 3.108 3.108 0 00-.154.49 7.11 7.11 0 00-.14.672 6.85 6.85 0 00-.07.56h-1.022c-.42.01-.868.014-1.344.014-.467.01-.915.014-1.344.014h-1.092zm-4.97-9.142a7.416 7.416 0 00-.672-.7 18.14 18.14 0 00-.882-.77 6.823 6.823 0 00-.854-.63l1.05-1.078c.233.13.509.322.826.574.327.243.64.5.938.77.308.261.546.49.714.686a8.92 8.92 0 00-.35.336c-.15.14-.299.285-.448.434-.14.15-.247.275-.322.378zm17.78 9.156a3.584 3.584 0 00-.658-.518 4.488 4.488 0 00-.742-.392 8.14 8.14 0 001.792-1.708 10.18 10.18 0 001.33-2.226c-.401-.121-.807-.22-1.218-.294-.41-.084-.812-.145-1.204-.182a13.45 13.45 0 01-.756 1.26c-.252.373-.509.69-.77.952-.392.401-.821.681-1.288.84a2.75 2.75 0 01-1.33.14 1.81 1.81 0 01-1.036-.546c-.27-.29-.406-.677-.406-1.162 0-.541.177-1.036.532-1.484.355-.448.868-.807 1.54-1.078.681-.27 1.512-.415 2.492-.434a29.062 29.062 0 001.358-3.472c-.345.093-.71.187-1.092.28a37.1 37.1 0 01-1.064.224 12.84 12.84 0 01-.812.14l-.448-1.61c.243-.01.555-.037.938-.084.383-.047.784-.107 1.204-.182.43-.075.83-.154 1.204-.238.383-.084.686-.168.91-.252l1.176.63a24.339 24.339 0 01-.672 2.226 26.5 26.5 0 01-.994 2.45 18.01 18.01 0 012.212.448 8.605 8.605 0 00.28-1.932l1.666.406a10.805 10.805 0 01-.336 1.988c.373.121.737.252 1.092.392.364.14.71.29 1.036.448a3.63 3.63 0 00-.308.448 5.833 5.833 0 00-.308.588 12.33 12.33 0 00-.21.518c-.29-.159-.588-.313-.896-.462a8.234 8.234 0 00-.924-.42 11.93 11.93 0 01-1.386 2.408 8.907 8.907 0 01-1.904 1.89zm-4.816-4.032c.019.121.098.22.238.294.14.065.313.075.518.028.215-.047.443-.187.686-.42.13-.13.27-.299.42-.504.15-.205.299-.439.448-.7-.793.084-1.386.257-1.778.518-.392.252-.57.513-.532.784zm18.802 3.43c-.728-.037-1.311-.252-1.75-.644a1.832 1.832 0 01-.644-1.456c.01-.355.126-.681.35-.98.224-.308.541-.55.952-.728.41-.187.9-.28 1.47-.28.299 0 .579.014.84.042-.01-.41-.023-.877-.042-1.4-.019-.523-.037-1.092-.056-1.708-.579.037-1.139.06-1.68.07-.541 0-1.003-.01-1.386-.028l-.112-1.708c.345.056.798.089 1.358.098.57 0 1.167-.014 1.792-.042l-.028-1.134v-1.19h1.638l-.028 1.092v1.134a40.54 40.54 0 001.526-.154 6.78 6.78 0 001.036-.21v1.68c-.261.056-.616.107-1.064.154-.448.047-.933.093-1.456.14.019.681.042 1.335.07 1.96.028.616.051 1.157.07 1.624a8.59 8.59 0 011.512.714c.485.29.961.611 1.428.966a2.6 2.6 0 00-.364.392c-.13.168-.252.345-.364.532a4.077 4.077 0 00-.252.448 9.191 9.191 0 00-1.932-1.372c-.065.737-.35 1.265-.854 1.582-.495.308-1.171.443-2.03.406zm-5.194.168a13.01 13.01 0 01-.154-1.4 51.319 51.319 0 01-.084-1.918 85.47 85.47 0 010-2.184 55.974 55.974 0 01.21-4.2c.065-.607.14-1.11.224-1.512l1.596.378c-.103.327-.191.765-.266 1.316a29.51 29.51 0 00-.154 1.848 52.036 52.036 0 00-.056 4.186c.028.672.065 1.288.112 1.848.056.56.121 1.013.196 1.358l-1.624.28zm5.32-1.596c.383 0 .667-.075.854-.224.196-.159.294-.439.294-.84v-.098a5.668 5.668 0 00-.994-.14c-.345-.01-.625.047-.84.168-.205.121-.313.28-.322.476-.01.196.08.355.266.476.187.121.434.182.742.182zm12.852.868a6.589 6.589 0 01-1.68-.196 2.884 2.884 0 01-1.26-.742c-.345-.355-.63-.85-.854-1.484l1.484-.812c.121.485.369.854.742 1.106.373.252.896.378 1.568.378a21.034 21.034 0 003.64-.322 8.996 8.996 0 001.386-.35 8 8 0 00.028.588c.028.243.06.48.098.714.047.233.089.415.126.546-.373.121-.85.224-1.428.308a28.075 28.075 0 01-3.85.266zm-2.198-8.232l-.014-1.694c.27.084.607.15 1.008.196.41.047.85.075 1.316.084.476.01.952.005 1.428-.014.476-.028.915-.065 1.316-.112a6.06 6.06 0 00.994-.21v1.708c-.233.075-.55.135-.952.182-.401.047-.84.084-1.316.112-.476.019-.957.023-1.442.014-.485-.01-.933-.037-1.344-.084a6 6 0 01-.994-.182zm15.75 9.352a3.342 3.342 0 00-.168-.574 5.298 5.298 0 00-.266-.63 2.379 2.379 0 00-.322-.518c1.559.121 2.786.005 3.682-.35.896-.364 1.344-.929 1.344-1.694 0-.41-.173-.737-.518-.98-.336-.243-.765-.364-1.288-.364a5.26 5.26 0 00-1.848.35c-.625.224-1.19.607-1.694 1.148-.037.047-.08.098-.126.154-.037.047-.08.093-.126.14l-1.358-.966c.448-.439.83-1.031 1.148-1.778.317-.747.565-1.53.742-2.352a39.014 39.014 0 01-3.318 0l-.112-1.652c.41.056.943.093 1.596.112.653.01 1.358 0 2.114-.028.112-.887.154-1.69.126-2.408h1.764c0 .681-.056 1.456-.168 2.324a53.09 53.09 0 001.89-.168 39.33 39.33 0 001.652-.21 10.14 10.14 0 001.204-.266l-.112 1.652c-.551.121-1.265.233-2.142.336-.877.093-1.797.168-2.758.224-.093.43-.201.859-.322 1.288-.112.43-.247.845-.406 1.246a6.413 6.413 0 011.204-.49 4.096 4.096 0 011.19-.182c.663-.01 1.251.103 1.764.336.523.233.933.57 1.232 1.008.299.43.448.947.448 1.554 0 1.232-.518 2.18-1.554 2.842-1.036.663-2.534.961-4.494.896zm14.224-.07a3.316 3.316 0 00-.168-.532 4.85 4.85 0 00-.28-.644 2.349 2.349 0 00-.336-.504c1.493.037 2.632-.14 3.416-.532.793-.392 1.19-.947 1.19-1.666 0-.42-.168-.747-.504-.98-.336-.233-.775-.35-1.316-.35-.42 0-.868.065-1.344.196a4.33 4.33 0 00-1.358.616 3.55 3.55 0 00-1.064 1.134l-1.498-.658a5.18 5.18 0 00.476-1.218c.14-.495.252-1.008.336-1.54.084-.532.145-1.036.182-1.512.037-.476.042-.868.014-1.176l1.75.21c.009.457-.028.999-.112 1.624a12.639 12.639 0 01-.392 1.834 6.473 6.473 0 011.554-.756 4.912 4.912 0 011.526-.266c.728 0 1.358.126 1.89.378.541.243.961.583 1.26 1.022.299.43.448.924.448 1.484 0 .71-.205 1.349-.616 1.918-.401.56-1.022 1.008-1.862 1.344-.831.336-1.895.527-3.192.574zm2.324-8.974a6.503 6.503 0 00-.84-.56 12.637 12.637 0 00-1.008-.532 10.942 10.942 0 00-1.05-.434 4.902 4.902 0 00-.896-.266l.84-1.456c.243.065.532.168.868.308.336.13.686.28 1.05.448.373.168.723.336 1.05.504.336.168.611.322.826.462l-.84 1.526z" fill="#057CD8"/><path d="M13.002 24.132v-8.624h6.996v8.624h-6.996zm1.397-1.254h4.202v-2.541h-4.202v2.541zm0-3.74h4.202v-2.376h-4.202v2.376zm12.43 5.709v-2.915h-1.727v2.431h-1.309v-3.465h3.036v-.484h-2.068v-2.442h5.467v2.442H28.16v.484h3.124v2.365c0 .403-.103.697-.308.88-.205.183-.543.275-1.012.275h-.858a4.167 4.167 0 00-.11-.638 2.928 2.928 0 00-.176-.594h.748c.147 0 .25-.022.308-.066.059-.051.088-.15.088-.297v-.891H28.16v2.915h-1.331zm-4.158-5.797v-2.585h2.145a13.87 13.87 0 00-.396-.605 4.326 4.326 0 00-.352-.495l1.122-.594c.095.103.209.253.341.451.14.19.268.381.385.572.125.19.209.334.253.429a6.82 6.82 0 00-.231.11c-.08.037-.169.08-.264.132h1.155V14.76h1.331v1.705h1.221c-.22-.095-.403-.172-.55-.231a7.9 7.9 0 00.792-1.474l1.188.506a11.573 11.573 0 01-.671 1.199h2.2v2.585h-1.254v-1.529h-7.15v1.529h-1.265zm3.311.462h3.025v-.638h-3.025v.638zm13.365 4.587a2.111 2.111 0 00-.165-.418 3.025 3.025 0 00-.286-.462 2.094 2.094 0 00-.308-.374c1.005-.154 1.767-.48 2.288-.979.528-.506.807-1.1.836-1.782.03-.543-.07-1.027-.297-1.452a2.82 2.82 0 00-.935-1.034 2.798 2.798 0 00-1.287-.473 15.435 15.435 0 01-.33 2.09 10.675 10.675 0 01-.66 2.002 5.678 5.678 0 01-1.001 1.584c-.3.323-.594.51-.88.561-.279.051-.576.011-.891-.121a2.14 2.14 0 01-.814-.627 3.04 3.04 0 01-.539-1.012 3.593 3.593 0 01-.154-1.265 4.584 4.584 0 011.595-3.267 4.815 4.815 0 011.617-.913 5.177 5.177 0 011.947-.253c.557.03 1.082.154 1.573.374a4 4 0 011.287.913c.374.381.66.825.858 1.331.205.506.29 1.06.253 1.661-.051 1.005-.403 1.848-1.056 2.53-.653.675-1.536 1.137-2.651 1.386zm-3.575-2.222c.08.059.165.088.253.088s.176-.044.264-.132c.264-.264.506-.638.726-1.122a8.62 8.62 0 00.561-1.639 10.56 10.56 0 00.297-1.859 3.44 3.44 0 00-1.353.638 3.417 3.417 0 00-.924 1.122c-.227.433-.356.91-.385 1.43-.015.345.03.645.132.902.11.25.253.44.429.572zm12.21 2.662a4.387 4.387 0 00-.462-.572 3.083 3.083 0 00-.55-.484c.917-.484 1.613-1.089 2.09-1.815.477-.733.752-1.588.825-2.563h-2.112a9.536 9.536 0 01-.858.935 8.1 8.1 0 01-.957.781 6.776 6.776 0 00-.473-.495 2.824 2.824 0 00-.55-.429 6.904 6.904 0 001.463-1.276 8.672 8.672 0 001.111-1.617 7.93 7.93 0 00.704-1.727l1.331.396c-.11.374-.242.74-.396 1.1a9.615 9.615 0 01-.506 1.034h5.269v1.298H51.26c-.073 1.195-.385 2.24-.935 3.135-.543.895-1.324 1.661-2.343 2.299zm8.921-.418a2.53 2.53 0 00-.396-.572 2.605 2.605 0 00-.539-.506c.924-.374 1.69-.898 2.299-1.573.609-.682 1.052-1.544 1.331-2.585l-2.959.099-.11-1.287c.095.007.304.011.627.011.323-.007.719-.015 1.188-.022.477-.007.979-.018 1.507-.033.095-.682.14-1.434.132-2.255l1.364.011c.007.396 0 .777-.022 1.144a15.99 15.99 0 01-.099 1.067l1.43-.044c.447-.015.825-.03 1.133-.044.308-.015.502-.026.583-.033 0 .308-.018.678-.055 1.111a36.721 36.721 0 01-.33 2.629c-.066.403-.132.73-.198.979-.125.506-.293.891-.506 1.155-.213.264-.506.444-.88.539-.367.088-.858.128-1.474.121a4.048 4.048 0 00-.165-.682 2.432 2.432 0 00-.308-.693c.47.007.836-.004 1.1-.033.264-.03.462-.103.594-.22.14-.117.246-.297.319-.539.073-.227.143-.517.209-.869s.125-.722.176-1.111c.051-.396.088-.766.11-1.111l-1.969.066c-.3 1.254-.796 2.317-1.485 3.19a7.544 7.544 0 01-2.607 2.09zm7.216-6.963a5.537 5.537 0 00-.528-.759 6.124 6.124 0 00-.594-.649l.616-.462c.103.095.227.231.374.407.154.176.3.356.44.539.147.176.26.326.341.451l-.649.473zm1.023-.792a4.07 4.07 0 00-.33-.484 6.942 6.942 0 00-.418-.506 4.035 4.035 0 00-.385-.396l.616-.462c.103.095.231.231.385.407.154.169.3.345.44.528.147.176.26.326.341.451l-.649.462zm2.508 7.711c-.051-.3-.092-.667-.121-1.1-.03-.44-.051-.917-.066-1.43a58.878 58.878 0 010-1.606c.015-.55.037-1.085.066-1.606.037-.528.08-1.016.132-1.463.059-.447.125-.829.198-1.144l1.287.264c-.08.264-.15.609-.209 1.034-.059.418-.106.88-.143 1.386a33.814 33.814 0 00-.077 1.54c-.007.528-.004 1.041.011 1.54.015.499.04.95.077 1.353s.084.73.143.979l-1.298.253zm4.675-.594c-1.269-.037-1.987-.451-2.156-1.243a2.367 2.367 0 01-.044-.66c.015-.242.07-.51.165-.803l1.155.286c-.051.14-.08.264-.088.374 0 .11.015.209.044.297.095.264.484.407 1.166.429.33.007.682-.004 1.056-.033.381-.037.752-.088 1.111-.154.367-.066.686-.14.957-.22a25.05 25.05 0 00-.055.418c-.015.176-.026.356-.033.539a4.379 4.379 0 000 .44 9.353 9.353 0 01-1.111.209c-.389.051-.774.088-1.155.11a16.06 16.06 0 01-1.012.011zm-1.65-5.368l-.077-1.353c.279.037.62.059 1.023.066.403.007.821.004 1.254-.011.44-.022.858-.055 1.254-.099a7.261 7.261 0 001.001-.187l-.055 1.331c-.293.051-.634.099-1.023.143a34.625 34.625 0 01-2.398.132c-.374 0-.7-.007-.979-.022zm12.782 6.512c-.821 0-1.485-.227-1.991-.682-.499-.455-.752-1.111-.759-1.969 0-.103.004-.227.011-.374.015-.147.03-.312.044-.495a19.26 19.26 0 01-1.32-.209 6.262 6.262 0 01-.979-.264l.209-1.221c.22.095.528.183.924.264.403.073.829.14 1.276.198a251.898 251.898 0 00.176-1.584 28.229 28.229 0 01-1.133-.187 11.482 11.482 0 01-.814-.176l.22-1.243c.176.066.433.136.77.209.337.066.7.128 1.089.187.059-.477.106-.906.143-1.287.044-.381.073-.664.088-.847l1.375.187a15.16 15.16 0 00-.154.858c-.059.367-.117.781-.176 1.243.264.03.51.051.737.066.227.015.414.018.561.011l-.187 1.243c-.14 0-.319-.007-.539-.022-.22-.022-.462-.048-.726-.077l-.088.781-.066.77c.293.015.565.026.814.033.257 0 .477-.007.66-.022l-.154 1.232c-.198.007-.418.011-.66.011a30.6 30.6 0 01-.748-.033l-.022.363v.319c.007.47.121.818.341 1.045.22.227.58.341 1.078.341.491 0 .876-.11 1.155-.33.286-.227.429-.557.429-.99 0-.367-.114-.759-.341-1.177-.227-.418-.576-.777-1.045-1.078a2.703 2.703 0 001.155-.473c.513.389.906.829 1.177 1.32.271.491.407.979.407 1.463 0 .535-.128.997-.385 1.386-.25.389-.594.686-1.034.891-.44.213-.946.319-1.518.319zm6.116.176v-5.082c-.08.125-.165.25-.253.374a3.93 3.93 0 01-.253.33 3.897 3.897 0 00-.462-.429 2.352 2.352 0 00-.528-.352c.264-.308.517-.671.759-1.089.25-.425.473-.865.671-1.32.205-.462.378-.91.517-1.342.147-.433.25-.814.308-1.144l1.254.286a12.23 12.23 0 01-.352 1.155 18.89 18.89 0 01-.44 1.166v6.281c.257-.52.433-1.122.528-1.804.095-.682.143-1.434.143-2.255v-2.057h1.705v-.726h-1.551v-1.056h1.551v-.935h1.21v.935h.957v-.935h1.21v.935h1.595v1.056h-1.595v.726h1.881v1.078h-5.819v.979c0 1.137-.077 2.112-.231 2.926-.154.807-.41 1.503-.77 2.09a2.066 2.066 0 00-.374-.242 3.766 3.766 0 00-.44-.187v.638h-1.221zm3.531-.011v-5.665h4.906l-.011 4.708c0 .337-.088.58-.264.726-.169.154-.447.231-.836.231h-.418a5.9 5.9 0 00-.088-.55 2.593 2.593 0 00-.143-.506h.374c.125 0 .205-.015.242-.044.044-.037.066-.117.066-.242v-.363h-.858v1.474h-1.056v-1.474h-.836v1.705h-1.078zm1.276-7.271h.957v-.726h-.957v.726zm1.694 4.697h.858v-.638h-.858v.638zm0-1.507h.858v-.627h-.858v.627zm-1.892 1.507h.836v-.638h-.836v.638zm0-1.507h.836v-.627h-.836v.627zm12.562 3.784c-.44 0-.792-.055-1.056-.165a1 1 0 01-.561-.572c-.11-.279-.161-.66-.154-1.144.015-.477.004-.803-.033-.979-.037-.176-.106-.286-.209-.33-.242-.103-.458-.04-.649.187-.367.425-.719.836-1.056 1.232l-.88 1.034c-.249.3-.436.532-.561.693l-1.122-.825c.176-.154.403-.374.682-.66.279-.286.583-.609.913-.968.33-.367.656-.737.979-1.111.33-.381.634-.737.913-1.067.279-.33.502-.609.671-.836-.205.037-.458.077-.759.121s-.612.088-.935.132c-.315.037-.605.07-.869.099-.264.03-.462.048-.594.055l-.198-1.221c.183 0 .425-.007.726-.022.301-.022.631-.051.99-.088s.722-.077 1.089-.121c.367-.051.708-.103 1.023-.154.315-.059.579-.117.792-.176l.935.781a4.056 4.056 0 00-.385.396c-.176.19-.385.425-.627.704-.242.271-.502.565-.781.88a.63.63 0 01.363.022c.147.037.264.084.352.143.103.066.183.15.242.253.066.103.114.25.143.44.029.183.04.436.033.759-.007.374.015.649.066.825.051.169.136.275.253.319.125.044.286.07.484.077.183 0 .396-.007.638-.022.242-.022.48-.051.715-.088.242-.037.447-.077.616-.121a1.772 1.772 0 00-.088.396 6.973 6.973 0 00-.011.946 8.358 8.358 0 01-.704.088 13.795 13.795 0 01-1.386.088zm-.913-7.359a12.602 12.602 0 01-.66-.176c-.271-.088-.561-.183-.869-.286-.301-.11-.583-.216-.847-.319a4.793 4.793 0 01-.583-.286l.594-1.1c.103.066.268.147.495.242.235.095.491.194.77.297.286.095.565.183.836.264.271.08.499.14.682.176l-.418 1.188zm9.966 7.216c-.88 0-1.529-.165-1.947-.495-.418-.337-.627-.748-.627-1.232 0-.315.077-.583.231-.803a1.51 1.51 0 01.605-.506 1.77 1.77 0 01.803-.187c.543 0 .979.169 1.309.506.337.337.554.755.649 1.254.271-.125.491-.315.66-.572.176-.257.264-.565.264-.924 0-.308-.073-.583-.22-.825a1.535 1.535 0 00-.627-.572 1.872 1.872 0 00-.924-.22c-.491 0-.92.059-1.287.176a2.789 2.789 0 00-.979.561c-.132.117-.308.268-.528.451a14.13 14.13 0 01-.605.495l-.902-.968c.33-.19.682-.433 1.056-.726s.752-.62 1.133-.979c.381-.36.744-.73 1.089-1.111.345-.389.653-.77.924-1.144-.315.073-.66.143-1.034.209-.367.066-.722.121-1.067.165-.337.044-.623.073-.858.088l-.242-1.254c.198.015.444.015.737 0 .301-.022.623-.048.968-.077.345-.037.678-.08 1.001-.132.33-.051.623-.103.88-.154.264-.059.458-.117.583-.176l.99.66a8.874 8.874 0 01-1.034 1.551 19.764 19.764 0 01-1.397 1.551 1.72 1.72 0 01.418-.132 1.94 1.94 0 01.451-.055c.579 0 1.082.11 1.507.33.425.22.755.528.99.924.242.389.363.843.363 1.364a2.77 2.77 0 01-.418 1.496 2.901 2.901 0 01-1.155 1.067c-.499.264-1.085.396-1.76.396zm-.143-1.21c-.037-.279-.125-.502-.264-.671a.636.636 0 00-.528-.253.493.493 0 00-.297.088c-.081.059-.121.147-.121.264 0 .154.081.282.242.385.169.103.447.161.836.176a.209.209 0 00.066.011h.066z" fill="#fff"/></svg>