<svg width="134" height="99" fill="none" xmlns="http://www.w3.org/2000/svg"><path d="M.5 9A7.5 7.5 0 018 1.5h118a7.5 7.5 0 017.5 7.5v82a7.5 7.5 0 01-7.5 7.5H8A7.5 7.5 0 01.5 91V9z" fill="#C6C6C6" stroke="#C6C6C6"/><rect x=".5" y=".5" width="133" height="93" rx="8.5" fill="#fff" stroke="#C6C6C6"/><rect x="1" y="1" width="132" height="92" rx="8" fill="#fff"/><path d="M2 9a7 7 0 017-7h116a7 7 0 017 7v27H2V9z" fill="#EA5404" stroke="#fff" stroke-width="2"/><path d="M42.469 59v-9.8h4.116c.802 0 1.465.215 1.988.644.522.42.784 1.031.784 1.834 0 .57-.131 1.045-.392 1.428a1.86 1.86 0 01-.966.756c.504.093.924.369 1.26.826.345.448.518 1.003.518 1.666 0 .905-.271 1.573-.812 2.002-.542.43-1.284.644-2.226.644h-4.27zm1.61-1.498h2.436c.513 0 .89-.107 1.134-.322.252-.224.378-.574.378-1.05 0-.457-.145-.798-.434-1.022-.29-.233-.65-.35-1.078-.35h-2.436v2.744zm0-4.256h2.226c.429 0 .75-.117.966-.35.214-.233.322-.555.322-.966 0-.41-.117-.719-.35-.924-.224-.205-.546-.308-.966-.308h-2.198v2.548zm8.017 8.54a6.65 6.65 0 01-.63-.028 2.941 2.941 0 01-.532-.07v-1.442c.159.037.322.065.49.084.178.028.346.042.504.042.252 0 .439-.028.56-.084a.638.638 0 00.308-.28 4.93 4.93 0 00.252-.532l.182-.49-2.66-6.72h1.638l1.708 4.83 1.61-4.83h1.61l-2.744 7.672c-.224.616-.499 1.078-.826 1.386-.317.308-.807.462-1.47.462zm8.785-2.632a3.239 3.239 0 01-1.666-.434 3.282 3.282 0 01-1.162-1.232c-.28-.532-.42-1.153-.42-1.862 0-.71.14-1.325.42-1.848a3.15 3.15 0 011.162-1.232 3.16 3.16 0 011.666-.448c.55 0 1.05.112 1.498.336.457.224.83.546 1.12.966l-1.26.924c-.29-.532-.742-.798-1.358-.798-.485 0-.882.182-1.19.546-.308.364-.462.882-.462 1.554s.154 1.19.462 1.554c.308.364.705.546 1.19.546.607 0 1.064-.261 1.372-.784l1.246.91c-.29.41-.663.733-1.12.966a3.302 3.302 0 01-1.498.336zM64.86 59v-9.982h1.582V59H64.86zm6.235.154c-.98 0-1.774-.294-2.38-.882-.607-.597-.91-1.48-.91-2.646 0-.728.135-1.353.406-1.876a2.86 2.86 0 011.134-1.218c.485-.29 1.04-.434 1.666-.434.625 0 1.157.154 1.596.462.438.299.774.71 1.008 1.232.233.523.35 1.11.35 1.764v.364h-4.606c.037.672.214 1.153.532 1.442.317.28.728.42 1.232.42.438 0 .798-.103 1.078-.308.28-.215.522-.532.728-.952l1.162.812c-.346.644-.77 1.11-1.274 1.4-.495.28-1.069.42-1.722.42zm-1.666-4.452h2.982c-.075-.439-.238-.775-.49-1.008-.243-.243-.556-.364-.938-.364-.41 0-.752.112-1.022.336-.262.224-.439.57-.532 1.036zm13.25 4.424a2.7 2.7 0 00-.21-.532 3.849 3.849 0 00-.363-.588 2.67 2.67 0 00-.392-.476c1.278-.196 2.249-.611 2.912-1.246.672-.644 1.026-1.4 1.064-2.268.037-.69-.09-1.307-.378-1.848a3.59 3.59 0 00-1.19-1.316 3.561 3.561 0 00-1.638-.602 19.642 19.642 0 01-.42 2.66 13.603 13.603 0 01-.84 2.548c-.346.793-.77 1.465-1.274 2.016-.383.41-.756.649-1.12.714-.355.065-.733.014-1.134-.154a2.723 2.723 0 01-1.036-.798 3.867 3.867 0 01-.686-1.288 4.572 4.572 0 01-.196-1.61c.046-.85.247-1.624.602-2.324a5.83 5.83 0 011.428-1.834 6.128 6.128 0 012.058-1.162 6.589 6.589 0 012.478-.322 5.57 5.57 0 012.002.476 5.1 5.1 0 011.638 1.162c.476.485.84 1.05 1.092 1.694.26.644.368 1.349.322 2.114-.066 1.279-.514 2.352-1.344 3.22-.831.859-1.956 1.447-3.374 1.764zm-4.55-2.828a.54.54 0 00.323.112c.112 0 .224-.056.336-.168.336-.336.644-.812.924-1.428a10.96 10.96 0 00.714-2.086 13.44 13.44 0 00.378-2.366c-.644.15-1.218.42-1.722.812a4.349 4.349 0 00-1.176 1.428 4.395 4.395 0 00-.49 1.82c-.02.439.037.821.168 1.148.14.317.322.56.546.728zM15.97 79.434c-.69.084-1.302.051-1.834-.098-.532-.14-.947-.378-1.246-.714-.299-.336-.448-.756-.448-1.26 0-.663.266-1.311.798-1.946.541-.644 1.283-1.167 2.226-1.568v-2.114c-.513.037-1.013.065-1.498.084-.476.019-.92.019-1.33 0l-.084-1.61c.355.037.789.051 1.302.042.513-.019 1.05-.056 1.61-.112v-2.254l1.554.014v2.058c.467-.075.9-.154 1.302-.238.41-.093.747-.191 1.008-.294l.168 1.54a8.41 8.41 0 01-1.134.322c-.43.093-.877.177-1.344.252v1.834c.327-.075.667-.13 1.022-.168.355-.037.723-.056 1.106-.056.896 0 1.657.14 2.282.42.635.27 1.115.64 1.442 1.106.327.457.49.975.49 1.554 0 .896-.27 1.6-.812 2.114-.541.513-1.274.765-2.198.756-.719 0-1.325-.177-1.82-.532-.485-.364-.835-.9-1.05-1.61.215-.065.476-.163.784-.294.308-.14.55-.27.728-.392.233.775.681 1.162 1.344 1.162.41 0 .723-.117.938-.35.215-.243.322-.541.322-.896 0-.457-.205-.835-.616-1.134-.41-.308-1.027-.462-1.848-.462-.747 0-1.451.093-2.114.28v3.486c0 .345-.08.597-.238.756-.159.168-.43.275-.812.322zm7.126-6.482a6.421 6.421 0 00-.91-.728 15.7 15.7 0 00-1.176-.756 6.888 6.888 0 00-1.078-.546l.882-1.26c.336.13.705.308 1.106.532.401.224.793.462 1.176.714.383.252.705.495.966.728a8.72 8.72 0 00-.35.42c-.13.177-.257.35-.378.518a6.135 6.135 0 00-.238.378zm-8.134 4.998c.177.01.303-.01.378-.056.084-.047.126-.13.126-.252V75.5c-.43.261-.77.546-1.022.854-.252.308-.378.616-.378.924 0 .215.08.378.238.49.159.112.378.173.658.182zm16.142 2.142v-3.626H26.61v-7.294h4.494v-1.89h1.764v1.89h4.522v7.294h-4.522v3.626h-1.764zm1.764-5.18h2.73V73.54h-2.73v1.372zm-4.466 0h2.702V73.54h-2.702v1.372zm4.466-2.842h2.73v-1.344h-2.73v1.344zm-4.466 0h2.702v-1.344h-2.702v1.344zm16.1 5.572a5.642 5.642 0 00-.574-.602 3.036 3.036 0 00-.644-.504 6.505 6.505 0 001.638-1.638 8.806 8.806 0 001.092-2.072 9.13 9.13 0 00.546-2.184l.84.126a13.552 13.552 0 01-.056-1.274h-2.548v-1.61h4.144c-.084 1.26-.037 2.408.14 3.444a7.335 7.335 0 001.064 2.772c.532.821 1.279 1.559 2.24 2.212a6.26 6.26 0 00-.672.658c-.233.261-.415.471-.546.63a9.727 9.727 0 01-2.128-2.114c-.597-.821-1.04-1.787-1.33-2.898a10.724 10.724 0 01-1.246 2.828 9.112 9.112 0 01-1.96 2.226zm2.87 2.198c-.99 0-1.81-.051-2.464-.154-.653-.093-1.19-.243-1.61-.448a3.749 3.749 0 01-1.078-.742 11.72 11.72 0 01-.658.434 30.73 30.73 0 01-.812.476c-.27.168-.509.308-.714.42l-.686-1.638.672-.266c.27-.112.532-.224.784-.336.252-.121.439-.215.56-.28V73.82H39.7v-1.456h3.262v4.732c.177.448.602.765 1.274.952.681.187 1.727.28 3.136.28 1.195 0 2.221-.019 3.08-.056a25.627 25.627 0 002.086-.182 3.108 3.108 0 00-.154.49 7.11 7.11 0 00-.14.672 6.85 6.85 0 00-.07.56h-1.022c-.42.01-.868.014-1.344.014-.467.01-.915.014-1.344.014h-1.092zm-4.97-9.142a7.416 7.416 0 00-.672-.7 18.14 18.14 0 00-.882-.77 6.823 6.823 0 00-.854-.63l1.05-1.078c.233.13.509.322.826.574.327.243.64.5.938.77.308.261.546.49.714.686a8.92 8.92 0 00-.35.336c-.15.14-.299.285-.448.434-.14.15-.247.275-.322.378zm17.78 9.156a3.584 3.584 0 00-.658-.518 4.488 4.488 0 00-.742-.392 8.14 8.14 0 001.792-1.708 10.18 10.18 0 001.33-2.226c-.401-.121-.807-.22-1.218-.294-.41-.084-.812-.145-1.204-.182a13.45 13.45 0 01-.756 1.26c-.252.373-.509.69-.77.952-.392.401-.821.681-1.288.84a2.75 2.75 0 01-1.33.14 1.81 1.81 0 01-1.036-.546c-.27-.29-.406-.677-.406-1.162 0-.541.177-1.036.532-1.484.355-.448.868-.807 1.54-1.078.681-.27 1.512-.415 2.492-.434a29.062 29.062 0 001.358-3.472c-.345.093-.71.187-1.092.28a37.1 37.1 0 01-1.064.224 12.84 12.84 0 01-.812.14l-.448-1.61c.243-.01.555-.037.938-.084.383-.047.784-.107 1.204-.182.43-.075.83-.154 1.204-.238.383-.084.686-.168.91-.252l1.176.63a24.339 24.339 0 01-.672 2.226 26.5 26.5 0 01-.994 2.45 18.01 18.01 0 012.212.448 8.605 8.605 0 00.28-1.932l1.666.406a10.805 10.805 0 01-.336 1.988c.373.121.737.252 1.092.392.364.14.71.29 1.036.448a3.63 3.63 0 00-.308.448 5.833 5.833 0 00-.308.588 12.33 12.33 0 00-.21.518c-.29-.159-.588-.313-.896-.462a8.234 8.234 0 00-.924-.42 11.93 11.93 0 01-1.386 2.408 8.907 8.907 0 01-1.904 1.89zm-4.816-4.032c.019.121.098.22.238.294.14.065.313.075.518.028.215-.047.443-.187.686-.42.13-.13.27-.299.42-.504.15-.205.299-.439.448-.7-.793.084-1.386.257-1.778.518-.392.252-.57.513-.532.784zm18.802 3.43c-.728-.037-1.311-.252-1.75-.644a1.832 1.832 0 01-.644-1.456c.01-.355.126-.681.35-.98.224-.308.541-.55.952-.728.41-.187.9-.28 1.47-.28.299 0 .579.014.84.042-.01-.41-.023-.877-.042-1.4-.019-.523-.037-1.092-.056-1.708-.579.037-1.139.06-1.68.07-.541 0-1.003-.01-1.386-.028l-.112-1.708c.345.056.798.089 1.358.098.57 0 1.167-.014 1.792-.042l-.028-1.134v-1.19h1.638l-.028 1.092v1.134a40.54 40.54 0 001.526-.154 6.78 6.78 0 001.036-.21v1.68c-.261.056-.616.107-1.064.154-.448.047-.933.093-1.456.14.019.681.042 1.335.07 1.96.028.616.051 1.157.07 1.624a8.59 8.59 0 011.512.714c.485.29.961.611 1.428.966a2.6 2.6 0 00-.364.392c-.13.168-.252.345-.364.532a4.077 4.077 0 00-.252.448 9.191 9.191 0 00-1.932-1.372c-.065.737-.35 1.265-.854 1.582-.495.308-1.171.443-2.03.406zm-5.194.168a13.01 13.01 0 01-.154-1.4 51.319 51.319 0 01-.084-1.918 85.47 85.47 0 010-2.184 55.974 55.974 0 01.21-4.2c.065-.607.14-1.11.224-1.512l1.596.378c-.103.327-.191.765-.266 1.316a29.51 29.51 0 00-.154 1.848 52.036 52.036 0 00-.056 4.186c.028.672.065 1.288.112 1.848.056.56.121 1.013.196 1.358l-1.624.28zm5.32-1.596c.383 0 .667-.075.854-.224.196-.159.294-.439.294-.84v-.098a5.668 5.668 0 00-.994-.14c-.345-.01-.625.047-.84.168-.205.121-.313.28-.322.476-.01.196.08.355.266.476.187.121.434.182.742.182zm12.852.868a6.589 6.589 0 01-1.68-.196 2.884 2.884 0 01-1.26-.742c-.345-.355-.63-.85-.854-1.484l1.484-.812c.121.485.369.854.742 1.106.373.252.896.378 1.568.378a21.034 21.034 0 003.64-.322 8.996 8.996 0 001.386-.35 8 8 0 00.028.588c.028.243.06.48.098.714.047.233.089.415.126.546-.373.121-.85.224-1.428.308a28.075 28.075 0 01-3.85.266zm-2.198-8.232l-.014-1.694c.27.084.607.15 1.008.196.41.047.85.075 1.316.084.476.01.952.005 1.428-.014.476-.028.915-.065 1.316-.112a6.06 6.06 0 00.994-.21v1.708c-.233.075-.55.135-.952.182-.401.047-.84.084-1.316.112-.476.019-.957.023-1.442.014-.485-.01-.933-.037-1.344-.084a6 6 0 01-.994-.182zm15.75 9.352a3.342 3.342 0 00-.168-.574 5.298 5.298 0 00-.266-.63 2.379 2.379 0 00-.322-.518c1.559.121 2.786.005 3.682-.35.896-.364 1.344-.929 1.344-1.694 0-.41-.173-.737-.518-.98-.336-.243-.765-.364-1.288-.364a5.26 5.26 0 00-1.848.35c-.625.224-1.19.607-1.694 1.148-.037.047-.08.098-.126.154-.037.047-.08.093-.126.14l-1.358-.966c.448-.439.83-1.031 1.148-1.778.317-.747.565-1.53.742-2.352a39.014 39.014 0 01-3.318 0l-.112-1.652c.41.056.943.093 1.596.112.653.01 1.358 0 2.114-.028.112-.887.154-1.69.126-2.408h1.764c0 .681-.056 1.456-.168 2.324a53.09 53.09 0 001.89-.168 39.33 39.33 0 001.652-.21 10.14 10.14 0 001.204-.266l-.112 1.652c-.551.121-1.265.233-2.142.336-.877.093-1.797.168-2.758.224-.093.43-.201.859-.322 1.288-.112.43-.247.845-.406 1.246a6.413 6.413 0 011.204-.49 4.096 4.096 0 011.19-.182c.663-.01 1.251.103 1.764.336.523.233.933.57 1.232 1.008.299.43.448.947.448 1.554 0 1.232-.518 2.18-1.554 2.842-1.036.663-2.534.961-4.494.896zm14.224-.07a3.316 3.316 0 00-.168-.532 4.85 4.85 0 00-.28-.644 2.349 2.349 0 00-.336-.504c1.493.037 2.632-.14 3.416-.532.793-.392 1.19-.947 1.19-1.666 0-.42-.168-.747-.504-.98-.336-.233-.775-.35-1.316-.35-.42 0-.868.065-1.344.196a4.33 4.33 0 00-1.358.616 3.55 3.55 0 00-1.064 1.134l-1.498-.658a5.18 5.18 0 00.476-1.218c.14-.495.252-1.008.336-1.54.084-.532.145-1.036.182-1.512.037-.476.042-.868.014-1.176l1.75.21c.009.457-.028.999-.112 1.624a12.639 12.639 0 01-.392 1.834 6.473 6.473 0 011.554-.756 4.912 4.912 0 011.526-.266c.728 0 1.358.126 1.89.378.541.243.961.583 1.26 1.022.299.43.448.924.448 1.484 0 .71-.205 1.349-.616 1.918-.401.56-1.022 1.008-1.862 1.344-.831.336-1.895.527-3.192.574zm2.324-8.974a6.503 6.503 0 00-.84-.56 12.637 12.637 0 00-1.008-.532 10.942 10.942 0 00-1.05-.434 4.902 4.902 0 00-.896-.266l.84-1.456c.243.065.532.168.868.308.336.13.686.28 1.05.448.373.168.723.336 1.05.504.336.168.611.322.826.462l-.84 1.526z" fill="#EA5404"/><path d="M7.826 24.451v-8.239h2.189a9.83 9.83 0 00.198-.561c.073-.205.136-.396.187-.572a2.16 2.16 0 00.099-.363l1.606.154c-.044.14-.128.341-.253.605-.117.257-.235.502-.352.737h3.685v8.239H7.826zm1.375-1.166h4.609v-1.21H9.201v1.21zm0-2.354h4.609v-1.21H9.201v1.21zm0-2.343h4.609v-1.21H9.201v1.21zm10.307 6.204v-1.716h-2.002v-1.111h2.002v-.616h-1.716v-3.96h1.716v-.583h-1.969v-1.045h1.969v-.99h1.056v.99h1.848v1.045h-1.848v.583h1.727v3.96h-1.727v.616h1.87v1.078c.095-.015.198-.026.308-.033.117-.015.235-.026.352-.033.095-.293.194-.63.297-1.012.11-.381.213-.77.308-1.166.103-.396.187-.752.253-1.067h-1.397v-1.155h4.895v1.155h-2.2c-.066.315-.15.656-.253 1.023a33.63 33.63 0 01-.594 2.057c.242-.037.48-.07.715-.099.235-.037.455-.07.66-.099a9.63 9.63 0 00-.286-.627 11.183 11.183 0 00-.297-.594l1.056-.429c.169.279.345.605.528.979.183.374.356.759.517 1.155.169.389.308.744.418 1.067a7.018 7.018 0 00-.594.198 8.212 8.212 0 00-.561.264c-.051-.147-.11-.308-.176-.484a29.825 29.825 0 00-.198-.55 98.3 98.3 0 01-.935.198c-.352.066-.711.132-1.078.198-.367.066-.711.125-1.034.176-.315.059-.58.103-.792.132l-.264-1.221h-1.518v1.716h-1.056zm3.333-7.975v-1.133h4.246v1.133h-4.246zm-3.982 3.608h.649v-.66h-.649v.66zm1.705 0h.649v-.66h-.649v.66zm-1.705-1.452h.649v-.649h-.649v.649zm1.705 0h.649v-.649h-.649v.649zm12.254 5.863V23.23h-4.312v-1.089h4.312v-.583h-3.025v-4.103h3.025v-.583h-3.905v-1.078h3.905v-1.023h1.331v1.023h3.861v1.078h-3.861v.583h3.014v4.103h-3.014v.583h4.345v1.089h-4.345v1.606h-1.331zm-1.683-4.29h1.683v-.627h-1.683v.627zm3.014 0h1.672v-.627h-1.672v.627zm-3.014-1.463h1.683v-.605h-1.683v.605zm3.014 0h1.672v-.605h-1.672v.605zm8.602 5.753a3.43 3.43 0 00-.11-.605 3.044 3.044 0 00-.176-.55h.968c.154 0 .264-.022.33-.066.066-.051.099-.15.099-.297v-.341h-3.564v-.946h3.564v-.462h-4.433v-.858h4.433v-.44h-3.575v-.847h3.575v-.429h-2.849V16.85h2.849v-.396h-4.114v-.946h4.114v-.726h1.32v.726h4.103v.946h-4.103v.396h2.816v2.145h-2.816v.429h3.41v1.287h1.001v.858h-1.001v1.408h-3.41v.704c0 .403-.117.697-.352.88-.227.183-.576.275-1.045.275h-1.034zm2.431-2.805h2.134v-.462h-2.134v.462zm0-1.32h2.134v-.44h-2.134v.44zm-2.959-2.552h1.639v-.473h-1.639v.473zm2.959 0h1.606v-.473h-1.606v.473zm9.845 6.853a5.325 5.325 0 00-.374-.528 2.7 2.7 0 00-.44-.462c.103-.044.198-.088.286-.132a5.22 5.22 0 01.286-.143h-4.004v-3.982h1.518v-1.892H50.44v-1.199h1.859v-1.925h1.276v1.925h1.705v1.199h-1.705v1.892h1.397v3.872c.41-.235.777-.491 1.1-.77.33-.279.62-.58.869-.902a9.059 9.059 0 01-.605-1.287c-.169-.47-.308-.979-.418-1.529-.08.14-.165.268-.253.385a3.93 3.93 0 01-.253.33 3.828 3.828 0 00-.473-.341 2.674 2.674 0 00-.539-.297c.227-.242.451-.554.671-.935.22-.389.422-.8.605-1.232.19-.44.348-.865.473-1.276.132-.41.224-.763.275-1.056l1.221.286c-.066.286-.15.59-.253.913-.103.323-.22.649-.352.979h3.498v1.177h-1.045a13.157 13.157 0 01-.363 2.123 7.48 7.48 0 01-.704 1.76 6.5 6.5 0 001.034 1.023 9.42 9.42 0 001.243.792c-.095.073-.205.18-.33.319-.117.14-.227.279-.33.418a89.79 89.79 0 00-.253.363 11.565 11.565 0 01-1.133-.836 7.19 7.19 0 01-.99-1.012c-.653.763-1.533 1.423-2.64 1.98zm-2.992-2.431h1.683V20.92h-1.683v1.661zm5.61-1.837c.176-.403.315-.825.418-1.265a8.54 8.54 0 00.198-1.397h-1.309c.044.513.125.99.242 1.43.117.44.268.85.451 1.232zm9.702 3.355a2.111 2.111 0 00-.165-.418 3.025 3.025 0 00-.286-.462 2.094 2.094 0 00-.308-.374c1.005-.154 1.767-.48 2.288-.979.528-.506.807-1.1.836-1.782.03-.543-.07-1.027-.297-1.452a2.82 2.82 0 00-.935-1.034 2.798 2.798 0 00-1.287-.473 15.435 15.435 0 01-.33 2.09 10.675 10.675 0 01-.66 2.002 5.678 5.678 0 01-1.001 1.584c-.3.323-.594.51-.88.561-.279.051-.576.011-.891-.121a2.14 2.14 0 01-.814-.627 3.04 3.04 0 01-.539-1.012 3.593 3.593 0 01-.154-1.265 4.584 4.584 0 011.595-3.267 4.815 4.815 0 011.617-.913 5.177 5.177 0 011.947-.253c.557.03 1.082.154 1.573.374a4 4 0 011.287.913c.374.381.66.825.858 1.331.205.506.29 1.06.253 1.661-.051 1.005-.403 1.848-1.056 2.53-.653.675-1.536 1.137-2.651 1.386zm-3.575-2.222c.08.059.165.088.253.088s.176-.044.264-.132c.264-.264.506-.638.726-1.122a8.62 8.62 0 00.561-1.639 10.56 10.56 0 00.297-1.859 3.44 3.44 0 00-1.353.638 3.417 3.417 0 00-.924 1.122c-.227.433-.356.91-.385 1.43-.015.345.03.645.132.902.11.25.253.44.429.572zm12.947 2.926v-5.654a8.251 8.251 0 01-.616.737 2.747 2.747 0 00-.352-.308 1.993 1.993 0 00-.374-.264c.147-.147.308-.341.484-.583.183-.242.334-.455.451-.638l.407.264v-.451h2.156v-.671h-2.442v-1.078h2.442v-1.408h1.177v1.408h1.122a5.075 5.075 0 00-.462-.407 4.171 4.171 0 00-.44-.308l.671-.693c.11.066.246.165.407.297.161.125.319.253.473.385.154.132.271.246.352.341a1.587 1.587 0 00-.187.165l-.22.22h.704v1.078h-2.42v.671h2.167v5.918c0 .337-.099.583-.297.737-.19.161-.484.242-.88.242h-.539a3.437 3.437 0 00-.055-.385 8.283 8.283 0 00-.077-.451 1.625 1.625 0 00-.099-.352h.451c.132 0 .227-.022.286-.066.059-.044.088-.128.088-.253v-.913h-1.045v2.211h-1.177v-2.211h-1.023v2.42h-1.133zm-2.893.011v-3.96a12.417 12.417 0 01-.891.847 7.26 7.26 0 00-.418-.451 4.17 4.17 0 00-.44-.407 8.181 8.181 0 001.056-.968 9.42 9.42 0 00.891-1.1c.264-.381.473-.733.627-1.056h-2.178V16.63h1.331v-1.859h1.177v1.859h.836l.473.429c-.169.381-.36.766-.572 1.155-.213.389-.447.766-.704 1.133.176.14.367.286.572.44.213.154.414.297.605.429.198.132.36.238.484.319a3.651 3.651 0 00-.396.418c-.132.154-.238.3-.319.44a14.18 14.18 0 01-.462-.33 19.757 19.757 0 01-.495-.396v4.147h-1.177zm6.226-3.377h1.045v-.781h-1.045v.781zm0-1.727h1.045v-.77h-1.045v.77zm-2.2 1.727h1.023v-.781h-1.023v.781zm0-1.727h1.023v-.77h-1.023v.77zm8.921 5.225a3.398 3.398 0 00-.253-.528 2.904 2.904 0 00-.33-.495c.3-.059.62-.14.957-.242a7.99 7.99 0 00.946-.352h-1.001v-3.905h5.434v3.905h-1.001a9.019 9.019 0 001.903.594 3.423 3.423 0 00-.583 1.023c-.462-.132-.928-.3-1.397-.506a8.097 8.097 0 01-1.276-.682l.33-.429h-1.386l.33.429a7.495 7.495 0 01-1.276.682c-.47.205-.935.374-1.397.506zm-2.222-.11v-5.808a6.517 6.517 0 01-.308.473 6.54 6.54 0 01-.308.407 1.786 1.786 0 00-.242-.286 4.563 4.563 0 00-.33-.319c-.117-.11-.22-.19-.308-.242.22-.264.44-.58.66-.946a13.396 13.396 0 001.144-2.332c.147-.381.253-.719.319-1.012l1.232.319c-.073.25-.169.52-.286.814-.11.293-.235.594-.374.902v8.03h-1.199zm1.606-6.501v-2.2h1.463c-.205-.3-.436-.601-.693-.902l1.078-.462c.132.154.268.334.407.539.147.198.268.381.363.55l-.539.275h.957v-1.408h1.243v1.408h.946l-.561-.231a5.79 5.79 0 00.605-1.144l1.221.341c-.11.19-.224.374-.341.55-.11.176-.22.337-.33.484h1.441v2.2h-1.089v-1.342h-5.093v1.342h-1.078zm1.496.814V17.29h4.268v1.848h-4.268zm.649 3.443h3.003v-.363h-3.003v.363zm0-1.034h3.003v-.363h-3.003v.363zm0-1.034h3.003v-.352h-3.003v.352zm.451-2.112h2.068v-.385h-2.068v.385zm11.583 6.182a6.925 6.925 0 01-1.628-.176c-.484-.117-.865-.304-1.144-.561-.279-.264-.418-.609-.418-1.034 0-.352.106-.671.319-.957.213-.293.506-.557.88-.792a7.98 7.98 0 011.276-.66v-.088c0-.257-.066-.444-.198-.561a.736.736 0 00-.484-.209 2.273 2.273 0 00-.968.143c-.308.117-.612.33-.913.638l-.341.341-.418.396c-.14.132-.26.242-.363.33l-.957-.946a7.315 7.315 0 001.452-1.276c.455-.513.84-1.06 1.155-1.639-.41.015-.785.03-1.122.044-.337.007-.59.007-.759 0l-.044-1.265c.25.022.594.033 1.034.033.447 0 .931-.011 1.452-.033.169-.484.264-.939.286-1.364l1.309.066a5.276 5.276 0 01-.22 1.21 51.12 51.12 0 001.507-.143 7.253 7.253 0 001.078-.198l.077 1.221c-.205.037-.473.077-.803.121-.33.037-.697.073-1.1.11-.396.037-.803.07-1.221.099a7.415 7.415 0 01-.33.627 8.127 8.127 0 01-.374.594c.293-.117.59-.176.891-.176.433 0 .796.114 1.089.341.301.227.488.601.561 1.122a17.8 17.8 0 011.254-.374c.433-.117.851-.224 1.254-.319l.374 1.21a18.53 18.53 0 00-1.496.275c-.484.103-.935.22-1.353.352v1.463h-1.298v-.968c-.367.176-.66.36-.88.55-.22.183-.33.36-.33.528 0 .25.15.425.451.528.3.095.759.143 1.375.143.249 0 .528-.015.836-.044.315-.037.627-.08.935-.132.315-.059.59-.121.825-.187a6.238 6.238 0 00-.044.418c-.007.176-.011.352-.011.528 0 .176.004.308.011.396a8.685 8.685 0 01-1.21.198c-.447.051-.865.077-1.254.077zm5.159 0v-.99h4.367v-.506h-3.399v-.847h3.399v-.484h-3.135v-3.674h3.135v-.495h-4.224v-.957h4.224v-.462c-.528.022-1.049.04-1.562.055-.506.007-.986.011-1.441.011a1.836 1.836 0 00-.066-.319 4.8 4.8 0 00-.132-.418 1.672 1.672 0 00-.143-.352c.425.015.902.022 1.43.022a63.529 63.529 0 003.278-.132 36.286 36.286 0 001.43-.143 8.337 8.337 0 001.001-.187l.748 1.034a22.29 22.29 0 01-1.441.209c-.565.059-1.162.106-1.793.143v.539h4.18v.957h-4.18v.495h3.113v3.674h-3.113v.484h3.399v.847h-3.399v.506h4.378v.99h-10.054zm2.574-3.718h1.793v-.561h-1.793v.561zm0-1.353h1.793v-.561h-1.793v.561zm3.102 1.353h1.782v-.561h-1.782v.561zm0-1.353h1.782v-.561h-1.782v.561zm9.075 5.379a4.844 4.844 0 00-.297-.561 1.94 1.94 0 00-.363-.473c.565-.161 1.016-.348 1.353-.561.337-.22.59-.502.759-.847.169-.345.275-.781.319-1.309h-.99v-.869c-.125.14-.26.308-.407.506-.139.198-.246.37-.319.517a41.29 41.29 0 01-.517-.352c-.191-.14-.385-.279-.583-.418v4.257h-1.243v-3.85a15.03 15.03 0 01-1.012.803 5.086 5.086 0 00-.396-.517 3.935 3.935 0 00-.451-.462c.367-.227.741-.51 1.122-.847.381-.337.733-.693 1.056-1.067.323-.381.576-.74.759-1.078h-2.486v-1.111h1.397v-1.87h1.254v1.87h1.122l.473.418c-.176.381-.374.759-.594 1.133-.22.367-.462.722-.726 1.067.249.176.521.356.814.539.293.176.539.319.737.429V15.09h4.84v6.05h-1.012v2.112c0 .125.044.194.132.209a.564.564 0 00.132.022c.081.007.136.011.165.011.11 0 .194-.022.253-.066.066-.044.117-.136.154-.275.044-.147.077-.367.099-.66.125.066.301.14.528.22.235.073.436.132.605.176-.059.506-.147.887-.264 1.144-.117.257-.275.429-.473.517-.191.088-.44.132-.748.132h-.781c-.359 0-.62-.059-.781-.176-.154-.117-.231-.323-.231-.616v-2.75h-.462c-.044.697-.169 1.29-.374 1.782a2.838 2.838 0 01-.913 1.199c-.411.315-.961.572-1.65.77zm2.046-4.785h2.321v-.748h-2.321v.748zm0-1.628h2.321v-.737h-2.321v.737zm0-1.617h2.321v-.737h-2.321v.737z" fill="#fff"/></svg>