<svg width="134" height="99" fill="none" xmlns="http://www.w3.org/2000/svg"><path d="M.5 9A7.5 7.5 0 018 1.5h118a7.5 7.5 0 017.5 7.5v82a7.5 7.5 0 01-7.5 7.5H8A7.5 7.5 0 01.5 91V9z" fill="#C6C6C6" stroke="#C6C6C6"/><rect x=".5" y=".5" width="133" height="93" rx="8.5" fill="#fff" stroke="#C6C6C6"/><rect x="1" y="1" width="132" height="92" rx="8" fill="#fff"/><path d="M2 9a7 7 0 017-7h116a7 7 0 017 7v27H2V9z" fill="#6B9E13" stroke="#fff" stroke-width="2"/><path d="M36.139 59v-9.8h4.115c.803 0 1.466.215 1.989.644.522.42.783 1.031.783 1.834 0 .57-.13 1.045-.392 1.428a1.86 1.86 0 01-.965.756c.504.093.924.369 1.26.826.345.448.517 1.003.517 1.666 0 .905-.27 1.573-.811 2.002-.542.43-1.284.644-2.227.644h-4.27zm1.61-1.498h2.435c.514 0 .892-.107 1.135-.322.252-.224.377-.574.377-1.05 0-.457-.144-.798-.433-1.022-.29-.233-.65-.35-1.078-.35h-2.437v2.744zm0-4.256h2.225c.43 0 .752-.117.967-.35.214-.233.322-.555.322-.966 0-.41-.117-.719-.35-.924-.224-.205-.546-.308-.966-.308h-2.199v2.548zm8.017 8.54a6.65 6.65 0 01-.63-.028 2.94 2.94 0 01-.532-.07v-1.442c.159.037.322.065.49.084.178.028.346.042.504.042.252 0 .439-.028.56-.084a.64.64 0 00.308-.28c.075-.13.159-.308.252-.532l.182-.49-2.66-6.72h1.638l1.708 4.83 1.61-4.83h1.61l-2.744 7.672c-.224.616-.5 1.078-.826 1.386-.317.308-.807.462-1.47.462zm8.785-2.632a3.239 3.239 0 01-1.666-.434 3.283 3.283 0 01-1.162-1.232c-.28-.532-.42-1.153-.42-1.862 0-.71.14-1.325.42-1.848a3.15 3.15 0 011.162-1.232 3.16 3.16 0 011.666-.448c.55 0 1.05.112 1.498.336.457.224.83.546 1.12.966l-1.26.924c-.29-.532-.742-.798-1.358-.798-.486 0-.882.182-1.19.546-.308.364-.462.882-.462 1.554s.154 1.19.462 1.554c.308.364.705.546 1.19.546.606 0 1.064-.261 1.372-.784l1.246.91c-.29.41-.663.733-1.12.966a3.302 3.302 0 01-1.498.336zM58.53 59v-9.982h1.582V59H58.53zm6.235.154c-.98 0-1.774-.294-2.38-.882-.607-.597-.91-1.48-.91-2.646 0-.728.135-1.353.406-1.876a2.86 2.86 0 011.134-1.218c.485-.29 1.04-.434 1.666-.434.625 0 1.157.154 1.596.462.438.299.774.71 1.008 1.232.233.523.35 1.11.35 1.764v.364h-4.606c.037.672.214 1.153.532 1.442.317.28.728.42 1.232.42.438 0 .798-.103 1.078-.308.28-.215.522-.532.728-.952l1.162.812c-.346.644-.77 1.11-1.274 1.4-.495.28-1.069.42-1.722.42zm-1.666-4.452h2.982c-.075-.439-.238-.775-.49-1.008-.243-.243-.556-.364-.938-.364-.411 0-.752.112-1.022.336-.262.224-.439.57-.532 1.036zm13.632 4.494a5 5 0 01-2.268-.518c-.681-.345-1.227-.929-1.638-1.75l1.358-.77c.28.467.621.835 1.022 1.106.402.261.929.392 1.582.392.654 0 1.111-.117 1.372-.35.271-.243.406-.57.406-.98 0-.261-.06-.485-.182-.672-.112-.187-.354-.36-.728-.518-.364-.168-.928-.336-1.694-.504-.905-.215-1.577-.555-2.016-1.022-.429-.467-.644-1.06-.644-1.778 0-.57.136-1.069.406-1.498.28-.439.668-.78 1.162-1.022.504-.243 1.092-.364 1.764-.364.887 0 1.634.196 2.24.588.607.383 1.069.835 1.386 1.358l-1.274.98a4.46 4.46 0 00-.56-.644 2.532 2.532 0 00-.756-.518c-.289-.14-.639-.21-1.05-.21-.485 0-.882.107-1.19.322-.298.205-.448.518-.448.938 0 .187.042.369.126.546.094.168.29.331.588.49.308.159.78.313 1.414.462 1.12.252 1.928.63 2.422 1.134.495.504.742 1.139.742 1.904 0 .933-.326 1.652-.98 2.156-.644.495-1.498.742-2.562.742zm12.279-.07a2.688 2.688 0 00-.21-.532 3.84 3.84 0 00-.364-.588 2.66 2.66 0 00-.392-.476c1.278-.196 2.249-.611 2.912-1.246.672-.644 1.026-1.4 1.064-2.268.037-.69-.089-1.307-.378-1.848a3.59 3.59 0 00-1.19-1.316 3.56 3.56 0 00-1.638-.602 19.61 19.61 0 01-.42 2.66 13.588 13.588 0 01-.84 2.548c-.346.793-.77 1.465-1.274 2.016-.383.41-.756.649-1.12.714-.355.065-.733.014-1.134-.154a2.724 2.724 0 01-1.036-.798 3.87 3.87 0 01-.686-1.288 4.575 4.575 0 01-.196-1.61c.046-.85.247-1.624.602-2.324.354-.71.83-1.32 1.428-1.834a6.13 6.13 0 012.058-1.162 6.59 6.59 0 012.478-.322 5.57 5.57 0 012.002.476 5.09 5.09 0 011.638 1.162c.476.485.84 1.05 1.092 1.694.261.644.368 1.349.322 2.114-.066 1.279-.514 2.352-1.344 3.22-.831.859-1.956 1.447-3.374 1.764zm-4.55-2.828a.54.54 0 00.322.112c.112 0 .224-.056.336-.168.336-.336.644-.812.924-1.428a10.96 10.96 0 00.714-2.086 13.44 13.44 0 00.378-2.366c-.644.15-1.218.42-1.722.812a4.351 4.351 0 00-1.176 1.428 4.398 4.398 0 00-.49 1.82c-.019.439.037.821.168 1.148.14.317.322.56.546.728zM15.97 79.434c-.69.084-1.302.051-1.834-.098-.532-.14-.947-.378-1.246-.714-.299-.336-.448-.756-.448-1.26 0-.663.266-1.311.798-1.946.541-.644 1.283-1.167 2.226-1.568v-2.114c-.513.037-1.013.065-1.498.084-.476.019-.92.019-1.33 0l-.084-1.61c.355.037.789.051 1.302.042.513-.019 1.05-.056 1.61-.112v-2.254l1.554.014v2.058c.467-.075.9-.154 1.302-.238.41-.093.747-.191 1.008-.294l.168 1.54a8.41 8.41 0 01-1.134.322c-.43.093-.877.177-1.344.252v1.834c.327-.075.667-.13 1.022-.168.355-.037.723-.056 1.106-.056.896 0 1.657.14 2.282.42.635.27 1.115.64 1.442 1.106.327.457.49.975.49 1.554 0 .896-.27 1.6-.812 2.114-.541.513-1.274.765-2.198.756-.719 0-1.325-.177-1.82-.532-.485-.364-.835-.9-1.05-1.61.215-.065.476-.163.784-.294.308-.14.55-.27.728-.392.233.775.681 1.162 1.344 1.162.41 0 .723-.117.938-.35.215-.243.322-.541.322-.896 0-.457-.205-.835-.616-1.134-.41-.308-1.027-.462-1.848-.462-.747 0-1.451.093-2.114.28v3.486c0 .345-.08.597-.238.756-.159.168-.43.275-.812.322zm7.126-6.482a6.421 6.421 0 00-.91-.728 15.7 15.7 0 00-1.176-.756 6.888 6.888 0 00-1.078-.546l.882-1.26c.336.13.705.308 1.106.532.401.224.793.462 1.176.714.383.252.705.495.966.728a8.72 8.72 0 00-.35.42c-.13.177-.257.35-.378.518a6.135 6.135 0 00-.238.378zm-8.134 4.998c.177.01.303-.01.378-.056.084-.047.126-.13.126-.252V75.5c-.43.261-.77.546-1.022.854-.252.308-.378.616-.378.924 0 .215.08.378.238.49.159.112.378.173.658.182zm16.142 2.142v-3.626H26.61v-7.294h4.494v-1.89h1.764v1.89h4.522v7.294h-4.522v3.626h-1.764zm1.764-5.18h2.73V73.54h-2.73v1.372zm-4.466 0h2.702V73.54h-2.702v1.372zm4.466-2.842h2.73v-1.344h-2.73v1.344zm-4.466 0h2.702v-1.344h-2.702v1.344zm16.1 5.572a5.642 5.642 0 00-.574-.602 3.036 3.036 0 00-.644-.504 6.505 6.505 0 001.638-1.638 8.806 8.806 0 001.092-2.072 9.13 9.13 0 00.546-2.184l.84.126a13.552 13.552 0 01-.056-1.274h-2.548v-1.61h4.144c-.084 1.26-.037 2.408.14 3.444a7.335 7.335 0 001.064 2.772c.532.821 1.279 1.559 2.24 2.212a6.26 6.26 0 00-.672.658c-.233.261-.415.471-.546.63a9.727 9.727 0 01-2.128-2.114c-.597-.821-1.04-1.787-1.33-2.898a10.724 10.724 0 01-1.246 2.828 9.112 9.112 0 01-1.96 2.226zm2.87 2.198c-.99 0-1.81-.051-2.464-.154-.653-.093-1.19-.243-1.61-.448a3.749 3.749 0 01-1.078-.742 11.72 11.72 0 01-.658.434 30.73 30.73 0 01-.812.476c-.27.168-.509.308-.714.42l-.686-1.638.672-.266c.27-.112.532-.224.784-.336.252-.121.439-.215.56-.28V73.82H39.7v-1.456h3.262v4.732c.177.448.602.765 1.274.952.681.187 1.727.28 3.136.28 1.195 0 2.221-.019 3.08-.056a25.627 25.627 0 002.086-.182 3.108 3.108 0 00-.154.49 7.11 7.11 0 00-.14.672 6.85 6.85 0 00-.07.56h-1.022c-.42.01-.868.014-1.344.014-.467.01-.915.014-1.344.014h-1.092zm-4.97-9.142a7.416 7.416 0 00-.672-.7 18.14 18.14 0 00-.882-.77 6.823 6.823 0 00-.854-.63l1.05-1.078c.233.13.509.322.826.574.327.243.64.5.938.77.308.261.546.49.714.686a8.92 8.92 0 00-.35.336c-.15.14-.299.285-.448.434-.14.15-.247.275-.322.378zm17.78 9.156a3.584 3.584 0 00-.658-.518 4.488 4.488 0 00-.742-.392 8.14 8.14 0 001.792-1.708 10.18 10.18 0 001.33-2.226c-.401-.121-.807-.22-1.218-.294-.41-.084-.812-.145-1.204-.182a13.45 13.45 0 01-.756 1.26c-.252.373-.509.69-.77.952-.392.401-.821.681-1.288.84a2.75 2.75 0 01-1.33.14 1.81 1.81 0 01-1.036-.546c-.27-.29-.406-.677-.406-1.162 0-.541.177-1.036.532-1.484.355-.448.868-.807 1.54-1.078.681-.27 1.512-.415 2.492-.434a29.062 29.062 0 001.358-3.472c-.345.093-.71.187-1.092.28a37.1 37.1 0 01-1.064.224 12.84 12.84 0 01-.812.14l-.448-1.61c.243-.01.555-.037.938-.084.383-.047.784-.107 1.204-.182.43-.075.83-.154 1.204-.238.383-.084.686-.168.91-.252l1.176.63a24.339 24.339 0 01-.672 2.226 26.5 26.5 0 01-.994 2.45 18.01 18.01 0 012.212.448 8.605 8.605 0 00.28-1.932l1.666.406a10.805 10.805 0 01-.336 1.988c.373.121.737.252 1.092.392.364.14.71.29 1.036.448a3.63 3.63 0 00-.308.448 5.833 5.833 0 00-.308.588 12.33 12.33 0 00-.21.518c-.29-.159-.588-.313-.896-.462a8.234 8.234 0 00-.924-.42 11.93 11.93 0 01-1.386 2.408 8.907 8.907 0 01-1.904 1.89zm-4.816-4.032c.019.121.098.22.238.294.14.065.313.075.518.028.215-.047.443-.187.686-.42.13-.13.27-.299.42-.504.15-.205.299-.439.448-.7-.793.084-1.386.257-1.778.518-.392.252-.57.513-.532.784zm18.802 3.43c-.728-.037-1.311-.252-1.75-.644a1.832 1.832 0 01-.644-1.456c.01-.355.126-.681.35-.98.224-.308.541-.55.952-.728.41-.187.9-.28 1.47-.28.299 0 .579.014.84.042-.01-.41-.023-.877-.042-1.4-.019-.523-.037-1.092-.056-1.708-.579.037-1.139.06-1.68.07-.541 0-1.003-.01-1.386-.028l-.112-1.708c.345.056.798.089 1.358.098.57 0 1.167-.014 1.792-.042l-.028-1.134v-1.19h1.638l-.028 1.092v1.134a40.54 40.54 0 001.526-.154 6.78 6.78 0 001.036-.21v1.68c-.261.056-.616.107-1.064.154-.448.047-.933.093-1.456.14.019.681.042 1.335.07 1.96.028.616.051 1.157.07 1.624a8.59 8.59 0 011.512.714c.485.29.961.611 1.428.966a2.6 2.6 0 00-.364.392c-.13.168-.252.345-.364.532a4.077 4.077 0 00-.252.448 9.191 9.191 0 00-1.932-1.372c-.065.737-.35 1.265-.854 1.582-.495.308-1.171.443-2.03.406zm-5.194.168a13.01 13.01 0 01-.154-1.4 51.319 51.319 0 01-.084-1.918 85.47 85.47 0 010-2.184 55.974 55.974 0 01.21-4.2c.065-.607.14-1.11.224-1.512l1.596.378c-.103.327-.191.765-.266 1.316a29.51 29.51 0 00-.154 1.848 52.036 52.036 0 00-.056 4.186c.028.672.065 1.288.112 1.848.056.56.121 1.013.196 1.358l-1.624.28zm5.32-1.596c.383 0 .667-.075.854-.224.196-.159.294-.439.294-.84v-.098a5.668 5.668 0 00-.994-.14c-.345-.01-.625.047-.84.168-.205.121-.313.28-.322.476-.01.196.08.355.266.476.187.121.434.182.742.182zm12.852.868a6.589 6.589 0 01-1.68-.196 2.884 2.884 0 01-1.26-.742c-.345-.355-.63-.85-.854-1.484l1.484-.812c.121.485.369.854.742 1.106.373.252.896.378 1.568.378a21.034 21.034 0 003.64-.322 8.996 8.996 0 001.386-.35 8 8 0 00.028.588c.028.243.06.48.098.714.047.233.089.415.126.546-.373.121-.85.224-1.428.308a28.075 28.075 0 01-3.85.266zm-2.198-8.232l-.014-1.694c.27.084.607.15 1.008.196.41.047.85.075 1.316.084.476.01.952.005 1.428-.014.476-.028.915-.065 1.316-.112a6.06 6.06 0 00.994-.21v1.708c-.233.075-.55.135-.952.182-.401.047-.84.084-1.316.112-.476.019-.957.023-1.442.014-.485-.01-.933-.037-1.344-.084a6 6 0 01-.994-.182zm15.75 9.352a3.342 3.342 0 00-.168-.574 5.298 5.298 0 00-.266-.63 2.379 2.379 0 00-.322-.518c1.559.121 2.786.005 3.682-.35.896-.364 1.344-.929 1.344-1.694 0-.41-.173-.737-.518-.98-.336-.243-.765-.364-1.288-.364a5.26 5.26 0 00-1.848.35c-.625.224-1.19.607-1.694 1.148-.037.047-.08.098-.126.154-.037.047-.08.093-.126.14l-1.358-.966c.448-.439.83-1.031 1.148-1.778.317-.747.565-1.53.742-2.352a39.014 39.014 0 01-3.318 0l-.112-1.652c.41.056.943.093 1.596.112.653.01 1.358 0 2.114-.028.112-.887.154-1.69.126-2.408h1.764c0 .681-.056 1.456-.168 2.324a53.09 53.09 0 001.89-.168 39.33 39.33 0 001.652-.21 10.14 10.14 0 001.204-.266l-.112 1.652c-.551.121-1.265.233-2.142.336-.877.093-1.797.168-2.758.224-.093.43-.201.859-.322 1.288-.112.43-.247.845-.406 1.246a6.413 6.413 0 011.204-.49 4.096 4.096 0 011.19-.182c.663-.01 1.251.103 1.764.336.523.233.933.57 1.232 1.008.299.43.448.947.448 1.554 0 1.232-.518 2.18-1.554 2.842-1.036.663-2.534.961-4.494.896zm14.224-.07a3.316 3.316 0 00-.168-.532 4.85 4.85 0 00-.28-.644 2.349 2.349 0 00-.336-.504c1.493.037 2.632-.14 3.416-.532.793-.392 1.19-.947 1.19-1.666 0-.42-.168-.747-.504-.98-.336-.233-.775-.35-1.316-.35-.42 0-.868.065-1.344.196a4.33 4.33 0 00-1.358.616 3.55 3.55 0 00-1.064 1.134l-1.498-.658a5.18 5.18 0 00.476-1.218c.14-.495.252-1.008.336-1.54.084-.532.145-1.036.182-1.512.037-.476.042-.868.014-1.176l1.75.21c.009.457-.028.999-.112 1.624a12.639 12.639 0 01-.392 1.834 6.473 6.473 0 011.554-.756 4.912 4.912 0 011.526-.266c.728 0 1.358.126 1.89.378.541.243.961.583 1.26 1.022.299.43.448.924.448 1.484 0 .71-.205 1.349-.616 1.918-.401.56-1.022 1.008-1.862 1.344-.831.336-1.895.527-3.192.574zm2.324-8.974a6.503 6.503 0 00-.84-.56 12.637 12.637 0 00-1.008-.532 10.942 10.942 0 00-1.05-.434 4.902 4.902 0 00-.896-.266l.84-1.456c.243.065.532.168.868.308.336.13.686.28 1.05.448.373.168.723.336 1.05.504.336.168.611.322.826.462l-.84 1.526z" fill="#6B9E13"/><path d="M13.816 24.011l-.748-1.342a9.068 9.068 0 001.65-.55c.58-.257 1.155-.554 1.727-.891a19.955 19.955 0 001.639-1.1c.52-.396.99-.792 1.408-1.188a8.701 8.701 0 001.023-1.155c.03.125.077.279.143.462.073.183.15.363.231.539.08.169.15.3.209.396-.367.462-.821.928-1.364 1.397-.535.47-1.126.924-1.771 1.364-.645.433-1.324.829-2.035 1.188-.704.352-1.408.645-2.112.88zm2.046-5.83a3.745 3.745 0 00-.418-.319 11.5 11.5 0 00-.583-.385 9.935 9.935 0 00-.616-.374c-.19-.11-.348-.19-.473-.242l.748-1.144c.147.073.319.172.517.297.205.125.41.257.616.396.213.132.407.26.583.385.183.125.323.227.418.308l-.792 1.078zm-1.529 2.266a3.499 3.499 0 00-.605-.385 12.37 12.37 0 00-.825-.418 5.659 5.659 0 00-.715-.308l.682-1.188c.213.08.458.19.737.33.286.14.561.282.825.429.264.147.473.271.627.374l-.726 1.166zm8.899 1.87v-1.43c.14.007.367.015.682.022.315.007.682.015 1.1.022.418.007.858.011 1.32.011h2.574c.425-.007.825-.011 1.199-.011.381-.007.711-.015.99-.022.279-.007.473-.015.583-.022v1.43c-.154-.015-.44-.026-.858-.033-.41-.007-.895-.011-1.452-.011a133.84 133.84 0 00-1.705-.011h-.957c-.352 0-.711.004-1.078.011-.367 0-.715.004-1.045.011-.33 0-.616.004-.858.011-.235.007-.4.015-.495.022zm1.155-3.828v-1.43c.11.007.282.015.517.022.235.007.51.015.825.022.323.007.656.011 1.001.011h2.255c.389-.007.722-.015 1.001-.022.279-.015.466-.026.561-.033v1.43a11.42 11.42 0 00-1.012-.044 124.6 124.6 0 00-1.771-.011h-.946c-.345 0-.686.004-1.023.011-.337.007-.634.015-.891.022-.257 0-.429.007-.517.022zm15.851 1.606a2.08 2.08 0 00-.286-.297 5.339 5.339 0 00-.374-.319 2.59 2.59 0 00-.363-.242 9.5 9.5 0 00.649-.561 13.034 13.034 0 001.353-1.485c-.403.007-.869.022-1.397.044-.52.015-1.06.033-1.617.055l-1.595.066c-.513.022-.968.04-1.364.055-.396.015-.69.03-.88.044l-.055-1.386c.242.015.572.026.99.033h1.419l1.628-.022a713.7 713.7 0 001.606-.044c.52-.022.983-.048 1.386-.077.41-.03.722-.059.935-.088l.869.671c-.161.293-.36.605-.594.935a17.861 17.861 0 01-1.562 1.903 9.348 9.348 0 01-.748.715zm-4.246 4.389a4.984 4.984 0 00-.264-.341 5.43 5.43 0 00-.352-.363 1.714 1.714 0 00-.363-.286c.682-.381 1.225-.847 1.628-1.397.403-.55.69-1.173.858-1.87a8.278 8.278 0 00.209-2.255h1.375c0 1.496-.253 2.783-.759 3.861-.499 1.07-1.276 1.954-2.332 2.651zm10.142-.11v-5.533h-1.661v-1.232h1.661v-2.332h1.342v2.332h1.375v-2.607h1.276v2.607h1.419v-2.332h1.276v2.332h1.716v1.232h-1.716v3.179h-3.971v-3.179h-1.375v4.29h6.49v1.243h-7.832zm3.993-3.553h1.419v-1.98h-1.419v1.98zm13.882 3.806a4.07 4.07 0 01-.924-.572 4.62 4.62 0 01-.913-1.012c-.293-.425-.561-.96-.803-1.606-.235-.653-.422-1.434-.561-2.343l-1.914.198-.143-1.276 1.914-.187c-.03-.315-.051-.642-.066-.979a23.83 23.83 0 01-.022-1.056v-.968h1.309v.957c0 .352.007.686.022 1.001.015.315.033.62.055.913l3.168-.319.143 1.265-3.157.319c.132.8.308 1.478.528 2.035.22.55.47 1.001.748 1.353.286.345.587.609.902.792a7.974 7.974 0 00.33-1.419c.08.051.194.114.341.187.147.066.297.128.451.187.154.059.282.103.385.132a6.97 6.97 0 01-.165.77 7.307 7.307 0 01-.231.77c-.08.235-.161.429-.242.583-.117.213-.275.337-.473.374-.198.044-.425.011-.682-.099zm-6.831.176v-5.61c-.19.25-.385.488-.583.715-.19.227-.381.425-.572.594a3.355 3.355 0 00-.429-.418 2.8 2.8 0 00-.506-.374c.22-.183.451-.425.693-.726.25-.3.495-.634.737-1.001.25-.367.477-.737.682-1.111a15.1 15.1 0 00.55-1.078 5.34 5.34 0 00.319-.88l1.21.418a11.363 11.363 0 01-.792 1.815v7.656h-1.309zm6.82-7.502a7.934 7.934 0 00-.737-.792 5.33 5.33 0 00-.77-.638l.825-.858c.169.103.356.246.561.429.213.176.414.356.605.539.19.183.337.341.44.473a3.142 3.142 0 00-.319.253 4.925 4.925 0 00-.605.594zm7.722 7.546a4.79 4.79 0 00-.11-.649 4.245 4.245 0 00-.176-.605h1.034c.147 0 .253-.022.319-.066.066-.051.099-.15.099-.297v-.847h-3.08c.25.176.51.378.781.605.271.227.491.436.66.627a9.97 9.97 0 00-.506.462c-.19.198-.337.37-.44.517a5.646 5.646 0 00-.473-.506 9.946 9.946 0 00-.594-.528 4.8 4.8 0 00-.561-.418l.715-.759H66.44v-1.078h6.446v-.451h-5.104v-3.872h3.113v-.484h-4.29v-1.023h4.29v-.726h1.276v.726h4.224v1.023h-4.224v.484h3.102v3.872h-1.067v.451h2.288v1.078h-2.288v1.309c0 .403-.114.697-.341.88-.227.183-.576.275-1.045.275h-1.1zm-2.618-4.961h1.793v-.572h-1.793v.572zm3.069 0h1.793v-.572h-1.793v.572zm-3.069-1.364h1.793v-.572h-1.793v.572zm3.069 0h1.793v-.572h-1.793v.572zm6.402 6.325a9.024 9.024 0 00-.627-.363 3.615 3.615 0 00-.627-.253c.41-.543.715-1.199.913-1.969.205-.77.308-1.698.308-2.783v-4.356h8.283v8.47c0 .785-.473 1.177-1.419 1.177h-.836a3.982 3.982 0 00-.055-.44 9.756 9.756 0 00-.099-.495 1.875 1.875 0 00-.11-.396h.77c.154 0 .26-.022.319-.066.059-.051.088-.154.088-.308v-1.848h-2.189v3.201h-1.309v-3.201h-2.167a8.992 8.992 0 01-.407 1.98 6.726 6.726 0 01-.836 1.65zm4.719-4.774h2.189v-1.309h-2.189v1.309zm0-2.486h2.189V16.3h-2.189v1.287zm-3.41 2.486h2.101v-1.309h-2.09v1.012c0 .095-.004.194-.011.297zm.011-2.486h2.09V16.3h-2.09v1.287zm14.454 6.512a2.111 2.111 0 00-.165-.418 3.025 3.025 0 00-.286-.462 2.094 2.094 0 00-.308-.374c1.005-.154 1.767-.48 2.288-.979.528-.506.807-1.1.836-1.782.03-.543-.07-1.027-.297-1.452a2.82 2.82 0 00-.935-1.034 2.798 2.798 0 00-1.287-.473 15.435 15.435 0 01-.33 2.09 10.675 10.675 0 01-.66 2.002 5.678 5.678 0 01-1.001 1.584c-.3.323-.594.51-.88.561-.279.051-.576.011-.891-.121a2.14 2.14 0 01-.814-.627 3.04 3.04 0 01-.539-1.012 3.593 3.593 0 01-.154-1.265 4.584 4.584 0 011.595-3.267 4.815 4.815 0 011.617-.913 5.177 5.177 0 011.947-.253c.557.03 1.082.154 1.573.374a4 4 0 011.287.913c.374.381.66.825.858 1.331.205.506.29 1.06.253 1.661-.051 1.005-.403 1.848-1.056 2.53-.653.675-1.536 1.137-2.651 1.386zm-3.575-2.222c.08.059.165.088.253.088s.176-.044.264-.132c.264-.264.506-.638.726-1.122a8.62 8.62 0 00.561-1.639 10.56 10.56 0 00.297-1.859 3.44 3.44 0 00-1.353.638 3.417 3.417 0 00-.924 1.122c-.227.433-.356.91-.385 1.43-.015.345.03.645.132.902.11.25.253.44.429.572zm9.944 2.926v-5.412c-.11.161-.22.312-.33.451a6.14 6.14 0 01-.341.396 2.904 2.904 0 00-.462-.385c-.19-.14-.37-.246-.539-.319.257-.257.513-.587.77-.99.257-.41.495-.847.715-1.309.227-.462.418-.91.572-1.342a6.67 6.67 0 00.308-1.111l1.254.286a12.44 12.44 0 01-.66 2.002v6.083c.271-.154.579-.356.924-.605.345-.25.686-.52 1.023-.814.337-.293.623-.576.858-.847h-2.398v-1.166h2.838v-.891h-2.134v-3.707h5.522v3.707h-2.112v.891h2.849v1.166h-2.42c.191.205.411.422.66.649a14.415 14.415 0 001.573 1.199c.257.169.484.304.682.407a3.72 3.72 0 00-.44.484 7.594 7.594 0 00-.363.528 10.86 10.86 0 01-1.287-.924 13.614 13.614 0 01-1.254-1.166v2.739h-1.276v-2.761c-.374.418-.792.818-1.254 1.199-.455.381-.887.697-1.298.946a4.069 4.069 0 00-.319-.44 3.195 3.195 0 00-.374-.429v1.485h-1.287zm3.762-7.128h2.805v-1.397h-2.805v1.397zm9.262 7.194a2.848 2.848 0 00-.242-.55 3.823 3.823 0 00-.308-.506c.733-.169 1.364-.414 1.892-.737.528-.323.917-.722 1.166-1.199h-1.903v-3.003h2.189v-.561h-1.375v-.726a8.932 8.932 0 01-1.056.682 11.198 11.198 0 00-.605-.781c-.103.213-.202.41-.297.594l-.198.396c.293.271.55.598.77.979.22.381.33.807.33 1.276 0 .47-.073.843-.22 1.122-.139.279-.326.48-.561.605a1.663 1.663 0 01-.792.187h-.319a3.586 3.586 0 00-.132-.616 5.125 5.125 0 00-.187-.55v3.311h-1.21v-9.658h3.223l.495.429c-.059.147-.154.356-.286.627a86.57 86.57 0 01-.396.847 8.308 8.308 0 002.068-1.54c.293-.3.528-.598.704-.891l1.089.165c.169.205.381.418.638.638.264.22.546.436.847.649.308.205.616.392.924.561.315.169.609.308.88.418-.088.08-.183.19-.286.33-.103.14-.198.282-.286.429-.088.14-.154.257-.198.352a4.93 4.93 0 01-.484-.242 9.537 9.537 0 01-.572-.374v.781h-1.32v.561h2.211v3.003h-1.936c.235.271.51.528.825.77.315.242.649.455 1.001.638.352.176.697.315 1.034.418-.139.14-.286.315-.44.528-.154.22-.268.403-.341.55a6.741 6.741 0 01-1.606-.847 6.126 6.126 0 01-1.265-1.232c-.323.535-.785.975-1.386 1.32-.594.352-1.287.634-2.079.847zm-1.848-3.454h.297c.183 0 .33-.055.44-.165.11-.117.165-.36.165-.726 0-.704-.301-1.327-.902-1.87v2.761zm3.762-4.202h2.926c-.315-.235-.62-.473-.913-.715a6.206 6.206 0 01-.66-.649c-.139.205-.33.429-.572.671-.242.235-.502.466-.781.693zm-3.762 1.177c.066-.132.143-.3.231-.506.088-.205.176-.414.264-.627.095-.22.18-.422.253-.605.073-.19.125-.334.154-.429h-.902v2.167zm5.83 2.431h1.001v-.891h-1.001v.891zm-2.167 0h.979v-.891h-.979v.891z" fill="#fff"/></svg>