<svg width="56" height="56" fill="none" xmlns="http://www.w3.org/2000/svg"><path d="M18.938 27.474c1.573-.032 2.812-1.867 2.766-4.096-.046-2.23-1.36-4.012-2.934-3.979-1.573.033-2.813 1.867-2.766 4.096.047 2.23 1.359 4.012 2.934 3.98zm21.174.283c.806-2.08.27-4.227-1.198-4.796-1.468-.57-3.312.655-4.118 2.735-.806 2.08-.27 4.226 1.198 4.795 1.468.57 3.312-.655 4.118-2.734zm-14.997-5.104c1.551.274 3.122-1.285 3.509-3.482.387-2.196-.555-4.2-2.106-4.473-1.551-.274-3.121 1.287-3.509 3.483-.387 2.197.556 4.199 2.106 4.472zm6.761 1.079c1.55.273 3.12-1.286 3.508-3.483.387-2.198-.556-4.199-2.106-4.472-1.55-.274-3.123 1.285-3.51 3.481-.388 2.197.557 4.2 2.108 4.474zm.053 2.241c-.824-1.195-2.12-1.979-3.536-2.252-1.424-.227-2.91.066-4.093.906-1.465 1.04-2.188 2.759-3.401 4.036-1.717 1.808-4.637 2.84-4.444 5.868.183 2.876 3.219 5.418 6.086 4.882.864-.16 1.69-.56 2.57-.548.403.013.803.084 1.187.21.83.288 1.47.947 2.227 1.393 2.511 1.484 6.233.133 7.388-2.506 1.218-2.78-1.174-4.748-2.168-7.034-.702-1.615-.795-3.477-1.816-4.956z" fill="#EA5404"/></svg>