<svg width="18" height="15" fill="none" xmlns="http://www.w3.org/2000/svg"><g clip-path="url(#clip0_958_34203)" fill="#EA5404"><path d="M14.209 5.592H1.779C.796 5.592 0 6.558 0 7.749s.797 2.158 1.779 2.158h12.43c.982 0 1.778-.967 1.778-2.158 0-1.191-.796-2.157-1.778-2.157z"/><path d="M9.583.49c-.45 0-.898.232-1.212.682-.565.811-.481 2.025.188 2.71l3.763 3.856-3.775 3.868c-.669.686-.754 1.899-.188 2.71.565.812 1.565.915 2.234.23l6.642-6.807-6.63-6.794A1.423 1.423 0 009.584.49z"/></g><defs><clipPath id="clip0_958_34203"><path fill="#fff" transform="matrix(1 0 0 -1 0 14.999)" d="M0 0h17.544v14.509H0z"/></clipPath></defs></svg>