<svg width="44" height="44" viewBox="0 0 44 44" fill="none" xmlns="http://www.w3.org/2000/svg">
<path fill-rule="evenodd" clip-rule="evenodd" d="M43 22C43 33.598 33.598 43 22 43C10.402 43 1 33.598 1 22C1 10.402 10.402 1 22 1C33.598 1 43 10.402 43 22ZM44 22C44 34.1503 34.1503 44 22 44C9.84974 44 0 34.1503 0 22C0 9.84974 9.84974 0 22 0C34.1503 0 44 9.84974 44 22ZM24.31 30.49V33.71H25.4V30.33C25.5533 30.5167 25.71 30.6933 25.87 30.86C26.03 31.0267 26.1833 31.1733 26.33 31.3C26.37 31.2267 26.43 31.14 26.51 31.04C26.5966 30.9333 26.6833 30.83 26.77 30.73L26.96 31.59C27.2666 31.5433 27.65 31.48 28.11 31.4C28.57 31.3133 29.04 31.2233 29.52 31.13V33.71H30.64V30.89C30.8733 30.8367 31.0866 30.79 31.28 30.75C31.4733 30.7033 31.6433 30.66 31.79 30.62L31.72 29.53C31.6066 29.57 31.4566 29.6133 31.27 29.66C31.0833 29.7 30.8733 29.7467 30.64 29.8V24.65H29.52V26.72C29.3333 26.5333 29.1066 26.3267 28.84 26.1C28.58 25.8667 28.3333 25.6767 28.1 25.53L27.37 26.29C27.6166 26.4367 27.8666 26.6267 28.12 26.86C28.3733 27.0933 28.5933 27.3067 28.78 27.5C28.8266 27.4333 28.8933 27.3533 28.98 27.26L29.26 26.98C29.36 26.88 29.4466 26.8 29.52 26.74V30.02C29.0666 30.1067 28.6133 30.19 28.16 30.27C27.7066 30.3433 27.3133 30.4 26.98 30.44C26.8266 30.3267 26.65 30.18 26.45 30C26.25 29.82 26.0533 29.6333 25.86 29.44C25.6733 29.24 25.52 29.0667 25.4 28.92V28.82H26.87V27.79H25.4V24.66H24.31V27.79H22.57V28.82H24.17C24.0166 29.12 23.83 29.43 23.61 29.75C23.39 30.0633 23.1566 30.36 22.91 30.64C22.67 30.9133 22.4366 31.1433 22.21 31.33C22.3433 31.4033 22.4866 31.51 22.64 31.65C22.7933 31.79 22.9166 31.92 23.01 32.04C23.2233 31.8467 23.44 31.6167 23.66 31.35C23.8866 31.0833 24.1033 30.7967 24.31 30.49ZM27.85 29.04C28.11 29.26 28.3333 29.4667 28.52 29.66C28.5733 29.5867 28.6433 29.5 28.73 29.4C28.8233 29.2933 28.9166 29.1933 29.01 29.1C29.1033 29 29.1833 28.9233 29.25 28.87C29.1233 28.75 28.9733 28.62 28.8 28.48C28.6333 28.3333 28.46 28.1933 28.28 28.06C28.1 27.92 27.93 27.8 27.77 27.7L27.08 28.48C27.3333 28.6267 27.59 28.8133 27.85 29.04ZM26 27.34C26.1866 27.42 26.3333 27.49 26.44 27.55C26.4933 27.4567 26.5566 27.33 26.63 27.17C26.7033 27.0033 26.7766 26.8267 26.85 26.64C26.9233 26.4467 26.99 26.2633 27.05 26.09C27.1166 25.91 27.1633 25.76 27.19 25.64L26.24 25.36C26.2066 25.5267 26.15 25.73 26.07 25.97C25.99 26.2033 25.9 26.43 25.8 26.65C25.7066 26.8633 25.6233 27.0367 25.55 27.17C25.6633 27.1967 25.8133 27.2533 26 27.34ZM23.01 26.96C23.09 27.18 23.1466 27.37 23.18 27.53C23.2733 27.4767 23.42 27.4133 23.62 27.34C23.82 27.2667 23.9866 27.2167 24.12 27.19C24.0866 27.0433 24.0266 26.8567 23.94 26.63C23.86 26.3967 23.77 26.1667 23.67 25.94C23.5766 25.7067 23.49 25.5233 23.41 25.39L22.5 25.75C22.5866 25.89 22.6733 26.07 22.76 26.29C22.8533 26.51 22.9366 26.7333 23.01 26.96ZM20.5 33.78C20.4066 33.6067 20.28 33.3933 20.12 33.14C19.9666 32.8867 19.8 32.6333 19.62 32.38C19.4466 32.1267 19.28 31.9133 19.12 31.74L19.92 31.16H12.82V30.17H13.92V28.82H12.45V27.82H13.92V26.79C13.78 26.9433 13.6433 27.0867 13.51 27.22C13.3766 27.3533 13.25 27.4667 13.13 27.56C13.0233 27.4467 12.88 27.32 12.7 27.18C12.5266 27.04 12.37 26.9367 12.23 26.87C12.41 26.73 12.5966 26.56 12.79 26.36C12.9833 26.1533 13.17 25.9367 13.35 25.71C13.5366 25.4767 13.7 25.25 13.84 25.03C13.98 24.81 14.0833 24.6167 14.15 24.45L15.28 24.8C15.2333 24.9067 15.1733 25.0233 15.1 25.15C15.0333 25.27 14.9566 25.3967 14.87 25.53H21.05V26.52H20.1V27.82H21.54V28.82H20.1V30.17H21.24V31.16H20C20.1733 31.34 20.3533 31.55 20.54 31.79C20.7333 32.03 20.9166 32.27 21.09 32.51C21.2633 32.75 21.4033 32.9633 21.51 33.15C21.35 33.2167 21.17 33.3133 20.97 33.44C20.77 33.5733 20.6133 33.6867 20.5 33.78ZM13.38 33.81C13.26 33.6967 13.1033 33.58 12.91 33.46C12.7166 33.3467 12.5433 33.2633 12.39 33.21C12.5566 33.0633 12.73 32.88 12.91 32.66C13.09 32.44 13.26 32.2067 13.42 31.96C13.5866 31.7133 13.72 31.4767 13.82 31.25L14.85 31.74C14.73 31.9867 14.5866 32.24 14.42 32.5C14.2533 32.7533 14.08 32.9933 13.9 33.22C13.72 33.4467 13.5466 33.6433 13.38 33.81ZM17.74 33.7C17.7133 33.5067 17.67 33.28 17.61 33.02C17.5566 32.7667 17.4966 32.5167 17.43 32.27C17.37 32.0167 17.3066 31.8067 17.24 31.64L18.31 31.35C18.3766 31.5033 18.4466 31.7067 18.52 31.96C18.5933 32.2067 18.66 32.46 18.72 32.72C18.7866 32.98 18.8366 33.2133 18.87 33.42C18.7233 33.44 18.5333 33.4767 18.3 33.53C18.0733 33.5833 17.8866 33.64 17.74 33.7ZM15.65 33.75C15.6366 33.5633 15.61 33.34 15.57 33.08C15.53 32.8267 15.4866 32.5767 15.44 32.33C15.3933 32.0767 15.3466 31.8667 15.3 31.7L16.38 31.48C16.44 31.6467 16.4966 31.8533 16.55 32.1C16.61 32.3467 16.66 32.6 16.7 32.86C16.7466 33.12 16.7766 33.3467 16.79 33.54C16.6966 33.5467 16.58 33.56 16.44 33.58C16.3 33.6067 16.1566 33.6333 16.01 33.66C15.87 33.6867 15.75 33.7167 15.65 33.75ZM14.98 30.17H15.62V28.82H14.98V30.17ZM18.39 30.17H19.03V28.82H18.39V30.17ZM16.69 30.17H17.32V28.82H16.69V30.17ZM14.98 27.82H15.62V26.52H14.98V27.82ZM18.39 27.82H19.03V26.52H18.39V27.82ZM16.69 27.82H17.32V26.52H16.69V27.82ZM29.31 17.49V20.71H30.4V17.33C30.5533 17.5167 30.71 17.6933 30.87 17.86C31.03 18.0267 31.1833 18.1733 31.33 18.3C31.37 18.2267 31.43 18.14 31.51 18.04C31.5966 17.9333 31.6833 17.83 31.77 17.73L31.96 18.59C32.2666 18.5433 32.65 18.48 33.11 18.4C33.57 18.3133 34.04 18.2233 34.52 18.13V20.71H35.64V17.89C35.8733 17.8367 36.0866 17.79 36.28 17.75C36.4733 17.7033 36.6433 17.66 36.79 17.62L36.72 16.53C36.6066 16.57 36.4566 16.6133 36.27 16.66C36.0833 16.7 35.8733 16.7467 35.64 16.8V11.65H34.52V13.72C34.3333 13.5333 34.1066 13.3267 33.84 13.1C33.58 12.8667 33.3333 12.6767 33.1 12.53L32.37 13.29C32.6166 13.4367 32.8666 13.6267 33.12 13.86C33.3733 14.0933 33.5933 14.3067 33.78 14.5C33.8266 14.4333 33.8933 14.3533 33.98 14.26L34.26 13.98C34.36 13.88 34.4466 13.8 34.52 13.74V17.02C34.0666 17.1067 33.6133 17.19 33.16 17.27C32.7066 17.3433 32.3133 17.4 31.98 17.44C31.8266 17.3267 31.65 17.18 31.45 17C31.25 16.82 31.0533 16.6333 30.86 16.44C30.6733 16.24 30.52 16.0667 30.4 15.92V15.82H31.87V14.79H30.4V11.66H29.31V14.79H27.57V15.82H29.17C29.0166 16.12 28.83 16.43 28.61 16.75C28.39 17.0633 28.1566 17.36 27.91 17.64C27.67 17.9133 27.4366 18.1433 27.21 18.33C27.3433 18.4033 27.4866 18.51 27.64 18.65C27.7933 18.79 27.9166 18.92 28.01 19.04C28.2233 18.8467 28.44 18.6167 28.66 18.35C28.8866 18.0833 29.1033 17.7967 29.31 17.49ZM32.85 16.04C33.11 16.26 33.3333 16.4667 33.52 16.66C33.5733 16.5867 33.6433 16.5 33.73 16.4C33.8233 16.2933 33.9166 16.1933 34.01 16.1C34.1033 16 34.1833 15.9233 34.25 15.87C34.1233 15.75 33.9733 15.62 33.8 15.48C33.6333 15.3333 33.46 15.1933 33.28 15.06C33.1 14.92 32.93 14.8 32.77 14.7L32.08 15.48C32.3333 15.6267 32.59 15.8133 32.85 16.04ZM31 14.34C31.1866 14.42 31.3333 14.49 31.44 14.55C31.4933 14.4567 31.5566 14.33 31.63 14.17C31.7033 14.0033 31.7766 13.8267 31.85 13.64C31.9233 13.4467 31.99 13.2633 32.05 13.09C32.1166 12.91 32.1633 12.76 32.19 12.64L31.24 12.36C31.2066 12.5267 31.15 12.73 31.07 12.97C30.99 13.2033 30.9 13.43 30.8 13.65C30.7066 13.8633 30.6233 14.0367 30.55 14.17C30.6633 14.1967 30.8133 14.2533 31 14.34ZM28.01 13.96C28.09 14.18 28.1466 14.37 28.18 14.53C28.2733 14.4767 28.42 14.4133 28.62 14.34C28.82 14.2667 28.9866 14.2167 29.12 14.19C29.0866 14.0433 29.0266 13.8567 28.94 13.63C28.86 13.3967 28.77 13.1667 28.67 12.94C28.5766 12.7067 28.49 12.5233 28.41 12.39L27.5 12.75C27.5866 12.89 27.6733 13.07 27.76 13.29C27.8533 13.51 27.9366 13.7333 28.01 13.96ZM21.8702 20.49V16.94H23.3602V15.53H21.3002V14.5H23.3602V13.22C23.0668 13.2533 22.7768 13.2867 22.4902 13.32C22.2102 13.3467 21.9468 13.3667 21.7002 13.38C21.6868 13.2533 21.6402 13.0867 21.5602 12.88C21.4868 12.6733 21.4135 12.5033 21.3402 12.37C21.6802 12.37 22.0502 12.3533 22.4502 12.32C22.8568 12.28 23.2635 12.23 23.6702 12.17C24.0768 12.11 24.4602 12.04 24.8202 11.96C25.1802 11.8733 25.4835 11.78 25.7302 11.68L26.4502 12.58C26.1902 12.6667 25.8935 12.75 25.5602 12.83C25.2335 12.9033 24.8935 12.9733 24.5402 13.04V14.5H26.6902V15.53H24.5402V16.94H26.0902V20.49H21.8702ZM17.8302 20.51V17.63H21.0702V20.51H17.8302ZM17.4102 14.3V13.39H21.3202V14.3H17.4102ZM23.0502 19.47H24.9102V17.96H23.0502V19.47ZM17.9002 12.9V11.96H20.8802V12.9H17.9002ZM17.8902 17.12V16.2H20.8802V17.12H17.8902ZM17.8902 15.71V14.79H20.8802V15.71H17.8902ZM18.9002 19.59H20.0002V18.55H18.9002V19.59ZM14.1798 18.64C14.2131 18.84 14.2365 19.0133 14.2498 19.16H14.7998C15.1931 19.16 15.4865 19.0867 15.6798 18.94C15.8731 18.7867 15.9698 18.54 15.9698 18.2V13.98H14.0698L13.9298 13.88C13.8898 13.8467 13.8465 13.8133 13.7998 13.78C13.9998 13.62 14.2131 13.45 14.4398 13.27C14.6731 13.09 14.8965 12.9133 15.1098 12.74C15.3231 12.5667 15.5031 12.4133 15.6498 12.28L15.2498 11.82H10.4198V12.69H11.9198L11.4298 13.29C11.5831 13.3633 11.7531 13.4633 11.9398 13.59C12.1331 13.71 12.3265 13.84 12.5198 13.98H10.4698V19.14H11.5598V17.52H12.6598V18.99H13.7498V17.52H14.8698V17.86C14.8698 17.9867 14.8431 18.07 14.7898 18.11C14.7431 18.15 14.6565 18.17 14.5298 18.17H14.0698C14.1098 18.2833 14.1465 18.44 14.1798 18.64ZM11.1998 20.49C11.6798 20.5633 12.2731 20.6 12.9798 20.6H13.7598C14.0665 20.6 14.3865 20.5967 14.7198 20.59C15.0598 20.59 15.3798 20.5867 15.6798 20.58H16.4098C16.4165 20.48 16.4331 20.35 16.4598 20.19C16.4865 20.0367 16.5198 19.8867 16.5598 19.74C16.5998 19.5867 16.6365 19.4733 16.6698 19.4C16.2898 19.4533 15.7931 19.4933 15.1798 19.52C14.5665 19.5467 13.8331 19.56 12.9798 19.56C11.9731 19.56 11.2031 19.4967 10.6698 19.37C10.1431 19.2367 9.81979 19.0067 9.69979 18.68V15.26H7.49978V16.3H8.60979V18.83C8.50979 18.8967 8.37645 18.9733 8.20979 19.06C8.04312 19.14 7.87312 19.2167 7.69979 19.29C7.53312 19.3633 7.39312 19.42 7.27979 19.46L7.73979 20.59C7.87979 20.51 8.03979 20.4133 8.21979 20.3C8.40645 20.1867 8.58645 20.0733 8.75979 19.96C8.93979 19.84 9.09312 19.7333 9.21979 19.64C9.43312 19.8533 9.69645 20.03 10.0098 20.17C10.3231 20.3167 10.7198 20.4233 11.1998 20.49ZM8.77979 13.59C8.96645 13.7967 9.11645 13.9833 9.22978 14.15C9.28979 14.0833 9.37312 13.9967 9.47978 13.89C9.58645 13.7833 9.69645 13.68 9.80979 13.58C9.92312 13.48 10.0131 13.4067 10.0798 13.36C9.96645 13.2133 9.80978 13.0367 9.60979 12.83C9.40979 12.6167 9.19979 12.4133 8.97978 12.22C8.76645 12.0267 8.57645 11.8767 8.40979 11.77L7.61979 12.51C7.79312 12.63 7.98312 12.79 8.18979 12.99C8.39645 13.1833 8.59312 13.3833 8.77979 13.59ZM14.8698 16.71H13.7498V16.18H14.8698V16.71ZM14.8698 15.37H13.7498V14.84H14.8698V15.37ZM12.6598 16.71H11.5598V16.18H12.6598V16.71ZM12.6598 15.37H11.5598V14.84H12.6598V15.37ZM13.4598 12.95L13.0598 13.27C12.8931 13.1567 12.7265 13.05 12.5598 12.95C12.3998 12.85 12.2531 12.7633 12.1198 12.69H13.7898C13.7031 12.7567 13.5931 12.8433 13.4598 12.95Z" fill="#EA5404"/>
</svg>
