<svg width="32" height="29" viewBox="0 0 32 29" fill="none" xmlns="http://www.w3.org/2000/svg">
<path d="M31.5684 24.1241L18.7981 2.3032C18.2227 1.32017 17.1505 0.709473 15.9997 0.709473C14.849 0.709473 13.7777 1.32017 13.2028 2.3032L0.431531 24.1231C-0.143844 25.1062 -0.143844 26.3271 0.431531 27.3101C1.00691 28.2931 2.07866 28.9034 3.22891 28.9034H28.771C29.9214 28.9034 30.994 28.2932 31.5685 27.3101C32.1439 26.3271 32.1439 25.1062 31.5684 24.1241ZM16.0002 25.3148C14.896 25.3148 13.9994 24.4313 13.9994 23.3416C13.9994 22.2522 14.896 21.3688 16.0002 21.3688C17.1044 21.3688 18 22.2522 18 23.3416C18 24.4313 17.1044 25.3148 16.0002 25.3148ZM17.2325 18.9997C17.2325 19.6711 16.6803 20.2148 16.0002 20.2148C15.3191 20.2148 14.7679 19.6712 14.7679 18.9997L13.9994 10.0767C13.9994 8.98684 14.896 8.10338 16.0002 8.10338C17.1044 8.10338 18 8.9869 18 10.0767L17.2325 18.9997Z" fill="#EA5404"/>
</svg>
