<svg width="17" height="18" viewBox="0 0 17 18" fill="none" xmlns="http://www.w3.org/2000/svg">
<path fill-rule="evenodd" clip-rule="evenodd" d="M8.35896 2.93947C8.10586 4.37483 7.07949 5.39357 6.06596 5.21486C5.05307 5.03626 4.43702 3.72791 4.69011 2.29256C4.9432 0.857203 5.96905 -0.162291 6.98258 0.016422C7.99611 0.195135 8.61205 1.50412 8.35896 2.93947ZM2.03131 8.36141C3.05956 8.34045 3.86919 7.14138 3.8392 5.68454C3.80921 4.22769 2.95037 3.06294 1.92201 3.08454C0.893651 3.10614 0.083488 4.30445 0.114122 5.76141C0.144756 7.21837 1.00231 8.3829 2.03131 8.36141ZM15.8682 8.5378C16.3951 7.17887 16.0444 5.77574 15.085 5.40382C14.1257 5.0319 12.9209 5.83203 12.3941 7.19096C11.8673 8.54989 12.2179 9.95302 13.1773 10.3249C14.1366 10.6969 15.3414 9.89673 15.8682 8.5378ZM10.4858 5.90979C11.4987 6.08839 12.5251 5.06965 12.7783 3.63365C13.0315 2.19765 12.4153 0.889952 11.4024 0.711352C10.3895 0.532752 9.36124 1.55115 9.10815 2.98651C8.85506 4.42186 9.47227 5.73107 10.4858 5.90979ZM8.21453 5.90772C9.13945 6.08667 9.98707 6.59902 10.525 7.37933C10.9282 7.96338 11.11 8.63879 11.292 9.31473C11.4111 9.75718 11.5303 10.1999 11.7117 10.6173C11.8933 11.0347 12.1461 11.4358 12.3988 11.8368C13.0507 12.8714 13.7021 13.905 13.1288 15.2139C12.3738 16.9388 9.94168 17.8214 8.30083 16.8519C8.11868 16.7443 7.94683 16.618 7.7753 16.4919C7.48116 16.2757 7.18794 16.0602 6.84532 15.9409C6.59454 15.8588 6.33336 15.8127 6.06962 15.8041C5.70687 15.799 5.35762 15.9013 5.00726 16.0038C4.80295 16.0637 4.59826 16.1236 4.3903 16.1624C2.51681 16.5122 0.533235 14.851 0.413775 12.9719C0.32273 11.5458 1.28832 10.7973 2.25476 10.0482C2.62938 9.75776 3.00413 9.46726 3.31752 9.13716C3.63192 8.80628 3.8959 8.43014 4.15969 8.05427C4.56121 7.48216 4.96228 6.91068 5.54006 6.50035C6.31245 5.95108 7.28419 5.75954 8.21453 5.90772Z" fill="#EA5404"/>
</svg>
