<svg width="21" height="23" viewBox="0 0 21 23" fill="none" xmlns="http://www.w3.org/2000/svg">
<g clip-path="url(#clip0_1723_631)">
<path d="M10.4631 10.7856C13.6493 10.7856 16.2323 8.40613 16.2323 5.47092C16.2323 2.53571 13.6493 0.15625 10.4631 0.15625C7.27682 0.15625 4.69385 2.53571 4.69385 5.47092C4.69385 8.40613 7.27682 10.7856 10.4631 10.7856Z" fill="white"/>
<path d="M10.4688 11.4298C4.95337 11.4298 0.46875 15.5611 0.46875 20.6419V22.1867C0.46875 22.5764 0.814904 22.8953 1.23798 22.8953H19.6995C20.1226 22.8953 20.4688 22.5764 20.4688 22.1867V20.6419C20.4688 15.5611 15.9841 11.4298 10.4688 11.4298Z" fill="white"/>
</g>
<defs>
<clipPath id="clip0_1723_631">
<rect width="20" height="22.7397" fill="white" transform="translate(0.46875 0.15625)"/>
</clipPath>
</defs>
</svg>
