<svg width="56" height="56" viewBox="0 0 56 56" fill="none" xmlns="http://www.w3.org/2000/svg">
<path d="M0 0H56V56H0V0Z" fill="#EA5404"/>
<rect x="19.6484" y="9.88281" width="26.6861" height="2.02902" transform="rotate(45 19.6484 9.88281)" fill="white"/>
<rect x="18" y="28.8203" width="26.6861" height="2.02902" transform="rotate(-45 18 28.8203)" fill="white"/>
<path d="M40.0361 47.6184C39.0761 47.6184 38.3681 47.4384 37.9121 47.0784C37.4561 46.7104 37.2281 46.2624 37.2281 45.7344C37.2281 45.3904 37.3121 45.0984 37.4801 44.8584C37.6481 44.6184 37.8681 44.4344 38.1401 44.3064C38.4121 44.1704 38.7041 44.1024 39.0161 44.1024C39.6081 44.1024 40.0841 44.2864 40.4441 44.6544C40.8121 45.0224 41.0481 45.4784 41.1521 46.0224C41.4481 45.8864 41.6881 45.6784 41.8721 45.3984C42.0641 45.1184 42.1601 44.7824 42.1601 44.3904C42.1601 44.0544 42.0801 43.7544 41.9201 43.4904C41.7601 43.2264 41.5321 43.0184 41.2361 42.8664C40.9481 42.7064 40.6121 42.6264 40.2281 42.6264C39.6921 42.6264 39.2241 42.6904 38.8241 42.8184C38.4321 42.9464 38.0761 43.1504 37.7561 43.4304C37.6121 43.5584 37.4201 43.7224 37.1801 43.9224C36.9481 44.1224 36.7281 44.3024 36.5201 44.4624L35.5361 43.4064C35.8961 43.1984 36.2801 42.9344 36.6881 42.6144C37.0961 42.2944 37.5081 41.9384 37.9241 41.5464C38.3401 41.1544 38.7361 40.7504 39.1121 40.3344C39.4881 39.9104 39.8241 39.4944 40.1201 39.0864C39.7761 39.1664 39.4001 39.2424 38.9921 39.3144C38.5921 39.3864 38.2041 39.4464 37.8281 39.4944C37.4601 39.5424 37.1481 39.5744 36.8921 39.5904L36.6281 38.2224C36.8441 38.2384 37.1121 38.2384 37.4321 38.2224C37.7601 38.1984 38.1121 38.1704 38.4881 38.1384C38.8641 38.0984 39.2281 38.0504 39.5801 37.9944C39.9401 37.9384 40.2601 37.8824 40.5401 37.8264C40.8281 37.7624 41.0401 37.6984 41.1761 37.6344L42.2561 38.3544C41.9841 38.8904 41.6081 39.4544 41.1281 40.0464C40.6561 40.6304 40.1481 41.1944 39.6041 41.7384C39.7401 41.6744 39.8921 41.6264 40.0601 41.5944C40.2281 41.5544 40.3921 41.5344 40.5521 41.5344C41.1841 41.5344 41.7321 41.6544 42.1961 41.8944C42.6601 42.1344 43.0201 42.4704 43.2761 42.9024C43.5401 43.3264 43.6721 43.8224 43.6721 44.3904C43.6721 44.9904 43.5201 45.5344 43.2161 46.0224C42.9201 46.5104 42.5001 46.8984 41.9561 47.1864C41.4121 47.4744 40.7721 47.6184 40.0361 47.6184ZM39.8801 46.2984C39.8401 45.9944 39.7441 45.7504 39.5921 45.5664C39.4481 45.3824 39.2561 45.2904 39.0161 45.2904C38.8881 45.2904 38.7801 45.3224 38.6921 45.3864C38.6041 45.4504 38.5601 45.5464 38.5601 45.6744C38.5601 45.8424 38.6481 45.9824 38.8241 46.0944C39.0081 46.2064 39.3121 46.2704 39.7361 46.2864C39.7601 46.2944 39.7841 46.2984 39.8081 46.2984C39.8321 46.2984 39.8561 46.2984 39.8801 46.2984Z" fill="white"/>
<path d="M28.552 47.6064C27.912 47.6064 27.392 47.5424 26.992 47.4144C26.6 47.2864 26.312 47.0704 26.128 46.7664C25.952 46.4624 25.864 46.0504 25.864 45.5304V37.5984L27.436 37.6944C27.42 37.8304 27.404 38.0584 27.388 38.3784C27.372 38.6984 27.36 39.0424 27.352 39.4104C27.344 39.7064 27.336 40.0304 27.328 40.3824C27.328 40.7344 27.328 41.1224 27.328 41.5464V45.2424C27.328 45.5944 27.424 45.8344 27.616 45.9624C27.816 46.0904 28.16 46.1544 28.648 46.1544C29.432 46.1544 30.172 46.0064 30.868 45.7104C31.572 45.4144 32.18 45.0464 32.692 44.6064C32.7 44.7584 32.716 44.9424 32.74 45.1584C32.772 45.3664 32.804 45.5664 32.836 45.7584C32.876 45.9424 32.908 46.0864 32.932 46.1904C32.356 46.6064 31.684 46.9464 30.916 47.2104C30.156 47.4744 29.368 47.6064 28.552 47.6064ZM31.156 40.5384C30.996 40.2904 30.784 40.0304 30.52 39.7584C30.264 39.4864 30.032 39.2664 29.824 39.0984L30.46 38.5464C30.58 38.6424 30.728 38.7784 30.904 38.9544C31.088 39.1304 31.264 39.3144 31.432 39.5064C31.6 39.6904 31.732 39.8464 31.828 39.9744L31.156 40.5384ZM32.212 39.5904C32.044 39.3504 31.828 39.0944 31.564 38.8224C31.308 38.5504 31.076 38.3344 30.868 38.1744L31.492 37.6224C31.62 37.7104 31.772 37.8424 31.948 38.0184C32.124 38.1944 32.296 38.3744 32.464 38.5584C32.64 38.7424 32.776 38.8984 32.872 39.0264L32.212 39.5904Z" fill="white"/>
<path d="M20.944 48.0984C20.936 47.9624 20.912 47.8064 20.872 47.6304C20.84 47.4624 20.804 47.2984 20.764 47.1384C20.724 46.9704 20.68 46.8384 20.632 46.7424H21.448C21.608 46.7424 21.72 46.7144 21.784 46.6584C21.856 46.6024 21.892 46.5024 21.892 46.3584V41.4744H18.532V37.4784H23.248V46.8744C23.248 47.2904 23.136 47.5984 22.912 47.7984C22.696 47.9984 22.34 48.0984 21.844 48.0984H20.944ZM13 48.1104V37.4784H17.692V41.4744H14.356V48.1104H13ZM17.308 47.9304C17.3 47.8104 17.28 47.6664 17.248 47.4984C17.216 47.3304 17.18 47.1664 17.14 47.0064C17.1 46.8384 17.056 46.7064 17.008 46.6104H17.68C17.84 46.6104 17.952 46.5864 18.016 46.5384C18.088 46.4904 18.124 46.3904 18.124 46.2384V44.8704C17.748 45.3184 17.308 45.7624 16.804 46.2024C16.308 46.6424 15.816 47.0024 15.328 47.2824C15.272 47.1944 15.184 47.0904 15.064 46.9704C14.952 46.8424 14.832 46.7184 14.704 46.5984C14.584 46.4784 14.476 46.3904 14.38 46.3344C14.668 46.1824 14.98 45.9824 15.316 45.7344C15.66 45.4864 15.996 45.2144 16.324 44.9184C16.66 44.6224 16.956 44.3344 17.212 44.0544H14.896V42.8664H18.124V41.7624H19.456V42.8664H21.4V44.0544H19.456V46.7544C19.456 47.1704 19.336 47.4704 19.096 47.6544C18.864 47.8384 18.512 47.9304 18.04 47.9304H17.308ZM19.84 40.4544H21.892V39.9264H19.84V40.4544ZM14.356 40.4544H16.384V39.9264H14.356V40.4544ZM19.84 39.0144H21.892V38.4984H19.84V39.0144ZM14.356 39.0144H16.384V38.4984H14.356V39.0144Z" fill="white"/>
</svg>
