<svg width="32" height="32" viewBox="0 0 32 32" fill="none" xmlns="http://www.w3.org/2000/svg">
<path d="M23.8684 14.7165C21.1698 14.7165 18.9538 16.8153 18.7548 19.4694H18.0241C17.9883 18.963 17.732 18.5174 17.3506 18.2283L19.9313 11.6633H21.1483C21.6013 11.6633 21.9696 11.2942 21.9696 10.8403V9.92773C21.9696 9.6948 21.8706 9.47143 21.6978 9.31615C21.525 9.15967 21.2937 9.08441 21.0625 9.1095L17.5234 9.48099C17.1038 9.52518 16.788 9.87637 16.788 10.2992V10.8415C16.788 11.2954 17.1563 11.6645 17.6092 11.6645H19.0981L16.7462 17.6466L10.2129 11.7123L11.5062 7.77643H13.1381C13.3514 7.77643 13.5255 7.60203 13.5255 7.38821C13.5255 7.1744 13.3514 7 13.1381 7H11.2261C11.0592 7 10.9102 7.10751 10.8578 7.26637L10.5371 8.24229H3.91554C3.80469 8.24229 3.69979 8.29007 3.62708 8.37249C3.55318 8.45491 3.51861 8.5648 3.53172 8.6747L4.12414 13.878C4.14679 14.0739 4.31248 14.222 4.50916 14.222H8.57388L8.36171 14.867C7.96715 14.7691 7.55472 14.7165 7.13037 14.7165C4.30175 14.7165 2 17.0231 2 19.8577C2 22.6922 4.30175 24.9988 7.13037 24.9988C9.95899 24.9988 12.2607 22.6922 12.2607 19.8577C12.2607 17.7207 10.9531 15.8859 9.09836 15.1107L9.42735 14.1109L14.7437 18.951C14.6638 19.1493 14.6185 19.3643 14.6185 19.5913C14.6185 20.2399 14.9809 20.8049 15.5137 21.0952L15.0119 22.1857H13.8652C13.6518 22.1857 13.4778 22.3601 13.4778 22.574C13.4778 22.7878 13.6518 22.9622 13.8652 22.9622H16.5782C16.7915 22.9622 16.9656 22.7878 16.9656 22.574C16.9656 22.3601 16.7915 22.1857 16.5782 22.1857H15.8642L16.2718 21.2994C16.2897 21.2994 16.3064 21.3018 16.3243 21.3018C17.0335 21.3018 17.6426 20.8658 17.9001 20.2471H18.7559C18.955 22.9013 21.1721 25 23.8696 25C26.5671 25 29 22.6934 29 19.8588C29 17.0243 26.6982 14.7177 23.8696 14.7177L23.8684 14.7165ZM17.5628 10.8403V10.298C17.5628 10.2741 17.5806 10.2538 17.6045 10.2514L21.1435 9.87995H21.1483C21.1602 9.87995 21.1697 9.88354 21.1793 9.8919C21.19 9.90145 21.1948 9.9134 21.1948 9.92654V10.8391C21.1948 10.8654 21.1733 10.8857 21.1483 10.8857H17.6092C17.583 10.8857 17.5628 10.8642 17.5628 10.8391V10.8403ZM11.4859 19.8577C11.4859 22.2646 9.53225 24.2224 7.13037 24.2224C4.72849 24.2224 2.7748 22.2646 2.7748 19.8577C2.7748 17.4507 4.72849 15.4929 7.13037 15.4929C7.47009 15.4929 7.80027 15.5335 8.11854 15.6076L6.76204 19.7358C6.69529 19.9389 6.80615 20.1587 7.00879 20.2256C7.04931 20.2387 7.08984 20.2447 7.13037 20.2447C7.29367 20.2447 7.44506 20.1408 7.4987 19.9783L8.85519 15.8501C10.4012 16.5202 11.4859 18.0635 11.4859 19.8577ZM15.1943 18.3132L9.69079 13.3034L9.94826 12.5186L15.9095 17.9345C15.6401 18.0026 15.3957 18.134 15.1931 18.3132H15.1943ZM6.50576 11.5511V10.6492H7.83127V11.5511H6.50576ZM7.83127 12.3275V13.4467H6.50576V12.3275H7.83127ZM4.53538 10.6492H5.73096V11.5511H4.6379L4.53538 10.6492ZM6.50576 9.87278V9.01871H7.83127V9.87278H6.50576ZM8.60607 10.6492H9.74681L9.45119 11.5511H8.60607V10.6492ZM10.0019 9.87278H8.60607V9.01871H10.2832L10.0031 9.87278H10.0019ZM5.73096 9.01871V9.87278H4.44718L4.34943 9.01871H5.73096ZM4.7261 12.3275H5.73096V13.4467H4.85365L4.7261 12.3275ZM8.60487 13.4467V12.3275H9.19491L8.82778 13.4467H8.60487ZM16.3231 20.5254C15.8093 20.5254 15.3921 20.1061 15.3921 19.5913C15.3921 19.0764 15.8105 18.6572 16.3231 18.6572C16.8356 18.6572 17.2552 19.0764 17.2552 19.5913C17.2552 20.1061 16.8368 20.5254 16.3231 20.5254ZM23.8684 24.2236C21.5977 24.2236 19.7286 22.4724 19.5308 20.2471H23.8541C24.0675 20.2471 24.2415 20.0739 24.2415 19.8588C24.2415 19.6438 24.0687 19.4706 23.8541 19.4706H19.5308C19.7274 17.2453 21.5965 15.4941 23.8684 15.4941C26.2703 15.4941 28.224 17.4519 28.224 19.8588C28.224 22.2658 26.2703 24.2236 23.8684 24.2236Z" fill="#EA5404"/>
</svg>
